<?xml version="1.0" encoding="utf-8"?>
<!-- Generator: Adobe Illustrator 24.1.0, SVG Export Plug-In . SVG Version: 6.00 Build 0)  -->
<svg version="1.1" xmlns="http://www.w3.org/2000/svg" xmlns:xlink="http://www.w3.org/1999/xlink" x="0px" y="0px"
	 viewBox="0 0 18.1 18.4" style="enable-background:new 0 0 18.1 18.4;" xml:space="preserve">
<style type="text/css">
	.st0{display:none;}
	.st1{display:inline;}
	.st2{fill:#233738;}
	.st3{fill:#E6E6E6;}
	.st4{fill:#B4B4B4;}
	.st5{fill:#FFFFFF;}
	.st6{fill:#CBCBCB;}
	.st7{fill:#696969;}
	.st8{fill:#FF5141;}
	.st9{fill:#F1BB3F;}
	.st10{fill:#70CB43;}
	.st11{fill:#F1F1F1;}
	.st12{fill:#DBDBDB;}
	.st13{fill:#02A916;}
	.st14{fill:none;}
	.st15{fill:#26C485;}
	.st16{font-family:'Roboto-Bold';}
	.st17{font-size:13px;}
	.st18{fill:none;stroke:#26C485;stroke-width:0.75;stroke-miterlimit:10;}
</style>
<g id="Background_xA0_Bild_1_" class="st0">
	
		<image style="display:inline;overflow:visible;" width="3000" height="1800" id="Background_xA0_Bild" xlink:href="5569E3950C11873.jpg"  transform="matrix(0.24 0 0 0.24 -101.5261 -83.9726)">
	</image>
</g>
<g id="Browser_04_1_" class="st0">
	<g id="Body" class="st1">
		<g>
			<path class="st2" d="M520.4,149.3H284.7c-1,0-1.7,0.8-1.7,1.7v179.9h239.2V151C522.1,150.1,521.4,149.3,520.4,149.3z"/>
		</g>
	</g>
	<g id="Tabs_7_" class="st1">
		<g id="Right">
			<g>
				<path class="st3" d="M421.2,156.7c-0.5-0.8-1.6-1.4-2.5-1.4h-58.2c-0.9,0-2,0.6-2.3,1.4l-5.7,11.9h75.8L421.2,156.7z"/>
			</g>
		</g>
		<g id="Close">
			<g>
				<path class="st4" d="M416.7,158.3c-0.6,0-1.1,0.5-1.1,1.1s0.5,1.1,1.1,1.1s1.1-0.5,1.1-1.1S417.3,158.3,416.7,158.3z
					 M417.3,159.8L417,160l-0.2-0.3l-0.3,0.3l-0.3-0.2l0.3-0.4l-0.3-0.4l0,0l0-0.1l0.1,0.1l0.3-0.2l0.2,0.3l0.2-0.3l0.3,0.2
					l-0.3,0.4L417.3,159.8z"/>
			</g>
		</g>
		<g id="Left">
			<g>
				<path class="st5" d="M352.2,156.7c-0.5-0.8-1.6-1.4-2.5-1.4h-58.2c-0.9,0-2,0.6-2.3,1.4l-5.7,11.9h75.8L352.2,156.7z"/>
			</g>
		</g>
		<g id="Close_1_">
			<g>
				<path class="st6" d="M348.3,158.3c-0.6,0-1.1,0.5-1.1,1.1s0.5,1.1,1.1,1.1c0.6,0,1.1-0.5,1.1-1.1S348.9,158.3,348.3,158.3z
					 M348.9,159.8l-0.3,0.2l-0.2-0.3l-0.3,0.3l-0.3-0.2l0.3-0.4l-0.3-0.4l0,0l0-0.1l0.1,0.1l0.3-0.2l0.2,0.3l0.2-0.3l0.3,0.2
					l-0.3,0.4L348.9,159.8z"/>
			</g>
		</g>
	</g>
	<g id="Navigation_7_" class="st1">
		<g id="Background_1_">
			<g>
				<rect x="283" y="166.9" class="st5" width="239.2" height="16.3"/>
			</g>
		</g>
		<g id="Left_1_">
			<g>
				<path class="st6" d="M295.5,174.7h-5.1l1.5-1.6c0.1-0.1,0.1-0.4,0-0.5c-0.1-0.1-0.4-0.1-0.5,0l-1.9,1.9
					c-0.1,0.1-0.2,0.3-0.2,0.5v0.1c0,0.2,0.1,0.4,0.2,0.5l1.9,1.9c0.1,0.1,0.4,0.1,0.5,0c0.1-0.1,0.1-0.4,0-0.5l-1.5-1.6h5.1
					c0.2,0,0.4-0.2,0.4-0.4v0C295.8,174.9,295.7,174.7,295.5,174.7z"/>
			</g>
		</g>
		<g id="Right_1_">
			<g>
				<path class="st6" d="M309.8,174.5l-1.9-1.9c-0.1-0.1-0.4-0.1-0.5,0c-0.1,0.1-0.1,0.4,0,0.5l1.5,1.6h-5.1c-0.2,0-0.4,0.2-0.4,0.4
					v0c0,0.2,0.2,0.4,0.4,0.4h5.1l-1.5,1.6c-0.1,0.1-0.1,0.4,0,0.5c0.1,0.1,0.4,0.1,0.5,0l1.9-1.9c0.1-0.1,0.2-0.3,0.2-0.5V175
					C310,174.8,310,174.7,309.8,174.5z"/>
			</g>
		</g>
		<g id="Refresh">
			<g>
				<path class="st6" d="M323.9,175.4c0-0.1-0.1-0.2-0.2-0.2c0-0.1-0.1-0.2-0.2-0.2c-0.1,0-0.2,0.1-0.2,0.2c0,1.2-1,2.1-2.1,2.1
					c-0.5,0-1-0.2-1.4-0.6c-0.3-0.4-0.6-0.9-0.6-1.4c0-0.5,0.2-1,0.5-1.4c0.3-0.3,0.8-0.5,1.2-0.6v0.5c0,0.1,0,0.1,0.1,0.2
					c0,0,0.1,0,0.1,0c0,0,0.1,0,0.1,0l1.2-0.7c0,0,0.1-0.1,0.1-0.1l0.1,0c0.1,0,0.1-0.1,0.1-0.2c0-0.1,0-0.1-0.1-0.2l-0.1,0
					c0,0,0-0.1-0.1-0.1l-1.2-0.7c-0.1,0-0.1,0-0.2,0c-0.1,0-0.1,0.1-0.1,0.2v0.5c-1.3,0.1-2.3,1.2-2.3,2.5c0,0,0,0.1,0,0.1
					c0,0,0,0.1,0,0.1c0,1.4,1.1,2.5,2.5,2.5c0.7,0,1.4-0.3,1.9-0.8C323.5,176.8,323.9,176.2,323.9,175.4z"/>
			</g>
		</g>
		<g id="Settings">
			<g>
				<path class="st6" d="M516.7,172.6H511c-0.2,0-0.4,0.2-0.4,0.4v0.1c0,0.2,0.2,0.4,0.4,0.4h5.8c0.2,0,0.4-0.2,0.4-0.4V173
					C517.1,172.8,516.9,172.6,516.7,172.6z M516.7,174.5H511c-0.2,0-0.4,0.2-0.4,0.4v0.1c0,0.2,0.2,0.4,0.4,0.4h5.8
					c0.2,0,0.4-0.2,0.4-0.4v-0.1C517.1,174.7,516.9,174.5,516.7,174.5z M516.7,176.4H511c-0.2,0-0.4,0.2-0.4,0.4v0.1
					c0,0.2,0.2,0.4,0.4,0.4h5.8c0.2,0,0.4-0.2,0.4-0.4v-0.1C517.1,176.5,516.9,176.4,516.7,176.4z"/>
			</g>
		</g>
		<g id="Adress">
			<g>
				<path class="st3" d="M504.1,171.2H333.6c-0.4,0-0.7,0.3-0.7,0.7v6c0,0.4,0.3,0.7,0.7,0.7h170.5c0.4,0,0.7-0.3,0.7-0.7v-6
					C504.9,171.5,504.5,171.2,504.1,171.2z"/>
			</g>
		</g>
		<g id="http_3_">
			<g id="http:_x2F__x2F_www.yourwebsite.com_1_">
				<text transform="matrix(1 0 0 1 341.1302 175.9473)"><tspan x="0" y="0" style="fill:#ACACAC; font-family:'OpenSans'; font-size:3.6px;">http://www.</tspan><tspan x="18.3" y="0" class="st7" style="font-family:'OpenSans'; font-size:3.6px;">yourwebsite</tspan><tspan x="36.9" y="0" style="fill:#ACACAC; font-family:'OpenSans'; font-size:3.6px;">.com</tspan></text>
			</g>
			<g id="Icon">
				<g>
					<path class="st7" d="M338.7,173.7l-1.4-1.4c0,0-0.1,0-0.1,0h-2c-0.1,0-0.2,0.1-0.2,0.2v4.5c0,0.1,0.1,0.2,0.2,0.2h3.2
						c0.1,0,0.2-0.1,0.2-0.2L338.7,173.7C338.7,173.7,338.7,173.7,338.7,173.7z M337.4,172.7l0.9,0.9h-0.9V172.7z M338.5,177h-3.2
						v-4.5h1.9v1.2c0,0.1,0.1,0.1,0.1,0.1h1.2V177z"/>
				</g>
			</g>
		</g>
	</g>
	<g id="Caption_buttons_7_" class="st1">
		<g id="Ellipse">
			<g>
				<path class="st8" d="M513.9,155.9c-1.5,0-2.7,1.2-2.7,2.7c0,1.5,1.2,2.7,2.7,2.7s2.7-1.2,2.7-2.7
					C516.6,157.1,515.4,155.9,513.9,155.9z"/>
			</g>
		</g>
		<g id="Ellipse_2">
			<g>
				<path class="st9" d="M503.8,155.9c-1.5,0-2.7,1.2-2.7,2.7c0,1.5,1.2,2.7,2.7,2.7s2.7-1.2,2.7-2.7
					C506.6,157.1,505.3,155.9,503.8,155.9z"/>
			</g>
		</g>
		<g id="Ellipse_3">
			<g>
				<path class="st10" d="M493.7,155.9c-1.5,0-2.7,1.2-2.7,2.7c0,1.5,1.2,2.7,2.7,2.7c1.5,0,2.7-1.2,2.7-2.7
					C496.5,157.1,495.2,155.9,493.7,155.9z"/>
			</g>
		</g>
	</g>
	<g id="web_copy_xA0_Bild_1_" class="st1">
		
			<image style="overflow:visible;" width="997" height="616" id="web_copy_xA0_Bild" xlink:href="5569E3950C11879.png"  transform="matrix(0.24 0 0 0.24 282.9539 183.1474)">
		</image>
	</g>
</g>
<g id="Browser_03_1_" class="st0">
	<g id="Body_1_" class="st1">
		<g>
			<path class="st11" d="M232.4,149.3H-3.3c-1,0-1.7,0.8-1.7,1.7v179.9h239.2V151C234.1,150.1,233.4,149.3,232.4,149.3z"/>
		</g>
	</g>
	<g id="Tabs_6_" class="st1">
		<g id="Right_2_">
			<g>
				<path class="st12" d="M133.2,156.7c-0.5-0.8-1.6-1.4-2.5-1.4H72.5c-0.9,0-2,0.6-2.3,1.4l-5.7,11.9h75.8L133.2,156.7z"/>
			</g>
		</g>
		<g id="Close_2_">
			<g>
				<path class="st4" d="M128.7,158.3c-0.6,0-1.1,0.5-1.1,1.1s0.5,1.1,1.1,1.1s1.1-0.5,1.1-1.1S129.3,158.3,128.7,158.3z
					 M129.3,159.8L129,160l-0.2-0.3l-0.3,0.3l-0.3-0.2l0.3-0.4l-0.3-0.4l0,0l0-0.1l0.1,0.1l0.3-0.2l0.2,0.3l0.2-0.3l0.3,0.2
					l-0.3,0.4L129.3,159.8z"/>
			</g>
		</g>
		<g id="Left_2_">
			<g>
				<path class="st3" d="M64.2,156.7c-0.5-0.8-1.6-1.4-2.5-1.4H3.6c-0.9,0-2,0.6-2.3,1.4l-5.7,11.9h75.8L64.2,156.7z"/>
			</g>
		</g>
		<g id="Close_3_">
			<g>
				<path class="st6" d="M60.3,158.3c-0.6,0-1.1,0.5-1.1,1.1s0.5,1.1,1.1,1.1c0.6,0,1.1-0.5,1.1-1.1S60.9,158.3,60.3,158.3z
					 M60.9,159.8l-0.3,0.2l-0.2-0.3l-0.3,0.3l-0.3-0.2l0.3-0.4l-0.3-0.4l0,0l0-0.1l0.1,0.1l0.3-0.2l0.2,0.3l0.2-0.3l0.3,0.2
					l-0.3,0.4L60.9,159.8z"/>
			</g>
		</g>
	</g>
	<g id="Navigation_6_" class="st1">
		<g id="Background_2_">
			<g>
				<rect x="-5" y="166.9" class="st3" width="239.2" height="16.3"/>
			</g>
		</g>
		<g id="Left_3_">
			<g>
				<path class="st6" d="M7.5,174.7H2.3l1.5-1.6c0.1-0.1,0.1-0.4,0-0.5c-0.1-0.1-0.4-0.1-0.5,0l-1.9,1.9c-0.1,0.1-0.2,0.3-0.2,0.5
					v0.1c0,0.2,0.1,0.4,0.2,0.5l1.9,1.9c0.1,0.1,0.4,0.1,0.5,0c0.1-0.1,0.1-0.4,0-0.5l-1.5-1.6h5.1c0.2,0,0.4-0.2,0.4-0.4v0
					C7.8,174.9,7.7,174.7,7.5,174.7z"/>
			</g>
		</g>
		<g id="Right_3_">
			<g>
				<path class="st6" d="M21.8,174.5l-1.9-1.9c-0.1-0.1-0.4-0.1-0.5,0c-0.1,0.1-0.1,0.4,0,0.5l1.5,1.6h-5.1c-0.2,0-0.4,0.2-0.4,0.4
					v0c0,0.2,0.2,0.4,0.4,0.4H21l-1.5,1.6c-0.1,0.1-0.1,0.4,0,0.5c0.1,0.1,0.4,0.1,0.5,0l1.9-1.9c0.1-0.1,0.2-0.3,0.2-0.5V175
					C22,174.8,22,174.7,21.8,174.5z"/>
			</g>
		</g>
		<g id="Refresh_1_">
			<g>
				<path class="st6" d="M35.9,175.4c0-0.1-0.1-0.2-0.2-0.2c0-0.1-0.1-0.2-0.2-0.2c-0.1,0-0.2,0.1-0.2,0.2c0,1.2-1,2.1-2.1,2.1
					c-0.5,0-1-0.2-1.4-0.6c-0.3-0.4-0.6-0.9-0.6-1.4c0-0.5,0.2-1,0.5-1.4c0.3-0.3,0.8-0.5,1.2-0.6v0.5c0,0.1,0,0.1,0.1,0.2
					c0,0,0.1,0,0.1,0c0,0,0.1,0,0.1,0l1.2-0.7c0,0,0.1-0.1,0.1-0.1l0.1,0c0.1,0,0.1-0.1,0.1-0.2c0-0.1,0-0.1-0.1-0.2l-0.1,0
					c0,0,0-0.1-0.1-0.1l-1.2-0.7c-0.1,0-0.1,0-0.2,0s-0.1,0.1-0.1,0.2v0.5c-1.3,0.1-2.3,1.2-2.3,2.5c0,0,0,0.1,0,0.1
					c0,0,0,0.1,0,0.1c0,1.4,1.1,2.5,2.5,2.5c0.7,0,1.4-0.3,1.9-0.8C35.5,176.8,35.9,176.2,35.9,175.4z"/>
			</g>
		</g>
		<g id="Settings_1_">
			<g>
				<path class="st6" d="M228.7,172.6H223c-0.2,0-0.4,0.2-0.4,0.4v0.1c0,0.2,0.2,0.4,0.4,0.4h5.8c0.2,0,0.4-0.2,0.4-0.4V173
					C229.1,172.8,228.9,172.6,228.7,172.6z M228.7,174.5H223c-0.2,0-0.4,0.2-0.4,0.4v0.1c0,0.2,0.2,0.4,0.4,0.4h5.8
					c0.2,0,0.4-0.2,0.4-0.4v-0.1C229.1,174.7,228.9,174.5,228.7,174.5z M228.7,176.4H223c-0.2,0-0.4,0.2-0.4,0.4v0.1
					c0,0.2,0.2,0.4,0.4,0.4h5.8c0.2,0,0.4-0.2,0.4-0.4v-0.1C229.1,176.5,228.9,176.4,228.7,176.4z"/>
			</g>
		</g>
		<g id="Adress_1_">
			<g>
				<path class="st5" d="M216.1,171.2H45.6c-0.4,0-0.7,0.3-0.7,0.7v6c0,0.4,0.3,0.7,0.7,0.7h170.5c0.4,0,0.7-0.3,0.7-0.7v-6
					C216.9,171.5,216.5,171.2,216.1,171.2z"/>
			</g>
		</g>
		<g id="https_3_">
			<g id="https:_x2F__x2F_www.yourwebsite.com_1_">
				<text transform="matrix(1 0 0 1 53.1297 175.9473)"><tspan x="0" y="0" style="fill:#ACACAC; font-family:'OpenSans'; font-size:3.6px;">https://www.</tspan><tspan x="19.8" y="0" class="st7" style="font-family:'OpenSans'; font-size:3.6px;">yourwebsite</tspan><tspan x="38.4" y="0" style="fill:#ACACAC; font-family:'OpenSans'; font-size:3.6px;">.com</tspan></text>
			</g>
			<g id="Icon_1_">
				<g>
					<path class="st13" d="M50.1,174.5v-0.9c0-0.7-0.5-1.2-1.2-1.2s-1.2,0.5-1.2,1.2v0.9c-0.2,0-0.5,0.2-0.5,0.5v1.8
						c0,0.3,0.2,0.5,0.5,0.5h2.4c0.2,0,0.5-0.2,0.5-0.5v-1.8C50.5,174.7,50.3,174.5,50.1,174.5z M48,173.6c0-0.5,0.4-0.9,0.9-0.9
						s0.9,0.4,0.9,0.9v0.9H48V173.6z M50.2,176.8c0,0.1-0.1,0.2-0.2,0.2h-2.4c-0.1,0-0.2-0.1-0.2-0.2v-1.8c0-0.1,0.1-0.2,0.2-0.2
						h2.4c0.1,0,0.2,0.1,0.2,0.2V176.8z M49,175.4c0-0.1-0.1-0.2-0.2-0.2c-0.1,0-0.2,0.1-0.2,0.2v0.3c-0.1,0.1-0.2,0.2-0.2,0.3
						c0,0.2,0.1,0.3,0.3,0.3c0.2,0,0.3-0.1,0.3-0.3c0-0.1-0.1-0.2-0.2-0.3V175.4z"/>
				</g>
			</g>
		</g>
	</g>
	<g id="Caption_buttons_6_" class="st1">
		<g id="Ellipse_1_">
			<g>
				<path class="st8" d="M225.9,155.9c-1.5,0-2.7,1.2-2.7,2.7c0,1.5,1.2,2.7,2.7,2.7s2.7-1.2,2.7-2.7
					C228.6,157.1,227.4,155.9,225.9,155.9z"/>
			</g>
		</g>
		<g id="Ellipse_2_1_">
			<g>
				<path class="st9" d="M215.8,155.9c-1.5,0-2.7,1.2-2.7,2.7c0,1.5,1.2,2.7,2.7,2.7c1.5,0,2.7-1.2,2.7-2.7
					C218.6,157.1,217.3,155.9,215.8,155.9z"/>
			</g>
		</g>
		<g id="Ellipse_3_1_">
			<g>
				<path class="st10" d="M205.7,155.9c-1.5,0-2.7,1.2-2.7,2.7c0,1.5,1.2,2.7,2.7,2.7s2.7-1.2,2.7-2.7
					C208.5,157.1,207.2,155.9,205.7,155.9z"/>
			</g>
		</g>
	</g>
	<g id="web_xA0_Bild_3_" class="st1">
		
			<image style="overflow:visible;" width="997" height="616" id="web_xA0_Bild_2_" xlink:href="5569E3950C1187A.png"  transform="matrix(0.24 0 0 0.24 -5.0461 183.1474)">
		</image>
	</g>
</g>
<g id="Browser_02_1_" class="st0">
	<g id="Body_2_" class="st1">
		<g>
			<path class="st2" d="M520.4-66.5H284.7c-1,0-1.7,0.8-1.7,1.7V115h239.2V-64.8C522.1-65.8,521.4-66.5,520.4-66.5z"/>
		</g>
	</g>
	<g id="Tabs_5_" class="st1">
		<g id="Right_4_">
			<g>
				<path class="st3" d="M457.6-59.1c-0.5-0.8-1.6-1.4-2.5-1.4h-58.2c-0.9,0-2,0.6-2.3,1.4l-5.7,11.9h75.8L457.6-59.1z"/>
			</g>
		</g>
		<g id="Close_4_">
			<g>
				<path class="st4" d="M397.9-57.6c-0.6,0-1.1,0.5-1.1,1.1c0,0.6,0.5,1.1,1.1,1.1c0.6,0,1.1-0.5,1.1-1.1
					C399-57.1,398.5-57.6,397.9-57.6z M398.4-56.1l-0.3,0.2l-0.2-0.3l-0.3,0.3l-0.3-0.2l0.3-0.4l-0.3-0.4l0,0l0-0.1l0.1,0.1l0.3-0.2
					l0.2,0.3l0.2-0.3l0.3,0.2l-0.3,0.4L398.4-56.1z"/>
			</g>
		</g>
		<g id="Left_4_">
			<g>
				<path class="st5" d="M388.6-59.1c-0.5-0.8-1.6-1.4-2.5-1.4H328c-0.9,0-2,0.6-2.3,1.4L320-47.3h75.8L388.6-59.1z"/>
			</g>
		</g>
		<g id="Close_5_">
			<g>
				<path class="st6" d="M329.5-57.6c-0.6,0-1.1,0.5-1.1,1.1c0,0.6,0.5,1.1,1.1,1.1c0.6,0,1.1-0.5,1.1-1.1
					C330.6-57.1,330.1-57.6,329.5-57.6z M330-56.1l-0.3,0.2l-0.2-0.3l-0.3,0.3l-0.3-0.2l0.3-0.4l-0.3-0.4l0,0l0-0.1l0.1,0.1l0.3-0.2
					l0.2,0.3l0.2-0.3l0.3,0.2l-0.3,0.4L330-56.1z"/>
			</g>
		</g>
	</g>
	<g id="Navigation_5_" class="st1">
		<g id="Background_3_">
			<g>
				<rect x="283" y="-49" class="st5" width="239.2" height="16.3"/>
			</g>
		</g>
		<g id="Left_5_">
			<g>
				<path class="st6" d="M295.5-41.1h-5.1l1.5-1.6c0.1-0.1,0.1-0.4,0-0.5c-0.1-0.1-0.4-0.1-0.5,0l-1.9,1.9c-0.1,0.1-0.2,0.3-0.2,0.5
					v0.1c0,0.2,0.1,0.4,0.2,0.5l1.9,1.9c0.1,0.1,0.4,0.1,0.5,0c0.1-0.1,0.1-0.4,0-0.5l-1.5-1.6h5.1c0.2,0,0.4-0.2,0.4-0.4v0
					C295.8-41,295.7-41.1,295.5-41.1z"/>
			</g>
		</g>
		<g id="Right_5_">
			<g>
				<path class="st6" d="M309.8-41.3l-1.9-1.9c-0.1-0.1-0.4-0.1-0.5,0c-0.1,0.1-0.1,0.4,0,0.5l1.5,1.6h-5.1c-0.2,0-0.4,0.2-0.4,0.4
					v0c0,0.2,0.2,0.4,0.4,0.4h5.1l-1.5,1.6c-0.1,0.1-0.1,0.4,0,0.5c0.1,0.1,0.4,0.1,0.5,0l1.9-1.9c0.1-0.1,0.2-0.3,0.2-0.5v-0.1
					C310-41,310-41.2,309.8-41.3z"/>
			</g>
		</g>
		<g id="Refresh_2_">
			<g>
				<path class="st6" d="M323.9-40.4c0-0.1-0.1-0.2-0.2-0.2c0-0.1-0.1-0.2-0.2-0.2c-0.1,0-0.2,0.1-0.2,0.2c0,1.2-1,2.1-2.1,2.1
					c-0.5,0-1-0.2-1.4-0.6c-0.3-0.4-0.6-0.9-0.6-1.4c0-0.5,0.2-1,0.5-1.4c0.3-0.3,0.8-0.5,1.2-0.6v0.5c0,0.1,0,0.1,0.1,0.2
					c0,0,0.1,0,0.1,0c0,0,0.1,0,0.1,0l1.2-0.7c0,0,0.1-0.1,0.1-0.1l0.1,0c0.1,0,0.1-0.1,0.1-0.2c0-0.1,0-0.1-0.1-0.2l-0.1,0
					c0,0,0-0.1-0.1-0.1l-1.2-0.7c-0.1,0-0.1,0-0.2,0c-0.1,0-0.1,0.1-0.1,0.2v0.5c-1.3,0.1-2.3,1.2-2.3,2.5c0,0,0,0.1,0,0.1
					c0,0,0,0.1,0,0.1c0,1.4,1.1,2.5,2.5,2.5c0.7,0,1.4-0.3,1.9-0.8C323.5-39,323.9-39.7,323.9-40.4z"/>
			</g>
		</g>
		<g id="Settings_2_">
			<g>
				<path class="st6" d="M516.7-43.2H511c-0.2,0-0.4,0.2-0.4,0.4v0.1c0,0.2,0.2,0.4,0.4,0.4h5.8c0.2,0,0.4-0.2,0.4-0.4v-0.1
					C517.1-43.1,516.9-43.2,516.7-43.2z M516.7-41.3H511c-0.2,0-0.4,0.2-0.4,0.4v0.1c0,0.2,0.2,0.4,0.4,0.4h5.8
					c0.2,0,0.4-0.2,0.4-0.4V-41C517.1-41.2,516.9-41.3,516.7-41.3z M516.7-39.5H511c-0.2,0-0.4,0.2-0.4,0.4v0.1
					c0,0.2,0.2,0.4,0.4,0.4h5.8c0.2,0,0.4-0.2,0.4-0.4v-0.1C517.1-39.3,516.9-39.5,516.7-39.5z"/>
			</g>
		</g>
		<g id="Adress_2_">
			<g>
				<path class="st3" d="M504.1-44.7H333.6c-0.4,0-0.7,0.3-0.7,0.7v6c0,0.4,0.3,0.7,0.7,0.7h170.5c0.4,0,0.7-0.3,0.7-0.7v-6
					C504.9-44.3,504.5-44.7,504.1-44.7z"/>
			</g>
		</g>
		<g id="http_2_">
			<g id="http:_x2F__x2F_www.yourwebsite.com">
				<text transform="matrix(1 0 0 1 341.1302 -39.9086)"><tspan x="0" y="0" style="fill:#ACACAC; font-family:'OpenSans'; font-size:3.6px;">http://www.</tspan><tspan x="18.3" y="0" class="st7" style="font-family:'OpenSans'; font-size:3.6px;">yourwebsite</tspan><tspan x="36.9" y="0" style="fill:#ACACAC; font-family:'OpenSans'; font-size:3.6px;">.com</tspan></text>
			</g>
			<g id="Icon_2_">
				<g>
					<path class="st7" d="M338.7-42.2l-1.4-1.4c0,0-0.1,0-0.1,0h-2c-0.1,0-0.2,0.1-0.2,0.2v4.5c0,0.1,0.1,0.2,0.2,0.2h3.2
						c0.1,0,0.2-0.1,0.2-0.2L338.7-42.2C338.7-42.1,338.7-42.1,338.7-42.2z M337.4-43.1l0.9,0.9h-0.9V-43.1z M338.5-38.8h-3.2v-4.5
						h1.9v1.2c0,0.1,0.1,0.1,0.1,0.1h1.2V-38.8z"/>
				</g>
			</g>
		</g>
	</g>
	<g id="Caption_buttons_5_" class="st1">
		<g id="Ellipse_2_">
			<g>
				<path class="st8" d="M291.2-60c-1.5,0-2.7,1.2-2.7,2.7s1.2,2.7,2.7,2.7c1.5,0,2.7-1.2,2.7-2.7S292.7-60,291.2-60z"/>
			</g>
		</g>
		<g id="Ellipse_2_2_">
			<g>
				<circle class="st9" cx="301.3" cy="-57.2" r="2.7"/>
			</g>
		</g>
		<g id="Ellipse_3_2_">
			<g>
				<circle class="st10" cx="311.4" cy="-57.2" r="2.7"/>
			</g>
		</g>
	</g>
	<g id="web_xA0_Bild_1_" class="st1">
		
			<image style="overflow:visible;" width="997" height="616" id="web_xA0_Bild" xlink:href="5569E3950C1187B.png"  transform="matrix(0.24 0 0 0.24 282.9539 -32.6126)">
		</image>
	</g>
</g>
<g id="Browser_01_1_">
	<g id="Body_3_">
		<g>
			<path class="st11" d="M232.4-66.5H-3.3c-1,0-1.7,0.2-1.7,0.5v55.1h239.2V-66C234.1-66.3,233.4-66.5,232.4-66.5z"/>
		</g>
	</g>
	<g id="Tabs_4_">
		<g id="Right_6_">
			<g>
				<path class="st12" d="M169.6-59.1c-0.5-0.8-1.6-1.4-2.5-1.4h-58.2c-0.9,0-2,0.6-2.3,1.4l-5.7,11.9h75.8L169.6-59.1z"/>
			</g>
		</g>
		<g id="Left_6_">
			<g>
				<path class="st3" d="M100.6-59.1c-0.5-0.8-1.6-1.4-2.5-1.4H40c-0.9,0-2,0.6-2.3,1.4L32-47.3h75.8L100.6-59.1z"/>
			</g>
		</g>
	</g>
	<g id="Navigation_4_">
		<g id="Background_4_">
			<g>
				<rect x="-5" y="-49" class="st3" width="239.2" height="16.3"/>
			</g>
		</g>
		<g id="Left_7_">
			<g>
				<path class="st6" d="M7.5-41.1H2.3l1.5-1.6c0.1-0.1,0.1-0.4,0-0.5c-0.1-0.1-0.4-0.1-0.5,0l-1.9,1.9c-0.1,0.1-0.2,0.3-0.2,0.5
					v0.1c0,0.2,0.1,0.4,0.2,0.5l1.9,1.9c0.1,0.1,0.4,0.1,0.5,0c0.1-0.1,0.1-0.4,0-0.5l-1.5-1.6h5.1c0.2,0,0.4-0.2,0.4-0.4v0
					C7.8-41,7.7-41.1,7.5-41.1z"/>
			</g>
		</g>
		<g id="Right_7_">
			<g>
				<path class="st6" d="M21.8-41.3l-1.9-1.9c-0.1-0.1-0.4-0.1-0.5,0c-0.1,0.1-0.1,0.4,0,0.5l1.5,1.6h-5.1c-0.2,0-0.4,0.2-0.4,0.4v0
					c0,0.2,0.2,0.4,0.4,0.4H21l-1.5,1.6c-0.1,0.1-0.1,0.4,0,0.5c0.1,0.1,0.4,0.1,0.5,0l1.9-1.9c0.1-0.1,0.2-0.3,0.2-0.5v-0.1
					C22-41,22-41.2,21.8-41.3z"/>
			</g>
		</g>
		<g id="Refresh_3_">
			<g>
				<path class="st6" d="M35.9-40.4c0-0.1-0.1-0.2-0.2-0.2c0-0.1-0.1-0.2-0.2-0.2c-0.1,0-0.2,0.1-0.2,0.2c0,1.2-1,2.1-2.1,2.1
					c-0.5,0-1-0.2-1.4-0.6c-0.3-0.4-0.6-0.9-0.6-1.4c0-0.5,0.2-1,0.5-1.4c0.3-0.3,0.8-0.5,1.2-0.6v0.5c0,0.1,0,0.1,0.1,0.2
					c0,0,0.1,0,0.1,0c0,0,0.1,0,0.1,0l1.2-0.7c0,0,0.1-0.1,0.1-0.1l0.1,0c0.1,0,0.1-0.1,0.1-0.2c0-0.1,0-0.1-0.1-0.2l-0.1,0
					c0,0,0-0.1-0.1-0.1l-1.2-0.7c-0.1,0-0.1,0-0.2,0S33-43.7,33-43.6v0.5c-1.3,0.1-2.3,1.2-2.3,2.5c0,0,0,0.1,0,0.1c0,0,0,0.1,0,0.1
					c0,1.4,1.1,2.5,2.5,2.5c0.7,0,1.4-0.3,1.9-0.8C35.5-39,35.9-39.7,35.9-40.4z"/>
			</g>
		</g>
		<g id="Settings_3_">
			<g>
				<path class="st6" d="M228.7-43.2H223c-0.2,0-0.4,0.2-0.4,0.4v0.1c0,0.2,0.2,0.4,0.4,0.4h5.8c0.2,0,0.4-0.2,0.4-0.4v-0.1
					C229.1-43.1,228.9-43.2,228.7-43.2z M228.7-41.3H223c-0.2,0-0.4,0.2-0.4,0.4v0.1c0,0.2,0.2,0.4,0.4,0.4h5.8
					c0.2,0,0.4-0.2,0.4-0.4V-41C229.1-41.2,228.9-41.3,228.7-41.3z M228.7-39.5H223c-0.2,0-0.4,0.2-0.4,0.4v0.1
					c0,0.2,0.2,0.4,0.4,0.4h5.8c0.2,0,0.4-0.2,0.4-0.4v-0.1C229.1-39.3,228.9-39.5,228.7-39.5z"/>
			</g>
		</g>
		<g id="Adress_3_">
			<g>
				<path class="st5" d="M216.1-44.7H45.6c-0.4,0-0.7,0.3-0.7,0.7v6c0,0.4,0.3,0.7,0.7,0.7h170.5c0.4,0,0.7-0.3,0.7-0.7v-6
					C216.9-44.3,216.5-44.7,216.1-44.7z"/>
			</g>
		</g>
		<g id="https_2_">
			<g id="https:_x2F__x2F_www.yourwebsite.com">
			</g>
			<g id="Icon_3_">
				<g>
					<path class="st13" d="M49-40.4c0-0.1-0.1-0.2-0.2-0.2c-0.1,0-0.2,0.1-0.2,0.2v0.3c-0.1,0.1-0.2,0.2-0.2,0.3
						c0,0.2,0.1,0.3,0.3,0.3c0.2,0,0.3-0.1,0.3-0.3c0-0.1-0.1-0.2-0.2-0.3V-40.4z M50.1-41.4v-0.9c0-0.7-0.5-1.2-1.2-1.2
						s-1.2,0.5-1.2,1.2v0.9c-0.2,0-0.5,0.2-0.5,0.5v1.8c0,0.3,0.2,0.5,0.5,0.5h2.4c0.2,0,0.5-0.2,0.5-0.5v-1.8
						C50.5-41.2,50.3-41.4,50.1-41.4z M48-42.3c0-0.5,0.4-0.9,0.9-0.9s0.9,0.4,0.9,0.9v0.9H48V-42.3z M50.2-39.1
						c0,0.1-0.1,0.2-0.2,0.2h-2.4c-0.1,0-0.2-0.1-0.2-0.2v-1.8c0-0.1,0.1-0.2,0.2-0.2h2.4c0.1,0,0.2,0.1,0.2,0.2V-39.1z"/>
				</g>
			</g>
		</g>
	</g>
	<g id="Caption_buttons_4_">
		<g id="Ellipse_3_">
			<g>
				<circle class="st8" cx="3.2" cy="-57.2" r="2.7"/>
			</g>
		</g>
		<g id="Ellipse_2_3_">
			<g>
				<circle class="st9" cx="13.3" cy="-57.2" r="2.7"/>
			</g>
		</g>
		<g id="Ellipse_3_3_">
			<g>
				<path class="st10" d="M23.4-60c-1.5,0-2.7,1.2-2.7,2.7s1.2,2.7,2.7,2.7s2.7-1.2,2.7-2.7S24.9-60,23.4-60z"/>
			</g>
		</g>
	</g>
	<g id="Place_your_image_here_xA0_Bild_1_" class="st0">
		
			<image style="display:inline;overflow:visible;" width="997" height="616" id="Place_your_image_here_xA0_Bild" xlink:href="5569E3950C1187D.png"  transform="matrix(0.24 0 0 0.24 -5.0461 -32.6126)">
		</image>
	</g>
	<rect x="5.4" y="4.3" class="st14" width="16.6" height="18.2"/>
	<text transform="matrix(1 0 0 1 5.3779 14.0303)" class="st15 st16 st17">1</text>
	<circle class="st18" cx="9.2" cy="9.4" r="8.4"/>
</g>
</svg>
