<?xml version="1.0" encoding="utf-8"?>
<!-- Generator: Adobe Illustrator 24.1.0, SVG Export Plug-In . SVG Version: 6.00 Build 0)  -->
<svg version="1.1" xmlns="http://www.w3.org/2000/svg" xmlns:xlink="http://www.w3.org/1999/xlink" x="0px" y="0px"
	 viewBox="0 0 18.1 18.4" style="enable-background:new 0 0 18.1 18.4;" xml:space="preserve">
<style type="text/css">
	.st0{display:none;}
	.st1{display:inline;}
	.st2{fill:#233738;}
	.st3{fill:#E6E6E6;}
	.st4{fill:#B4B4B4;}
	.st5{fill:#FFFFFF;}
	.st6{fill:#CBCBCB;}
	.st7{fill:#696969;}
	.st8{fill:#FF5141;}
	.st9{fill:#F1BB3F;}
	.st10{fill:#70CB43;}
	.st11{fill:#F1F1F1;}
	.st12{fill:#DBDBDB;}
	.st13{fill:#02A916;}
	.st14{fill:none;}
	.st15{fill:#26C485;}
	.st16{font-family:'Roboto-Bold';}
	.st17{font-size:13px;}
	.st18{fill:none;stroke:#26C485;stroke-width:0.75;stroke-miterlimit:10;}
	.st19{fill:none;stroke:#26C485;stroke-width:0.5;stroke-linecap:round;stroke-linejoin:round;stroke-dasharray:5.014;}
	.st20{fill:none;stroke:#0B0033;stroke-width:0.75;stroke-miterlimit:10;}
</style>
<g id="Background_xA0_Bild_1_" class="st0">
	
		<image style="display:inline;overflow:visible;" width="3000" height="1800" id="Background_xA0_Bild" xlink:href="55F09460ACF6CB8.jpg"  transform="matrix(0.24 0 0 0.24 -99.0544 -115.8296)">
	</image>
</g>
<g id="Browser_04_1_" class="st0">
	<g id="Body" class="st1">
		<g>
			<path class="st2" d="M522.9,117.5H287.2c-1,0-1.7,0.8-1.7,1.7V299h239.2V119.2C524.6,118.2,523.8,117.5,522.9,117.5z"/>
		</g>
	</g>
	<g id="Tabs_7_" class="st1">
		<g id="Right">
			<g>
				<path class="st3" d="M423.6,124.9c-0.5-0.8-1.6-1.4-2.5-1.4H363c-0.9,0-2,0.6-2.3,1.4l-5.7,11.9h75.8L423.6,124.9z"/>
			</g>
		</g>
		<g id="Close">
			<g>
				<path class="st4" d="M419.2,126.4c-0.6,0-1.1,0.5-1.1,1.1c0,0.6,0.5,1.1,1.1,1.1s1.1-0.5,1.1-1.1
					C420.3,126.9,419.8,126.4,419.2,126.4z M419.8,127.9l-0.3,0.2l-0.2-0.3l-0.3,0.3l-0.3-0.2l0.3-0.4l-0.3-0.4l0,0l0-0.1l0.1,0.1
					l0.3-0.2l0.2,0.3l0.2-0.3l0.3,0.2l-0.3,0.4L419.8,127.9z"/>
			</g>
		</g>
		<g id="Left">
			<g>
				<path class="st5" d="M354.7,124.9c-0.5-0.8-1.6-1.4-2.5-1.4H294c-0.9,0-2,0.6-2.3,1.4l-5.7,11.9h75.8L354.7,124.9z"/>
			</g>
		</g>
		<g id="Close_1_">
			<g>
				<path class="st6" d="M350.8,126.4c-0.6,0-1.1,0.5-1.1,1.1c0,0.6,0.5,1.1,1.1,1.1c0.6,0,1.1-0.5,1.1-1.1
					C351.9,126.9,351.4,126.4,350.8,126.4z M351.4,127.9l-0.3,0.2l-0.2-0.3l-0.3,0.3l-0.3-0.2l0.3-0.4l-0.3-0.4l0,0l0-0.1l0.1,0.1
					l0.3-0.2l0.2,0.3l0.2-0.3l0.3,0.2l-0.3,0.4L351.4,127.9z"/>
			</g>
		</g>
	</g>
	<g id="Navigation_7_" class="st1">
		<g id="Background_1_">
			<g>
				<rect x="285.4" y="135" class="st5" width="239.2" height="16.3"/>
			</g>
		</g>
		<g id="Left_1_">
			<g>
				<path class="st6" d="M297.9,142.9h-5.1l1.5-1.6c0.1-0.1,0.1-0.4,0-0.5c-0.1-0.1-0.4-0.1-0.5,0l-1.9,1.9
					c-0.1,0.1-0.2,0.3-0.2,0.5v0.1c0,0.2,0.1,0.4,0.2,0.5l1.9,1.9c0.1,0.1,0.4,0.1,0.5,0c0.1-0.1,0.1-0.4,0-0.5l-1.5-1.6h5.1
					c0.2,0,0.4-0.2,0.4-0.4v0C298.3,143,298.1,142.9,297.9,142.9z"/>
			</g>
		</g>
		<g id="Right_1_">
			<g>
				<path class="st6" d="M312.3,142.7l-1.9-1.9c-0.1-0.1-0.4-0.1-0.5,0c-0.1,0.1-0.1,0.4,0,0.5l1.5,1.6h-5.1c-0.2,0-0.4,0.2-0.4,0.4
					v0c0,0.2,0.2,0.4,0.4,0.4h5.1l-1.5,1.6c-0.1,0.1-0.1,0.4,0,0.5c0.1,0.1,0.4,0.1,0.5,0l1.9-1.9c0.1-0.1,0.2-0.3,0.2-0.5v-0.1
					C312.5,143,312.4,142.8,312.3,142.7z"/>
			</g>
		</g>
		<g id="Refresh">
			<g>
				<path class="st6" d="M326.3,143.6c0-0.1-0.1-0.2-0.2-0.2c0-0.1-0.1-0.2-0.2-0.2c-0.1,0-0.2,0.1-0.2,0.2c0,1.2-1,2.1-2.1,2.1
					c-0.5,0-1-0.2-1.4-0.6c-0.3-0.4-0.6-0.9-0.6-1.4c0-0.5,0.2-1,0.5-1.4c0.3-0.3,0.8-0.5,1.2-0.6v0.5c0,0.1,0,0.1,0.1,0.2
					c0,0,0.1,0,0.1,0c0,0,0.1,0,0.1,0l1.2-0.7c0,0,0.1-0.1,0.1-0.1l0.1,0c0.1,0,0.1-0.1,0.1-0.2c0-0.1,0-0.1-0.1-0.2l-0.1,0
					c0,0,0-0.1-0.1-0.1l-1.2-0.7c-0.1,0-0.1,0-0.2,0c-0.1,0-0.1,0.1-0.1,0.2v0.5c-1.3,0.1-2.3,1.2-2.3,2.5c0,0,0,0.1,0,0.1
					c0,0,0,0.1,0,0.1c0,1.4,1.1,2.5,2.5,2.5c0.7,0,1.4-0.3,1.9-0.8C326,145,326.3,144.3,326.3,143.6z"/>
			</g>
		</g>
		<g id="Settings">
			<g>
				<path class="st6" d="M519.2,140.8h-5.8c-0.2,0-0.4,0.2-0.4,0.4v0.1c0,0.2,0.2,0.4,0.4,0.4h5.8c0.2,0,0.4-0.2,0.4-0.4v-0.1
					C519.6,140.9,519.4,140.8,519.2,140.8z M519.2,142.7h-5.8c-0.2,0-0.4,0.2-0.4,0.4v0.1c0,0.2,0.2,0.4,0.4,0.4h5.8
					c0.2,0,0.4-0.2,0.4-0.4V143C519.6,142.8,519.4,142.7,519.2,142.7z M519.2,144.5h-5.8c-0.2,0-0.4,0.2-0.4,0.4v0.1
					c0,0.2,0.2,0.4,0.4,0.4h5.8c0.2,0,0.4-0.2,0.4-0.4v-0.1C519.6,144.7,519.4,144.5,519.2,144.5z"/>
			</g>
		</g>
		<g id="Adress">
			<g>
				<path class="st3" d="M506.6,139.3H336.1c-0.4,0-0.7,0.3-0.7,0.7v6c0,0.4,0.3,0.7,0.7,0.7h170.5c0.4,0,0.7-0.3,0.7-0.7v-6
					C507.3,139.7,507,139.3,506.6,139.3z"/>
			</g>
		</g>
		<g id="http_3_">
			<g id="http:_x2F__x2F_www.yourwebsite.com_1_">
				<text transform="matrix(1 0 0 1 343.6018 144.0903)"><tspan x="0" y="0" style="fill:#ACACAC; font-family:'OpenSans'; font-size:3.6px;">http://www.</tspan><tspan x="18.3" y="0" class="st7" style="font-family:'OpenSans'; font-size:3.6px;">yourwebsite</tspan><tspan x="36.9" y="0" style="fill:#ACACAC; font-family:'OpenSans'; font-size:3.6px;">.com</tspan></text>
			</g>
			<g id="Icon">
				<g>
					<path class="st7" d="M341.2,141.8l-1.4-1.4c0,0-0.1,0-0.1,0h-2c-0.1,0-0.2,0.1-0.2,0.2v4.5c0,0.1,0.1,0.2,0.2,0.2h3.2
						c0.1,0,0.2-0.1,0.2-0.2L341.2,141.8C341.2,141.9,341.2,141.9,341.2,141.8z M339.8,140.9l0.9,0.9h-0.9V140.9z M341,145.2h-3.2
						v-4.5h1.9v1.2c0,0.1,0.1,0.1,0.1,0.1h1.2V145.2z"/>
				</g>
			</g>
		</g>
	</g>
	<g id="Caption_buttons_7_" class="st1">
		<g id="Ellipse">
			<g>
				<path class="st8" d="M516.4,124c-1.5,0-2.7,1.2-2.7,2.7c0,1.5,1.2,2.7,2.7,2.7s2.7-1.2,2.7-2.7C519.1,125.2,517.9,124,516.4,124
					z"/>
			</g>
		</g>
		<g id="Ellipse_2">
			<g>
				<path class="st9" d="M506.3,124c-1.5,0-2.7,1.2-2.7,2.7c0,1.5,1.2,2.7,2.7,2.7s2.7-1.2,2.7-2.7C509,125.2,507.8,124,506.3,124z"
					/>
			</g>
		</g>
		<g id="Ellipse_3">
			<g>
				<path class="st10" d="M496.2,124c-1.5,0-2.7,1.2-2.7,2.7c0,1.5,1.2,2.7,2.7,2.7c1.5,0,2.7-1.2,2.7-2.7
					C499,125.2,497.7,124,496.2,124z"/>
			</g>
		</g>
	</g>
	<g id="web_copy_xA0_Bild_1_" class="st1">
		
			<image style="overflow:visible;" width="997" height="616" id="web_copy_xA0_Bild" xlink:href="55F09460ACF6CB8.png"  transform="matrix(0.24 0 0 0.24 285.4256 151.2904)">
		</image>
	</g>
</g>
<g id="Browser_03_1_" class="st0">
	<g id="Body_1_" class="st1">
		<g>
			<path class="st11" d="M234.9,117.5H-0.8c-1,0-1.7,0.8-1.7,1.7V299h239.2V119.2C236.6,118.2,235.8,117.5,234.9,117.5z"/>
		</g>
	</g>
	<g id="Tabs_6_" class="st1">
		<g id="Right_2_">
			<g>
				<path class="st12" d="M135.6,124.9c-0.5-0.8-1.6-1.4-2.5-1.4H75c-0.9,0-2,0.6-2.3,1.4L67,136.7h75.8L135.6,124.9z"/>
			</g>
		</g>
		<g id="Close_2_">
			<g>
				<path class="st4" d="M131.2,126.4c-0.6,0-1.1,0.5-1.1,1.1c0,0.6,0.5,1.1,1.1,1.1s1.1-0.5,1.1-1.1
					C132.3,126.9,131.8,126.4,131.2,126.4z M131.8,127.9l-0.3,0.2l-0.2-0.3l-0.3,0.3l-0.3-0.2l0.3-0.4l-0.3-0.4l0,0l0-0.1l0.1,0.1
					l0.3-0.2l0.2,0.3l0.2-0.3l0.3,0.2l-0.3,0.4L131.8,127.9z"/>
			</g>
		</g>
		<g id="Left_2_">
			<g>
				<path class="st3" d="M66.7,124.9c-0.5-0.8-1.6-1.4-2.5-1.4H6c-0.9,0-2,0.6-2.3,1.4L-2,136.7h75.8L66.7,124.9z"/>
			</g>
		</g>
		<g id="Close_3_">
			<g>
				<path class="st6" d="M62.8,126.4c-0.6,0-1.1,0.5-1.1,1.1c0,0.6,0.5,1.1,1.1,1.1c0.6,0,1.1-0.5,1.1-1.1
					C63.9,126.9,63.4,126.4,62.8,126.4z M63.4,127.9l-0.3,0.2l-0.2-0.3l-0.3,0.3l-0.3-0.2l0.3-0.4l-0.3-0.4l0,0l0-0.1l0.1,0.1
					l0.3-0.2l0.2,0.3L63,127l0.3,0.2l-0.3,0.4L63.4,127.9z"/>
			</g>
		</g>
	</g>
	<g id="Navigation_6_" class="st1">
		<g id="Background_2_">
			<g>
				<rect x="-2.6" y="135" class="st3" width="239.2" height="16.3"/>
			</g>
		</g>
		<g id="Left_3_">
			<g>
				<path class="st6" d="M9.9,142.9H4.8l1.5-1.6c0.1-0.1,0.1-0.4,0-0.5c-0.1-0.1-0.4-0.1-0.5,0L4,142.7c-0.1,0.1-0.2,0.3-0.2,0.5
					v0.1c0,0.2,0.1,0.4,0.2,0.5l1.9,1.9c0.1,0.1,0.4,0.1,0.5,0c0.1-0.1,0.1-0.4,0-0.5l-1.5-1.6h5.1c0.2,0,0.4-0.2,0.4-0.4v0
					C10.3,143,10.1,142.9,9.9,142.9z"/>
			</g>
		</g>
		<g id="Right_3_">
			<g>
				<path class="st6" d="M24.3,142.7l-1.9-1.9c-0.1-0.1-0.4-0.1-0.5,0c-0.1,0.1-0.1,0.4,0,0.5l1.5,1.6h-5.1c-0.2,0-0.4,0.2-0.4,0.4
					v0c0,0.2,0.2,0.4,0.4,0.4h5.1l-1.5,1.6c-0.1,0.1-0.1,0.4,0,0.5c0.1,0.1,0.4,0.1,0.5,0l1.9-1.9c0.1-0.1,0.2-0.3,0.2-0.5v-0.1
					C24.5,143,24.4,142.8,24.3,142.7z"/>
			</g>
		</g>
		<g id="Refresh_1_">
			<g>
				<path class="st6" d="M38.3,143.6c0-0.1-0.1-0.2-0.2-0.2c0-0.1-0.1-0.2-0.2-0.2c-0.1,0-0.2,0.1-0.2,0.2c0,1.2-1,2.1-2.1,2.1
					c-0.5,0-1-0.2-1.4-0.6c-0.3-0.4-0.6-0.9-0.6-1.4c0-0.5,0.2-1,0.5-1.4c0.3-0.3,0.8-0.5,1.2-0.6v0.5c0,0.1,0,0.1,0.1,0.2
					c0,0,0.1,0,0.1,0c0,0,0.1,0,0.1,0l1.2-0.7c0,0,0.1-0.1,0.1-0.1l0.1,0c0.1,0,0.1-0.1,0.1-0.2c0-0.1,0-0.1-0.1-0.2l-0.1,0
					c0,0,0-0.1-0.1-0.1l-1.2-0.7c-0.1,0-0.1,0-0.2,0s-0.1,0.1-0.1,0.2v0.5c-1.3,0.1-2.3,1.2-2.3,2.5c0,0,0,0.1,0,0.1
					c0,0,0,0.1,0,0.1c0,1.4,1.1,2.5,2.5,2.5c0.7,0,1.4-0.3,1.9-0.8C38,145,38.3,144.3,38.3,143.6z"/>
			</g>
		</g>
		<g id="Settings_1_">
			<g>
				<path class="st6" d="M231.2,140.8h-5.8c-0.2,0-0.4,0.2-0.4,0.4v0.1c0,0.2,0.2,0.4,0.4,0.4h5.8c0.2,0,0.4-0.2,0.4-0.4v-0.1
					C231.6,140.9,231.4,140.8,231.2,140.8z M231.2,142.7h-5.8c-0.2,0-0.4,0.2-0.4,0.4v0.1c0,0.2,0.2,0.4,0.4,0.4h5.8
					c0.2,0,0.4-0.2,0.4-0.4V143C231.6,142.8,231.4,142.7,231.2,142.7z M231.2,144.5h-5.8c-0.2,0-0.4,0.2-0.4,0.4v0.1
					c0,0.2,0.2,0.4,0.4,0.4h5.8c0.2,0,0.4-0.2,0.4-0.4v-0.1C231.6,144.7,231.4,144.5,231.2,144.5z"/>
			</g>
		</g>
		<g id="Adress_1_">
			<g>
				<path class="st5" d="M218.6,139.3H48.1c-0.4,0-0.7,0.3-0.7,0.7v6c0,0.4,0.3,0.7,0.7,0.7h170.5c0.4,0,0.7-0.3,0.7-0.7v-6
					C219.3,139.7,219,139.3,218.6,139.3z"/>
			</g>
		</g>
		<g id="https_3_">
			<g id="https:_x2F__x2F_www.yourwebsite.com_1_">
				<text transform="matrix(1 0 0 1 55.6013 144.0903)"><tspan x="0" y="0" style="fill:#ACACAC; font-family:'OpenSans'; font-size:3.6px;">https://www.</tspan><tspan x="19.8" y="0" class="st7" style="font-family:'OpenSans'; font-size:3.6px;">yourwebsite</tspan><tspan x="38.4" y="0" style="fill:#ACACAC; font-family:'OpenSans'; font-size:3.6px;">.com</tspan></text>
			</g>
			<g id="Icon_1_">
				<g>
					<path class="st13" d="M52.6,142.6v-0.9c0-0.7-0.5-1.2-1.2-1.2s-1.2,0.5-1.2,1.2v0.9c-0.2,0-0.5,0.2-0.5,0.5v1.8
						c0,0.3,0.2,0.5,0.5,0.5h2.4c0.2,0,0.5-0.2,0.5-0.5v-1.8C53,142.8,52.8,142.6,52.6,142.6z M50.5,141.7c0-0.5,0.4-0.9,0.9-0.9
						s0.9,0.4,0.9,0.9v0.9h-1.8V141.7z M52.7,144.9c0,0.1-0.1,0.2-0.2,0.2h-2.4c-0.1,0-0.2-0.1-0.2-0.2v-1.8c0-0.1,0.1-0.2,0.2-0.2
						h2.4c0.1,0,0.2,0.1,0.2,0.2V144.9z M51.5,143.6c0-0.1-0.1-0.2-0.2-0.2c-0.1,0-0.2,0.1-0.2,0.2v0.3c-0.1,0.1-0.2,0.2-0.2,0.3
						c0,0.2,0.1,0.3,0.3,0.3c0.2,0,0.3-0.1,0.3-0.3c0-0.1-0.1-0.2-0.2-0.3V143.6z"/>
				</g>
			</g>
		</g>
	</g>
	<g id="Caption_buttons_6_" class="st1">
		<g id="Ellipse_1_">
			<g>
				<path class="st8" d="M228.4,124c-1.5,0-2.7,1.2-2.7,2.7c0,1.5,1.2,2.7,2.7,2.7s2.7-1.2,2.7-2.7C231.1,125.2,229.9,124,228.4,124
					z"/>
			</g>
		</g>
		<g id="Ellipse_2_1_">
			<g>
				<path class="st9" d="M218.3,124c-1.5,0-2.7,1.2-2.7,2.7c0,1.5,1.2,2.7,2.7,2.7c1.5,0,2.7-1.2,2.7-2.7
					C221,125.2,219.8,124,218.3,124z"/>
			</g>
		</g>
		<g id="Ellipse_3_1_">
			<g>
				<path class="st10" d="M208.2,124c-1.5,0-2.7,1.2-2.7,2.7c0,1.5,1.2,2.7,2.7,2.7s2.7-1.2,2.7-2.7C211,125.2,209.7,124,208.2,124z
					"/>
			</g>
		</g>
	</g>
	<g id="web_xA0_Bild_3_" class="st1">
		
			<image style="overflow:visible;" width="997" height="616" id="web_xA0_Bild_2_" xlink:href="55F09460ACF6CBF.png"  transform="matrix(0.24 0 0 0.24 -2.5744 151.2904)">
		</image>
	</g>
</g>
<g id="Browser_02_1_" class="st0">
	<g id="Body_2_" class="st1">
		<g>
			<path class="st2" d="M522.9-98.4H287.2c-1,0-1.7,0.8-1.7,1.7V83.2h239.2V-96.7C524.6-97.6,523.8-98.4,522.9-98.4z"/>
		</g>
	</g>
	<g id="Tabs_5_" class="st1">
		<g id="Right_4_">
			<g>
				<path class="st3" d="M460.1-91c-0.5-0.8-1.6-1.4-2.5-1.4h-58.2c-0.9,0-2,0.6-2.3,1.4l-5.7,11.9h75.8L460.1-91z"/>
			</g>
		</g>
		<g id="Close_4_">
			<g>
				<path class="st4" d="M400.3-89.4c-0.6,0-1.1,0.5-1.1,1.1c0,0.6,0.5,1.1,1.1,1.1c0.6,0,1.1-0.5,1.1-1.1
					C401.4-88.9,400.9-89.4,400.3-89.4z M400.9-88l-0.3,0.2l-0.2-0.3l-0.3,0.3l-0.3-0.2l0.3-0.4l-0.3-0.4l0,0l0-0.1l0.1,0.1l0.3-0.2
					l0.2,0.3l0.2-0.3l0.3,0.2l-0.3,0.4L400.9-88z"/>
			</g>
		</g>
		<g id="Left_4_">
			<g>
				<path class="st5" d="M391.1-91c-0.5-0.8-1.6-1.4-2.5-1.4h-58.2c-0.9,0-2,0.6-2.3,1.4l-5.7,11.9h75.8L391.1-91z"/>
			</g>
		</g>
		<g id="Close_5_">
			<g>
				<path class="st6" d="M331.9-89.4c-0.6,0-1.1,0.5-1.1,1.1c0,0.6,0.5,1.1,1.1,1.1c0.6,0,1.1-0.5,1.1-1.1
					C333-88.9,332.5-89.4,331.9-89.4z M332.5-88l-0.3,0.2l-0.2-0.3l-0.3,0.3l-0.3-0.2l0.3-0.4l-0.3-0.4l0,0l0-0.1l0.1,0.1l0.3-0.2
					l0.2,0.3l0.2-0.3l0.3,0.2l-0.3,0.4L332.5-88z"/>
			</g>
		</g>
	</g>
	<g id="Navigation_5_" class="st1">
		<g id="Background_3_">
			<g>
				<rect x="285.4" y="-80.8" class="st5" width="239.2" height="16.3"/>
			</g>
		</g>
		<g id="Left_5_">
			<g>
				<path class="st6" d="M297.9-73h-5.1l1.5-1.6c0.1-0.1,0.1-0.4,0-0.5c-0.1-0.1-0.4-0.1-0.5,0l-1.9,1.9c-0.1,0.1-0.2,0.3-0.2,0.5
					v0.1c0,0.2,0.1,0.4,0.2,0.5l1.9,1.9c0.1,0.1,0.4,0.1,0.5,0c0.1-0.1,0.1-0.4,0-0.5l-1.5-1.6h5.1c0.2,0,0.4-0.2,0.4-0.4v0
					C298.3-72.8,298.1-73,297.9-73z"/>
			</g>
		</g>
		<g id="Right_5_">
			<g>
				<path class="st6" d="M312.3-73.2l-1.9-1.9c-0.1-0.1-0.4-0.1-0.5,0c-0.1,0.1-0.1,0.4,0,0.5l1.5,1.6h-5.1c-0.2,0-0.4,0.2-0.4,0.4
					v0c0,0.2,0.2,0.4,0.4,0.4h5.1l-1.5,1.6c-0.1,0.1-0.1,0.4,0,0.5c0.1,0.1,0.4,0.1,0.5,0l1.9-1.9c0.1-0.1,0.2-0.3,0.2-0.5v-0.1
					C312.5-72.9,312.4-73,312.3-73.2z"/>
			</g>
		</g>
		<g id="Refresh_2_">
			<g>
				<path class="st6" d="M326.3-72.3c0-0.1-0.1-0.2-0.2-0.2c0-0.1-0.1-0.2-0.2-0.2c-0.1,0-0.2,0.1-0.2,0.2c0,1.2-1,2.1-2.1,2.1
					c-0.5,0-1-0.2-1.4-0.6c-0.3-0.4-0.6-0.9-0.6-1.4c0-0.5,0.2-1,0.5-1.4c0.3-0.3,0.8-0.5,1.2-0.6v0.5c0,0.1,0,0.1,0.1,0.2
					c0,0,0.1,0,0.1,0c0,0,0.1,0,0.1,0l1.2-0.7c0,0,0.1-0.1,0.1-0.1l0.1,0c0.1,0,0.1-0.1,0.1-0.2c0-0.1,0-0.1-0.1-0.2l-0.1,0
					c0,0,0-0.1-0.1-0.1l-1.2-0.7c-0.1,0-0.1,0-0.2,0c-0.1,0-0.1,0.1-0.1,0.2v0.5c-1.3,0.1-2.3,1.2-2.3,2.5c0,0,0,0.1,0,0.1
					c0,0,0,0.1,0,0.1c0,1.4,1.1,2.5,2.5,2.5c0.7,0,1.4-0.3,1.9-0.8C326-70.9,326.3-71.5,326.3-72.3z"/>
			</g>
		</g>
		<g id="Settings_2_">
			<g>
				<path class="st6" d="M519.2-75.1h-5.8c-0.2,0-0.4,0.2-0.4,0.4v0.1c0,0.2,0.2,0.4,0.4,0.4h5.8c0.2,0,0.4-0.2,0.4-0.4v-0.1
					C519.6-74.9,519.4-75.1,519.2-75.1z M519.2-73.2h-5.8c-0.2,0-0.4,0.2-0.4,0.4v0.1c0,0.2,0.2,0.4,0.4,0.4h5.8
					c0.2,0,0.4-0.2,0.4-0.4v-0.1C519.6-73,519.4-73.2,519.2-73.2z M519.2-71.3h-5.8c-0.2,0-0.4,0.2-0.4,0.4v0.1
					c0,0.2,0.2,0.4,0.4,0.4h5.8c0.2,0,0.4-0.2,0.4-0.4V-71C519.6-71.2,519.4-71.3,519.2-71.3z"/>
			</g>
		</g>
		<g id="Adress_2_">
			<g>
				<path class="st3" d="M506.6-76.5H336.1c-0.4,0-0.7,0.3-0.7,0.7v6c0,0.4,0.3,0.7,0.7,0.7h170.5c0.4,0,0.7-0.3,0.7-0.7v-6
					C507.3-76.2,507-76.5,506.6-76.5z"/>
			</g>
		</g>
		<g id="http_2_">
			<g id="http:_x2F__x2F_www.yourwebsite.com">
				<text transform="matrix(1 0 0 1 343.6018 -71.7657)"><tspan x="0" y="0" style="fill:#ACACAC; font-family:'OpenSans'; font-size:3.6px;">http://www.</tspan><tspan x="18.3" y="0" class="st7" style="font-family:'OpenSans'; font-size:3.6px;">yourwebsite</tspan><tspan x="36.9" y="0" style="fill:#ACACAC; font-family:'OpenSans'; font-size:3.6px;">.com</tspan></text>
			</g>
			<g id="Icon_2_">
				<g>
					<path class="st7" d="M341.2-74l-1.4-1.4c0,0-0.1,0-0.1,0h-2c-0.1,0-0.2,0.1-0.2,0.2v4.5c0,0.1,0.1,0.2,0.2,0.2h3.2
						c0.1,0,0.2-0.1,0.2-0.2L341.2-74C341.2-74,341.2-74,341.2-74z M339.8-75l0.9,0.9h-0.9V-75z M341-70.7h-3.2v-4.5h1.9v1.2
						c0,0.1,0.1,0.1,0.1,0.1h1.2V-70.7z"/>
				</g>
			</g>
		</g>
	</g>
	<g id="Caption_buttons_5_" class="st1">
		<g id="Ellipse_2_">
			<g>
				<path class="st8" d="M293.7-91.8c-1.5,0-2.7,1.2-2.7,2.7s1.2,2.7,2.7,2.7c1.5,0,2.7-1.2,2.7-2.7S295.2-91.8,293.7-91.8z"/>
			</g>
		</g>
		<g id="Ellipse_2_2_">
			<g>
				<circle class="st9" cx="303.8" cy="-89.1" r="2.7"/>
			</g>
		</g>
		<g id="Ellipse_3_2_">
			<g>
				<circle class="st10" cx="313.8" cy="-89.1" r="2.7"/>
			</g>
		</g>
	</g>
	<g id="web_xA0_Bild_1_" class="st1">
		
			<image style="overflow:visible;" width="997" height="616" id="web_xA0_Bild" xlink:href="55F09460ACF6CB9.png"  transform="matrix(0.24 0 0 0.24 285.4256 -64.4696)">
		</image>
	</g>
</g>
<g id="Browser_01_1_">
	<g id="Body_3_">
		<g>
			<path class="st11" d="M234.9-98.4H-0.8c-1,0-1.7,0.3-1.7,0.6v62.4h239.2v-62.4C236.6-98.1,235.8-98.4,234.9-98.4z"/>
		</g>
	</g>
	<g id="Tabs_4_">
		<g id="Right_6_">
			<g>
				<path class="st12" d="M172.1-91c-0.5-0.8-1.6-1.4-2.5-1.4h-58.2c-0.9,0-2,0.6-2.3,1.4l-5.7,11.9h75.8L172.1-91z"/>
			</g>
		</g>
		<g id="Left_6_">
			<g>
				<path class="st3" d="M103.1-91c-0.5-0.8-1.6-1.4-2.5-1.4H42.5c-0.9,0-2,0.6-2.3,1.4l-5.7,11.9h75.8L103.1-91z"/>
			</g>
		</g>
	</g>
	<g id="Navigation_4_">
		<g id="Background_4_">
			<g>
				<rect x="-2.6" y="-80.8" class="st3" width="239.2" height="16.3"/>
			</g>
		</g>
		<g id="Left_7_">
			<g>
				<path class="st6" d="M9.9-73H4.8l1.5-1.6c0.1-0.1,0.1-0.4,0-0.5c-0.1-0.1-0.4-0.1-0.5,0L4-73.2c-0.1,0.1-0.2,0.3-0.2,0.5v0.1
					c0,0.2,0.1,0.4,0.2,0.5l1.9,1.9C6-70,6.2-70,6.4-70.2c0.1-0.1,0.1-0.4,0-0.5l-1.5-1.6h5.1c0.2,0,0.4-0.2,0.4-0.4v0
					C10.3-72.8,10.1-73,9.9-73z"/>
			</g>
		</g>
		<g id="Right_7_">
			<g>
				<path class="st6" d="M24.3-73.2l-1.9-1.9c-0.1-0.1-0.4-0.1-0.5,0c-0.1,0.1-0.1,0.4,0,0.5l1.5,1.6h-5.1c-0.2,0-0.4,0.2-0.4,0.4v0
					c0,0.2,0.2,0.4,0.4,0.4h5.1l-1.5,1.6c-0.1,0.1-0.1,0.4,0,0.5c0.1,0.1,0.4,0.1,0.5,0l1.9-1.9c0.1-0.1,0.2-0.3,0.2-0.5v-0.1
					C24.5-72.9,24.4-73,24.3-73.2z"/>
			</g>
		</g>
		<g id="Refresh_3_">
			<g>
				<path class="st6" d="M38.3-72.3c0-0.1-0.1-0.2-0.2-0.2c0-0.1-0.1-0.2-0.2-0.2c-0.1,0-0.2,0.1-0.2,0.2c0,1.2-1,2.1-2.1,2.1
					c-0.5,0-1-0.2-1.4-0.6c-0.3-0.4-0.6-0.9-0.6-1.4c0-0.5,0.2-1,0.5-1.4c0.3-0.3,0.8-0.5,1.2-0.6v0.5c0,0.1,0,0.1,0.1,0.2
					c0,0,0.1,0,0.1,0c0,0,0.1,0,0.1,0l1.2-0.7c0,0,0.1-0.1,0.1-0.1l0.1,0c0.1,0,0.1-0.1,0.1-0.2c0-0.1,0-0.1-0.1-0.2l-0.1,0
					c0,0,0-0.1-0.1-0.1l-1.2-0.7c-0.1,0-0.1,0-0.2,0s-0.1,0.1-0.1,0.2v0.5c-1.3,0.1-2.3,1.2-2.3,2.5c0,0,0,0.1,0,0.1
					c0,0,0,0.1,0,0.1c0,1.4,1.1,2.5,2.5,2.5c0.7,0,1.4-0.3,1.9-0.8C38-70.9,38.3-71.5,38.3-72.3z"/>
			</g>
		</g>
		<g id="Settings_3_">
			<g>
				<path class="st6" d="M231.2-75.1h-5.8c-0.2,0-0.4,0.2-0.4,0.4v0.1c0,0.2,0.2,0.4,0.4,0.4h5.8c0.2,0,0.4-0.2,0.4-0.4v-0.1
					C231.6-74.9,231.4-75.1,231.2-75.1z M231.2-73.2h-5.8c-0.2,0-0.4,0.2-0.4,0.4v0.1c0,0.2,0.2,0.4,0.4,0.4h5.8
					c0.2,0,0.4-0.2,0.4-0.4v-0.1C231.6-73,231.4-73.2,231.2-73.2z M231.2-71.3h-5.8c-0.2,0-0.4,0.2-0.4,0.4v0.1
					c0,0.2,0.2,0.4,0.4,0.4h5.8c0.2,0,0.4-0.2,0.4-0.4V-71C231.6-71.2,231.4-71.3,231.2-71.3z"/>
			</g>
		</g>
		<g id="Adress_3_">
			<g>
				<path class="st5" d="M218.6-76.5H48.1c-0.4,0-0.7,0.3-0.7,0.7v6c0,0.4,0.3,0.7,0.7,0.7h170.5c0.4,0,0.7-0.3,0.7-0.7v-6
					C219.3-76.2,219-76.5,218.6-76.5z"/>
			</g>
		</g>
		<g id="https_2_">
			<g id="https:_x2F__x2F_www.yourwebsite.com">
			</g>
			<g id="Icon_3_">
				<g>
					<path class="st13" d="M51.5-72.3c0-0.1-0.1-0.2-0.2-0.2c-0.1,0-0.2,0.1-0.2,0.2v0.3c-0.1,0.1-0.2,0.2-0.2,0.3
						c0,0.2,0.1,0.3,0.3,0.3c0.2,0,0.3-0.1,0.3-0.3c0-0.1-0.1-0.2-0.2-0.3V-72.3z M52.6-73.2v-0.9c0-0.7-0.5-1.2-1.2-1.2
						s-1.2,0.5-1.2,1.2v0.9c-0.2,0-0.5,0.2-0.5,0.5v1.8c0,0.3,0.2,0.5,0.5,0.5h2.4c0.2,0,0.5-0.2,0.5-0.5v-1.8
						C53-73,52.8-73.2,52.6-73.2z M50.5-74.1c0-0.5,0.4-0.9,0.9-0.9s0.9,0.4,0.9,0.9v0.9h-1.8V-74.1z M52.7-70.9
						c0,0.1-0.1,0.2-0.2,0.2h-2.4c-0.1,0-0.2-0.1-0.2-0.2v-1.8c0-0.1,0.1-0.2,0.2-0.2h2.4c0.1,0,0.2,0.1,0.2,0.2V-70.9z"/>
				</g>
			</g>
		</g>
	</g>
	<g id="Caption_buttons_4_">
		<g id="Ellipse_3_">
			<g>
				<circle class="st8" cx="5.7" cy="-89.1" r="2.7"/>
			</g>
		</g>
		<g id="Ellipse_2_3_">
			<g>
				<circle class="st9" cx="15.8" cy="-89.1" r="2.7"/>
			</g>
		</g>
		<g id="Ellipse_3_3_">
			<g>
				<path class="st10" d="M25.8-91.8c-1.5,0-2.7,1.2-2.7,2.7s1.2,2.7,2.7,2.7s2.7-1.2,2.7-2.7S27.4-91.8,25.8-91.8z"/>
			</g>
		</g>
	</g>
	<g id="Place_your_image_here_xA0_Bild_1_" class="st0">
		
			<image style="display:inline;overflow:visible;" width="997" height="616" id="Place_your_image_here_xA0_Bild" xlink:href="55F09460ACF6CBB.png"  transform="matrix(0.24 0 0 0.24 -2.5744 -64.4696)">
		</image>
	</g>
	<rect x="5.4" y="4" class="st14" width="16.6" height="18.2"/>
	<text transform="matrix(1 0 0 1 5.3779 13.7493)" class="st15 st16 st17">2</text>
	<circle class="st18" cx="9.2" cy="9.4" r="8.4"/>
	<path class="st12" d="M66.8-56h49.8c2.1,0,3.7,1.7,3.7,3.7v9.4c0,2.1-1.7,3.7-3.7,3.7H43.8c-2.1,0-3.7-1.7-3.7-3.7v-9.4
		c0-2.1,1.7-3.7,3.7-3.7h7.6l-0.3-10.9L66.8-56"/>
	<path class="st12" d="M66.8-56"/>
	<rect x="43.6" y="-52.5" class="st14" width="75.9" height="10.6"/>
	<text transform="matrix(1 0 0 1 43.5833 -49.4922)"><tspan x="0" y="0" class="st16" style="font-size:4px;">Möchtest Du happyhamster.org Zugriff </tspan><tspan x="0" y="6" class="st16" style="font-size:4px;">auf Deinen Standort erlauben?</tspan></text>
	<rect x="55.4" y="-75.2" class="st14" width="82.9" height="12.2"/>
	<text transform="matrix(1 0 0 1 55.3997 -71.4034)" class="st16" style="font-size:5px;">happyhamster.org</text>
	<path class="st11" d="M129.8,43.3H43.5c-1.9,0-3.5-1.6-3.5-3.5V-4.6c0-1.9,1.6-3.5,3.5-3.5h86.3c1.9,0,3.5,1.6,3.5,3.5v44.3
		C133.4,41.7,131.8,43.3,129.8,43.3z"/>
	<rect x="45.3" y="-2" class="st14" width="80.2" height="8.6"/>
	<text transform="matrix(1 0 0 1 45.2864 1.7858)" class="st16" style="fill:#0B0033; font-size:5px;">happyhamster.org möchte:</text>
	<line class="st14" x1="122.8" y1="-4.7" x2="127.9" y2="0.4"/>
	<g>
		<line class="st19" x1="123.8" y1="-2.2" x2="127.3" y2="1.3"/>
	</g>
	<g>
		<line class="st19" x1="127.3" y1="-2.2" x2="123.8" y2="1.3"/>
	</g>
	<g>
		<g>
			<path class="st15" d="M49.4,7.3c-2.3,0-4.1,1.8-4.1,4.1c0,0.9,0.5,2.3,1.7,4.3c0.8,1.4,1.6,2.6,1.6,2.6l0.6,0.9
				c0.1,0.1,0.2,0.1,0.3,0.1s0.2-0.1,0.3-0.1l0.6-0.9c0,0,0.8-1.2,1.6-2.6c1.1-2.1,1.7-3.4,1.7-4.3C53.5,9.2,51.6,7.3,49.4,7.3z
				 M51.3,15.5c-0.8,1.4-1.5,2.5-1.6,2.6l-0.3,0.5l-0.3-0.5c0,0-0.8-1.2-1.6-2.6c-1.1-1.9-1.6-3.3-1.6-4c0-1.9,1.6-3.5,3.5-3.5
				c1.9,0,3.5,1.6,3.5,3.5C52.9,12.2,52.3,13.5,51.3,15.5z"/>
			<path class="st15" d="M49.4,9.1c-1.3,0-2.3,1-2.3,2.3s1,2.3,2.3,2.3c1.3,0,2.3-1,2.3-2.3S50.6,9.1,49.4,9.1z M49.4,13
				c-0.9,0-1.7-0.7-1.7-1.7s0.7-1.7,1.7-1.7c0.9,0,1.7,0.7,1.7,1.7S50.3,13,49.4,13z"/>
		</g>
	</g>
	<rect x="56.9" y="11" class="st14" width="61.2" height="8.2"/>
	<text transform="matrix(1 0 0 1 56.8797 14.7065)" class="st16" style="fill:#0B0033; font-size:5px;">Deinen Standort abrufen</text>
	<path class="st20" d="M80.6,36.3H47.9c-1.1,0-2-0.9-2-2v-7.2c0-1.1,0.9-2,2-2h32.7c1.1,0,2,0.9,2,2v7.2
		C82.6,35.4,81.7,36.3,80.6,36.3z"/>
	<path class="st20" d="M123.6,36.3H90.8c-1.1,0-2-0.9-2-2v-7.2c0-1.1,0.9-2,2-2h32.7c1.1,0,2,0.9,2,2v7.2
		C125.5,35.4,124.6,36.3,123.6,36.3z"/>
	<rect x="48.7" y="28.6" class="st14" width="30.9" height="6.6"/>
	<text transform="matrix(1 0 0 1 52.1926 32.3745)" class="st16" style="fill:#0B0033; font-size:5px;">Blockieren</text>
	<rect x="91.7" y="28.6" class="st14" width="30.9" height="6.6"/>
	<text transform="matrix(1 0 0 1 96.9449 32.3745)" class="st16" style="fill:#0B0033; font-size:5px;">Zulassen</text>
</g>
</svg>
