<?xml version="1.0" encoding="utf-8"?>
<!-- Generator: Adobe Illustrator 24.1.0, SVG Export Plug-In . SVG Version: 6.00 Build 0)  -->
<svg version="1.1" xmlns="http://www.w3.org/2000/svg" xmlns:xlink="http://www.w3.org/1999/xlink" x="0px" y="0px"
	 viewBox="0 0 239.2 55.1" style="enable-background:new 0 0 239.2 55.1;" xml:space="preserve">
<style type="text/css">
	.st0{display:none;}
	.st1{display:inline;}
	.st2{fill:#233738;}
	.st3{fill:#E6E6E6;}
	.st4{fill:#B4B4B4;}
	.st5{fill:#FFFFFF;}
	.st6{fill:#CBCBCB;}
	.st7{fill:#696969;}
	.st8{fill:#FF5141;}
	.st9{fill:#F1BB3F;}
	.st10{fill:#70CB43;}
	.st11{fill:#F1F1F1;}
	.st12{fill:#DBDBDB;}
	.st13{fill:#02A916;}
</style>
<g id="Background_xA0_Bild_1_" class="st0">
	
		<image style="display:inline;overflow:visible;" width="3000" height="1800" id="Background_xA0_Bild" xlink:href="E3AB92D3A4C2401D.jpg"  transform="matrix(0.24 0 0 0.24 -96.48 -17.9537)">
	</image>
</g>
<g id="Browser_04_1_" class="st0">
	<g id="Body" class="st1">
		<g>
			<path class="st2" d="M525.5,215.3H289.7c-1,0-1.7,0.8-1.7,1.7v179.9h239.2V217.1C527.2,216.1,526.4,215.3,525.5,215.3z"/>
		</g>
	</g>
	<g id="Tabs_7_" class="st1">
		<g id="Right">
			<g>
				<path class="st3" d="M426.2,222.8c-0.5-0.8-1.6-1.4-2.5-1.4h-58.2c-0.9,0-2,0.6-2.3,1.4l-5.7,11.9h75.8L426.2,222.8z"/>
			</g>
		</g>
		<g id="Close">
			<g>
				<path class="st4" d="M421.8,224.3c-0.6,0-1.1,0.5-1.1,1.1s0.5,1.1,1.1,1.1s1.1-0.5,1.1-1.1S422.4,224.3,421.8,224.3z
					 M422.4,225.8L422,226l-0.2-0.3l-0.3,0.3l-0.3-0.2l0.3-0.4l-0.3-0.4l0,0l0-0.1l0.1,0.1l0.3-0.2l0.2,0.3l0.2-0.3l0.3,0.2
					l-0.3,0.4L422.4,225.8z"/>
			</g>
		</g>
		<g id="Left">
			<g>
				<path class="st5" d="M357.2,222.8c-0.5-0.8-1.6-1.4-2.5-1.4h-58.2c-0.9,0-2,0.6-2.3,1.4l-5.7,11.9h75.8L357.2,222.8z"/>
			</g>
		</g>
		<g id="Close_1_">
			<g>
				<path class="st6" d="M353.4,224.3c-0.6,0-1.1,0.5-1.1,1.1s0.5,1.1,1.1,1.1c0.6,0,1.1-0.5,1.1-1.1S354,224.3,353.4,224.3z
					 M354,225.8l-0.3,0.2l-0.2-0.3l-0.3,0.3l-0.3-0.2l0.3-0.4l-0.3-0.4l0,0l0-0.1l0.1,0.1l0.3-0.2l0.2,0.3l0.2-0.3l0.3,0.2l-0.3,0.4
					L354,225.8z"/>
			</g>
		</g>
	</g>
	<g id="Navigation_7_" class="st1">
		<g id="Background_1_">
			<g>
				<rect x="288" y="232.9" class="st5" width="239.2" height="16.3"/>
			</g>
		</g>
		<g id="Left_1_">
			<g>
				<path class="st6" d="M300.5,240.7h-5.1l1.5-1.6c0.1-0.1,0.1-0.4,0-0.5c-0.1-0.1-0.4-0.1-0.5,0l-1.9,1.9
					c-0.1,0.1-0.2,0.3-0.2,0.5v0.1c0,0.2,0.1,0.4,0.2,0.5l1.9,1.9c0.1,0.1,0.4,0.1,0.5,0c0.1-0.1,0.1-0.4,0-0.5l-1.5-1.6h5.1
					c0.2,0,0.4-0.2,0.4-0.4v0C300.9,240.9,300.7,240.7,300.5,240.7z"/>
			</g>
		</g>
		<g id="Right_1_">
			<g>
				<path class="st6" d="M314.9,240.6l-1.9-1.9c-0.1-0.1-0.4-0.1-0.5,0c-0.1,0.1-0.1,0.4,0,0.5l1.5,1.6h-5.1c-0.2,0-0.4,0.2-0.4,0.4
					v0c0,0.2,0.2,0.4,0.4,0.4h5.1l-1.5,1.6c-0.1,0.1-0.1,0.4,0,0.5c0.1,0.1,0.4,0.1,0.5,0l1.9-1.9c0.1-0.1,0.2-0.3,0.2-0.5V241
					C315.1,240.9,315,240.7,314.9,240.6z"/>
			</g>
		</g>
		<g id="Refresh">
			<g>
				<path class="st6" d="M328.9,241.5c0-0.1-0.1-0.2-0.2-0.2c0-0.1-0.1-0.2-0.2-0.2c-0.1,0-0.2,0.1-0.2,0.2c0,1.2-1,2.1-2.1,2.1
					c-0.5,0-1-0.2-1.4-0.6c-0.3-0.4-0.6-0.9-0.6-1.4c0-0.5,0.2-1,0.5-1.4c0.3-0.3,0.8-0.5,1.2-0.6v0.5c0,0.1,0,0.1,0.1,0.2
					c0,0,0.1,0,0.1,0c0,0,0.1,0,0.1,0l1.2-0.7c0,0,0.1-0.1,0.1-0.1l0.1,0c0.1,0,0.1-0.1,0.1-0.2c0-0.1,0-0.1-0.1-0.2l-0.1,0
					c0,0,0-0.1-0.1-0.1l-1.2-0.7c-0.1,0-0.1,0-0.2,0c-0.1,0-0.1,0.1-0.1,0.2v0.5c-1.3,0.1-2.3,1.2-2.3,2.5c0,0,0,0.1,0,0.1
					c0,0,0,0.1,0,0.1c0,1.4,1.1,2.5,2.5,2.5c0.7,0,1.4-0.3,1.9-0.8C328.6,242.8,328.9,242.2,328.9,241.5z"/>
			</g>
		</g>
		<g id="Settings">
			<g>
				<path class="st6" d="M521.8,238.7H516c-0.2,0-0.4,0.2-0.4,0.4v0.1c0,0.2,0.2,0.4,0.4,0.4h5.8c0.2,0,0.4-0.2,0.4-0.4V239
					C522.1,238.8,522,238.7,521.8,238.7z M521.8,240.5H516c-0.2,0-0.4,0.2-0.4,0.4v0.1c0,0.2,0.2,0.4,0.4,0.4h5.8
					c0.2,0,0.4-0.2,0.4-0.4v-0.1C522.1,240.7,522,240.5,521.8,240.5z M521.8,242.4H516c-0.2,0-0.4,0.2-0.4,0.4v0.1
					c0,0.2,0.2,0.4,0.4,0.4h5.8c0.2,0,0.4-0.2,0.4-0.4v-0.1C522.1,242.6,522,242.4,521.8,242.4z"/>
			</g>
		</g>
		<g id="Adress">
			<g>
				<path class="st3" d="M509.2,237.2H338.7c-0.4,0-0.7,0.3-0.7,0.7v6c0,0.4,0.3,0.7,0.7,0.7h170.5c0.4,0,0.7-0.3,0.7-0.7v-6
					C509.9,237.5,509.6,237.2,509.2,237.2z"/>
			</g>
		</g>
		<g id="http_3_">
			<g id="http:_x2F__x2F_www.yourwebsite.com_1_">
				<text transform="matrix(1 0 0 1 346.1763 241.9662)"><tspan x="0" y="0" style="fill:#ACACAC; font-family:'OpenSans'; font-size:3.6px;">http://www.</tspan><tspan x="18.3" y="0" class="st7" style="font-family:'OpenSans'; font-size:3.6px;">yourwebsite</tspan><tspan x="36.9" y="0" style="fill:#ACACAC; font-family:'OpenSans'; font-size:3.6px;">.com</tspan></text>
			</g>
			<g id="Icon">
				<g>
					<path class="st7" d="M343.7,239.7l-1.4-1.4c0,0-0.1,0-0.1,0h-2c-0.1,0-0.2,0.1-0.2,0.2v4.5c0,0.1,0.1,0.2,0.2,0.2h3.2
						c0.1,0,0.2-0.1,0.2-0.2L343.7,239.7C343.8,239.8,343.8,239.7,343.7,239.7z M342.4,238.8l0.9,0.9h-0.9V238.8z M343.5,243h-3.2
						v-4.5h1.9v1.2c0,0.1,0.1,0.1,0.1,0.1h1.2V243z"/>
				</g>
			</g>
		</g>
	</g>
	<g id="Caption_buttons_7_" class="st1">
		<g id="Ellipse">
			<g>
				<path class="st8" d="M518.9,221.9c-1.5,0-2.7,1.2-2.7,2.7c0,1.5,1.2,2.7,2.7,2.7s2.7-1.2,2.7-2.7
					C521.7,223.1,520.5,221.9,518.9,221.9z"/>
			</g>
		</g>
		<g id="Ellipse_2">
			<g>
				<path class="st9" d="M508.9,221.9c-1.5,0-2.7,1.2-2.7,2.7c0,1.5,1.2,2.7,2.7,2.7s2.7-1.2,2.7-2.7
					C511.6,223.1,510.4,221.9,508.9,221.9z"/>
			</g>
		</g>
		<g id="Ellipse_3">
			<g>
				<path class="st10" d="M498.8,221.9c-1.5,0-2.7,1.2-2.7,2.7c0,1.5,1.2,2.7,2.7,2.7c1.5,0,2.7-1.2,2.7-2.7
					C501.5,223.1,500.3,221.9,498.8,221.9z"/>
			</g>
		</g>
	</g>
	<g id="web_copy_xA0_Bild_1_" class="st1">
		
			<image style="overflow:visible;" width="997" height="616" id="web_copy_xA0_Bild" xlink:href="E3AB92D3A4C24023.png"  transform="matrix(0.24 0 0 0.24 288 249.1663)">
		</image>
	</g>
</g>
<g id="Browser_03_1_" class="st0">
	<g id="Body_1_" class="st1">
		<g>
			<path class="st11" d="M237.5,215.3H1.7c-1,0-1.7,0.8-1.7,1.7v179.9h239.2V217.1C239.2,216.1,238.4,215.3,237.5,215.3z"/>
		</g>
	</g>
	<g id="Tabs_6_" class="st1">
		<g id="Right_2_">
			<g>
				<path class="st12" d="M138.2,222.8c-0.5-0.8-1.6-1.4-2.5-1.4H77.6c-0.9,0-2,0.6-2.3,1.4l-5.7,11.9h75.8L138.2,222.8z"/>
			</g>
		</g>
		<g id="Close_2_">
			<g>
				<path class="st4" d="M133.8,224.3c-0.6,0-1.1,0.5-1.1,1.1s0.5,1.1,1.1,1.1s1.1-0.5,1.1-1.1S134.4,224.3,133.8,224.3z
					 M134.4,225.8L134,226l-0.2-0.3l-0.3,0.3l-0.3-0.2l0.3-0.4l-0.3-0.4l0,0l0-0.1l0.1,0.1l0.3-0.2l0.2,0.3l0.2-0.3l0.3,0.2
					l-0.3,0.4L134.4,225.8z"/>
			</g>
		</g>
		<g id="Left_2_">
			<g>
				<path class="st3" d="M69.2,222.8c-0.5-0.8-1.6-1.4-2.5-1.4H8.6c-0.9,0-2,0.6-2.3,1.4l-5.7,11.9h75.8L69.2,222.8z"/>
			</g>
		</g>
		<g id="Close_3_">
			<g>
				<path class="st6" d="M65.4,224.3c-0.6,0-1.1,0.5-1.1,1.1s0.5,1.1,1.1,1.1c0.6,0,1.1-0.5,1.1-1.1S66,224.3,65.4,224.3z M66,225.8
					l-0.3,0.2l-0.2-0.3l-0.3,0.3l-0.3-0.2l0.3-0.4l-0.3-0.4l0,0l0-0.1l0.1,0.1l0.3-0.2l0.2,0.3l0.2-0.3L66,225l-0.3,0.4L66,225.8z"
					/>
			</g>
		</g>
	</g>
	<g id="Navigation_6_" class="st1">
		<g id="Background_2_">
			<g>
				<rect x="0" y="232.9" class="st3" width="239.2" height="16.3"/>
			</g>
		</g>
		<g id="Left_3_">
			<g>
				<path class="st6" d="M12.5,240.7H7.4l1.5-1.6c0.1-0.1,0.1-0.4,0-0.5c-0.1-0.1-0.4-0.1-0.5,0l-1.9,1.9c-0.1,0.1-0.2,0.3-0.2,0.5
					v0.1c0,0.2,0.1,0.4,0.2,0.5l1.9,1.9c0.1,0.1,0.4,0.1,0.5,0c0.1-0.1,0.1-0.4,0-0.5l-1.5-1.6h5.1c0.2,0,0.4-0.2,0.4-0.4v0
					C12.9,240.9,12.7,240.7,12.5,240.7z"/>
			</g>
		</g>
		<g id="Right_3_">
			<g>
				<path class="st6" d="M26.9,240.6l-1.9-1.9c-0.1-0.1-0.4-0.1-0.5,0c-0.1,0.1-0.1,0.4,0,0.5l1.5,1.6h-5.1c-0.2,0-0.4,0.2-0.4,0.4
					v0c0,0.2,0.2,0.4,0.4,0.4H26l-1.5,1.6c-0.1,0.1-0.1,0.4,0,0.5c0.1,0.1,0.4,0.1,0.5,0l1.9-1.9c0.1-0.1,0.2-0.3,0.2-0.5V241
					C27.1,240.9,27,240.7,26.9,240.6z"/>
			</g>
		</g>
		<g id="Refresh_1_">
			<g>
				<path class="st6" d="M40.9,241.5c0-0.1-0.1-0.2-0.2-0.2c0-0.1-0.1-0.2-0.2-0.2c-0.1,0-0.2,0.1-0.2,0.2c0,1.2-1,2.1-2.1,2.1
					c-0.5,0-1-0.2-1.4-0.6c-0.3-0.4-0.6-0.9-0.6-1.4c0-0.5,0.2-1,0.5-1.4c0.3-0.3,0.8-0.5,1.2-0.6v0.5c0,0.1,0,0.1,0.1,0.2
					c0,0,0.1,0,0.1,0c0,0,0.1,0,0.1,0l1.2-0.7c0,0,0.1-0.1,0.1-0.1l0.1,0c0.1,0,0.1-0.1,0.1-0.2c0-0.1,0-0.1-0.1-0.2l-0.1,0
					c0,0,0-0.1-0.1-0.1l-1.2-0.7c-0.1,0-0.1,0-0.2,0s-0.1,0.1-0.1,0.2v0.5c-1.3,0.1-2.3,1.2-2.3,2.5c0,0,0,0.1,0,0.1
					c0,0,0,0.1,0,0.1c0,1.4,1.1,2.5,2.5,2.5c0.7,0,1.4-0.3,1.9-0.8C40.6,242.8,40.9,242.2,40.9,241.5z"/>
			</g>
		</g>
		<g id="Settings_1_">
			<g>
				<path class="st6" d="M233.8,238.7H228c-0.2,0-0.4,0.2-0.4,0.4v0.1c0,0.2,0.2,0.4,0.4,0.4h5.8c0.2,0,0.4-0.2,0.4-0.4V239
					C234.1,238.8,234,238.7,233.8,238.7z M233.8,240.5H228c-0.2,0-0.4,0.2-0.4,0.4v0.1c0,0.2,0.2,0.4,0.4,0.4h5.8
					c0.2,0,0.4-0.2,0.4-0.4v-0.1C234.1,240.7,234,240.5,233.8,240.5z M233.8,242.4H228c-0.2,0-0.4,0.2-0.4,0.4v0.1
					c0,0.2,0.2,0.4,0.4,0.4h5.8c0.2,0,0.4-0.2,0.4-0.4v-0.1C234.1,242.6,234,242.4,233.8,242.4z"/>
			</g>
		</g>
		<g id="Adress_1_">
			<g>
				<path class="st5" d="M221.2,237.2H50.7c-0.4,0-0.7,0.3-0.7,0.7v6c0,0.4,0.3,0.7,0.7,0.7h170.5c0.4,0,0.7-0.3,0.7-0.7v-6
					C221.9,237.5,221.6,237.2,221.2,237.2z"/>
			</g>
		</g>
		<g id="https_3_">
			<g id="https:_x2F__x2F_www.yourwebsite.com_1_">
				<text transform="matrix(1 0 0 1 58.1758 241.9662)"><tspan x="0" y="0" style="fill:#ACACAC; font-family:'OpenSans'; font-size:3.6px;">https://www.</tspan><tspan x="19.8" y="0" class="st7" style="font-family:'OpenSans'; font-size:3.6px;">yourwebsite</tspan><tspan x="38.4" y="0" style="fill:#ACACAC; font-family:'OpenSans'; font-size:3.6px;">.com</tspan></text>
			</g>
			<g id="Icon_1_">
				<g>
					<path class="st13" d="M55.1,240.5v-0.9c0-0.7-0.5-1.2-1.2-1.2s-1.2,0.5-1.2,1.2v0.9c-0.2,0-0.5,0.2-0.5,0.5v1.8
						c0,0.3,0.2,0.5,0.5,0.5h2.4c0.2,0,0.5-0.2,0.5-0.5V241C55.6,240.7,55.4,240.5,55.1,240.5z M53,239.6c0-0.5,0.4-0.9,0.9-0.9
						s0.9,0.4,0.9,0.9v0.9H53V239.6z M55.3,242.8c0,0.1-0.1,0.2-0.2,0.2h-2.4c-0.1,0-0.2-0.1-0.2-0.2V241c0-0.1,0.1-0.2,0.2-0.2h2.4
						c0.1,0,0.2,0.1,0.2,0.2V242.8z M54.1,241.4c0-0.1-0.1-0.2-0.2-0.2c-0.1,0-0.2,0.1-0.2,0.2v0.3c-0.1,0.1-0.2,0.2-0.2,0.3
						c0,0.2,0.1,0.3,0.3,0.3c0.2,0,0.3-0.1,0.3-0.3c0-0.1-0.1-0.2-0.2-0.3V241.4z"/>
				</g>
			</g>
		</g>
	</g>
	<g id="Caption_buttons_6_" class="st1">
		<g id="Ellipse_1_">
			<g>
				<path class="st8" d="M230.9,221.9c-1.5,0-2.7,1.2-2.7,2.7c0,1.5,1.2,2.7,2.7,2.7s2.7-1.2,2.7-2.7
					C233.7,223.1,232.5,221.9,230.9,221.9z"/>
			</g>
		</g>
		<g id="Ellipse_2_1_">
			<g>
				<path class="st9" d="M220.9,221.9c-1.5,0-2.7,1.2-2.7,2.7c0,1.5,1.2,2.7,2.7,2.7c1.5,0,2.7-1.2,2.7-2.7
					C223.6,223.1,222.4,221.9,220.9,221.9z"/>
			</g>
		</g>
		<g id="Ellipse_3_1_">
			<g>
				<path class="st10" d="M210.8,221.9c-1.5,0-2.7,1.2-2.7,2.7c0,1.5,1.2,2.7,2.7,2.7s2.7-1.2,2.7-2.7
					C213.5,223.1,212.3,221.9,210.8,221.9z"/>
			</g>
		</g>
	</g>
	<g id="web_xA0_Bild_3_" class="st1">
		
			<image style="overflow:visible;" width="997" height="616" id="web_xA0_Bild_2_" xlink:href="E3AB92D3A4C24027.png"  transform="matrix(0.24 0 0 0.24 4.051208e-05 249.1663)">
		</image>
	</g>
</g>
<g id="Browser_02_1_" class="st0">
	<g id="Body_2_" class="st1">
		<g>
			<path class="st2" d="M525.5-0.5H289.7c-1,0-1.7,0.8-1.7,1.7v179.9h239.2V1.2C527.2,0.2,526.4-0.5,525.5-0.5z"/>
		</g>
	</g>
	<g id="Tabs_5_" class="st1">
		<g id="Right_4_">
			<g>
				<path class="st3" d="M462.6,6.9c-0.5-0.8-1.6-1.4-2.5-1.4H402c-0.9,0-2,0.6-2.3,1.4L394,18.8h75.8L462.6,6.9z"/>
			</g>
		</g>
		<g id="Close_4_">
			<g>
				<path class="st4" d="M402.9,8.5c-0.6,0-1.1,0.5-1.1,1.1c0,0.6,0.5,1.1,1.1,1.1c0.6,0,1.1-0.5,1.1-1.1
					C404,8.9,403.5,8.5,402.9,8.5z M403.5,9.9l-0.3,0.2l-0.2-0.3l-0.3,0.3l-0.3-0.2l0.3-0.4l-0.3-0.4l0,0l0-0.1l0.1,0.1l0.3-0.2
					l0.2,0.3l0.2-0.3l0.3,0.2l-0.3,0.4L403.5,9.9z"/>
			</g>
		</g>
		<g id="Left_4_">
			<g>
				<path class="st5" d="M393.7,6.9c-0.5-0.8-1.6-1.4-2.5-1.4H333c-0.9,0-2,0.6-2.3,1.4L325,18.8h75.8L393.7,6.9z"/>
			</g>
		</g>
		<g id="Close_5_">
			<g>
				<path class="st6" d="M334.5,8.5c-0.6,0-1.1,0.5-1.1,1.1c0,0.6,0.5,1.1,1.1,1.1c0.6,0,1.1-0.5,1.1-1.1
					C335.6,8.9,335.1,8.5,334.5,8.5z M335.1,9.9l-0.3,0.2l-0.2-0.3l-0.3,0.3l-0.3-0.2l0.3-0.4L334,9.2l0,0l0-0.1l0.1,0.1l0.3-0.2
					l0.2,0.3l0.2-0.3l0.3,0.2l-0.3,0.4L335.1,9.9z"/>
			</g>
		</g>
	</g>
	<g id="Navigation_5_" class="st1">
		<g id="Background_3_">
			<g>
				<rect x="288" y="17" class="st5" width="239.2" height="16.3"/>
			</g>
		</g>
		<g id="Left_5_">
			<g>
				<path class="st6" d="M300.5,24.9h-5.1l1.5-1.6c0.1-0.1,0.1-0.4,0-0.5c-0.1-0.1-0.4-0.1-0.5,0l-1.9,1.9c-0.1,0.1-0.2,0.3-0.2,0.5
					v0.1c0,0.2,0.1,0.4,0.2,0.5l1.9,1.9c0.1,0.1,0.4,0.1,0.5,0c0.1-0.1,0.1-0.4,0-0.5l-1.5-1.6h5.1c0.2,0,0.4-0.2,0.4-0.4v0
					C300.9,25,300.7,24.9,300.5,24.9z"/>
			</g>
		</g>
		<g id="Right_5_">
			<g>
				<path class="st6" d="M314.9,24.7l-1.9-1.9c-0.1-0.1-0.4-0.1-0.5,0c-0.1,0.1-0.1,0.4,0,0.5l1.5,1.6h-5.1c-0.2,0-0.4,0.2-0.4,0.4
					v0c0,0.2,0.2,0.4,0.4,0.4h5.1l-1.5,1.6c-0.1,0.1-0.1,0.4,0,0.5c0.1,0.1,0.4,0.1,0.5,0l1.9-1.9c0.1-0.1,0.2-0.3,0.2-0.5v-0.1
					C315.1,25,315,24.8,314.9,24.7z"/>
			</g>
		</g>
		<g id="Refresh_2_">
			<g>
				<path class="st6" d="M328.9,25.6c0-0.1-0.1-0.2-0.2-0.2c0-0.1-0.1-0.2-0.2-0.2c-0.1,0-0.2,0.1-0.2,0.2c0,1.2-1,2.1-2.1,2.1
					c-0.5,0-1-0.2-1.4-0.6c-0.3-0.4-0.6-0.9-0.6-1.4c0-0.5,0.2-1,0.5-1.4c0.3-0.3,0.8-0.5,1.2-0.6v0.5c0,0.1,0,0.1,0.1,0.2
					c0,0,0.1,0,0.1,0c0,0,0.1,0,0.1,0l1.2-0.7c0,0,0.1-0.1,0.1-0.1l0.1,0c0.1,0,0.1-0.1,0.1-0.2c0-0.1,0-0.1-0.1-0.2l-0.1,0
					c0,0,0-0.1-0.1-0.1l-1.2-0.7c-0.1,0-0.1,0-0.2,0c-0.1,0-0.1,0.1-0.1,0.2v0.5c-1.3,0.1-2.3,1.2-2.3,2.5c0,0,0,0.1,0,0.1
					c0,0,0,0.1,0,0.1c0,1.4,1.1,2.5,2.5,2.5c0.7,0,1.4-0.3,1.9-0.8C328.6,27,328.9,26.3,328.9,25.6z"/>
			</g>
		</g>
		<g id="Settings_2_">
			<g>
				<path class="st6" d="M521.8,22.8H516c-0.2,0-0.4,0.2-0.4,0.4v0.1c0,0.2,0.2,0.4,0.4,0.4h5.8c0.2,0,0.4-0.2,0.4-0.4v-0.1
					C522.1,23,522,22.8,521.8,22.8z M521.8,24.7H516c-0.2,0-0.4,0.2-0.4,0.4v0.1c0,0.2,0.2,0.4,0.4,0.4h5.8c0.2,0,0.4-0.2,0.4-0.4
					V25C522.1,24.8,522,24.7,521.8,24.7z M521.8,26.5H516c-0.2,0-0.4,0.2-0.4,0.4V27c0,0.2,0.2,0.4,0.4,0.4h5.8
					c0.2,0,0.4-0.2,0.4-0.4v-0.1C522.1,26.7,522,26.5,521.8,26.5z"/>
			</g>
		</g>
		<g id="Adress_2_">
			<g>
				<path class="st3" d="M509.2,21.4H338.7c-0.4,0-0.7,0.3-0.7,0.7v6c0,0.4,0.3,0.7,0.7,0.7h170.5c0.4,0,0.7-0.3,0.7-0.7v-6
					C509.9,21.7,509.6,21.4,509.2,21.4z"/>
			</g>
		</g>
		<g id="http_2_">
			<g id="http:_x2F__x2F_www.yourwebsite.com">
				<text transform="matrix(1 0 0 1 346.1763 26.1102)"><tspan x="0" y="0" style="fill:#ACACAC; font-family:'OpenSans'; font-size:3.6px;">http://www.</tspan><tspan x="18.3" y="0" class="st7" style="font-family:'OpenSans'; font-size:3.6px;">yourwebsite</tspan><tspan x="36.9" y="0" style="fill:#ACACAC; font-family:'OpenSans'; font-size:3.6px;">.com</tspan></text>
			</g>
			<g id="Icon_2_">
				<g>
					<path class="st7" d="M343.7,23.9l-1.4-1.4c0,0-0.1,0-0.1,0h-2c-0.1,0-0.2,0.1-0.2,0.2v4.5c0,0.1,0.1,0.2,0.2,0.2h3.2
						c0.1,0,0.2-0.1,0.2-0.2L343.7,23.9C343.8,23.9,343.8,23.9,343.7,23.9z M342.4,22.9l0.9,0.9h-0.9V22.9z M343.5,27.2h-3.2v-4.5
						h1.9V24c0,0.1,0.1,0.1,0.1,0.1h1.2V27.2z"/>
				</g>
			</g>
		</g>
	</g>
	<g id="Caption_buttons_5_" class="st1">
		<g id="Ellipse_2_">
			<g>
				<path class="st8" d="M296.2,6c-1.5,0-2.7,1.2-2.7,2.7s1.2,2.7,2.7,2.7c1.5,0,2.7-1.2,2.7-2.7S297.8,6,296.2,6z"/>
			</g>
		</g>
		<g id="Ellipse_2_2_">
			<g>
				<circle class="st9" cx="306.3" cy="8.8" r="2.7"/>
			</g>
		</g>
		<g id="Ellipse_3_2_">
			<g>
				<circle class="st10" cx="316.4" cy="8.8" r="2.7"/>
			</g>
		</g>
	</g>
	<g id="web_xA0_Bild_1_" class="st1">
		
			<image style="overflow:visible;" width="997" height="616" id="web_xA0_Bild" xlink:href="E3AB92D3A4C2402A.png"  transform="matrix(0.24 0 0 0.24 288 33.4063)">
		</image>
	</g>
</g>
<g id="Browser_01_1_">
	<g id="Body_3_">
		<g>
			<path class="st11" d="M237.5-0.5H1.7C0.8-0.5,0-0.3,0,0v55.1h239.2V0C239.2-0.3,238.4-0.5,237.5-0.5z"/>
		</g>
	</g>
	<g id="Tabs_4_">
		<g id="Right_6_">
			<g>
				<path class="st12" d="M174.6,6.9c-0.5-0.8-1.6-1.4-2.5-1.4H114c-0.9,0-2,0.6-2.3,1.4L106,18.8h75.8L174.6,6.9z"/>
			</g>
		</g>
		<g id="Left_6_">
			<g>
				<path class="st3" d="M105.7,6.9c-0.5-0.8-1.6-1.4-2.5-1.4H45c-0.9,0-2,0.6-2.3,1.4L37,18.8h75.8L105.7,6.9z"/>
			</g>
		</g>
	</g>
	<g id="Navigation_4_">
		<g id="Background_4_">
			<g>
				<rect x="0" y="17" class="st3" width="239.2" height="16.3"/>
			</g>
		</g>
		<g id="Left_7_">
			<g>
				<path class="st6" d="M12.5,24.9H7.4l1.5-1.6c0.1-0.1,0.1-0.4,0-0.5c-0.1-0.1-0.4-0.1-0.5,0l-1.9,1.9c-0.1,0.1-0.2,0.3-0.2,0.5
					v0.1c0,0.2,0.1,0.4,0.2,0.5l1.9,1.9c0.1,0.1,0.4,0.1,0.5,0c0.1-0.1,0.1-0.4,0-0.5l-1.5-1.6h5.1c0.2,0,0.4-0.2,0.4-0.4v0
					C12.9,25,12.7,24.9,12.5,24.9z"/>
			</g>
		</g>
		<g id="Right_7_">
			<g>
				<path class="st6" d="M26.9,24.7L25,22.8c-0.1-0.1-0.4-0.1-0.5,0c-0.1,0.1-0.1,0.4,0,0.5l1.5,1.6h-5.1c-0.2,0-0.4,0.2-0.4,0.4v0
					c0,0.2,0.2,0.4,0.4,0.4H26l-1.5,1.6c-0.1,0.1-0.1,0.4,0,0.5c0.1,0.1,0.4,0.1,0.5,0l1.9-1.9c0.1-0.1,0.2-0.3,0.2-0.5v-0.1
					C27.1,25,27,24.8,26.9,24.7z"/>
			</g>
		</g>
		<g id="Refresh_3_">
			<g>
				<path class="st6" d="M40.9,25.6c0-0.1-0.1-0.2-0.2-0.2c0-0.1-0.1-0.2-0.2-0.2c-0.1,0-0.2,0.1-0.2,0.2c0,1.2-1,2.1-2.1,2.1
					c-0.5,0-1-0.2-1.4-0.6c-0.3-0.4-0.6-0.9-0.6-1.4c0-0.5,0.2-1,0.5-1.4c0.3-0.3,0.8-0.5,1.2-0.6v0.5c0,0.1,0,0.1,0.1,0.2
					c0,0,0.1,0,0.1,0c0,0,0.1,0,0.1,0l1.2-0.7c0,0,0.1-0.1,0.1-0.1l0.1,0c0.1,0,0.1-0.1,0.1-0.2c0-0.1,0-0.1-0.1-0.2l-0.1,0
					c0,0,0-0.1-0.1-0.1l-1.2-0.7c-0.1,0-0.1,0-0.2,0S38,22.4,38,22.4v0.5c-1.3,0.1-2.3,1.2-2.3,2.5c0,0,0,0.1,0,0.1c0,0,0,0.1,0,0.1
					c0,1.4,1.1,2.5,2.5,2.5c0.7,0,1.4-0.3,1.9-0.8C40.6,27,40.9,26.3,40.9,25.6z"/>
			</g>
		</g>
		<g id="Settings_3_">
			<g>
				<path class="st6" d="M233.8,22.8H228c-0.2,0-0.4,0.2-0.4,0.4v0.1c0,0.2,0.2,0.4,0.4,0.4h5.8c0.2,0,0.4-0.2,0.4-0.4v-0.1
					C234.1,23,234,22.8,233.8,22.8z M233.8,24.7H228c-0.2,0-0.4,0.2-0.4,0.4v0.1c0,0.2,0.2,0.4,0.4,0.4h5.8c0.2,0,0.4-0.2,0.4-0.4
					V25C234.1,24.8,234,24.7,233.8,24.7z M233.8,26.5H228c-0.2,0-0.4,0.2-0.4,0.4V27c0,0.2,0.2,0.4,0.4,0.4h5.8
					c0.2,0,0.4-0.2,0.4-0.4v-0.1C234.1,26.7,234,26.5,233.8,26.5z"/>
			</g>
		</g>
		<g id="Adress_3_">
			<g>
				<path class="st5" d="M221.2,21.4H50.7c-0.4,0-0.7,0.3-0.7,0.7v6c0,0.4,0.3,0.7,0.7,0.7h170.5c0.4,0,0.7-0.3,0.7-0.7v-6
					C221.9,21.7,221.6,21.4,221.2,21.4z"/>
			</g>
		</g>
		<g id="https_2_">
			<g id="https:_x2F__x2F_www.yourwebsite.com">
			</g>
			<g id="Icon_3_">
				<g>
					<path class="st13" d="M54.1,25.6c0-0.1-0.1-0.2-0.2-0.2c-0.1,0-0.2,0.1-0.2,0.2v0.3c-0.1,0.1-0.2,0.2-0.2,0.3
						c0,0.2,0.1,0.3,0.3,0.3c0.2,0,0.3-0.1,0.3-0.3c0-0.1-0.1-0.2-0.2-0.3V25.6z M55.1,24.7v-0.9c0-0.7-0.5-1.2-1.2-1.2
						s-1.2,0.5-1.2,1.2v0.9c-0.2,0-0.5,0.2-0.5,0.5v1.8c0,0.3,0.2,0.5,0.5,0.5h2.4c0.2,0,0.5-0.2,0.5-0.5v-1.8
						C55.6,24.9,55.4,24.7,55.1,24.7z M53,23.7c0-0.5,0.4-0.9,0.9-0.9s0.9,0.4,0.9,0.9v0.9H53V23.7z M55.3,26.9
						c0,0.1-0.1,0.2-0.2,0.2h-2.4c-0.1,0-0.2-0.1-0.2-0.2v-1.8c0-0.1,0.1-0.2,0.2-0.2h2.4c0.1,0,0.2,0.1,0.2,0.2V26.9z"/>
				</g>
			</g>
		</g>
	</g>
	<g id="Caption_buttons_4_">
		<g id="Ellipse_3_">
			<g>
				<circle class="st8" cx="8.2" cy="8.8" r="2.7"/>
			</g>
		</g>
		<g id="Ellipse_2_3_">
			<g>
				<circle class="st9" cx="18.3" cy="8.8" r="2.7"/>
			</g>
		</g>
		<g id="Ellipse_3_3_">
			<g>
				<path class="st10" d="M28.4,6c-1.5,0-2.7,1.2-2.7,2.7s1.2,2.7,2.7,2.7s2.7-1.2,2.7-2.7S29.9,6,28.4,6z"/>
			</g>
		</g>
	</g>
	<g id="Place_your_image_here_xA0_Bild_1_" class="st0">
		
			<image style="display:inline;overflow:visible;" width="997" height="616" id="Place_your_image_here_xA0_Bild" xlink:href="E3AB92D3A4C2402B.png"  transform="matrix(0.24 0 0 0.24 4.051208e-05 33.4063)">
		</image>
	</g>
</g>
</svg>
