<?xml version="1.0" encoding="UTF-8"?>
<svg width="625px" height="425px" viewBox="0 0 625 425" version="1.1" xmlns="http://www.w3.org/2000/svg" xmlns:xlink="http://www.w3.org/1999/xlink">
    <!-- Generator: Sketch 63.1 (92452) - https://sketch.com -->
    <title>Illustration</title>
    <desc>Created with Sketch.</desc>
    <g id="Page-1" stroke="none" stroke-width="1" fill="none" fill-rule="evenodd">
        <g id="Desktop-HD" transform="translate(-407.000000, -1123.000000)">
            <g id="Illustration" transform="translate(407.000000, 1123.000000)">
                <path d="M402.652267,421.9472 C402.652267,421.9472 423.485333,353.299733 516.095467,396.547733 C553.136533,413.845867 565.296533,400.925333 577.7648,399.333867 C597.219733,396.8496 605.306133,410.0496 610.893333,421.9472 L402.652267,421.9472" id="Fill-2" fill="#F0F4F7"></path>
                <path d="M239.176,421.9472 L295.206933,421.9472 C295.206933,421.9472 263.4608,361.331733 219.170667,360.741867 C174.077333,360.141333 161.0288,390.560533 140.728,393.093867 C114.220267,396.402667 99.9578667,378.285333 80.7354667,379.7744 C42.0901333,382.767467 23.6688,421.9472 23.6688,421.9472 L239.176,421.9472" id="Fill-3" fill="#F0F4F7"></path>
                <path d="M88.8176,228.397333 C88.8176,235.677333 82.9157333,241.578133 75.6357333,241.578133 C68.3557333,241.578133 62.4549333,235.677333 62.4549333,228.397333 C62.4549333,221.117333 68.3557333,215.215467 75.6357333,215.215467 C82.9157333,215.215467 88.8176,221.117333 88.8176,228.397333" id="Fill-5" fill="#F0F4F7"></path>
                <path d="M556.690667,264.5488 C556.690667,268.863467 553.194133,272.36 548.879467,272.36 C544.565867,272.36 541.068267,268.863467 541.068267,264.5488 C541.068267,260.2352 544.565867,256.7376 548.879467,256.7376 C553.194133,256.7376 556.690667,260.2352 556.690667,264.5488" id="Fill-6" fill="#F0F4F7"></path>
                <path d="M54.2896,199.740267 C54.2896,203.4704 51.2666667,206.4944 47.5365333,206.4944 C43.8064,206.4944 40.7824,203.4704 40.7824,199.740267 C40.7824,196.010133 43.8064,192.9872 47.5365333,192.9872 C51.2666667,192.9872 54.2896,196.010133 54.2896,199.740267 Z" id="Stroke-7" stroke="#96B7D4" stroke-width="1.06666667" stroke-linejoin="round"></path>
                <path d="M535.709333,77.0202667 C535.709333,79.0085333 534.096533,80.6213333 532.108267,80.6213333 C530.118933,80.6213333 528.506133,79.0085333 528.506133,77.0202667 C528.506133,75.0309333 530.118933,73.4181333 532.108267,73.4181333 C534.096533,73.4181333 535.709333,75.0309333 535.709333,77.0202667" id="Fill-8" fill="#F0F4F7"></path>
                <path d="M182.0752,16.0218667 C182.0752,18.0112 180.4624,19.624 178.474133,19.624 C176.4848,19.624 174.873067,18.0112 174.873067,16.0218667 C174.873067,14.0336 176.4848,12.4208 178.474133,12.4208 C180.4624,12.4208 182.0752,14.0336 182.0752,16.0218667" id="Fill-9" fill="#F0F4F7"></path>
                <path d="M582.194667,223.401067 C582.194667,225.3904 580.581867,227.0032 578.592533,227.0032 C576.604267,227.0032 574.991467,225.3904 574.991467,223.401067 C574.991467,221.4128 576.604267,219.8 578.592533,219.8 C580.581867,219.8 582.194667,221.4128 582.194667,223.401067 Z M74.2394667,322.543467 C74.2394667,324.5328 72.6266667,326.1456 70.6373333,326.1456 C68.6490667,326.1456 67.0362667,324.5328 67.0362667,322.543467 C67.0362667,320.5552 68.6490667,318.9424 70.6373333,318.9424 C72.6266667,318.9424 74.2394667,320.5552 74.2394667,322.543467 Z M550.781333,338.2032 C550.781333,340.191467 549.168533,341.804267 547.180267,341.804267 C545.190933,341.804267 543.578133,340.191467 543.578133,338.2032 C543.578133,336.213867 545.190933,334.601067 547.180267,334.601067 C549.168533,334.601067 550.781333,336.213867 550.781333,338.2032 Z M490.233067,47.3381333 C490.233067,50.6469333 487.5504,53.3296 484.242667,53.3296 C480.933867,53.3296 478.2512,50.6469333 478.2512,47.3381333 C478.2512,44.0304 480.933867,41.3477333 484.242667,41.3477333 C487.5504,41.3477333 490.233067,44.0304 490.233067,47.3381333 Z M40.6010667,299.805333 L59.0213333,299.805333 L40.6010667,299.805333 Z M589.807467,309 L608.227733,309 L589.807467,309 Z M400.690667,83.5994667 L428.890133,83.5994667 L400.690667,83.5994667 Z M66.4261333,279.321067 L75.6357333,279.321067 L66.4261333,279.321067 Z M424.537067,73.8576 L433.746667,73.8576 L424.537067,73.8576 Z M144.837867,38.1317333 L154.047467,38.1317333 L144.837867,38.1317333 Z M161.033067,47.3381333 L170.243733,47.3381333 L161.033067,47.3381333 Z" id="Stroke-10" stroke="#96B7D4" stroke-width="1.06666667" stroke-linejoin="round"></path>
                <path d="M91.5941333,422.480533 C78.8848,397.830933 59.8490667,389.0192 51.5770667,376.729067 C49.0885333,373.032 46.92,369.033067 46.7536,364.901867 C46.5872,360.770667 48.8485333,356.489067 53.2528,354.959467 C57.0352,353.6464 61.5578667,354.554133 65.5013333,356.0016 C77.7413333,360.4976 87.0789333,369.894933 92.6618667,380.157333 C98.2448,390.4208 103.7872,406.5104 102.869867,422.480533" id="Fill-11" fill="#FFFFFE"></path>
                <path d="M91.5941333,422.480533 C78.8848,397.830933 59.8490667,389.0192 51.5770667,376.729067 C49.0885333,373.032 46.92,369.033067 46.7536,364.901867 C46.5872,360.770667 48.8485333,356.489067 53.2528,354.959467 C57.0352,353.6464 61.5578667,354.554133 65.5013333,356.0016 C77.7413333,360.4976 87.0789333,369.894933 92.6618667,380.157333 C98.2448,390.4208 103.7872,406.5104 102.869867,422.480533 M50.0901333,356.815467 C50.0901333,356.815467 89.4554667,376.985067 98.2938667,422.480533" id="Stroke-12" stroke="#96B7D4" stroke-width="1.06666667" stroke-linejoin="round"></path>
                <path d="M101.564267,422.480533 C101.510933,398.703467 96.0272,380.7856 89.1802667,360.125333 C85.7712,349.839467 81.4544,339.4224 78.9402667,328.994667 C77.1141333,321.414933 75.6208,311.8096 80.0037333,305.673067 C84.9936,298.6864 94.6117333,301.721067 101.637867,306.392 C110.0272,311.9696 115.968533,320.658667 119.7648,329.599467 C126.477333,345.408533 127.583467,362.841067 127.778667,378.960533 C127.9568,393.759467 125.016,410.099733 121.549333,422.480533" id="Fill-13" fill="#FFFFFE"></path>
                <path d="M101.564267,422.480533 C101.510933,398.703467 96.0272,380.7856 89.1802667,360.125333 C85.7712,349.839467 81.4544,339.4224 78.9402667,328.994667 C77.1141333,321.414933 75.6208,311.8096 80.0037333,305.673067 C84.9936,298.6864 94.6117333,301.721067 101.637867,306.392 C110.0272,311.9696 115.968533,320.658667 119.7648,329.599467 C126.477333,345.408533 127.583467,362.841067 127.778667,378.960533 C127.9568,393.759467 125.016,410.099733 121.549333,422.480533 M87.6506667,301.459733 C87.6506667,301.459733 117.1856,354.5488 111.849067,422.480533" id="Stroke-14" stroke="#96B7D4" stroke-width="1.06666667" stroke-linejoin="round"></path>
                <path d="M187.148267,422.480533 C185.122667,405.184533 185.302933,386.248 191.107733,369.829867 C196.911467,353.411733 208.975467,338.610667 225.305067,332.559467 C228.1296,331.513067 231.475733,330.786667 234.008,332.418667 C236.333333,333.9184 237.158933,336.9008 237.5152,339.645333 C239.282667,353.261333 233.994133,366.816533 227.3872,378.8528 C220.781333,390.890133 212.710933,409.544 208.1072,422.480533" id="Fill-15" fill="#FFFFFE"></path>
                <path d="M187.148267,422.480533 C185.122667,405.184533 185.302933,386.248 191.107733,369.829867 C196.911467,353.411733 208.975467,338.610667 225.305067,332.559467 C228.1296,331.513067 231.475733,330.786667 234.008,332.418667 C236.333333,333.9184 237.158933,336.9008 237.5152,339.645333 C239.282667,353.261333 233.994133,366.816533 227.3872,378.8528 C220.781333,390.890133 212.710933,409.544 208.1072,422.480533" id="Stroke-16" stroke="#96B7D4" stroke-width="1.06666667" stroke-linejoin="round"></path>
                <path d="M399.778667,422.480533 C398.2352,397.465067 401.056533,366.783467 409.194133,347.100267 C415.514133,331.8128 426.086933,317.462933 440.4336,308.4176 C450.770667,301.8992 470.546667,291.433067 481.034133,302.873067 C496.441067,319.683733 462.720533,346.572267 453.760533,358.184 C438.876267,377.4736 426.5904,398.355733 421.6624,422.480533" id="Fill-17" fill="#FFFFFE"></path>
                <path d="M399.778667,422.480533 C398.2352,397.465067 401.056533,366.783467 409.194133,347.100267 C415.514133,331.8128 426.086933,317.462933 440.4336,308.4176 C450.770667,301.8992 470.546667,291.433067 481.034133,302.873067 C496.441067,319.683733 462.720533,346.572267 453.760533,358.184 C438.876267,377.4736 426.5904,398.355733 421.6624,422.480533" id="Stroke-18" stroke="#96B7D4" stroke-width="1.06666667" stroke-linejoin="round"></path>
                <path d="M366.6,422.480533 C364.850667,401.6016 351.878933,382.1264 338.842133,365.724267 C325.804267,349.3232 311.792533,332.508267 307.276267,312.048533 C305.8864,305.752 305.5696,298.728 309.039467,293.293333 C314.342933,284.9872 326.282133,283.8032 335.738133,286.5744 C348.821867,290.406933 359.7424,299.923733 367.280533,311.283733 C374.8176,322.6448 379.2528,335.7872 382.463467,349.037333 C388.152,372.522133 390.227733,398.371733 388.594667,422.480533" id="Fill-19" fill="#FFFFFE"></path>
                <path d="M366.6,422.480533 C364.850667,401.6016 351.878933,382.1264 338.842133,365.724267 C325.804267,349.3232 311.792533,332.508267 307.276267,312.048533 C305.8864,305.752 305.5696,298.728 309.039467,293.293333 C314.342933,284.9872 326.282133,283.8032 335.738133,286.5744 C348.821867,290.406933 359.7424,299.923733 367.280533,311.283733 C374.8176,322.6448 379.2528,335.7872 382.463467,349.037333 C388.152,372.522133 390.227733,398.371733 388.594667,422.480533" id="Stroke-20" stroke="#96B7D4" stroke-width="1.06666667" stroke-linejoin="round"></path>
                <path d="M530.9552,422.480533 C531.989867,392.0976 537.673067,367.1536 560.042133,344.784533 C567.059733,337.766933 580.143467,328.659733 591.9408,333.928 C597.784,336.537067 597.888533,345.468267 595.122667,350.860267 C587.6656,365.4 555.434133,382.249067 543.565333,422.480533" id="Fill-21" fill="#FFFFFE"></path>
                <path d="M530.9552,422.480533 C531.989867,392.0976 537.673067,367.1536 560.042133,344.784533 C567.059733,337.766933 580.143467,328.659733 591.9408,333.928 C597.784,336.537067 597.888533,345.468267 595.122667,350.860267 C587.6656,365.4 555.434133,382.249067 543.565333,422.480533" id="Stroke-22" stroke="#96B7D4" stroke-width="1.06666667" stroke-linejoin="round"></path>
                <path d="M510.933867,422.480533 C500.771733,349.8192 519.3488,320.528533 530.0176,309.8384 C537.085333,302.7568 550.479467,292.4912 562.44,300.021867 C576.6992,309 568.729067,329.327467 560.042133,344.784533 C550.0688,362.5296 536.642667,389.706133 534.4592,422.480533" id="Fill-23" fill="#FFFFFE"></path>
                <path d="M510.933867,422.480533 C500.771733,349.8192 519.3488,320.528533 530.0176,309.8384 C537.085333,302.7568 550.479467,292.4912 562.44,300.021867 C576.6992,309 568.729067,329.327467 560.042133,344.784533 C550.0688,362.5296 536.642667,389.706133 534.4592,422.480533" id="Stroke-24" stroke="#96B7D4" stroke-width="1.06666667" stroke-linejoin="round"></path>
                <path d="M551.120533,422.480533 C553.372267,410.4976 564.722667,384.6864 581.693333,376.626667 C586.051733,374.556267 591.574933,374.0656 596.261867,375.4 C600.540267,376.617067 603.624,380.5488 604.213867,384.8944 C604.922133,390.105067 602.112533,394.522133 598.1552,397.663467 C588.5968,405.251733 577.200533,412.640533 568.6384,422.480533" id="Fill-25" fill="#FFFFFE"></path>
                <path d="M551.120533,422.480533 C553.372267,410.4976 564.722667,384.6864 581.693333,376.626667 C586.051733,374.556267 591.574933,374.0656 596.261867,375.4 C600.540267,376.617067 603.624,380.5488 604.213867,384.8944 C604.922133,390.105067 602.112533,394.522133 598.1552,397.663467 C588.5968,405.251733 577.200533,412.640533 568.6384,422.480533 L551.120533,422.480533 Z M234.008,332.418667 C234.008,332.418667 203.677333,364.466667 198.447467,421.9472 L234.008,332.418667 Z M314.879467,287.9088 C314.879467,287.9088 365.823467,326.778133 380.456,422.480533 L314.879467,287.9088 Z M407.026667,423.013867 C407.026667,423.013867 416.761067,343.346667 481.034133,302.873067 L407.026667,423.013867 Z M562.4368,300.019733 C562.4368,300.019733 520.553067,335.961067 521.1312,423.013867 L562.4368,300.019733 Z M537.878933,422.480533 C543.2016,391.839467 559.378667,362.390933 591.9408,333.928 L537.878933,422.480533 Z M558.986133,422.480533 C558.986133,422.480533 571.138667,392.954133 600.0848,377.199467 L558.986133,422.480533 Z M1.7968,423.013867 L624.2032,423.013867 L624.2032,421.9472 L1.7968,421.9472 L1.7968,423.013867 Z" id="Stroke-26" stroke="#96B7D4" stroke-width="1.06666667" stroke-linejoin="round"></path>
                <polyline id="Fill-27" fill="#282826" points="517.318933 423.013867 486.186133 423.013867 486.3856 419.200533 517.519467 419.200533 517.318933 423.013867"></polyline>
                <polyline id="Fill-28" fill="#F1B2A1" points="514.088 381.216533 514.837867 407.365867 513.360533 419.200533 491.9664 406.2864 490.618133 378.207467"></polyline>
                <path d="M491.9664,406.2864 C491.9664,406.2864 488.847467,413.791467 487.487467,415.885333 C486.1264,417.9792 486.345067,419.983467 486.345067,419.983467 C486.345067,419.983467 515.8128,419.983467 517.465067,419.983467 C518.009067,416.8112 514.8944,406.2864 514.8944,406.2864 C514.8944,406.2864 497.7936,407.392533 491.9664,406.2864" id="Fill-29" fill="#D76160"></path>
                <path d="M499.6144,408.828267 L507.026667,408.828267 M499.304,411.343467 L507.2336,411.343467 M499.021333,413.859733 L507.507733,413.859733" id="Stroke-30" stroke="#282826" stroke-width="1.06666667" stroke-linejoin="round"></path>
                <path d="M452.3216,100.613867 C453.0512,104.832533 453.695467,108.981867 457.6464,111.613333 C459.741333,113.008533 462.255467,113.666667 464.762133,113.890667 C466.831467,114.0752 468.944533,113.974668 470.941333,113.3968 C472.908267,112.8272 474.713067,111.811733 476.496533,110.8048 C477.7712,110.0848 479.1472,109.247467 479.6112,107.858667 C479.837333,107.1824 479.814933,106.448533 479.974933,105.754133 C480.240533,104.601067 480.985067,103.628267 481.696533,102.6832 C483.110933,100.802667 484.52,98.7248 484.598933,96.3728 C484.630933,95.4106667 484.4336,94.4506667 484.1264,93.5376 C483.186667,90.7493333 481.24,88.3845333 478.963733,86.5178667 C476.688533,84.6512 474.0816,83.2378667 471.475733,81.8714667 C470.274667,81.2410667 469.046933,80.6106667 467.711467,80.3738667 C466.410133,80.1424 465.072533,80.2981333 463.766933,80.5093333 C460.380267,81.0597333 456.970133,82.0293333 454.221333,84.0826667 C452.720533,85.2037333 451.421333,86.6768 450.8208,88.4517333 C449.996267,90.8869333 450.563733,93.5610667 451.317867,96.0197333 C451.775467,97.5130667 452.053867,99.0682667 452.3216,100.613867" id="Fill-31" fill="#0C141C"></path>
                <path d="M464.7856,422.224533 L464.7856,419.983467 L423.3392,419.983467 C421.923733,419.983467 420.611733,419.24 419.885333,418.024 L419.635733,417.9792 L419.635733,421.5824 C419.635733,421.7168 419.685867,421.845867 419.7776,421.944 L419.864,422.035733 C420.4496,422.659733 421.267733,423.013867 422.1232,423.013867 L463.997333,423.013867 C464.432533,423.013867 464.7856,422.6608 464.7856,422.224533" id="Fill-32" fill="#282826"></path>
                <path d="M466.122133,376.796267 L463.459733,407.2592 L462.767467,419.200533 L422.4336,419.200533 C421.500267,419.200533 420.744,418.4432 420.744,417.509867 C420.744,416.8112 421.173867,416.184 421.826667,415.932267 L440.336533,407.260267 L438.639467,373.7872" id="Fill-33" fill="#F1B2A1"></path>
                <path d="M440.380267,405.251733 L420.831467,415.885333 C420.1104,416.201067 419.635733,416.9872 419.635733,417.864 C419.635733,419.0352 420.841067,419.983467 421.872533,419.983467 L464.7856,419.983467 L463.4992,406.981867 C463.4992,406.981867 448.249067,409.6784 440.380267,405.251733" id="Fill-34" fill="#D76160"></path>
                <path d="M429.141867,411.3648 L431.4032,415.181333 M431.4032,410.134933 L433.823467,414.150933 M433.823467,408.828267 L436.243733,412.76" id="Stroke-35" stroke="#282826" stroke-width="1.06666667" stroke-linejoin="round"></path>
                <path d="M409.3296,142.5168 L426.818667,159.8064 L475.146133,195.257067 L466.409067,206.317333 C466.409067,206.317333 435.6688,193.837333 412.6896,179.517333 C404.365333,174.329067 387.7392,156.4208 387.7392,156.4208" id="Fill-36" fill="#F1B2A1"></path>
                <path d="M470.287467,193.0608 C473.117333,194.4272 478.473067,196.6576 481.304,198.024 C482.973333,198.8304 485.8288,200.424 485.689067,201.237867 C485.328533,203.328533 480.973333,199.858667 480.790933,200.917867 C480.68,201.562133 484.3312,203.1856 486.201067,204.0272 C487.869333,204.777067 490.0336,206.021867 489.897067,207.167467 C489.722133,208.640533 480.389867,204.3568 480.389867,204.3568 C480.389867,204.3568 490.037867,209.273067 489.826667,210.499733 C489.5216,212.268267 479.8064,207.343467 479.8064,207.343467 C479.8064,207.343467 487.967467,211.680533 487.7424,212.989333 C487.516267,214.298133 481.580267,210.560533 478.972267,209.6112 C480.688533,210.728 485.656,214.093333 484.991467,214.7824 C484.3984,215.3968 480.841067,213.5472 479.936533,213.181333 C471.309333,209.6912 465.5472,205.970667 465.5472,205.970667" id="Fill-37" fill="#F1B2A1"></path>
                <path d="M470.092267,197.792533 C470.092267,197.792533 473.688,201.1792 477.4096,200.5232" id="Stroke-38" stroke="#DF897D" stroke-width="0.888888889" stroke-linejoin="round"></path>
                <path d="M422.934933,146.812267 C422.934933,146.812267 405.615467,168.269333 399.8256,174.399467 C395.146133,179.3552 368.227733,185.024533 368.227733,185.024533 L367.3104,198.658667 C374.505067,198.621333 406.7984,198.2256 420.7824,184.2416 C432.2992,172.7248 446.4016,154.992533 446.4016,154.992533" id="Fill-39" fill="#F1B2A1"></path>
                <path d="M375.277333,184.2416 C371.804267,184.3568 367.027733,184.757867 363.5536,184.8112 C361.864,184.837867 358.3824,184.851733 358.025067,185.554667 C357.343467,186.9008 362.371733,186.690667 362.028267,187.6592 C361.8192,188.246933 358.070933,188.080533 356.211733,187.874667 C354.553067,187.6912 352.483733,187.462933 351.9856,188.444267 C351.5536,189.296533 361.2784,190.540267 361.2784,190.540267 C361.2784,190.540267 350.9072,190.125333 350.509333,191.2464 C349.936533,192.8624 361.1792,193.263467 361.1792,193.263467 C361.1792,193.263467 351.429867,193.126933 351.005333,194.322667 C350.5808,195.5184 358.239467,195.6336 361.254933,195.939733 C359.3904,196.0368 352.575467,195.923733 352.266133,196.7952 C351.9568,197.666667 355.4768,198.367467 356.365333,198.4368 C361.733867,198.856 372.4816,198.578667 372.4816,198.578667" id="Fill-40" fill="#F1B2A1"></path>
                <path d="M363.3904,195.424533 C363.3904,195.424533 367.2112,190.549867 372.1072,190.787733 M402.610667,171.305067 L417.957867,152.936 M420.998933,184.2416 L436.781333,167.482133" id="Stroke-41" stroke="#DF897D" stroke-width="0.888888889" stroke-linejoin="round"></path>
                <path d="M435.192,215.433067 C433.903467,217.186667 435.318933,401.2688 435.318933,401.2688 L467.318933,401.2688 L477.763733,262.659733 C477.763733,262.659733 481.129067,232.022933 472.893333,205.288" id="Fill-42" fill="#1D2643"></path>
                <path d="M509.523733,215.433067 C512.2864,219.193067 520.425067,401.2688 520.425067,401.2688 L488.425067,401.2688 L470.9008,262.659733 C470.9008,262.659733 467.536533,232.022933 475.772267,205.288" id="Fill-43" fill="#1D2643"></path>
                <path d="M475.141867,296.204267 C475.141867,296.204267 470.092267,242.028267 470.092267,226.648 M463.976,226.648 C463.976,226.648 464.8272,247.557867 465.932267,252.576533 C466.418667,254.7824 471.264533,254.330133 471.264533,254.330133 M516.994667,401.2688 C516.994667,401.2688 508.563733,240.8976 503.3968,224.890133 M490.0016,229.366933 C490.0016,229.366933 493.061867,237.4992 495.4128,239.850133 C497.763733,242.2 505.626133,241.472533 505.626133,241.472533 M464.7856,401.2688 L473.898133,282.338667 M434.728,239.091733 C434.728,239.091733 441.305067,239.682667 443.046933,238.227733 C445.4288,236.2384 449.656,231.023467 449.656,231.023467" id="Stroke-44" stroke="#305691" stroke-width="0.888888889" stroke-linejoin="round"></path>
                <path d="M465.932267,121.568533 C465.932267,121.568533 455.881067,116.1872 440.013333,125.3616 C432.053867,129.9632 421.622933,141.679467 414.0944,154.754667 C417.154667,159.882133 436.346133,174.648 443.5888,173.919467 C449.3328,166.584 455.532267,144.365333 455.532267,144.365333" id="Fill-45" fill="#D76160"></path>
                <path d="M436.346133,140.738667 L432.464533,231.023467 L515.328533,229.366933 C514.639467,209.5504 507.8512,160.293867 503.3968,138.085867 C487.433067,117.901333 467.8064,117.737067 467.8064,117.737067 L452.514667,127.158933 L436.346133,140.738667" id="Fill-46" fill="#D76160"></path>
                <path d="M435.3008,169.818133 C435.3008,169.818133 436.346133,150.643733 436.346133,140.738667" id="Stroke-47" stroke="#994242" stroke-width="0.888888889" stroke-linejoin="round"></path>
                <path d="M508.729067,126.9136 C508.729067,126.9136 528.899733,140.374933 541.679467,135.6976 C551.0768,132.259733 570.1936,103.519467 570.1936,103.519467 L585.052267,109.842667 C581.1664,117.405333 562.4624,160.457067 539.149333,162.083733 C519.679467,163.4416 497.085333,152.056 497.085333,152.056" id="Fill-48" fill="#F1B2A1"></path>
                <path d="M565.600533,110.530667 C567.578133,106.930667 570.554133,102.112533 572.4688,98.4805333 C573.4,96.7141333 575.276267,93.0522667 576.207467,93.0522667 C577.990933,93.0522667 575.081067,98.2394667 576.285333,98.3952 C577.016,98.4901333 578.845333,94.4506667 579.621867,92.3813333 C580.3152,90.536 581.181333,88.232 582.482667,88.232 C583.6112,88.232 579.722133,99.1461333 579.722133,99.1461333 C579.722133,99.1461333 584.829333,87.9952 586.223467,88.1754667 C588.233067,88.4346667 582.6448,100.4976 582.6448,100.4976 C582.6448,100.4976 587.7136,90.1498667 589.200533,90.3418667 C590.687467,90.5338667 586.714133,98.6672 585.424533,102.008 C586.524267,100.095467 590.047467,92.8528 591.132267,92.9925333 C592.216,93.1333333 591.071467,97.2165333 590.6704,98.1904 C588.2416,104.072 582.202133,115.2496 582.202133,115.2496" id="Fill-49" fill="#F1B2A1"></path>
                <path d="M583.7392,103.9824 C583.7392,103.9824 576.559467,105.4032 574.192533,110.6896" id="Stroke-50" stroke="#DF897D" stroke-width="0.888888889" stroke-linejoin="round"></path>
                <path d="M472.410133,119.538667 C472.410133,119.538667 490.480533,116.888 508.812267,125.804267 C522.627733,132.5232 524.905067,134.090133 524.905067,134.090133 L514.232,160.293867 L484.336533,147.216533" id="Fill-51" fill="#D76160"></path>
                <path d="M456.512533,97.6368 C455.779733,96.9050667 454.505067,96.9786667 453.7488,97.6528 C452.901867,98.4069333 452.748267,99.9504 452.957333,101.005333 C453.2944,102.714133 454.847467,104.553067 456.768533,103.981333 C457.477867,103.769067 458.070933,103.200533 458.310933,102.499733" id="Fill-52" fill="#F1B2A1"></path>
                <path d="M478.042133,98.1573333 C478.114667,98.0816 478.1872,98.0058667 478.268267,97.9397333 C478.934933,97.3904 480.018667,97.6357333 480.5776,98.2949333 C481.136533,98.9541333 481.2528,99.8906667 481.144,100.7472 C481.024533,101.690133 480.642667,102.6224 479.9504,103.274133 C479.258133,103.9248 478.232,104.252267 477.321067,103.981333 C476.611733,103.769067 476.018667,103.200533 475.779733,102.499733" id="Fill-53" fill="#F1B2A1"></path>
                <path d="M459.602667,109.0192 L469.3872,95.7232 L474.547733,107.7872 L475.413867,120.431467 C472.038933,127.667733 461.4608,126.0272 459.7296,121.7808 L459.602667,109.0192" id="Fill-54" fill="#F1B2A1"></path>
                <path d="M456.655467,89.1450667 C454.749333,94.0528 455.456533,111.551467 459.3136,113.817067 C463.170667,116.0816 471.648533,115.533333 474.3856,112.730133 C476.76,110.2992 480.495467,95.6058667 477.1504,91.7050667 C473.805333,87.8042667 459.328533,82.2650667 456.655467,89.1450667" id="Fill-55" fill="#F1B2A1"></path>
                <path d="M476.370667,80.1541333 C475.2944,77.8298667 472.978667,76.1658667 470.456,75.7157333 C467.909867,75.2602667 465.2112,75.9898667 463.123733,77.5173333 C461.8864,78.4218667 460.818667,79.608 459.394667,80.1754667 C457.757333,80.8272 455.923733,80.5594667 454.1616,80.5370667 C452.399467,80.5157333 450.418667,80.8773333 449.413867,82.3258667 C448.7312,83.3114667 448.6576,84.5904 448.722667,85.7872 C448.818667,87.5664 449.181333,89.3712 450.111467,90.8901333 C451.0416,92.4090667 452.605333,93.6090667 454.378133,93.7829333 C456.665067,94.008 458.7344,92.5818667 460.818667,91.6154667 C462.850667,90.6725333 465.0288,90.088 467.056533,89.1354667 C469.004267,88.2202667 470.8528,88.1712 472.762133,89.3242667 C474.485867,90.3653333 475.7648,91.9856 477.161067,93.4373333 C478.0688,94.3813333 479.0992,95.2986667 480.3728,95.608 C481.645333,95.9173333 483.203733,95.4117333 483.682667,94.1925333 C484.005867,93.3712 483.786133,92.4474667 483.5632,91.5941333 C483.2464,90.3813333 482.9296,89.1685333 482.6128,87.9557333 C482.309867,86.7909333 481.997333,85.6069333 481.356267,84.5882667 C480.84,83.7669333 480.147733,83.1674667 479.3456,82.6384 C478.646933,82.1776 477.6496,82.0208 477.0704,81.4234667 C476.749333,81.0928 476.5904,80.6405333 476.400533,80.2192 C476.390933,80.1978667 476.381333,80.1754667 476.370667,80.1541333" id="Fill-56" fill="#0C141C"></path>
                <path d="M461.789333,115.052267 C461.789333,115.052267 469.6592,116.186133 473.228267,113.430933 M465.4256,98.7674667 C465.4256,98.7674667 463.3168,103.884267 464.1424,105.141867 C464.968,106.400533 467.1696,105.653867 467.1696,105.653867" id="Stroke-57" stroke="#DF897D" stroke-width="0.888888889" stroke-linejoin="round"></path>
                <path d="M470.056,98.7162667 C469.916267,99.0277333 469.906667,99.4650667 469.865067,99.7253333 C469.7936,100.188267 470.2736,100.483733 470.709867,100.383467 C471.5216,100.1968 471.539733,98.3184 470.553067,98.3482667 C470.298133,98.3557333 470.1488,98.5082667 470.056,98.7162667" id="Fill-58" fill="#2C1519"></path>
                <path d="M458.9648,98.2512 C458.826133,98.5626667 458.815467,99 458.774933,99.2602667 C458.7024,99.7232 459.183467,100.018667 459.619733,99.9184 C460.431467,99.7317333 460.4496,97.8533333 459.462933,97.8832 C459.208,97.8906667 459.0576,98.0432 458.9648,98.2512" id="Fill-59" fill="#2C1519"></path>
                <path d="M462.04,107.9248 L468.995733,107.747733 C468.995733,107.747733 469.6656,111.814933 465.494933,111.715733 C461.717867,111.626133 462.04,107.9248 462.04,107.9248" id="Fill-60" fill="#FFFFFE"></path>
                <path d="M469.186667,96.1904 C470.480533,96.3184 471.849067,96.7397333 472.950933,97.3317333 C473.087467,97.2741333 473.4768,96.6864 473.3136,96.3066667 C473.1856,96.0069333 471.2144,95.1226667 469.3712,95.0042667 C469.3712,95.0042667 468.9456,96.0026667 469.186667,96.1904" id="Fill-61" fill="#2C1519"></path>
                <path d="M460.828267,95.9152 C459.893867,95.8448 458.918933,96.0442667 458.146667,96.4496 C458.044267,96.3738667 457.8608,95.8437333 457.961067,95.5024 C458.04,95.2325333 459.430933,94.6778667 460.765333,94.84 C460.765333,94.84 460.994667,95.7712 460.828267,95.9152" id="Fill-62" fill="#2C1519"></path>
                <line x1="506.8272" y1="157.573867" x2="490.0016" y2="149.6944" id="Stroke-63" stroke="#994242" stroke-width="0.888888889" stroke-linejoin="round"></line>
                <path d="M302.418667,139.9088 C302.418667,139.9088 314.3984,151.7936 319.0096,151.3008 C326.666133,150.482667 369.7008,124.367467 369.7008,124.367467 L374.534933,142.018667 C374.534933,142.018667 342.291733,176.9328 323.101333,179.114133 C306.52,180.998933 284.163733,161.126933 284.163733,161.126933" id="Fill-64" fill="#BB6347"></path>
                <path d="M377.973867,87.7242667 C379.8,88.5114667 380.998933,90.3621333 381.4768,92.2928 C381.954667,94.2234667 381.814933,96.248 381.624,98.2277333 C381.568533,98.7984 381.509867,99.3776 381.612267,99.9418667 C382.089067,102.572267 385.6144,103.567467 386.560533,106.066667 C386.8336,106.786667 386.863467,107.571733 386.8912,108.341867 C386.941333,109.769067 387.042667,112.623467 387.042667,112.623467 C387.042667,112.623467 374.461333,113.635733 367.026667,113.434133" id="Fill-65" fill="#4C1821"></path>
                <polyline id="Fill-66" fill="#282826" points="323.4512 423.013867 354.584 423.013867 354.384533 419.200533 323.250667 419.200533 323.4512 423.013867"></polyline>
                <polyline id="Fill-67" fill="#F1B2A1" points="326.682133 381.216533 325.932267 407.365867 327.4096 419.200533 347.737067 406.2864 350.152 378.207467"></polyline>
                <path d="M353.282667,415.885333 C354.643733,417.9792 354.425067,419.983467 354.425067,419.983467 C354.425067,419.983467 324.957333,419.983467 323.305067,419.983467 C322.761067,416.8112 325.875733,406.2864 325.875733,406.2864 C325.875733,406.2864 341.909867,407.392533 347.737067,406.2864 C347.737067,406.2864 351.922667,413.791467 353.282667,415.885333 Z" id="Fill-68" fill="#26C485"></path>
                <path d="M341.155733,408.828267 L333.743467,408.828267 M341.466133,411.343467 L333.536533,411.343467 M341.7488,413.859733 L333.2624,413.859733" id="Stroke-69" stroke="#282826" stroke-width="1.06666667" stroke-linejoin="round"></path>
                <path d="M370.297067,422.224533 L370.179733,419.983467 L411.626133,419.983467 C413.042667,419.983467 414.3152,419.24 414.9776,418.024 L415.225067,417.9792 L415.413867,421.5824 C415.421333,421.7168 415.376533,421.845867 415.290133,421.944 L415.209067,422.035733 C414.656533,422.659733 413.856533,423.013867 413.001067,423.013867 L371.126933,423.013867 C370.691733,423.013867 370.319467,422.6608 370.297067,422.224533" id="Fill-70" fill="#282826"></path>
                <path d="M371.672,381.216533 L371.759467,407.164267 L372.157333,419.200533 L412.490133,419.200533 C413.424533,419.200533 414.141333,418.4432 414.092267,417.509867 C414.056,416.8112 413.592,416.184 412.9264,415.932267 L393.962133,407.260267 L398.258667,378.207467" id="Fill-71" fill="#F1B2A1"></path>
                <path d="M394.163733,405.584533 L413.919467,415.885333 C414.656533,416.201067 415.173867,416.9872 415.219733,417.864 C415.280533,419.0352 414.125333,419.983467 413.093867,419.983467 L370.179733,419.983467 L371.485333,406.886933 C371.485333,406.886933 386.527467,410.0112 394.163733,405.584533" id="Fill-72" fill="#26C485"></path>
                <path d="M405.209067,411.343467 L402.652267,416.175467 M401.970667,409.661333 L399.414933,414.492267 M398.732267,407.9792 L396.176533,412.810133" id="Stroke-73" stroke="#282826" stroke-width="1.06666667" stroke-linejoin="round"></path>
                <path d="M368.095467,118.630933 C368.095467,118.630933 387.1696,121.103467 395.5696,127.7712 C404.021867,134.480533 416.597867,148.018667 416.597867,148.018667 L399.293333,169.818133 L383.6656,152.933867" id="Fill-74" fill="#4A5C9A"></path>
                <path d="M385.3808,186.069867 L393.337067,193.379733 C394.918933,198.543467 406.524267,210.959467 409.088533,250.243733 C411.9248,293.6944 406.422933,384.7216 406.422933,384.7216 L369.082133,384.7216 L367.110933,230.156267 L365.641067,173.919467" id="Fill-75" fill="#254086"></path>
                <path d="M340.8016,190.162667 C338.1296,197.3424 328.319467,212.4848 324.090133,233.254933 C317.539733,265.418133 323.215467,384.7216 323.215467,384.7216 L354.8976,384.7216 L373.405333,229.5024 C373.405333,229.5024 375.08,215.744533 374.278933,192.813333" id="Fill-76" fill="#254086"></path>
                <path d="M368.541333,279.321067 C369.3008,263.9216 373.596267,214.028267 374.278933,192.813333 M350.5392,190.162667 C350.5392,190.162667 336.7216,206.92 332.7728,231.226133 C329.4512,251.677333 330.2768,384.7216 330.2768,384.7216 M362.483733,192.813333 C362.483733,192.813333 359.193067,205.0896 340.504,206.755733 M399.395733,205.568533 C399.395733,205.568533 385.9888,198.3408 383.325333,192.813333 M379.6848,194.710933 C379.6848,194.710933 379.059733,214.301333 377.434133,215.9856 C375.808533,217.670933 372.358933,218.079467 372.358933,218.079467 M375.7552,384.552 C375.7552,384.552 372.489067,268.6128 370.784533,246.336533" id="Stroke-77" stroke="#4A5C9A" stroke-width="0.888888889" stroke-linejoin="round"></path>
                <path d="M332.949867,136.354667 C336.576533,130.662933 356.0688,119.216533 356.0688,119.216533 C362.650133,118.390933 370.2128,118.847467 370.2128,118.847467 C370.2128,118.847467 381.231467,127.7744 388.8016,138.085867 C395.017067,144.092267 397.528,148.684267 397.621867,154.893333 C397.685867,159.136533 395.7168,162.755733 394.7056,169.2048 C393.6112,176.1904 393.337067,193.379733 393.337067,193.379733 C381.443733,197.7584 357.299733,197.285867 339.669867,192.813333 C337.417067,176.563733 329.3232,142.045333 332.949867,136.354667" id="Fill-78" fill="#4A5C9A"></path>
                <path d="M388.8016,138.085867 C395.017067,144.092267 397.528,148.684267 397.621867,154.893333 C397.685867,159.136533 396.313067,161.376533 395.434133,165.5216 L388.8016,138.085867 Z M369.327467,153.9184 L366.5968,123.722133 L369.327467,153.9184 Z" id="Stroke-79" stroke="#2C2B68" stroke-width="0.888888889" stroke-linejoin="round"></path>
                <path d="M364.208533,132.613867 C364.2192,132.928533 364.482667,133.183467 364.797333,133.183467 C365.112,133.183467 365.357333,132.928533 365.346667,132.613867 C365.336,132.2992 365.071467,132.044267 364.757867,132.044267 C364.4432,132.044267 364.1968,132.2992 364.208533,132.613867" id="Fill-80" fill="#2C2B68"></path>
                <path d="M365.122667,142.490133 C365.133333,142.8048 365.3968,143.059733 365.711467,143.059733 C366.026133,143.059733 366.271467,142.8048 366.2608,142.490133 C366.250133,142.175467 365.9856,141.920533 365.672,141.920533 C365.357333,141.920533 365.110933,142.175467 365.122667,142.490133" id="Fill-81" fill="#2C2B68"></path>
                <path d="M366.0368,152.3664 C366.047467,152.681067 366.310933,152.936 366.6256,152.936 C366.940267,152.936 367.1856,152.681067 367.174933,152.3664 C367.164267,152.0528 366.899733,151.797867 366.586133,151.797867 C366.271467,151.797867 366.025067,152.0528 366.0368,152.3664" id="Fill-82" fill="#2C2B68"></path>
                <path d="M322.466667,140.841067 C322.466667,140.841067 299.9216,160.6192 295.344533,164.061333 C290.889067,167.411733 252.1296,186.9296 252.1296,186.9296 L255.5184,198.152 C255.5184,198.152 299.164267,188.016533 312.4208,180.2096 C323.165333,173.8832 343.7296,155.773333 343.7296,155.773333" id="Fill-83" fill="#F1B2A1"></path>
                <path d="M355.450133,119.458667 C355.450133,119.458667 345.378667,120.808 334.336533,127.388267 C326.3376,132.1552 312.4208,148.412267 312.4208,148.412267 L332.946667,168.911467 L353.768,150.319467" id="Fill-84" fill="#4A5C9A"></path>
                <line x1="335.865067" y1="166.3056" x2="348.354667" y2="155.152533" id="Stroke-85" stroke="#2C2B68" stroke-width="0.888888889" stroke-linejoin="round"></line>
                <path d="M258.0176,183.9152 C255.0768,184.7984 249.5472,186.1168 246.605333,187 C244.870933,187.5216 241.884267,188.6256 241.942933,189.456533 C242.095467,191.589867 246.754667,188.8752 246.832533,189.9568 C246.879467,190.6128 243.0992,191.6144 241.162133,192.137067 C239.434133,192.6032 237.1664,193.4768 237.1888,194.636267 C237.218667,196.1264 246.893333,193.434133 246.893333,193.434133 C246.893333,193.434133 236.844267,196.700267 236.933867,197.952533 C237.062933,199.756267 247.180267,196.493333 247.180267,196.493333 C247.180267,196.493333 238.662933,199.434133 238.757867,200.7696 C238.853867,202.105067 245.052267,199.7872 247.7328,199.2816 C245.920533,200.102933 241.011733,201.725333 241.081067,202.698133 C241.151467,203.672 244.970133,203.043733 245.8672,202.7088 C254.735467,199.395733 261.347733,196.0912 261.347733,196.0912" id="Fill-86" fill="#F1B2A1"></path>
                <path d="M257.7488,188.6416 C257.7488,188.6416 253.8512,191.4 250.224533,190.128533" id="Stroke-87" stroke="#DF897D" stroke-width="0.888888889" stroke-linejoin="round"></path>
                <path d="M369.216533,109 L370.301333,119.5312 C370.301333,119.5312 372.371733,123.6784 364.473067,123.9088 C358.371733,124.086933 356.0688,119.216533 356.0688,119.216533 L358.9488,102.931733" id="Fill-88" fill="#F1B2A1"></path>
                <path d="M377.8064,85.6730667 C379.949333,92.4368 382.560533,106.364267 374.847467,110.447467 C373.072533,111.3872 370.367467,111.135467 367.608,109.917333 C361.6272,107.2752 357.786133,102.4528 356.723733,98.2341333 C355.3904,92.936 369.183467,74.0656 377.8064,85.6730667" id="Fill-89" fill="#F1B2A1"></path>
                <path d="M347.257067,88.0848 C346.240533,88.8282667 344.953067,89.3104 344.102933,90.264 C342.346133,92.2362667 341.994133,95.3968 343.225067,97.7264 C343.674133,98.5744 344.3312,99.3957333 344.291733,100.354667 C344.240533,101.593067 343.1472,102.52 342.154133,103.263467 C337.741333,106.563733 339.6048,113.183467 339.6048,113.183467 C339.6048,113.183467 352.198933,113.756267 359.685867,113.228267 C359.7648,109 358.7216,104.268267 359.936533,100.218133 C361.151467,96.168 363.446933,92.3152 366.9456,89.9408 C368.626667,88.7994667 370.7408,87.7722667 371.171733,85.7872 C374.3856,87.1994667 377.359467,89.1546667 379.930133,91.5450667 C381.337067,88.9306667 381.4064,85.5856 379.913067,83.0181333 C379.0992,81.6186667 376.7184,79.4362667 374.461333,79.0693333 C369.875733,74.4837333 360.024,74.8506667 354.307733,78.6533333 C349.9536,81.5493333 350.045333,86.0485333 347.257067,88.0848" id="Fill-90" fill="#4C1821"></path>
                <path d="M373.609067,96.1498667 C373.609067,96.1498667 376.3952,100.566933 375.8512,101.532267 C375.308267,102.496533 373.002133,102.003733 373.002133,102.003733" id="Stroke-91" stroke="#DF897D" stroke-width="0.888888889" stroke-linejoin="round"></path>
                <path d="M367.624,96.1765333 C367.5856,96.2373333 367.5504,96.3024 367.520533,96.3653333 C367.298667,96.8336 367.362667,97.2816 367.368,97.7893333 C367.3776,98.5957333 368.725867,98.5285333 368.633067,97.6997333 C368.576533,97.1909333 368.495467,96.6448 368.281067,96.1712 C368.069867,95.7029333 367.805333,95.8949333 367.624,96.1765333" id="Fill-92" fill="#0C141C"></path>
                <path d="M376.831467,95.1034667 C376.805867,95.1706667 376.783467,95.2421333 376.7664,95.3093333 C376.6416,95.8149333 376.789867,96.2458667 376.893333,96.7461333 C377.058667,97.5408 378.358933,97.2133333 378.109333,96.4133333 C377.954667,95.9216 377.7712,95.3978667 377.4704,94.9712 C377.173867,94.5498667 376.954133,94.7888 376.831467,95.1034667" id="Fill-93" fill="#0C141C"></path>
                <path d="M363.485333,95.5845333 C363.485333,95.5845333 363.4448,95.2026667 363.638933,94.6309333 C363.827733,94.0826667 364.306667,93.4309333 364.970133,93.0053333 C365.635733,92.584 366.472,92.4218667 367.084267,92.5584 C367.391467,92.6117333 367.624,92.7578667 367.7712,92.8453333 C367.9152,92.9573333 367.9792,93.032 367.9792,93.032 C367.9792,93.032 367.872533,93.0448 367.718933,93.0512 C367.562133,93.0576 367.349867,93.1205333 367.119467,93.1877333 C366.655467,93.3338667 366.104,93.6037333 365.5792,93.9376 C365.0544,94.2693333 364.553067,94.6586667 364.1648,94.9914667 C363.987733,95.1578667 363.7904,95.288 363.685867,95.4138667 C363.5664,95.5269333 363.485333,95.5845333 363.485333,95.5845333" id="Fill-94" fill="#0C141C"></path>
                <path d="M374.799456,92.8336 C374.799456,92.8336 374.821867,92.7578667 374.877333,92.6458667 C374.928533,92.552 375.058667,92.3578667 375.244267,92.2352 C375.6144,91.9461333 376.2768,91.832 376.870933,91.9898667 C377.468267,92.1456 377.9728,92.5466667 378.211733,92.9370667 C378.456,93.3338667 378.463467,93.6485333 378.463467,93.6485333 C378.463467,93.6485333 378.3824,93.6250667 378.268267,93.576 C378.163733,93.5205333 377.987733,93.4768 377.814933,93.4128 C377.461867,93.288 377.040533,93.1525333 376.627733,93.0501333 C376.218133,92.9392 375.8128,92.8538667 375.462933,92.8304 C375.126933,92.7813333 374.797333,92.8485333 374.799456,92.8336" id="Fill-95" fill="#0C141C"></path>
                <path d="M362.0624,106.563733 C362.0624,106.563733 363.971733,109.5568 369.424533,111.018133" id="Stroke-96" stroke="#DF897D" stroke-width="0.888888889" stroke-linejoin="round"></path>
                <path d="M361.650667,99.2730667 C361.021333,96.6597333 358.361067,97.0661333 357.654933,97.5898667 C357.145067,97.9674667 356.947733,98.6405333 356.8912,99.2805333 C356.752533,100.885867 357.350933,102.565867 358.486933,103.757333 C358.893333,104.182933 359.3776,104.554133 359.935467,104.723733 C361.506667,105.197333 362.505067,104.022933 362.500814,102.671467" id="Fill-97" fill="#F1B2A1"></path>
                <path d="M376.114667,103.967467 L368.541333,103.967467 C368.541333,103.967467 369.285867,107.936533 372.943467,107.936533 C376.1936,107.936533 376.114667,103.967467 376.114667,103.967467" id="Fill-98" fill="#FFFFFE"></path>
                <polyline id="Fill-99" fill="#FFFFFE" points="356.5168 116.6864 366.5968 123.722133 362.909333 130.509333 354.211733 119.903467 356.5168 116.6864"></polyline>
                <polyline id="Fill-100" fill="#FFFFFE" points="370.098667 116.981867 366.5968 123.722133 369.757333 129.837333 372.8592 119.192 370.098667 116.981867"></polyline>
                <polyline id="Fill-101" fill="#BADCE9" points="354.584 389.706133 322.162667 389.706133 322.162667 381.484267 355.7584 381.484267 354.584 389.706133"></polyline>
                <polyline id="Fill-102" fill="#BADCE9" points="406.636267 389.706133 368.374933 389.706133 368.374933 381.484267 406.981867 381.484267 406.636267 389.706133"></polyline>
                <path d="M379.485333,120.858133 C380.895467,123.4736 387.407467,127.618667 388.376,127.3776 C389.3456,127.136533 387.1504,124.3824 386.9616,123.744533 C389.135467,124.329067 390.973333,125.177067 392.296,125.994133 C393.952533,127.0192 395.781867,128.162667 397.388267,129.264533 C396.6,127.285867 394.3248,124.246933 393.366933,123.510933 C389.6368,120.643733 384.130667,119.324267 379.485333,120.858133" id="Fill-103" fill="#BB6347"></path>
                <path d="M258.7824,115.6336 C258.7824,115.6336 275.5344,111.221867 290.1232,123.219733 C302.2384,133.183467 310.7984,145.657067 310.7984,145.657067 L288.7248,164.402667 L265.3712,144.976533" id="Fill-104" fill="#DCD1C8"></path>
                <path d="M247.081067,422.224533 L247.081067,419.983467 L205.634667,419.983467 C204.218133,419.983467 202.906133,419.24 202.179733,418.024 L201.930133,417.9792 L201.930133,421.5824 C201.930133,421.7168 201.981333,421.845867 202.073067,421.944 L202.159467,422.035733 C202.745067,422.659733 203.562133,423.013867 204.418667,423.013867 L246.291733,423.013867 C246.728,423.013867 247.081067,422.6608 247.081067,422.224533" id="Fill-105" fill="#282826"></path>
                <path d="M247.977067,376.796267 L244.829333,407.164267 L245.062933,419.200533 L204.729067,419.200533 C203.795733,419.200533 203.0384,418.4432 203.0384,417.509867 C203.0384,416.8112 203.469333,416.184 204.122133,415.932267 L222.630933,407.260267 L221.2336,373.7872" id="Fill-106" fill="#BB6347"></path>
                <path d="M222.341867,405.584533 L203.126933,415.885333 C202.405867,416.201067 201.930133,416.9872 201.930133,417.864 C201.930133,419.0352 203.135467,419.983467 204.166933,419.983467 L247.081067,419.983467 L245.088533,406.886933 C245.088533,406.886933 230.210667,410.0112 222.341867,405.584533" id="Fill-107" fill="#393948"></path>
                <path d="M211.277333,411.516267 L213.6976,415.181333 M213.6976,410.2192 L216.117867,414.150933 M216.117867,408.828267 L218.538133,412.76" id="Stroke-108" stroke="#282826" stroke-width="1.06666667" stroke-linejoin="round"></path>
                <path d="M279.398933,422.224533 L279.398933,419.983467 L320.845333,419.983467 C322.261867,419.983467 323.573867,419.24 324.300267,418.024 L324.549867,417.9792 L324.549867,421.5824 C324.549867,421.7168 324.498667,421.845867 324.406933,421.944 L324.3216,422.035733 C323.734933,422.659733 322.917867,423.013867 322.061333,423.013867 L280.188267,423.013867 C279.752,423.013867 279.398933,422.6608 279.398933,422.224533" id="Fill-109" fill="#282826"></path>
                <path d="M275.2304,376.796267 L279.469333,407.164267 L281.418133,419.200533 L321.750933,419.200533 C322.684267,419.200533 323.4416,418.4432 323.4416,417.509867 C323.4416,416.8112 323.010667,416.184 322.357867,415.932267 L301.667733,407.260267 L301.974933,373.7872" id="Fill-110" fill="#BB6347"></path>
                <path d="M301.9568,405.584533 L323.353067,415.885333 C324.074133,416.201067 324.549867,416.9872 324.549867,417.864 C324.549867,419.0352 323.344533,419.983467 322.313067,419.983467 L279.398933,419.983467 L279.210133,406.886933 C279.210133,406.886933 294.088,410.0112 301.9568,405.584533" id="Fill-111" fill="#393948"></path>
                <path d="M313.7488,411.2624 L311.074667,415.181333 M311.24,410.053867 L308.6544,414.150933 M308.6544,408.828267 L306.234133,412.76" id="Stroke-112" stroke="#282826" stroke-width="1.06666667" stroke-linejoin="round"></path>
                <path d="M248.3952,204.1712 C248.3952,204.1712 248.2704,227.741333 251.315733,249.0576 C254.361067,270.373867 268.329067,403.037333 268.329067,403.037333 L306.432533,403.037333 C306.432533,403.037333 303.299733,302.0656 299.016,250.618133 C298.090133,239.4992 295.472533,217.125867 285.8576,203.5024" id="Fill-113" fill="#393948"></path>
                <path d="M300.978667,403.037333 C300.978667,403.037333 297.845867,302.0656 293.562133,250.618133 C292.636267,239.4992 290.018667,217.125867 280.403733,203.5024" id="Stroke-114" stroke="#151513" stroke-width="0.888888889" stroke-linejoin="round"></path>
                <path d="M216.269333,209.7776 C212.406933,258.973333 218.6096,403.037333 218.6096,403.037333 L254.1136,403.037333 L263.178133,254.841067 C263.178133,254.841067 271.202667,221.938667 263.421333,205.840533" id="Fill-115" fill="#393948"></path>
                <path d="M259.3552,317.3456 C259.3552,317.3456 252.84,241.9696 250.073067,211.752 M248.735467,403.037333 L257.032,290.573333 M273.581333,223.401067 C273.581333,223.401067 273.213333,232.293867 291.410667,235.181333 M215.206933,235.181333 C215.206933,235.181333 231.894933,234.911467 233.804267,223.401067 M218.383467,397.237867 L254.332267,397.237867 M267.564267,397.237867 L306.025067,397.237867" id="Stroke-116" stroke="#151513" stroke-width="0.888888889" stroke-linejoin="round"></path>
                <path d="M204.3152,138.52 C204.3152,138.52 192.3344,150.405867 187.7232,149.913067 C180.066667,149.094933 137.033067,117.525867 137.033067,117.525867 L128.9264,125.3616 C128.9264,125.3616 164.442133,173.363733 183.631467,175.545067 C200.213867,177.429867 222.570133,157.557867 222.570133,157.557867" id="Fill-117" fill="#BB6347"></path>
                <path d="M247.951467,115.6336 C247.951467,115.6336 232.124267,112.444267 216.6096,123.219733 C203.064,132.6288 195.290133,142.076267 195.290133,142.076267 L216.275733,165.843733 L241.3616,144.976533" id="Fill-118" fill="#DCD1C8"></path>
                <path d="M196.153067,140.2192 C196.153067,140.2192 212.981867,158.361067 221.026667,160.890133 C227.529067,162.934933 253.794667,154.758933 253.794667,154.758933 L261.2432,166.216 C254.943467,169.6912 223.734933,187.894933 206.594667,178.029333 C192.28,169.789333 179.261333,157.868267 179.261333,157.868267" id="Fill-119" fill="#F1B2A1"></path>
                <path d="M247.258133,157.513067 C250.346133,155.919467 254.712,153.9408 257.7712,152.294933 C259.2592,151.493867 262.306667,149.808533 262.960533,150.248 C264.2128,151.0896 259.72,153.3584 260.492267,154.0368 C260.960533,154.448533 264.152,152.4752 265.6752,151.389333 C267.033067,150.4208 268.729067,149.212267 269.6432,149.826667 C270.435733,150.358933 262.550933,156.1872 262.550933,156.1872 C262.550933,156.1872 271.4032,150.767467 272.297067,151.552533 C273.5856,152.6832 263.965333,158.515733 263.965333,158.515733 C263.965333,158.515733 272.410133,153.642133 273.3648,154.479467 C274.3184,155.3168 267.688,159.152533 265.2048,160.890133 C266.879467,160.0656 272.773867,156.642667 273.469333,157.253867 C274.163733,157.864 271.432,160.191467 270.690667,160.685333 C266.208533,163.6688 256.6896,168.6672 256.6896,168.6672" id="Fill-120" fill="#F1B2A1"></path>
                <path d="M263.088533,161.481067 C263.088533,161.481067 257.375467,159.087467 253.2176,161.682667" id="Stroke-121" stroke="#DF897D" stroke-width="0.888888889" stroke-linejoin="round"></path>
                <path d="M247.744533,116.125333 C247.744533,116.125333 225.728533,117.856533 218.457067,156.7472 C215.379733,173.209067 214.458133,223.461867 214.458133,223.461867 C214.458133,223.461867 256.323733,226.191467 296.288533,223.401067 C296.288533,206.547733 291.594133,164.339733 286.854933,143.472533 C283.641067,129.318933 270.320533,122.127467 259.405333,115.573867" id="Fill-122" fill="#DCD1C8"></path>
                <path d="M243.794667,83.5994667 C241.8576,86.3749333 240.762133,89.7296 240.688533,93.1130667 C240.633067,95.6645333 241.343467,98.5157333 243.519467,99.848 C244.36,100.361067 245.494933,100.5776 246.3056,100.0176 C246.954133,99.5696 247.226133,98.7568 247.4288,97.9952 C247.989867,95.8853333 248.335467,93.7189333 248.457067,91.5386667 C248.533867,90.1850667 248.521067,88.8090667 248.165867,87.5002667 C247.811733,86.1925333 247.084267,84.9466667 245.9632,84.184" id="Fill-123" fill="#0C141C"></path>
                <path d="M246.374933,106.634133 L246.185067,116.125333 C246.185067,116.125333 246.9712,119.546133 253.432,119.7232 C261.632533,119.946133 263.260267,115.573867 263.260267,115.573867 L261.714667,97.96" id="Fill-124" fill="#BB6347"></path>
                <path d="M245.414933,96.2437333 C245.3136,95.7498667 244.666133,95.5685333 244.1808,95.7061333 C243.4896,95.9002667 242.976533,96.5168 242.746133,97.1973333 C242.515733,97.8768 242.530667,98.6149333 242.610667,99.3285333 C242.684267,99.9909333 242.8208,100.671467 243.206933,101.215467 C243.894933,102.182933 245.373333,102.472 246.374933,101.834133" id="Fill-125" fill="#944C39"></path>
                <path d="M244.709867,86.8037333 C244.709867,86.8037333 242.803733,103.065067 245.516267,105.962133 C249.578133,110.303467 256.502933,109.1408 259.583467,106.44 C262.166933,104.1744 264.274667,94.2544 263.9088,91.6602667 C262.918933,84.6192 247.893867,82.5776 244.709867,86.8037333" id="Fill-126" fill="#BB6347"></path>
                <path d="M266.373867,84.0005333 C265.5024,82.4442667 265.423467,80.4101333 264.437867,78.904 C263.603733,77.6282667 262.1936,76.8816 260.757867,76.6341333 C259.2592,76.3749333 257.667733,76.5936 256.262933,75.976 C255.3712,75.5834667 254.6288,74.8805333 253.765867,74.4208 C251.423467,73.1728 248.275733,74.0698667 246.824,76.3994667 C246.582933,76.7845333 246.3824,77.2058667 246.066667,77.5226667 C245.356267,78.2384 244.278933,78.2522667 243.324267,78.4677333 C242.1616,78.7312 240.485867,79.4757333 239.9888,80.7312 C239.4928,81.9834667 239.488533,83.7445333 240.047467,84.9562667 C241.021333,87.0693333 242.790933,87.1237333 244.637333,87.6229333 C247.8832,88.5008 250.911467,87.2464 254.1712,87.1184 C255.561067,87.064 257.798933,87.2016 258.7216,88.344 C260.1328,90.0901333 260.602133,92.3706667 260.861333,94.5754667 C261.149333,97.0192 260.002667,101.340267 261.768,103.2784 C262.847467,102.488 266.435733,101.349867 266.874133,99.9386667 C267.2752,98.648 266.842133,97.1898667 267.232533,95.8949333 C267.574933,94.7568 268.489067,93.9386667 269.0832,92.9264 C270.259733,90.9210667 270.008,88.0816 268.499733,86.3493333 C267.935467,85.7008 267.225067,85.2048 266.706667,84.5136 C266.584,84.3493333 266.474133,84.1776 266.373867,84.0005333" id="Fill-127" fill="#0C141C"></path>
                <path d="M246.374933,107.021333 C250.610667,109.5792 255.126933,108.8624 257.133333,108.0848 C260.8912,106.6256 261.258133,102.9744 261.258133,102.9744 M250.895467,93.8373333 C250.895467,93.8373333 250.3664,98.1168 250.7504,98.9253333 C251.1344,99.7328 253.462933,99.1173333 253.462933,99.1173333" id="Stroke-128" stroke="#643023" stroke-width="0.888888889" stroke-linejoin="round"></path>
                <path d="M254.944533,94.9978667 C254.912533,95.4106667 255.138667,95.7648 255.4512,95.7893333 C255.762667,95.8138667 256.042133,95.4992 256.074133,95.0874667 C256.1072,94.6746667 255.881067,94.3205333 255.568533,94.296 C255.257067,94.2704 254.9776,94.5850667 254.944533,94.9978667" id="Fill-129" fill="#0C141C"></path>
                <path d="M246.188267,94.2437333 C246.156267,94.6554667 246.3824,95.0096 246.693867,95.0352 C247.005333,95.0597333 247.2848,94.7450667 247.317867,94.3322667 C247.350933,93.9205333 247.123733,93.5653333 246.812267,93.5408 C246.499733,93.5162667 246.221333,93.8309333 246.188267,94.2437333" id="Fill-130" fill="#0C141C"></path>
                <path d="M258.262933,91.6144 C258.152,91.4245333 258.0368,91.2378667 257.916267,91.0533333 C257.871467,90.9850667 257.823467,90.9136 257.753067,90.872 C257.6688,90.8218667 257.565333,90.8197333 257.4672,90.8208 C256.685333,90.8261333 255.904533,90.9210667 255.142933,91.1002667 C254.796267,91.1813333 254.3856,91.2538667 254.066667,91.4149333 C253.644267,91.6282667 253.711467,91.624 253.938667,92.0506667 C253.961067,92.0933333 253.9856,92.1370667 254.026133,92.1626667 C254.093333,92.2053333 254.181867,92.184 254.258667,92.1616 C255.5056,91.7946667 256.826133,91.6837333 258.1168,91.8362667 C258.184,91.8437333 258.2672,91.8448 258.2992,91.7850667 C258.326933,91.7349333 258.297067,91.6741333 258.262933,91.6144" id="Fill-131" fill="#0C141C"></path>
                <path d="M245.523733,91.288 C245.624,91.1034667 245.727467,90.9221333 245.8352,90.744 C245.875733,90.6778667 245.9184,90.6096 245.978133,90.5712 C246.048533,90.5253333 246.131733,90.5274667 246.210667,90.5338667 C246.837867,90.5765333 247.4608,90.7088 248.061333,90.9242667 C248.335467,91.0224 248.6608,91.1141333 248.9072,91.2912 C249.2336,91.5237333 249.180267,91.5173333 248.972267,91.9322667 C248.950933,91.9728 248.9296,92.0165333 248.895467,92.04 C248.837867,92.0794667 248.768533,92.0528 248.707733,92.0261333 C247.728533,91.6005333 246.6736,91.4256 245.6272,91.5152 C245.573867,91.5205333 245.506667,91.5162667 245.484267,91.4565333 C245.465067,91.4053333 245.491733,91.3456 245.523733,91.288" id="Fill-132" fill="#0C141C"></path>
                <path d="M249.1408,101.672 L256.541333,101.672 C256.541333,101.672 256.652267,105.522667 252.0368,105.522667 C248.994667,105.522667 249.1408,101.672 249.1408,101.672" id="Fill-133" fill="#FFFFFE"></path>
                <path d="M260.249067,97.7306667 C260.509333,97.1045333 261.546133,96.1925333 262.182933,96.1722667 C262.819733,96.1509333 263.446933,96.4474667 263.954667,96.8784 C266.339733,98.9050667 264.720533,103.642133 261.497067,103.597333 C260.313067,103.581333 260.413333,102.003733 260.413333,102.003733" id="Fill-134" fill="#BB6347"></path>
                <path d="M217.283733,165.005333 C217.283733,165.005333 219.615467,140.517867 223.2528,133.635733 M290.693867,163.189867 C290.693867,163.189867 287.8,140.517867 284.163733,133.635733" id="Stroke-135" stroke="#9E9187" stroke-width="0.888888889" stroke-linejoin="round"></path>
                <path d="M112.874133,124.858133 C112.874133,124.858133 93.7733333,137.6048 81.672,133.176 C72.7728,129.919467 54.6704,102.7056 54.6704,102.7056 L40.6010667,108.6928 C44.28,115.853333 61.992,156.621333 84.0677333,158.1616 C102.505067,159.446933 123.900267,148.666133 123.900267,148.666133" id="Fill-136" fill="#F1B2A1"></path>
                <path d="M59.0213333,109.343467 C57.1482667,105.935467 54.3301333,101.372267 52.5168,97.9333333 C51.6357333,96.2608 49.8586667,92.7930667 48.9765333,92.7930667 C47.288,92.7930667 50.0432,97.7050667 48.9029333,97.8522667 C48.2106667,97.9418667 46.4784,94.1178667 45.7424,92.1584 C45.0864,90.4101333 44.2661333,88.2288 43.0341333,88.2288 C41.9653333,88.2288 45.6485333,98.5637333 45.6485333,98.5637333 C45.6485333,98.5637333 40.8122667,88.0037333 39.4917333,88.1744 C37.5888,88.4208 42.8805333,99.8426667 42.8805333,99.8426667 C42.8805333,99.8426667 38.0816,90.0453333 36.6736,90.2266667 C35.2645333,90.4090667 39.0266667,98.1104 40.248,101.274133 C39.2069333,99.4629333 35.8704,92.6042667 34.8442667,92.7376 C33.8170667,92.8698667 34.9008,96.7365333 35.2816,97.6581333 C37.5802667,103.228267 43.2997333,113.8128 43.2997333,113.8128" id="Fill-137" fill="#F1B2A1"></path>
                <path d="M41.8437333,103.144 C41.8437333,103.144 48.6426667,104.489067 50.8848,109.494933" id="Stroke-138" stroke="#DF897D" stroke-width="0.888888889" stroke-linejoin="round"></path>
                <polyline id="Fill-139" fill="#282826" points="196.771733 423.013867 165.637867 423.013867 165.8384 419.200533 196.9712 419.200533 196.771733 423.013867"></polyline>
                <polyline id="Fill-140" fill="#F1B2A1" points="193.539733 381.216533 194.290667 407.365867 192.813333 419.200533 172.485867 406.2864 170.069867 378.207467"></polyline>
                <path d="M172.485867,406.2864 C172.485867,406.2864 168.300267,413.791467 166.9392,415.885333 C165.578133,417.9792 165.7968,419.983467 165.7968,419.983467 C165.7968,419.983467 195.2656,419.983467 196.917867,419.983467 C197.461867,416.8112 194.3472,406.2864 194.3472,406.2864 C194.3472,406.2864 178.313067,407.392533 172.485867,406.2864" id="Fill-141" fill="#EB9156"></path>
                <path d="M179.0672,408.828267 L186.4784,408.828267 M178.7568,411.343467 L186.685333,411.343467 M178.474133,413.859733 L186.959467,413.859733" id="Stroke-142" stroke="#282826" stroke-width="1.06666667" stroke-linejoin="round"></path>
                <path d="M149.925867,422.224533 L150.0432,419.983467 L108.5968,419.983467 C107.180267,419.983467 105.907733,419.24 105.244267,418.024 L104.9968,417.9792 L104.808,421.5824 C104.8016,421.7168 104.845333,421.845867 104.931733,421.944 L105.013867,422.035733 C105.5664,422.659733 106.365333,423.013867 107.221867,423.013867 L149.094933,423.013867 C149.5312,423.013867 149.9024,422.6608 149.925867,422.224533" id="Fill-143" fill="#282826"></path>
                <path d="M148.550933,381.216533 L148.4624,407.164267 L148.0656,419.200533 L107.731733,419.200533 C106.7984,419.200533 106.0816,418.4432 106.130667,417.509867 C106.166933,416.8112 106.629867,416.184 107.296533,415.932267 L126.259733,407.260267 L121.964267,378.207467" id="Fill-144" fill="#F1B2A1"></path>
                <path d="M126.0592,405.584533 L106.303467,415.885333 C105.5664,416.201067 105.049067,416.9872 105.0032,417.864 C104.941333,419.0352 106.0976,419.983467 107.129067,419.983467 L150.0432,419.983467 L148.7376,406.886933 C148.7376,406.886933 133.695467,410.0112 126.0592,405.584533" id="Fill-145" fill="#EB9156"></path>
                <path d="M115.013867,411.343467 L117.5696,416.175467 M118.252267,409.661333 L120.808,414.492267 M121.490667,407.9792 L124.0464,412.810133" id="Stroke-146" stroke="#282826" stroke-width="1.06666667" stroke-linejoin="round"></path>
                <path d="M131.542933,185.5248 L124.725867,188.8816 L121.215467,199.721067 C115.578133,208.386667 107.104533,225.5952 107.9664,249.845867 C109.247467,285.888533 120.981867,392.268267 120.981867,392.268267 L150.3216,392.268267 L151.702933,229.712533 L151.5408,173.3456" id="Fill-147" fill="#4A5C9A"></path>
                <path d="M174.1168,187.477867 C174.1168,187.477867 175.5536,191.4256 177.670933,197.6208 C183.570667,204.623467 191.628267,216.655467 194.7696,232.8176 C201.0224,264.994667 197.408533,392.268267 197.408533,392.268267 L168.9328,392.268267 L145.405333,229.0576 C145.405333,229.0576 141.347733,215.266667 142.552,192.284267" id="Fill-148" fill="#4A5C9A"></path>
                <path d="M151.216533,269.365867 C149.56,252.1264 143.5056,224.4816 143.194133,203.218667 M121.218667,199.724267 C121.218667,199.724267 138.191467,208.8432 177.666667,197.6208 M138.752533,203.154667 L137.677333,203.088533 C136.422933,203.011733 135.522667,201.925867 135.669867,200.6672 L136.085867,197.101333 C136.2256,195.9024 137.269867,194.969067 138.472,194.969067 L140.697067,194.969067" id="Stroke-149" stroke="#5E93C1" stroke-width="0.888888889" stroke-linejoin="round"></path>
                <path d="M141.196267,199.2592 C141.149333,200.163733 140.4912,200.8976 139.727467,200.8976 C138.963733,200.8976 138.3824,200.163733 138.4304,199.2592 C138.477333,198.354667 139.135467,197.6208 139.8992,197.6208 C140.662933,197.6208 141.244267,198.354667 141.196267,199.2592" id="Fill-150" fill="#5E93C1"></path>
                <path d="M161.142933,201.442667 C161.157867,201.161067 159.366933,193.189867 159.366933,193.189867 M126.150933,201.442667 C125.945067,201.225067 128.9264,192.850667 128.9264,192.850667 M172.288533,199.061867 C172.288533,199.061867 182.213867,210.486933 186.101867,230.784533 C189.9888,251.0832 192.1488,392.268267 192.1488,392.268267 M157.718933,201.994133 C157.718933,201.994133 158.473067,210.2384 177.208,206.368533 M118.250133,204.698133 C118.250133,204.698133 126.8592,208.694933 129.625067,203.154667 M137.677333,203.088533 C137.677333,203.088533 137.565333,222.501867 139.165333,224.1904 C140.765333,225.878933 145.298667,226.648 145.298667,226.648 M148.029333,391.005333 C148.029333,391.005333 145.9984,269.208 148.096533,246.880533" id="Stroke-151" stroke="#5E93C1" stroke-width="0.888888889" stroke-linejoin="round"></path>
                <path d="M180.905067,136.995733 C177.0704,131.2912 156.006933,118.5168 156.006933,118.5168 C149.381867,117.689067 141.818133,117.8736 141.818133,117.8736 C141.818133,117.8736 133.267733,127.094933 126.042133,137.429867 C120.021867,143.449067 119.338133,150.982933 119.461867,157.205867 C119.6368,166.066667 122.706667,178.850667 123.430933,192.850667 C135.504533,197.24 158.188267,196.237333 175.389333,191.304 C175.389333,191.304 184.738667,142.700267 180.905067,136.995733" id="Fill-152" fill="#EB9156"></path>
                <path d="M141.818133,117.8736 C141.818133,117.8736 130.1552,115.363733 112.7952,123.807467 C99.7125333,130.170133 97.5568,131.653867 97.5568,131.653867 L107.663467,156.466667 L135.971733,144.083733" id="Fill-153" fill="#EB9156"></path>
                <path d="M137.033067,117.525867 C135.0864,119.7712 127.827733,122.3984 126.934933,121.952533 C126.042133,121.5056 128.783467,119.295467 129.107733,118.714133 C126.858133,118.8112 124.879467,119.237867 123.410667,119.747733 C121.570667,120.386667 119.586667,120.883733 117.778667,121.609067 C118.978667,119.849067 121.811733,117.600533 122.906133,117.090667 C127.171733,115.104533 132.832533,115.017067 137.033067,117.525867" id="Fill-154" fill="#BB6347"></path>
                <path d="M168.047467,149.744533 L186.233067,165.728533 L203.677333,147.417067 C203.677333,147.417067 194.9648,138.579733 186.872,130.486933 C170.9776,114.592533 156.006933,118.5168 156.006933,118.5168" id="Fill-155" fill="#EB9156"></path>
                <path d="M180.368533,160.573333 L169.445867,150.973333 M119.861867,150.738667 C119.861867,150.738667 120.8528,142.618133 126.042133,137.429867 M101.728533,129.344533 L111.577067,154.754667 M183.344533,163.189867 L200.3856,144.083733 M140.130667,117.856533 C140.130667,117.856533 137.346667,124.7568 146.5008,125.32 C157.2144,125.9792 158.2768,118.4304 158.2768,118.4304" id="Stroke-156" stroke="#9D362A" stroke-width="0.888888889" stroke-linejoin="round"></path>
                <path d="M142.472,108.2768 L141.753067,118.832533 C141.753067,118.832533 140.9552,123.219733 147.747733,123.219733 C153.872533,123.219733 156.006933,118.5168 156.006933,118.5168 L154.284267,103.130133" id="Fill-157" fill="#F1B2A1"></path>
                <path d="M138.6704,83.9962667 C135.7424,90.4026667 131.4992,103.871467 138.652267,109.122667 C140.2992,110.3312 143.007467,110.495467 145.8864,109.705067 C152.125333,107.993067 156.502933,103.779733 158.056,99.7424 C160.008,94.6714667 148.591467,73.7616 138.6704,83.9962667" id="Fill-158" fill="#F1B2A1"></path>
                <path d="M139.042667,103.610133 L146.223467,103.130133 C146.223467,103.130133 145.1216,106.7216 141.997333,106.7216 C138.873067,106.7216 139.042667,103.610133 139.042667,103.610133" id="Fill-159" fill="#FFFFFE"></path>
                <path d="M165.1088,86.6042667 C166.028267,87.6997333 167.184533,88.5402667 168.838933,89.0448 C171.484267,89.8522667 173.152533,90.4336 174.646933,92.9722667 C176.140267,95.5088 175.830933,99.88 178.6096,101.161067 C181.238933,102.373867 184.482667,101.002133 186.233067,104.056 C185.315733,107.656 179.142933,117.2272 176.7728,120.504 C174.729067,118.460267 173.8224,118.0368 171.613333,117.5664 C169.871467,117.194133 168.0176,117.448 166.322667,116.8976 C164.7792,116.396267 163.494933,115.250667 162.620267,113.8832 C162.050667,112.994667 161.629333,111.997333 160.906133,111.229333 C159.875733,110.133867 158.3696,109.642133 156.915733,109.257067 C155.997333,109.013867 155.050133,108.786667 154.268267,108.248 C152.4848,107.018133 152.031467,104.934933 151.919467,102.956267 C151.776533,100.4144 151.7968,97.8842667 151.8032,95.3392 C151.808533,92.6010667 149.212267,91.2997333 147.615467,89.5152 C147.404267,89.2794667 144.466667,85.2144 145.011733,85.0096 C142.447467,85.9738667 137.725333,87.6890667 135.72,89.5546667 C133.442667,84.3322667 137.592,78.1552 143.599467,78.52 C144.467733,78.5733333 146.147733,77.4704 147.114133,77.2816 C148.354667,77.0394667 149.626133,76.9733333 150.885867,77.0501333 C153.4512,77.2069333 155.984533,77.9589333 158.242667,79.1770667 C160.016533,80.1338667 162.278933,81.5696 163.1856,83.4448 C163.762667,84.6373333 164.3568,85.7061333 165.1088,86.6042667" id="Fill-160" fill="#282826"></path>
                <path d="M141.580267,95.0736 C141.580267,95.0736 138.296,99.0448 138.719467,100.089067 C139.142933,101.133333 141.485333,100.9968 141.485333,100.9968" id="Stroke-161" stroke="#DF897D" stroke-width="0.888888889" stroke-linejoin="round"></path>
                <path d="M146.4048,95.8490667 C146.435733,95.9152 146.463467,95.9856 146.485867,96.0528 C146.649067,96.5530667 146.5328,96.9904 146.466667,97.4949333 C146.361067,98.296 145.034133,98.0218667 145.225067,97.2112 C145.341333,96.7130667 145.4864,96.1818667 145.7552,95.7424 C146.019733,95.3093333 146.258667,95.5408 146.4048,95.8490667" id="Fill-162" fill="#0C141C"></path>
                <path d="M138.5136,93.5376 C138.530667,93.608 138.543467,93.6816 138.553067,93.7530667 C138.617067,94.2746667 138.418667,94.6810667 138.256533,95.1632 C137.9984,95.9301333 136.749333,95.4042667 137.0928,94.6448 C137.302933,94.1797333 137.548267,93.6858667 137.896,93.3072 C138.239467,92.9328 138.429333,93.2058667 138.5136,93.5376" id="Fill-163" fill="#0C141C"></path>
                <path d="M149.565333,95.7392 C149.565333,95.7392 149.651733,95.3648 149.526933,94.7653333 C149.405333,94.1904 149.008533,93.4682667 148.4016,92.9413333 C147.792533,92.4208 146.984,92.1306667 146.361067,92.1722667 C146.050667,92.1786667 145.802133,92.2885333 145.647467,92.3525333 C145.490667,92.4421333 145.418133,92.5061333 145.418133,92.5061333 C145.418133,92.5061333 145.522667,92.536 145.674133,92.5658667 C145.8288,92.5957333 146.031467,92.6906667 146.2512,92.7941333 C146.6928,93.0096 147.208,93.3637333 147.688,93.7776 C148.168,94.1872 148.618133,94.6522667 148.962667,95.0437333 C149.119467,95.2368 149.298667,95.3957333 149.388267,95.5386667 C149.491733,95.6688 149.565333,95.7392 149.565333,95.7392" id="Fill-164" fill="#0C141C"></path>
                <path d="M140.795203,91.5888 C140.795203,91.5888 140.7824,91.5098667 140.7408,91.3893333 C140.701333,91.288 140.595733,91.0746667 140.426133,90.9242667 C140.0944,90.5797333 139.452267,90.3642667 138.845333,90.4304 C138.2352,90.4933333 137.686933,90.8154667 137.4032,91.1685333 C137.114133,91.5248 137.0704,91.8384 137.0704,91.8384 C137.0704,91.8384 137.1536,91.8266667 137.270933,91.7957333 C137.381867,91.7562667 137.562133,91.7392 137.740267,91.7018667 C138.105067,91.6325333 138.538133,91.5621333 138.959467,91.5237333 C139.378667,91.4768 139.7904,91.4533333 140.1392,91.4832 C140.477333,91.4864 140.796267,91.6037333 140.795203,91.5888" id="Fill-165" fill="#0C141C"></path>
                <path d="M151.0192,107.773333 C151.0192,107.773333 147.506667,110.5232 142.319467,110.5232" id="Stroke-166" stroke="#DF897D" stroke-width="0.888888889" stroke-linejoin="round"></path>
                <path d="M150.860267,98.9978667 C151.795733,96.4922667 154.3824,97.3061333 155.0192,97.9354667 C155.478933,98.3898667 155.5952,99.0896 155.573867,99.736 C155.520533,101.356267 154.728,102.938133 153.4608,103.949333 C153.008533,104.310933 152.4848,104.6064 151.910933,104.688533 C150.2992,104.92 149.450133,103.596267 149.6144,102.2512" id="Fill-167" fill="#F1B2A1"></path>
            </g>
        </g>
    </g>
</svg>