<?xml version="1.0" encoding="utf-8"?>
<!-- Generator: Adobe Illustrator 24.1.0, SVG Export Plug-In . SVG Version: 6.00 Build 0)  -->
<svg version="1.1" xmlns="http://www.w3.org/2000/svg" xmlns:xlink="http://www.w3.org/1999/xlink" x="0px" y="0px"
	 viewBox="0 0 721 634.7" style="enable-background:new 0 0 721 634.7;" xml:space="preserve">
<style type="text/css">
	.st0{fill:#8B5E3C;}
	.st1{fill:#754C29;}
	.st2{fill:#F8AB3D;}
	.st3{fill:#E1652F;}
	.st4{fill:#216838;}
	.st5{fill:#8DC63F;}
	.st6{fill:#B2E561;}
	.st7{fill:#6F8337;}
	.st8{fill:#C5D230;}
	.st9{fill:#6F8423;}
	.st10{fill:#90AC3D;}
	.st11{fill:#B3D82B;}
	.st12{fill:#00A79D;}
	.st13{fill:#D1D3D4;}
	.st14{fill:#078276;}
	.st15{fill:#939598;}
	.st16{fill:#054F46;}
	.st17{fill:#FBB06B;}
	.st18{fill:#E6E7E8;}
	.st19{fill:#27AAE1;}
	.st20{fill:#1C75BC;}
	.st21{fill:#FFFFFF;}
	.st22{fill:#BCBEC0;}
	.st23{fill:#EF4323;}
	.st24{fill:#3C2415;}
	.st25{fill:#F15722;}
	.st26{fill:#F9851B;}
	.st27{fill:#D17E11;}
	.st28{fill:#F9A01B;}
	.st29{fill:#6B163C;}
	.st30{fill:#ACC941;}
	.st31{fill:#FED600;}
	.st32{fill:#475324;}
	.st33{fill:#B36C8E;}
	.st34{fill:#93486F;}
	.st35{fill:#657C12;}
	.st36{fill:#829B1B;}
	.st37{fill:#F88729;}
	.st38{fill:#C64817;}
	.st39{fill:#0F47BE;}
	.st40{fill:#1960DD;}
	.st41{fill:#082B70;}
	.st42{fill:#2C6FD8;}
	.st43{fill:#3EA1FF;}
	.st44{fill:#343635;}
	.st45{fill:#231F20;}
	.st46{fill:#141112;}
	.st47{fill:#58595B;}
</style>
<g id="Layer_1">
	<g>
		<g>
			<path class="st0" d="M526.9,498.3c-33.4-8.1-20.1-64.6-5.3-73.9c5.5-3.5,13.2-1.3,19-5.6c3.7-2.7,6.8-10.7,10.4-14.2
				c11.3-11.1,25-13.3,39.1-6.1c64.6,32.7-22.7,133.1-56.2,105.1C532.2,502.2,529,498.8,526.9,498.3z"/>
			<path class="st1" d="M547.1,494.5c-1.8-0.3-7.5-2.4-8-4.6c-0.9-4.3,7.7-9.7,11.6-8.8c6.4,1.5,15.1,13.2,4,13.8
				C554.7,494.9,549.6,495,547.1,494.5z"/>
			<path class="st1" d="M523.8,448.9c-0.4-6,6.4-6.9,11-7.2c6.2-0.4,11.3,1,15.8,5.3c3,2.8,3.9,7,3.6,11.1
				c-0.4,5.1-5.1,9.1-9.6,11.6c-2.9,1.5-9.3,4.5-12.6,3.2C524.7,470.1,524,453,523.8,448.9z"/>
			<path class="st1" d="M581.2,436.2c-2.6-2.2-2.7-6.3,0-8.6c6-5.1,17.1,4.3,10.3,8.1C591.5,435.8,584.5,439.1,581.2,436.2z"/>
		</g>
		<g>
			<path class="st2" d="M164.2,390.4c0-22.7,21.7-43.4,57.2-58.9V361c0,6.9,5.6,12.4,12.4,12.4c6.8,0,12.4-5.5,12.4-12.4v-38.8
				c7.8-2.5,16.1-4.8,24.8-6.9V361c0,6.9,5.5,12.4,12.4,12.4c6.8,0,12.4-5.5,12.4-12.4v-50.8c8-1.4,16.3-2.6,24.8-3.6V361
				c0,6.9,5.6,12.4,12.4,12.4c6.8,0,12.4-5.5,12.4-12.4v-56.7c8.1-0.6,16.4-1,24.8-1.1V361c0,6.9,5.5,12.4,12.4,12.4
				c6.8,0,12.4-5.5,12.4-12.4v-57.9c8.4,0.2,16.7,0.6,24.8,1.1V361c0,6.9,5.5,12.4,12.4,12.4c6.8,0,12.4-5.5,12.4-12.4v-54.4
				c8.5,1,16.8,2.2,24.8,3.6V361c0,6.9,5.6,12.4,12.4,12.4c6.9,0,12.4-5.5,12.4-12.4v-45.7c8.7,2.1,17,4.4,24.8,6.9V361
				c0,6.9,5.6,12.4,12.4,12.4c6.8,0,12.4-5.5,12.4-12.4v-29.6c35.5,15.5,57.2,36.2,57.2,58.9c0,0.6-0.1,1.2-0.1,1.8
				c0,0.6,0.1,1.1,0.1,1.7c-0.3,12.7-10.7,22.9-23.4,22.9h-45.4H233.1h-45.4c-12.8,0-23.1-10.2-23.4-22.9c0-0.6,0-1.1,0.1-1.7
				C164.3,391.6,164.2,391,164.2,390.4z"/>
			<path class="st3" d="M382.6,373.4c-6.8,0-12.4-5.5-12.4-12.4v-57.9c4.1-0.1,8.2-0.2,12.4-0.2c4.2,0,8.3,0.1,12.4,0.2V361
				C395,367.9,389.5,373.4,382.6,373.4z"/>
			<path class="st3" d="M432.2,373.4c-6.9,0-12.4-5.5-12.4-12.4v-56.7c8.4,0.6,16.7,1.4,24.8,2.3V361
				C444.6,367.9,439.1,373.4,432.2,373.4z"/>
			<path class="st3" d="M283.4,373.4c-6.9,0-12.4-5.5-12.4-12.4v-45.7c7.9-1.9,16.2-3.6,24.8-5.1V361
				C295.8,367.9,290.3,373.4,283.4,373.4z"/>
			<path class="st3" d="M333,373.4c-6.9,0-12.4-5.5-12.4-12.4v-54.4c8.1-1,16.4-1.7,24.8-2.3V361C345.4,367.9,339.9,373.4,333,373.4
				z"/>
			<path class="st3" d="M233.8,373.4c-6.8,0-12.4-5.5-12.4-12.4v-29.6c7.6-3.3,16-6.4,24.8-9.3V361
				C246.2,367.9,240.7,373.4,233.8,373.4z"/>
			<path class="st3" d="M481.8,373.4c-6.9,0-12.4-5.5-12.4-12.4v-50.8c8.6,1.5,16.9,3.2,24.8,5.1V361
				C494.2,367.9,488.7,373.4,481.8,373.4z"/>
			<path class="st3" d="M531.4,373.4c-6.8,0-12.4-5.5-12.4-12.4v-38.8c8.9,2.8,17.2,5.9,24.8,9.3V361
				C543.8,367.9,538.3,373.4,531.4,373.4z"/>
		</g>
		<g>
			<path class="st4" d="M415.7,107.8c0,0,16.9,4.9,25.4,15.6c6.7,8.3,10.3,21.9,7.1,22.8c-4,1.2-17.6-6.2-24-14.9
				C417.8,122.6,415.7,107.8,415.7,107.8z"/>
			<g>
				<path class="st1" d="M446.8,148.3C446.7,148.3,446.7,148.3,446.8,148.3c-1.3-0.5-1.9-1.9-1.4-3.2c0.1-0.2,6.3-15.2,26.6-8.6
					c1.3,0.4,2,1.8,1.6,3.1c-0.4,1.3-1.8,2-3.1,1.6c-15.8-5.1-20.4,5.4-20.6,5.8C449.4,148.2,448,148.8,446.8,148.3z"/>
			</g>
			<path class="st5" d="M460.3,202.6c1.6-2.5,3.1-5.2,4.3-8.1c8.2-20.5,0.9-42.7-16.4-49.6c-17.3-6.9-37.9,4.1-46.1,24.6
				c-1.2,2.9-2,5.9-2.5,8.8c-15.8,4.3-29.5,15.8-36,32.2c-11.1,27.8,2.4,59.4,30.2,70.5c27.8,11.1,59.4-2.4,70.5-30.2
				C470.7,234.4,468.7,216.7,460.3,202.6z"/>
			<path class="st6" d="M382.5,219.6c6.6-16.4,20.4-27.7,36.4-32c0.5-2.9,1.4-5.9,2.5-8.8c5.4-13.4,16.1-22.6,27.9-25.5
				c-14.9-3.9-31.6,5.7-38.4,22.7c-1,2.6-1.8,5.2-2.3,7.9c-14.3,3.8-26.6,13.9-32.5,28.5c-6.4,15.9-3.5,33.4,6.2,46.4
				C377.6,246.5,377.3,232.6,382.5,219.6z"/>
		</g>
		<g>
			<path class="st7" d="M127,394.6c0,0-3.2-24.7,9.3-37.9c16.8-17.7,59.3-34.9,80.2-47.5c10.5-6.4,16.8-17.5,16.8-17.5
				s4,27.3-14.4,43.3c-15.1,13.1-51,30.9-69.5,41.2C134.9,384.2,127,394.6,127,394.6z"/>
			<path class="st8" d="M208.6,321.4c1.3-3.1,4.9-4.5,8-3.1c3.1,1.3,4.5,4.9,3.1,8c-1.3,3.1-4.9,4.5-8,3.1
				C208.7,328,207.3,324.5,208.6,321.4z"/>
			<path class="st8" d="M191.5,331.4c1.3-3.1,4.9-4.5,8-3.1c3.1,1.3,4.5,4.9,3.1,8c-1.3,3.1-4.9,4.5-8,3.1
				C191.5,338,190.1,334.5,191.5,331.4z"/>
			<path class="st8" d="M174.4,340.3c1.3-3.1,4.9-4.5,8-3.1c3.1,1.3,4.5,4.9,3.1,8c-1.3,3.1-4.9,4.5-8,3.1
				C174.5,347,173,343.4,174.4,340.3z"/>
			<path class="st8" d="M157,351.4c1.3-3.1,4.9-4.5,8-3.1c3.1,1.3,4.5,4.9,3.1,8c-1.3,3.1-4.9,4.5-8,3.1
				C157.1,358,155.7,354.5,157,351.4z"/>
			<path class="st8" d="M139.1,362.3c1.3-3.1,4.9-4.5,8-3.1c3.1,1.3,4.5,4.9,3.1,8c-1.3,3.1-4.9,4.5-8,3.1
				C139.2,369,137.8,365.4,139.1,362.3z"/>
		</g>
		<g>
			<path class="st9" d="M220,519.5L207.9,489l-43-47.2c0,0,21.2-6.1,22.9-5.6c1.7,0.5,19.5,36.2,29.4,30.5
				c7.5-4.3-10.4-32.7-8.9-33.6c1.5-1,20.4-13.3,20.4-13.3s6.8,35.1,15.8,33.1c8.9-1.9,0.4-36.3,0.4-36.3l23.8-12.1l-3.8,52.1
				l11.3,40.5L220,519.5z"/>
			<path class="st10" d="M283.5,352c-3.1-7.9-12.1-11.7-20-8.6c-1,0.4-1.9,0.9-2.8,1.5c-3.8-6.4-11.7-9.3-18.9-6.4
				c-3,1.2-5.4,3.2-7,5.7c-9-6-20.7-7.7-31.4-3.4c-9.9,3.9-16.9,12-19.8,21.4c-6.7-5.4-16-7.2-24.5-3.7
				c-12.1,4.8-18.2,18.1-14.3,30.4c-2.8,0.1-5.6,0.6-8.3,1.7c-13.2,5.3-19.7,20.2-14.4,33.5c3.2,8.2,10.2,13.7,18.2,15.6
				c0.1,1.5,0.4,3.1,1,4.5c3.1,7.9,12.1,11.7,20,8.6c2.7-1.1,4.8-2.8,6.4-4.9c6,2.8,13,3.3,19.6,0.6c5.7-2.3,9.9-6.4,12.6-11.4
				c5.4,1.8,11.3,1.9,17-0.4c6.3-2.5,11-7.4,13.5-13.2c5.8,2.5,12.6,2.8,18.9,0.3c6.2-2.5,10.8-7.1,13.3-12.7
				c3.6,0.2,7.2-0.2,10.7-1.6c12.7-5.1,18.9-19.4,13.8-32.1c-1.5-3.7-3.8-6.7-6.5-9.2C284.4,363.8,285.8,357.6,283.5,352z"/>
			<path class="st11" d="M142.9,395.2c-2.6,0.6-5.2,1.7-7.5,3.4c-8.6,6.5-10.3,18.8-3.8,27.4c2,2.6,4.5,4.4,7.2,5.8
				C132.1,419.9,133.8,405.1,142.9,395.2z"/>
			<path class="st11" d="M166.8,364.4c-2.6,0.6-5.2,1.7-7.5,3.4c-8.6,6.5-10.3,18.8-3.8,27.4c2,2.6,4.5,4.4,7.2,5.8
				C156.1,389.2,157.8,374.4,166.8,364.4z"/>
			<path class="st11" d="M257.5,370.2c-2.2,0.5-4.3,1.4-6.1,2.8c-7.1,5.4-8.4,15.4-3.1,22.5c1.6,2.1,3.6,3.6,5.9,4.7
				C248.7,390.6,250.1,378.4,257.5,370.2z"/>
			<path class="st11" d="M211,346.9c-4,0.9-7.8,2.6-11.3,5.2c-13,9.9-15.5,28.4-5.7,41.4c2.9,3.9,6.7,6.7,10.8,8.7
				C194.8,384.4,197.4,362,211,346.9z"/>
		</g>
		<g>
			<path class="st12" d="M536.3,557.6V551c-12.9,0-23.3-10.5-23.3-23.4c0-12.9,10.5-23.3,23.3-23.3v-5.8h-54.1c-0.1,0-0.3,0-0.4,0
				v59.2c0.1,0,0.2,0,0.4,0H536.3z"/>
			<path class="st13" d="M482.3,492.8c-1.6,0-2.8,1.3-2.8,2.8c0,1.4,1.1,2.6,2.5,2.8c0.1,0,0.2,0,0.4,0h54.1v-2.9v-2.8H482.3z"/>
			<path class="st13" d="M482.3,557.6c-0.1,0-0.3,0-0.4,0c-1.4,0.2-2.5,1.4-2.5,2.8c0,1.6,1.3,2.8,2.8,2.8h54.1v-3.5v-2.2H482.3z"/>
			<path class="st14" d="M513,527.7c0,12.9,10.5,23.4,23.3,23.4v-46.7C523.4,504.3,513,514.8,513,527.7z"/>
			<path class="st14" d="M536.3,498.5v5.8c12.9,0,23.3,10.5,23.3,23.3c0,12.9-10.5,23.4-23.3,23.4v6.6h54.1c0.1,0,0.3,0,0.4,0v-59.2
				c-0.1,0-0.2,0-0.4,0H536.3z"/>
			<path class="st15" d="M590.4,492.8h-54.1v2.8v2.9h54.1c0.1,0,0.3,0,0.4,0c1.4-0.2,2.5-1.4,2.5-2.8
				C593.2,494.1,592,492.8,590.4,492.8z"/>
			<path class="st13" d="M590.8,557.6c-0.1,0-0.2,0-0.4,0h-54.1v2.2v3.5h54.1c1.6,0,2.8-1.3,2.8-2.8
				C593.2,559,592.2,557.8,590.8,557.6z"/>
			<path class="st16" d="M559.7,527.7c0-12.9-10.5-23.3-23.3-23.3V551C549.2,551,559.7,540.6,559.7,527.7z"/>
		</g>
		<path class="st17" d="M261.1,459.1c-17.2,11.8-32,6.9-40.6-5.8c-8.7-12.6-7.9-28.2,9.3-40c17.2-11.8,42.1-13.8,50.8-1.2
			C289.2,424.8,278.3,447.3,261.1,459.1z"/>
		<path class="st17" d="M396.7,403.1c17.2,11.8,32,6.9,40.6-5.8c8.7-12.6,7.9-28.2-9.3-40c-17.2-11.8-42.1-13.8-50.8-1.2
			C368.5,368.8,379.4,391.3,396.7,403.1z"/>
		<g>
			<path class="st18" d="M516.7,119.8v-13.4h-48.6v13.4c0,0-33.9,65.7-33.9,81.2v3.4v27.2v172.2c0,4.7,3.8,8.5,8.5,8.5h99.5
				c4.7,0,8.5-3.8,8.5-8.5V231.6v-27.2v-3.4C550.6,185.5,516.7,119.8,516.7,119.8z"/>
			<g>
				<g>
					<path class="st19" d="M512.1,77v22h-5.7V76.3h-5.7V99h-5.7V76.3h-5.7V99h-5.7V76.3h-5.7V99h-5.7V77.1
						c-4.6,1.7-7.9,6.2-7.9,11.4v10.7h55.7V88.5C520.3,83.1,516.9,78.6,512.1,77z"/>
					<path class="st20" d="M478.1,99V76.3h-1.4c-1.5,0-2.9,0.3-4.3,0.8V99H478.1z"/>
					<rect x="483.8" y="76.3" class="st20" width="5.7" height="22.7"/>
					<rect x="495.1" y="76.3" class="st20" width="5.7" height="22.7"/>
					<path class="st20" d="M512.1,99V77c-1.2-0.4-2.6-0.7-4-0.7h-1.7V99H512.1z"/>
				</g>
				<rect x="464.6" y="97.2" class="st20" width="55.7" height="9.2"/>
			</g>
			<path class="st21" d="M455.4,203.5v-3.2c0-14,29.1-70.9,31.7-76.1v-11.1h-9.8v6.6c0,0-33.6,65.1-33.6,80.6v3.4v26.9v162.1h11.9
				c-0.1-0.5-0.2-1.1-0.2-1.6v-162V203.5z"/>
			<rect x="434.2" y="225.6" class="st13" width="116.4" height="121.7"/>
			<path class="st22" d="M521.3,113.2c0,1.5-1.2,2.8-2.8,2.8h-52.1c-1.5,0-2.8-1.2-2.8-2.8l0,0c0-1.5,1.2-2.8,2.8-2.8h52.1
				C520,110.4,521.3,111.6,521.3,113.2L521.3,113.2z"/>
		</g>
		<g>
			<path class="st23" d="M523.1,511.8c0,29.6-24,53.6-53.6,53.6H347.4c-29.6,0-53.6-24-53.6-53.6l0,0c0-29.6,24-53.6,53.6-53.6
				h122.1C499.1,458.2,523.1,482.2,523.1,511.8L523.1,511.8z"/>
			<rect x="358.9" y="458.2" class="st24" width="99" height="107.2"/>
			<polygon class="st23" points="299.7,506.2 281.7,496 286.4,506.2 281.7,511.8 285.4,516.8 286.1,523.6 299.7,518.8 			"/>
			<polygon class="st23" points="516.2,505.6 534.5,496.7 530.5,505.6 535.9,512.5 530.5,514.5 532.8,522.9 516.2,519.8 			"/>
			<rect x="365.7" y="458.2" class="st0" width="7.1" height="107.2"/>
			<rect x="443.3" y="458.2" class="st0" width="7.1" height="107.2"/>
		</g>
		<g>
			<polygon class="st8" points="299.3,95.6 277.1,69 289.9,60 305.3,93.1 			"/>
			<polygon class="st10" points="304.9,100.4 282.9,54 305.3,47.7 313.4,95.2 			"/>
			<polygon class="st8" points="312.7,103.2 303.7,66.2 320.4,66.3 319.3,98.1 			"/>
			<path class="st25" d="M356.2,220.2c-0.2-2.8-0.5-5.7-0.8-8.6l-14.1,8.6L356.2,220.2z"/>
			<path class="st25" d="M352.5,187.5c-0.5-3.5-1-7-1.6-10.5l-17.3,10.5L352.5,187.5z"/>
			<path class="st25" d="M347.1,154.9c-0.6-3.3-1.3-6.6-2-9.8l-16.2,9.8L347.1,154.9z"/>
			<path class="st25" d="M340.2,123.9c-0.9-3.6-1.9-7-2.9-10.2l-16.9,10.3L340.2,123.9z"/>
			<path class="st25" d="M294.8,143.4c0.8,3,1.7,6.1,2.6,9.2l14.6-10.8L294.8,143.4z"/>
			<path class="st26" d="M305.9,85.4c0,0-14.9,3.4-16.6,16.7c-0.3,2.8-0.4,6-0.2,9.5l16.1,0.8l-15.2,8.3c1,6.9,2.7,14.7,4.9,22.8
				l17.2-1.6l-14.6,10.8c2.3,7.4,4.9,15,7.7,22.7l17.5-1.7l-14.1,10.5c3,7.7,6.2,15.4,9.5,22.7l12.3-1.2l-9.6,7.2
				c4,8.6,7.9,16.7,11.7,23.8l9.4-0.9l-7,5.2c8.7,15.9,16,26.2,19,25.5c4.2-1,4.6-20.4,2.4-46.2l-15,0l14.1-8.6
				c-0.8-7.7-1.8-15.8-2.9-24.1l-18.8,0l17.3-10.5c-1.2-7.4-2.4-14.8-3.8-22.1l-18.2,0l16.2-9.8c-1.6-7.4-3.2-14.6-5-21.2l-19.8,0
				l16.9-10.3c-2.5-8.1-5-15-7.7-20.3C323,80.4,305.9,85.4,305.9,85.4z"/>
			<path class="st25" d="M289.1,111.6c0.1,2.8,0.4,5.8,0.9,9l15.2-8.3L289.1,111.6z"/>
			<path class="st25" d="M305.2,175.3c1.1,2.9,2.2,5.9,3.4,8.8l14.1-10.5L305.2,175.3z"/>
			<path class="st25" d="M318.1,206.8c0.9,2,1.8,4,2.7,6l9.6-7.2L318.1,206.8z"/>
			<path class="st25" d="M332.5,236.6c0.8,1.5,1.6,2.9,2.3,4.3l7-5.2L332.5,236.6z"/>
		</g>
		<g>
			<path class="st27" d="M267.8,446.4c57.4,12.2,63.3,42.9,63.3,42.9H141.3L267.8,446.4z"/>
			<path class="st28" d="M331.1,489.3H141.3v46c5.4,1.2,9.5,6.1,9.5,11.9c0,5.8-4.1,10.6-9.5,11.9v11.6h137.5
				c0.6-8.8,7.9-15.8,16.8-15.8c9,0,16.2,7,16.8,15.8h18.6V489.3z M173.2,534.1c-9.9,0-17.8-8-17.8-17.8c0-9.9,8-17.9,17.8-17.9
				c9.9,0,17.9,8,17.9,17.9C191.1,526.1,183.1,534.1,173.2,534.1z M221.7,556.7c-6,0-10.8-4.9-10.8-10.8c0-6,4.9-10.8,10.8-10.8
				c6,0,10.8,4.9,10.8,10.8C232.6,551.8,227.7,556.7,221.7,556.7z M255.6,536.8c-7.7,0-14-6.3-14-14c0-7.7,6.3-14,14-14
				c7.7,0,14,6.3,14,14C269.6,530.5,263.3,536.8,255.6,536.8z M306,536.8c-3.6,0-6.6-2.9-6.6-6.5c0-3.6,2.9-6.6,6.6-6.6
				c3.6,0,6.6,2.9,6.6,6.6C312.5,533.9,309.6,536.8,306,536.8z"/>
			<path class="st27" d="M295.6,554.9c-9,0-16.2,7-16.8,15.8h33.7C311.8,561.9,304.6,554.9,295.6,554.9z"/>
			<path class="st27" d="M150.8,547.2c0-5.8-4.1-10.6-9.5-11.9v23.7C146.7,557.8,150.8,553,150.8,547.2z"/>
			<path class="st27" d="M173.2,498.4c-9.9,0-17.8,8-17.8,17.9c0,9.9,8,17.8,17.8,17.8c9.9,0,17.9-8,17.9-17.8
				C191.1,506.4,183.1,498.4,173.2,498.4z"/>
			<path class="st27" d="M221.7,535c-6,0-10.8,4.9-10.8,10.8c0,6,4.9,10.8,10.8,10.8c6,0,10.8-4.9,10.8-10.8
				C232.6,539.8,227.7,535,221.7,535z"/>
			<path class="st27" d="M306,523.7c-3.6,0-6.6,2.9-6.6,6.6c0,3.6,2.9,6.5,6.6,6.5c3.6,0,6.6-2.9,6.6-6.5
				C312.5,526.6,309.6,523.7,306,523.7z"/>
			<path class="st27" d="M255.6,508.8c-7.7,0-14,6.3-14,14c0,7.7,6.3,14,14,14c7.7,0,14-6.3,14-14
				C269.6,515,263.3,508.8,255.6,508.8z"/>
		</g>
		<g>
			<path class="st29" d="M209.4,72.4c12.9-13.8,36.5-9.4,54.6,10.3c22.8,24.9,51.2,69.6,50,114.6c-1,36.5-13.8,64-40.2,66.5
				c-44.7,4.2-46.2-36.7-45.1-64.7c0.8-21.1,0.4-61.6-8.8-80.6C211,100.1,197.1,85.5,209.4,72.4z"/>
			<path class="st10" d="M206.1,57.8L184,38.7l-4.4,6L204.5,67c0,0-13.9-4.1-21.1,4.4c-2.9,3.4,17.2,4.6,17.2,4.6s-9,10.1,0.3,27.8
				c3.4,6.4,8.8-24.1,8.8-24.1s25.2,20,24.8,14c-0.4-6.6-14.4-27.5-14.4-27.5s33.1,2.9,32.9,1.9c-4.9-20.2-34.1-9.7-34.1-9.7
				s17.9-11.4,16.2-12.1C214.5,37.8,206.1,57.8,206.1,57.8z"/>
			<path class="st21" d="M243.6,217.3c1.1,16.1,9.1,29.6,20,36.3c-12.8-0.5-23.7-13.2-24.8-29.5c-0.6-8.9,1.9-17.2,6.3-23.2
				C243.7,206,243.2,211.6,243.6,217.3z"/>
			<path class="st30" d="M217.6,62.3c2-0.6,3.6-1.1,4-1.3c22.1-5.4,31.2,4.7,30,3.3c-0.4-0.5-5-13.9-33.2-7.8
				c-3,0.6-6.3,1.7-8.2,3.3L184,38.7l-1.4,2l24.8,20.9c-2.3,1.3-4.3,4.7-5.7,7.9c-11.7,26.4-0.1,34.8,0.4,35.3
				c1.2,1.5-6.4-10.7,3.4-31.2c0.3-0.5,1.6-2.7,2.8-5.1c0.8,2.1,1.8,3.9,2.2,4.4c4.5,6.6,23.9,22.7,24.2,20.9
				c0.1-0.7-4.7-17.4-13.2-28.7C220.5,63.9,219.2,63,217.6,62.3z"/>
		</g>
		<g>
			<g>
				<path class="st31" d="M27.5,199.9l0.2-2c0,0,76.7-25.6,158.1,34.9c72.1,53.6,70.6,144.2,70.6,144.2l-4.4,1.7
					c-4.6-23.4-21.9-85.4-79.3-128.2C113.4,206.5,55,200.1,27.5,199.9z"/>
				<path class="st28" d="M159,268.9c-50.8-37.7-101.2-56.2-132-64.7l0.5-4.3c27.5,0.2,85.9,6.6,145.2,50.6
					c57.5,42.7,74.7,104.8,79.3,128.2l-4.3,1.6C236.6,355.4,210.2,306.9,159,268.9z"/>
				<path class="st31" d="M152.7,281.2C108.8,248.6,26,212.5,26,212.5l1-8.4c30.8,8.5,81.2,27,132,64.7
					c51.1,38,77.6,86.5,88.7,111.5l-3.1,1.2C244.6,381.5,199.1,315.7,152.7,281.2z"/>
				<path class="st32" d="M27.7,197.8l-1.1,15c-1.2-0.2-3.1-0.8-4.2-1.6c-3.4-2.6-4.3-7.3-1.8-10.6C22.3,198.4,25,197.4,27.7,197.8z
					"/>
				<polygon class="st31" points="246.8,378.2 249.9,386.7 256.3,383.3 252.6,375.5 				"/>
			</g>
			<g>
				<path class="st31" d="M91.4,142.5l0.8-1.8c0,0,80.8-2.4,141.3,79c53.6,72.1,26,158.4,26,158.4l-4.7,0.3
					c2.3-23.8,3.7-88.1-39-145.6C171.7,173.6,117.6,150.7,91.4,142.5z"/>
				<path class="st28" d="M197.4,246.5c-37.7-50.8-80.7-83-107.8-100l1.7-3.9c26.2,8.1,80.4,31.1,124.4,90.3
					c42.7,57.5,41.3,121.8,39,145.6l-4.6,0.3C246.8,351.7,235.4,297.6,197.4,246.5z"/>
				<path class="st31" d="M187.8,256.5C155.1,212.6,86.3,154.2,86.3,154.2l3.4-7.7c27,17,70,49.2,107.8,100
					c38,51.1,49.4,105.2,52.8,132.3l-3.3,0.2C246.9,379,222.3,302.9,187.8,256.5z"/>
				<path class="st32" d="M92.1,140.6l-5.3,14c-1.1-0.5-2.8-1.7-3.5-2.7c-2.6-3.4-2-8.2,1.3-10.7C86.8,139.6,89.7,139.5,92.1,140.6z
					"/>
				<polygon class="st31" points="249.3,377.6 249.8,386.7 257,385.3 255.6,376.7 				"/>
			</g>
			<g>
				<path class="st31" d="M171.9,106.6l1.3-1.5c0,0,78.2,20.6,113.1,115.9c30.9,84.3-20.1,159.3-20.1,159.3l-4.6-1
					c9-22.1,28.6-83.4,4-150.7C240.2,159.2,194.8,121.8,171.9,106.6z"/>
				<path class="st28" d="M244.1,236.4c-21.8-59.4-53.8-102.5-74.9-126.5l2.8-3.3c22.8,15.2,68.2,52.6,93.6,121.9
					c24.6,67.3,5,128.6-4,150.7l-4.5-1C261.5,351.2,266,296.2,244.1,236.4z"/>
				<path class="st31" d="M232,243.3c-18.8-51.4-68.3-126.9-68.3-126.9l5.4-6.4c21.1,24,53.2,67.1,74.9,126.5
					c21.9,59.8,17.5,114.9,13,141.8l-3.2-0.7C253.9,377.5,251.9,297.6,232,243.3z"/>
				<path class="st32" d="M173.2,104.9l-9.1,11.9c-0.9-0.8-2.2-2.4-2.6-3.6c-1.5-4,0.4-8.4,4.3-9.9
					C168.4,102.5,171.2,103.2,173.2,104.9z"/>
				<polygon class="st31" points="256.6,376.9 254.5,385.7 261.8,386.4 262.9,377.8 				"/>
			</g>
		</g>
		<g>
			<path class="st33" d="M171.1,402.6c0,0,3.8,14.2,0.4,21.4c-4.6,9.7-23.4,18-26.1,32.1c-4,20.9,9.2,33.5,16.9,36.3
				c2.8,1,4.7,4.5,10.8,5.1c6.8,0.6,11.6-3.2,11.6-3.2s6.3,4.6,13.8,2.2c6.6-2.2,8.6-6.7,8.6-6.7s7.2,0.4,13.3-3.5
				c1.7-1.1,4-4.7,5.1-6.4c3.3-4.8,9.1-5.5,10.3-20.1c0.8-9.2-5-20.4-10-25.1c-11.6-10.8-27.5-10.3-34.4-17c-3.4-3.3-7-17.7-7-17.7
				L171.1,402.6z"/>
			<path class="st34" d="M178.9,463.5c-1.4-10.3,0-20.4,0.6-28.5c-5.9,4.2-10.7,16.3-8.9,29.6c1.8,13.3,8,23.8,14.8,26.2
				C182.7,483.3,180.3,473.9,178.9,463.5z"/>
			<path class="st34" d="M219.8,452.3c-2.8-7.3-5.9-12.6-9.4-17.6c6,2.2,12.2,5.8,15.8,15.2c3.6,9.3,3,18.5-1,22.7
				C224.4,466.6,222.6,459.6,219.8,452.3z"/>
			<path class="st34" d="M159.6,465.7c-0.1-7.8,0.7-15,2-21c-4.6,4.3-9,11.1-8.9,21.1c0.1,10,4,18.4,9.3,20.8
				C160.6,480.7,159.7,473.5,159.6,465.7z"/>
			<path class="st34" d="M201.6,456.5c-2.7-10.1-6.2-19.1-9.9-26.3c7.1,1.6,14.5,11.2,18,24.2c3.5,12.9,1.8,25-3.5,29.9
				C205.8,476.1,204.3,466.6,201.6,456.5z"/>
		</g>
		<g>
			
				<rect x="279.9" y="160" transform="matrix(0.9786 -0.2056 0.2056 0.9786 -30.6443 61.9951)" class="st35" width="6.2" height="36.9"/>
			<path class="st35" d="M278.8,173.5l-16-5.1c0.1-7.9-7.8-13.7-12.9-15.7c-11.4-4.6-32,4.5-32,4.5s9.3,18.6,19.6,22.5
				c9.5,3.6,20.7,2.2,24.3-6.5l18.2,6.1L278.8,173.5z"/>
			<g>
				<path class="st23" d="M285.7,186.8L285.7,186.8C285.7,186.8,285.7,186.8,285.7,186.8z"/>
				<path class="st23" d="M284.1,187.1L284.1,187.1C284.1,187.1,284.1,187.1,284.1,187.1z"/>
				<path class="st23" d="M302.2,180.6c-9.9,4.7-18,6.9-18,6.9c-2,0.4-6.7,0.9-17.7,0.6c-17.1-0.5-38,18.9-31.6,49.5
					c4.9,23.7,35.4,58.4,54.1,54.5c4.3-0.9,12.1-10.5,15.6-11.2c3.5-0.7,14.5,4.9,18.8,4c18.7-3.9,32.7-47.9,27.6-71.6
					C344.6,182.6,317.7,173.3,302.2,180.6z"/>
			</g>
			<g>
				<path class="st21" d="M264.2,207.4c-9.3,2.2-18.7,13.1-15.3,29.4c1.9,8.9,9.7,20.4,18.1,27.2c-3.3-6.4-5.8-12.8-7-18.6
					C256.7,230.3,259,217.4,264.2,207.4z"/>
			</g>
			<g>
				<path class="st36" d="M224.5,159.3c-0.1,0-0.2-0.1-0.2-0.1C224.3,159.2,224.3,159.2,224.5,159.3z"/>
				<path class="st36" d="M258,170.2c11.5,3.8,21.4,6.2,21.4,6.2l-0.9-4.2c0,0-9.4-2.2-20.3-4.8l-3.9-7.6l1.2,6.9
					c-2.6-0.6-5.2-1.3-7.8-1.9l-2.5-9.6l0.6,9.1l0,0c-3.7-0.9-7.2-1.7-10.3-2.5l-1.4-6.6l0.3,6.4c-5.3-1.3-9.1-2.2-9.9-2.4
					c0.9,0.3,4.7,1.5,10,3.2l0,0l-5.9,3.9l7-3.6c2.8,0.9,5.9,1.9,9.2,3l-8.7,5.5l10.9-4.8c2.9,0.9,5.8,1.9,8.7,2.9l-7.9,7.9
					L258,170.2z"/>
			</g>
		</g>
		<g>
			<path class="st37" d="M486.1,480.6c-20.3-10.2-28.9-38.9-26.8-77.6l26.4,13.3c6.1,3.1,13.6,0.6,16.7-5.5
				c3.1-6.1,0.6-13.6-5.5-16.7l-34.7-17.5c1.3-8.1,3-16.6,5-25.2l40.8,20.6c6.1,3.1,13.6,0.6,16.7-5.5c3.1-6.1,0.6-13.6-5.5-16.7
				L473.9,327c2.4-7.8,5-15.7,8-23.8l48.6,24.5c6.1,3.1,13.6,0.6,16.7-5.5c3.1-6.1,0.6-13.6-5.5-16.7l-50.6-25.6
				c3.2-7.5,6.5-15.1,10.2-22.7l51.6,26.1c6.1,3.1,13.6,0.6,16.7-5.5c3.1-6.1,0.6-13.6-5.5-16.7l-51.6-26.1c4-7.4,8-14.6,12.2-21.6
				l50.6,25.6c6.1,3.1,13.6,0.6,16.7-5.5c3.1-6.1,0.6-13.6-5.5-16.7l-48.6-24.5c4.7-7.1,9.5-14,14.4-20.5l45.3,22.9
				c6.1,3.1,13.6,0.6,16.7-5.5c3.1-6.1,0.6-13.6-5.5-16.7L568,152.2c5.8-6.8,11.6-13.2,17.3-19l34.7,17.5c6.1,3.1,13.6,0.7,16.7-5.5
				c3.1-6.1,0.6-13.6-5.5-16.7l-26.4-13.3c29.9-24.7,58.1-34.7,78.4-24.4c0.5,0.3,1,0.6,1.5,0.9c0.5,0.2,1,0.4,1.5,0.7
				c11.2,6,15.6,19.8,9.9,31.2l-20.5,40.5L540.7,431.1l-20.5,40.5c-5.8,11.4-19.5,16-31,10.6c-0.5-0.3-1-0.5-1.5-0.8
				C487.2,481.1,486.7,480.9,486.1,480.6z"/>
			<path class="st38" d="M569.5,278.1c-3.1,6.1-10.6,8.6-16.7,5.5l-51.6-26.1c1.8-3.7,3.6-7.4,5.5-11.1c1.9-3.7,3.8-7.4,5.7-11
				l51.6,26.1C570.2,264.5,572.6,271.9,569.5,278.1z"/>
			<path class="st38" d="M591.9,233.8c-3.1,6.1-10.6,8.6-16.7,5.5l-50.6-25.6c4.3-7.3,8.8-14.3,13.2-21.1l48.6,24.5
				C592.5,220.2,595,227.7,591.9,233.8z"/>
			<path class="st38" d="M524.8,366.6c-3.1,6.1-10.5,8.6-16.7,5.5l-40.8-20.6c1.9-8,4.1-16.1,6.7-24.4l45.3,22.9
				C525.4,353,527.9,360.5,524.8,366.6z"/>
			<path class="st38" d="M547.1,322.3c-3.1,6.1-10.5,8.6-16.7,5.5l-48.6-24.5c2.8-7.6,5.8-15.4,9.1-23.2l50.6,25.6
				C547.8,308.8,550.2,316.2,547.1,322.3z"/>
			<path class="st38" d="M502.4,410.9c-3.1,6.1-10.5,8.6-16.7,5.5L459.3,403c0.5-8.3,1.5-17.1,2.9-26.3l34.7,17.5
				C503,397.3,505.5,404.8,502.4,410.9z"/>
			<path class="st38" d="M614.3,189.5c-3.1,6.1-10.5,8.6-16.7,5.5l-45.3-22.9c5.2-7,10.4-13.6,15.7-19.8l40.8,20.6
				C614.9,176,617.4,183.4,614.3,189.5z"/>
			<path class="st38" d="M636.6,145.3c-3.1,6.1-10.5,8.6-16.7,5.5l-34.7-17.5c6.5-6.6,13-12.6,19.5-18l26.4,13.3
				C637.3,131.7,639.7,139.1,636.6,145.3z"/>
		</g>
		<g>
			<g>
				<rect x="142.1" y="488.2" class="st39" width="455.3" height="11.5"/>
				<rect x="142.7" y="488.2" class="st40" width="454.7" height="4"/>
				<rect x="142.1" y="447.4" class="st39" width="455.3" height="11.5"/>
				<rect x="142.7" y="447.4" class="st40" width="454.7" height="4"/>
				<rect x="247" y="388.6" class="st39" width="245.4" height="111"/>
				<rect x="247" y="388.5" class="st40" width="245.4" height="5.5"/>
				<rect x="178.1" y="307.7" class="st39" width="10.6" height="266.6"/>
				<rect x="209.9" y="307.7" class="st39" width="10.6" height="266.6"/>
				<rect x="247" y="307.7" class="st39" width="10.6" height="266.6"/>
				<rect x="481.8" y="307.7" class="st39" width="10.6" height="266.6"/>
				<rect x="517.4" y="307.7" class="st39" width="10.6" height="266.6"/>
				<rect x="549.1" y="307.7" class="st39" width="10.6" height="266.6"/>
				<rect x="278.8" y="307.7" class="st39" width="10.6" height="266.6"/>
				<rect x="310.6" y="307.7" class="st39" width="10.6" height="266.6"/>
				<rect x="342.3" y="307.7" class="st39" width="10.6" height="266.6"/>
				<rect x="379.5" y="307.7" class="st39" width="10.6" height="266.6"/>
				<rect x="411.3" y="307.7" class="st39" width="10.6" height="266.6"/>
				<rect x="448.4" y="307.7" class="st39" width="10.6" height="266.6"/>
			</g>
			<path class="st39" d="M109.3,300.3l14.4,263c0,15.8,12.8,28.7,28.7,28.7h434.7c15.8,0,28.7-12.8,28.7-28.7l14.4-263H109.3z
				 M583.9,549.3c0,4.5-3.7,8.2-8.2,8.2H163.8c-4.5,0-8.2-3.7-8.2-8.2V328.7c0-4.5,3.7-8.2,8.2-8.2h411.9c4.5,0,8.2,3.7,8.2,8.2
				V549.3z"/>
			<polygon class="st41" points="542.7,592 542.7,592 232,592 232,592 154,592 156.9,609.8 290.2,609.8 294.4,600.2 445.1,600.2 
				449.2,609.8 582.6,609.8 585.5,592 			"/>
			<path class="st42" d="M90.8,266.2v55.5c0,4.5,3.7,8.2,8.2,8.2h541.6c4.5,0,8.2-3.7,8.2-8.2v-55.5H90.8z"/>
			<rect x="90.8" y="256.4" class="st43" width="557.9" height="9.8"/>
		</g>
		<g>
			<g>
				<path class="st44" d="M365,42.7l-5.1,0l-5.7,0l-1.8,0c-1.2,0-2.3,0.2-3.3,0.7c-2.9,1.3-4.9,4.1-4.9,7.5l0.1,249.4
					c0,4.5,3.7,8.2,8.2,8.2l17.5,0l-0.1-265.8L365,42.7z"/>
				<path class="st45" d="M390.6,43.3c-1-0.4-2.1-0.7-3.3-0.7l-1.8,0l-5.7,0l-5.1,0l-4.9,0l0.1,265.8l17.5,0c4.5,0,8.2-3.7,8.2-8.2
					l-0.1-249.4C395.5,47.5,393.5,44.6,390.6,43.3z"/>
				<path class="st45" d="M354.4,41.4c0-1.4-1.1-2.6-2.6-2.6l0,0c-1.4,0-2.6,1.1-2.6,2.6l0,22.5c0,1.4,1.1,2.6,2.6,2.6l0,0
					c1.4,0,2.6-1.1,2.6-2.6L354.4,41.4z"/>
				<path class="st45" d="M364.7,41.4c0-1.4-1.1-2.6-2.6-2.6l0,0c-1.4,0-2.6,1.1-2.6,2.6l0,22.5c0,1.4,1.1,2.6,2.6,2.6l0,0
					c1.4,0,2.6-1.1,2.6-2.6L364.7,41.4z"/>
				<path class="st46" d="M380.1,41.4c0-1.4-1.1-2.6-2.6-2.6l0,0c-1.4,0-2.6,1.1-2.6,2.6l0,22.5c0,1.4,1.1,2.6,2.6,2.6l0,0
					c1.4,0,2.6-1.1,2.6-2.6L380.1,41.4z"/>
				<path class="st46" d="M390.4,41.4c0-1.4-1.1-2.6-2.6-2.6l0,0c-1.4,0-2.6,1.1-2.6,2.6l0,22.5c0,1.4,1.1,2.6,2.6,2.6l0,0
					c1.4,0,2.6-1.1,2.6-2.6L390.4,41.4z"/>
			</g>
			<g>
				<path class="st22" d="M359.7,285.2c0,5.7,4.6,10.3,10.3,10.3l0-20.6C364.3,274.9,359.7,279.6,359.7,285.2z"/>
				<path class="st47" d="M380.3,285.2c0-5.7-4.6-10.3-10.3-10.3l0,20.6C375.7,295.5,380.3,290.9,380.3,285.2z"/>
				<path class="st13" d="M362.8,285.2c0-3.7,2.2-6.9,5.4-8.3c-3.9,0.8-6.8,4.2-6.8,8.3c0,4.1,2.9,7.5,6.8,8.3
					C365,292.1,362.8,289,362.8,285.2z"/>
			</g>
		</g>
	</g>
</g>
<g id="nyt_x5F_exporter_x5F_info">
</g>
</svg>
