<?xml version="1.0" encoding="UTF-8"?>
<svg width="753px" height="480px" viewBox="0 0 753 480" version="1.1" xmlns="http://www.w3.org/2000/svg" xmlns:xlink="http://www.w3.org/1999/xlink">
    <!-- Generator: Sketch 63.1 (92452) - https://sketch.com -->
    <title>iPhone X</title>
    <desc>Created with Sketch.</desc>
    <defs>
        <linearGradient x1="50%" y1="0%" x2="50%" y2="100%" id="linearGradient-1">
            <stop stop-color="#ABB2C4" stop-opacity="0.23864923" offset="0%"></stop>
            <stop stop-color="#737A91" stop-opacity="0.331634964" offset="100%"></stop>
        </linearGradient>
        <filter x="-15.9%" y="-8.5%" width="131.9%" height="117.1%" filterUnits="objectBoundingBox" id="filter-2">
            <feGaussianBlur stdDeviation="25.5047821" in="SourceGraphic"></feGaussianBlur>
        </filter>
        <linearGradient x1="38.2321171%" y1="0%" x2="61.7678829%" y2="100%" id="linearGradient-3">
            <stop stop-color="#FFFFFF" offset="0%"></stop>
            <stop stop-color="#FEFEFE" offset="100%"></stop>
        </linearGradient>
    </defs>
    <g id="Page-1" stroke="none" stroke-width="1" fill="none" fill-rule="evenodd">
        <g id="Desktop-HD" transform="translate(-345.000000, -299.000000)">
            <g id="iPhones" transform="translate(345.000000, 299.000000)">
                <g id="iPhone-X" transform="translate(135.000000, 30.000000)">
                    <rect id="shadow" fill="url(#linearGradient-1)" opacity="0.570595562" filter="url(#filter-2)" x="0" y="0" width="480" height="896.238045" rx="51.0095643"></rect>
                    <path d="M384.513024,2.7706695 C407.477573,2.7706695 415.793829,5.19003332 424.186309,9.67838036 C432.640455,14.1997075 439.275319,20.8345712 443.796646,29.2887178 C448.284993,37.6811971 450.704357,45.997454 450.704357,68.962003 L450.704357,68.962003 L450.704357,796.160207 C450.704357,819.124756 448.284993,827.441013 443.796646,835.833493 C439.275319,844.287639 432.640455,850.922503 424.186309,855.44383 C415.877551,859.887402 407.643387,862.303022 385.197635,862.350817 L385.197635,862.350817 L99.0576459,862.351541 C76.0930969,862.351541 67.7768401,859.932177 59.3843608,855.44383 C50.9302141,850.922503 44.2953504,844.287639 39.7740233,835.833493 C35.3304512,827.524735 32.9148317,819.290571 32.8670368,796.844817 L32.8670368,796.844817 L32.8663124,68.962003 C32.8663124,45.997454 35.2856763,37.6811971 39.7740233,29.2887178 C44.2953504,20.8345712 50.9302141,14.1997075 59.3843608,9.67838036 C67.6931181,5.23480831 75.9272827,2.81918875 98.3730349,2.77139387 L98.3730349,2.77139387 Z M135.395537,19.1633813 L93.8575995,19.1634431 C82.2328965,19.1634431 71.6967665,23.824196 64.0159566,31.3790017 C56.3221638,38.9465774 51.4932417,49.417964 51.3051723,61.0175359 L51.2994424,61.7280537 L51.2994687,803.400638 C51.2994687,815.025339 55.9602215,825.561469 63.5150272,833.242279 C71.0826029,840.936072 81.5539895,845.764994 93.1535614,845.953064 L93.8640792,845.958794 L389.713071,845.958767 C401.337773,845.958767 411.873903,841.298014 419.554713,833.743209 C427.248506,826.175633 432.077428,815.704246 432.265497,804.104674 L432.271227,803.394157 L432.271201,61.7215728 C432.271201,49.9694698 427.50772,39.3299374 419.806213,31.6284307 C412.104707,23.9269241 401.465174,19.1634431 389.713071,19.1634431 L348.175133,19.1633813 L348.175133,37.7470776 C348.175133,43.4614933 345.858908,48.6349259 342.11408,52.3797544 C338.369251,56.124583 333.195819,58.4408077 327.481403,58.4408077 L156.089267,58.4408077 C150.374851,58.4408077 145.201418,56.124583 141.45659,52.3797544 C137.711761,48.6349259 135.395537,43.4614933 135.395537,37.7470776 L135.395537,19.1633813 Z" id="screen-frame" stroke-opacity="0.05" stroke="#172A3A" stroke-width="1.6" fill="url(#linearGradient-3)"></path>
                    <g id="sensor-camera" opacity="0.6" transform="translate(213.730074, 29.075452)" fill="#BFC0C5" stroke="#7D7D7D" stroke-opacity="0.568331069" stroke-width="0.510095643">
                        <g id="Group" opacity="0.75" transform="translate(76.514346, 0.000000)">
                            <circle id="Oval" cx="4.59086079" cy="4.59086079" r="4.84590861"></circle>
                        </g>
                        <rect id="Rectangle-2" x="-0.255047821" y="1.78533475" width="51.5196599" height="5.61105207" rx="2.80552604"></rect>
                    </g>
                </g>
                <path d="M170.688347,324.025452 C178.806016,339.691127 182.864851,349.737884 182.864851,354.165722 C182.864851,360.807479 180.012258,367.828927 176.483898,372.715452 C174.131657,375.973135 171.525795,378.869744 168.666312,381.405278 L168.666312,322.083154 L170.688347,324.025452 Z" id="Path-2" fill-opacity="0.2" fill="#BAD1CD"></path>
                <g id="People" transform="translate(16.000000, 198.000000)">
                    <g id="Dude">
                        <path d="M160.552942,168.697614 L137.363347,199.207614 C136.558212,200.268154 136.072942,201.533019 135.984158,202.862344 L134.002942,230.0241 L125.686455,172.939776 L137.427807,153.290587 L131.818617,134.663019 L154.688347,126.025452 L156.080915,130.139911 L163.338077,151.668154 C165.292536,157.454911 164.244158,163.830317 160.552942,168.697614" id="Fill-7" fill="#F0C9CF"></path>
                        <polyline id="Fill-9" fill="#99A3CA" points="149.334563 371.112479 121.29105 375.67329 93.7838876 257.531262 93.6440227 256.94383 57.8945633 378.063154 29.7878065 370.345046 57.8945633 189.306398 129.110104 188.245857 149.334563 371.112479"></polyline>
                        <path d="M129.748617,194.00829 C114.289293,196.243695 67.9246984,195.426398 56.9751038,195.196533 L57.8945633,189.306398 L129.110104,188.245857 L129.748617,194.00829" id="Fill-11" fill="#1F2251"></path>
                        <path d="M158.31632,124.658425 L141.835374,134.470857 L139.714293,135.722344 L134.744834,138.687479 L134.744834,138.815181 L134.641455,140.935046 L133.888617,158.222344 L133.786455,160.342208 L133.032401,177.62829 L132.943617,179.749371 L132.700374,185.179776 C132.700374,185.179776 135.638752,188.438019 134.821455,191.209776 C134.615915,191.885992 129.723077,192.411398 122.428212,192.768965 C121.738617,192.806668 121.035644,192.832208 120.307131,192.871127 C115.259834,193.075452 109.280915,193.215317 103.02105,193.279776 C102.318077,193.279776 101.615104,193.293154 100.899969,193.293154 C95.1509146,193.330857 89.2230768,193.293154 83.6138876,193.190992 C82.8987525,193.177614 82.1957795,193.152073 81.4928065,193.139911 C74.9264552,192.986668 68.8952389,192.742208 64.2067254,192.3591 C63.4660498,192.308019 62.7509146,192.244776 62.0856444,192.181533 C57.3849687,191.732749 54.5098335,191.146533 54.574293,190.392479 C54.90632,186.48356 57.3460498,183.86383 57.3460498,183.86383 L57.3594281,179.749371 L57.3715903,177.62829 L57.4360498,160.342208 L57.4482119,158.222344 L57.5126714,140.935046 L57.5126714,139.836803 L55.7625362,138.815181 L44.7874011,132.426398 L42.66632,131.187073 L28.9705092,123.202614 L29.7233471,121.527884 L30.6829417,119.408019 L38.4496984,102.10856 L39.4080768,100.000857 L42.66632,92.7436949 L43.3437525,91.236803 C43.7901038,90.2528841 44.2632119,89.2811274 44.7874011,88.3482895 C45.8856444,86.342749 47.1505092,84.4649111 48.5564552,82.7013976 C49.1305092,81.9728841 49.73132,81.257749 50.3576714,80.5803165 C53.6791579,76.926803 57.6659146,73.9239652 62.0856444,71.7274787 C62.7764552,71.3686949 63.4915903,71.0488301 64.2067254,70.7435598 C67.2606444,69.4263976 70.4933471,68.494776 73.8525362,67.9705868 L78.9375362,67.1788301 L81.4928065,66.7823436 L83.6138876,66.4503165 L83.6905092,66.4369382 L100.899969,67.8684247 L103.02105,68.0472084 L108.233752,68.4813976 L112.627942,69.0955868 C112.896725,69.1332895 113.178888,69.1722084 113.446455,69.2220733 C115.797401,69.5930192 118.097266,70.1804517 120.307131,70.9478841 C121.022266,71.1899111 121.725239,71.4586949 122.428212,71.7530192 C127.385509,73.7828841 131.881861,76.785722 135.638752,80.5803165 C136.316185,81.257749 136.980239,81.9728841 137.60659,82.7013976 C138.347266,83.5576138 139.050239,84.452749 139.714293,85.3722084 C140.480509,86.4193706 141.183482,87.5188301 141.835374,88.6426138 C142.550509,89.8563976 143.202401,91.1212625 143.789834,92.4238301 L147.20132,100.000857 L148.159698,102.10856 L155.953212,119.408019 L156.910374,121.527884 L158.31632,124.658425" id="Fill-12" fill="#4A5C9A"></path>
                        <path d="M113.446455,69.2232895 C111.798482,76.1861274 107.901725,82.9823436 98.9455092,82.905722 C84.3934822,82.7780192 80.0880768,71.6885598 78.9375362,67.1788301 L83.6905092,66.4369382 L108.233752,68.4813976 L112.627942,69.0955868 C112.896725,69.1332895 113.178888,69.1722084 113.446455,69.2232895" id="Fill-14" fill="#FFFFFF"></path>
                        <path d="M132.142131,134.636262 L130.277671,106.43829 C130.265509,106.263154 130.113482,106.129371 129.937131,106.141533 C129.760779,106.152479 129.628212,106.304506 129.639158,106.480857 L131.504834,134.67883 C131.515779,134.855181 131.667807,134.987749 131.844158,134.976803 C132.020509,134.964641 132.153077,134.812614 132.142131,134.636262" id="Fill-15" fill="#1F2251"></path>
                        <path d="M119.655239,21.7969382 C119.655239,21.7969382 122.696996,25.1196409 120.307131,30.8808571 C117.918482,36.6432895 116.716861,41.5361274 116.500374,46.9786949 C116.32159,51.4762625 96.7478065,54.1215328 90.0269957,54.887749 C88.6344281,55.0543706 87.7915903,55.1309922 87.7915903,55.1309922 L82.4645633,44.6666679 C81.7615903,42.8143706 80.0625362,39.3141003 78.5799687,35.2641003 C76.1524011,28.6965328 74.2879417,20.6986949 78.1202389,15.9846409 C84.3168606,8.36991114 91.2164552,11.7424787 101.795104,6.52977601 C112.373752,1.30369492 117.700779,-3.55022399 123.781861,3.59139763 C129.87632,10.7330192 119.655239,21.7969382 119.655239,21.7969382" id="Fill-16" fill="#1F2251"></path>
                        <path d="M91.8160498,52.626803 L90.0269957,54.887749 C88.6344281,55.0543706 87.7915903,55.1309922 87.7915903,55.1309922 L82.4645633,44.6666679 C81.7615903,42.8143706 80.0625362,39.3141003 78.5799687,35.2641003 C83.8315903,33.1174787 87.4717254,27.6226138 87.4717254,27.6226138 L91.8160498,52.626803" id="Fill-17" fill="#161937"></path>
                        <path d="M108.233752,68.4813976 C108.233752,68.4813976 108.732401,78.8301814 97.5274011,78.4215328 C86.3357795,78.0128841 83.6905092,66.4369382 83.6905092,66.4369382 L86.7955092,65.7862625 C86.7955092,65.7862625 87.9326714,53.4696409 86.7955092,44.6666679 L108.245915,55.590722 C108.04159,55.7816679 107.850644,56.0115328 107.671861,56.254776 C105.179834,59.6784247 105.460779,67.4986949 105.460779,67.4986949 L108.233752,68.4813976" id="Fill-18" fill="#F0C9CF"></path>
                        <path d="M117.930644,45.5861274 C117.969563,47.5928841 117.867401,49.521803 117.598617,51.3230192 C116.474834,58.7589652 112.513617,64.022749 102.93105,63.2565328 C88.7876714,62.1193706 86.2202389,48.2192355 86.2202389,48.2192355 C86.2202389,48.2192355 82.5788876,51.259776 79.0396984,47.7838301 C75.5138876,44.3091003 77.3029417,39.0319382 80.7265903,38.4323436 C82.5788876,38.1124787 84.3934822,39.9903165 85.6838876,41.7915328 C86.2336173,42.5845057 87.4717254,42.1758571 87.4717254,41.2174787 L87.4717254,27.6226138 C87.4717254,27.6226138 104.694563,28.3389652 114.915644,24.5820733 L115.094428,24.5188301 C116.730239,26.025722 117.33105,28.0324787 117.509834,30.2289652 C117.751861,33.2950463 117.203347,36.7199111 117.535374,39.6072084 C117.765239,41.6261274 117.918482,43.6450463 117.930644,45.5861274" id="Fill-20" fill="#F0C9CF"></path>
                        <path d="M107.833617,48.6084247 L109.192131,47.8093706 C109.953482,47.361803 110.387671,46.5566679 110.386458,45.7211274 C110.386458,45.4000463 110.321996,45.0741003 110.188212,44.762749 L107.964969,39.615722 C107.894428,39.4539652 107.707131,39.379776 107.545374,39.4491003 C107.382401,39.5196409 107.308212,39.7069382 107.378752,39.8686949 L109.601996,45.015722 C109.700509,45.2455868 109.747942,45.4851814 109.747942,45.7211274 C109.747942,46.3365328 109.429293,46.9300463 108.868617,47.2584247 L107.510104,48.0574787 C107.358077,48.1462625 107.306996,48.3420733 107.395779,48.4941003 C107.485779,48.6461274 107.68159,48.6972084 107.833617,48.6084247" id="Fill-21" fill="#C85E8B"></path>
                        <path d="M102.766861,43.3993706 C102.766861,44.0743706 102.331455,44.6216679 101.79632,44.6216679 C101.259969,44.6216679 100.825779,44.0743706 100.825779,43.3993706 C100.825779,42.7231544 101.259969,42.1758571 101.79632,42.1758571 C102.331455,42.1758571 102.766861,42.7231544 102.766861,43.3993706" id="Fill-22" fill="#000000"></path>
                        <path d="M114.427942,42.8143706 C114.427942,43.4905868 113.993752,44.0378841 113.458617,44.0378841 C112.922266,44.0378841 112.488077,43.4905868 112.488077,42.8143706 C112.488077,42.1381544 112.922266,41.5908571 113.458617,41.5908571 C113.993752,41.5908571 114.427942,42.1381544 114.427942,42.8143706" id="Fill-23" fill="#000000"></path>
                        <path d="M79.7317254,42.4531544 C80.1014552,42.2439652 80.477266,42.1503165 80.8457795,42.1491003 C81.5037525,42.1491003 82.1446984,42.4531544 82.6287525,42.9931544 C83.1115903,43.5331544 83.4326714,44.3054517 83.4326714,45.229776 C83.4326714,45.4499111 83.4144281,45.679776 83.3755092,45.915722 C83.34632,46.0908571 83.464293,46.2550463 83.6394281,46.2830192 C83.8133471,46.3122084 83.9775362,46.1942355 84.0055092,46.0191003 C84.0505092,45.7491003 84.0711849,45.4851814 84.0711849,45.229776 C84.0675362,43.0843706 82.5655092,41.5142355 80.8457795,41.5105868 C80.3665903,41.5105868 79.8776714,41.6358571 79.4155092,41.8973436 C79.262266,41.9849111 79.2087525,42.180722 79.29632,42.3339652 C79.3838876,42.4872084 79.5784822,42.540722 79.7317254,42.4531544" id="Fill-24" fill="#C85E8B"></path>
                        <path d="M102.791185,54.1020733 C102.819158,54.1251814 104.272536,55.6211274 106.562671,55.6284247 C107.457807,55.6284247 108.472131,55.3912625 109.543617,54.7503165 C109.695644,54.6603165 109.744293,54.4632895 109.654293,54.3124787 C109.564293,54.1604517 109.367266,54.111803 109.216455,54.201803 C108.236185,54.786803 107.345915,54.9886949 106.562671,54.9886949 C105.564158,54.9899111 104.732266,54.6554517 104.148482,54.3173436 C103.85659,54.1482895 103.627942,53.9792355 103.473482,53.8539652 L103.299563,53.7043706 L103.247266,53.6545057 C103.124428,53.5280192 102.92132,53.526803 102.79605,53.6496409 C102.669563,53.7736949 102.668347,53.9755868 102.791185,54.1020733" id="Fill-25" fill="#C85E8B"></path>
                        <path d="M97.4434822,38.3520733 L97.4507795,38.3411274 C97.5091579,38.2584247 97.8545633,37.7926138 98.4675362,37.3584247 C99.0829417,36.9242355 99.95132,36.5192355 101.104293,36.5192355 C101.649158,36.5192355 102.259698,36.6092355 102.944428,36.8391003 C103.194969,36.9230192 103.467401,36.786803 103.55132,36.5362625 C103.635239,36.285722 103.499023,36.0145057 103.248482,35.9293706 C102.472536,35.6703165 101.756185,35.5608551 101.104293,35.5608551 C99.6278065,35.5596409 98.5052389,36.1239652 97.7706444,36.6822084 C97.0324011,37.2404517 96.6651038,37.7938301 96.6444281,37.8242355 C96.4984822,38.0443706 96.559293,38.3411274 96.7794281,38.4870733 C97.0007795,38.6342355 97.2975362,38.5734247 97.4434822,38.3520733" id="Fill-26" fill="#1F2251"></path>
                        <path d="M116.855509,36.2249111 C116.814158,36.1823436 115.584563,34.8238301 113.40632,34.816529 C112.412671,34.8153165 111.242671,35.1108571 109.960779,35.9208571 C109.736996,36.0619382 109.670104,36.3574787 109.811185,36.5812625 C109.952266,36.8050463 110.247807,36.8719382 110.47159,36.7308571 C111.625779,36.0059922 112.602401,35.7761274 113.40632,35.7749111 C114.283212,35.7749111 114.970374,36.0534247 115.444698,36.3331544 C115.680644,36.4730192 115.861861,36.6128841 115.98105,36.7150463 L116.112401,36.8354517 L116.14159,36.8646409 L116.146455,36.8695057 L116.237671,36.7855868 L116.145239,36.8682895 L116.146455,36.8695057 L116.237671,36.7855868 L116.145239,36.8682895 C116.322807,37.0641003 116.625644,37.0799111 116.821455,36.9023436 C117.018482,36.724776 117.033077,36.4219382 116.855509,36.2249111" id="Fill-27" fill="#1F2251"></path>
                        <path d="M100.958347,48.3323436 C100.958347,50.2235598 99.4246984,51.7584247 97.532266,51.7584247 C95.6410498,51.7584247 94.1074011,50.2235598 94.1074011,48.3323436 C94.1074011,46.4411274 95.6410498,44.9074787 97.532266,44.9074787 C99.4246984,44.9074787 100.958347,46.4411274 100.958347,48.3323436" id="Fill-28" fill="#EAB7C0"></path>
                        <path d="M117.930644,45.5861274 C117.969563,47.5928841 117.867401,49.521803 117.598617,51.3230192 C117.099969,51.591803 116.525915,51.7572084 115.912942,51.7572084 C114.021725,51.7572084 112.488077,50.224776 112.488077,48.3335598 C112.488077,46.4423436 114.021725,44.9099111 115.912942,44.9099111 C116.665779,44.9099111 117.368752,45.1531544 117.930644,45.5861274" id="Fill-29" fill="#EAB7C0"></path>
                        <path d="M125.234023,160.918695 L107.606185,160.918695 C105.492401,160.918695 104.127807,159.205046 104.557131,157.092479 L112.029563,120.286127 C112.458888,118.172344 114.519158,116.459911 116.632942,116.459911 L136.789293,116.459911 C138.901861,116.459911 140.267671,118.172344 139.838347,120.286127 L129.837401,157.092479 C129.408077,159.205046 127.347807,160.918695 125.234023,160.918695" id="Fill-30" fill="#2A3551"></path>
                        <path d="M127.76132,162.487614 L110.134698,162.487614 C108.020915,162.487614 106.655104,160.773965 107.084428,158.661398 L114.556861,121.855046 C114.986185,119.741262 117.047671,118.027614 119.161455,118.027614 L136.789293,118.027614 C138.901861,118.027614 140.267671,119.741262 139.838347,121.855046 L132.364698,158.661398 C131.935374,160.773965 129.875104,162.487614 127.76132,162.487614" id="Fill-31" fill="#364380"></path>
                        <path d="M123.463212,155.052884 C123.463212,158.694235 119.106725,161.901398 119.106725,161.901398 C119.106725,161.901398 120.141725,166.858695 111.939563,168.532208 C103.724023,170.2191 95.40632,163.101803 95.40632,163.101803 L42.4230768,174.281262 C41.0438876,174.575587 39.6634822,174.715452 38.2964552,174.715452 C32.3564552,174.715452 26.6317254,172.058019 22.7994281,167.331803 C17.9953741,161.416127 16.9737525,153.277208 20.1796984,146.365452 L27.8333471,129.832208 L30.4907795,124.083154 L57.5126714,139.836803 L55.5825362,143.15829 L52.7852389,147.987884 L95.6751038,146.467614 C95.6751038,146.467614 100.082671,143.413695 102.905509,139.670181 C105.741725,135.914506 106.764563,135.046127 108.999969,136.464235 C111.223212,137.868965 108.783482,144.295452 106.878888,146.736398 C113.727401,150.543154 121.942942,147.604776 125.25105,148.090046 C128.573752,148.588695 128.624834,152.497614 123.463212,155.052884" id="Fill-32" fill="#F0C9CF"></path>
                        <path d="M123.334293,154.762208 C122.116861,155.291262 120.279158,155.529641 118.251725,155.527208 C115.953077,155.527208 113.405104,155.229235 111.189158,154.763425 C108.974428,154.301262 107.078347,153.657884 106.132131,153.023019 C105.986185,152.924506 105.787942,152.964641 105.689428,153.110587 C105.592131,153.257749 105.63105,153.455992 105.778212,153.554506 C106.869158,154.276938 108.795644,154.911803 111.057807,155.389776 C113.317536,155.862884 115.899563,156.165722 118.251725,156.165722 C120.330239,156.164506 122.22632,155.934641 123.588482,155.348425 C123.750239,155.277884 123.824428,155.090587 123.755104,154.92883 C123.684563,154.765857 123.497266,154.691668 123.334293,154.762208" id="Fill-33" fill="#C85E8B"></path>
                        <path d="M119.050779,161.591262 C117.174158,161.959776 115.223347,162.167749 113.336996,162.167749 C109.429293,162.171398 105.814698,161.266533 103.680239,159.12356 C103.556185,158.999506 103.353077,158.999506 103.229023,159.12356 C103.103752,159.24883 103.103752,159.450722 103.229023,159.575992 C105.56659,161.905046 109.339293,162.80383 113.336996,162.807479 C115.270779,162.807479 117.260509,162.594641 119.173617,162.21883 C119.34632,162.184776 119.459428,162.016938 119.425374,161.844235 C119.39132,161.670317 119.223482,161.557208 119.050779,161.591262" id="Fill-34" fill="#C85E8B"></path>
                        <path d="M117.23132,134.069506 L117.23132,134.069506 C116.135509,134.069506 115.42159,133.180452 115.636861,132.084641 L117.04159,124.921127 C117.258077,123.825317 118.319834,122.937479 119.416861,122.937479 C120.511455,122.937479 121.22659,123.825317 121.01132,124.921127 L119.605374,132.084641 C119.390104,133.180452 118.327131,134.069506 117.23132,134.069506" id="Fill-35" fill="#445EC7"></path>
                        <path d="M52.7840227,147.668019 L38.5396984,147.668019 C38.3633471,147.668019 38.2210498,147.810317 38.2210498,147.986668 C38.2210498,148.163019 38.3633471,148.306533 38.5396984,148.306533 L52.7840227,148.306533 C52.9603741,148.306533 53.1038876,148.163019 53.1038876,147.986668 C53.1038876,147.810317 52.9603741,147.668019 52.7840227,147.668019" id="Fill-36" fill="#C85E8B"></path>
                        <path d="M137.680779,153.491262 L145.245644,144.275992 C145.357536,144.139776 145.338077,143.937884 145.201861,143.825992 C145.065644,143.7141 144.863752,143.73356 144.751861,143.869776 L137.186996,153.085046 C137.075104,153.222479 137.094563,153.423154 137.230779,153.535046 C137.366996,153.646938 137.568888,153.627479 137.680779,153.491262" id="Fill-37" fill="#C85E8B"></path>
                        <path d="M57.7984822,139.9791 L73.2346984,110.294911 C73.3161849,110.138019 73.2553741,109.945857 73.0984822,109.864371 C72.9415903,109.782884 72.7494281,109.843695 72.6679417,110.000587 L57.2317254,139.684776 C57.1502389,139.841668 57.2110498,140.03383 57.3667254,140.115317 C57.5236173,140.196803 57.7169957,140.135992 57.7984822,139.9791" id="Fill-38" fill="#1F2251"></path>
                        <path d="M93.9468606,257.032614 L103.760509,225.064371 C103.81159,224.895317 103.716725,224.716533 103.548888,224.665452 C103.379834,224.613154 103.20105,224.708019 103.148752,224.877073 L93.33632,256.845317 C93.2840227,257.013154 93.3788876,257.191938 93.5479417,257.244235 C93.7157795,257.295317 93.8945633,257.200452 93.9468606,257.032614" id="Fill-40" fill="#1F2251"></path>
                        <path d="M65.2794281,181.943425 L127.36605,172.808425 C127.541185,172.782884 127.66159,172.621127 127.63605,172.445992 C127.610509,172.272073 127.447536,172.151668 127.273617,172.177208 L65.1857795,181.310992 C65.0118606,181.336533 64.8914552,181.499506 64.9169957,181.673425 C64.9425362,181.84856 65.104293,181.968965 65.2794281,181.943425" id="Fill-46" fill="#1F2251"></path>
                    </g>
                    <g id="Dudette" transform="translate(597.000000, 49.000000)">
                        <path d="M9.05251019,88.0485074 L8.38951019,88.0485074 C8.62151019,87.9855074 8.84151019,87.9965074 9.05251019,88.0485074" id="Fill-142" fill="#364380"></path>
                        <polyline id="Fill-143" fill="#364380" points="8.38951019 88.0485074 8.34751019 88.0595074 8.34751019 88.0485074 8.38951019 88.0485074"></polyline>
                        <path d="M59.6855102,122.352507 L53.6505102,296.287507 L77.5215102,298.035507 L86.6405102,189.271507 L122.58151,301.365507 L143.76951,294.706507 C143.76951,294.706507 115.07051,176.397507 111.85251,159.500507 C108.63451,142.602507 110.24351,133.747507 105.14751,121.948507 L59.6855102,122.352507" id="Fill-148" fill="#1D2643"></path>
                        <path d="M78.7685102,5.54750743 C71.8885102,3.67050743 66.6595102,13.7275074 68.2685102,26.1995074 C69.8775102,38.6715074 59.1495102,50.6065074 60.3555102,55.7025074 C61.5625102,60.7985074 85.4335102,67.9065074 101.39151,67.7725074 C117.35051,67.6375074 122.31251,60.6645074 119.36251,55.7025074 C116.41251,50.7405074 111.71751,45.9095074 112.12051,30.9585074 C112.52251,16.0075074 102.14351,-11.8864926 78.7685102,5.54750743" id="Fill-149" fill="#BAD1CD"></path>
                        <path d="M45.8735102,76.7565074 L37.0215102,96.6045074 L23.3425102,64.5165074 C23.3425102,64.5165074 21.5995102,53.5575074 20.1915102,50.4725074 C18.7835102,47.3885074 19.2535102,43.2975074 17.3755102,42.6945074 C15.4985102,42.0905074 14.8275102,45.4435074 14.8275102,48.3265074 C14.8275102,51.2105074 14.3585102,53.9605074 14.3585102,53.9605074 C14.3585102,53.9605074 6.51351019,47.1195074 6.04351019,44.9745074 C5.57451019,42.8285074 5.84151019,35.5195074 4.09851019,34.5815074 C2.35551019,33.6425074 0.411510192,35.7885074 0.00951019165,42.0245074 C-0.393489808,48.2595074 12.1455102,66.4315074 12.1455102,66.4315074 L21.3315102,110.953507 L47.0795102,115.647507 L62.3675102,90.5695074 L45.8735102,76.7565074" id="Fill-150" fill="#F0C9CF"></path>
                        <path d="M115.25651,89.4885074 L114.36351,90.1295074 L107.29351,95.2655074 L106.22151,123.293507 L101.90451,123.208507 L101.01151,123.188507 L88.5525102,122.935507 L87.6595102,122.925507 L75.2005102,122.672507 L74.3075102,122.651507 L61.8485102,122.399507 L60.9565102,122.379507 L59.6845102,122.358507 C59.6845102,122.358507 60.2215102,115.508507 58.2145102,105.518507 C56.1975102,95.5285074 59.0125102,88.6585074 59.0125102,88.6585074 L45.8715102,76.7565074 L52.6045102,66.2935074 C54.6645102,63.0895074 57.5635102,60.5255074 60.9565102,58.8875074 C61.2505102,58.7405074 61.5445102,58.6035074 61.8485102,58.4775074 C62.8265102,58.0475074 63.8455102,57.7005074 64.8855102,57.4375074 L74.3075102,55.0215074 L74.8225102,54.8845074 L75.2005102,54.7905074 L78.3945102,53.9605074 L87.6595102,53.9925074 L88.5525102,53.9925074 L98.6475102,54.0235074 L101.01151,55.2635074 L101.90451,55.7355074 L101.92551,55.7465074 L110.41351,60.1905074 C111.84251,60.9355074 113.16551,61.8395074 114.36351,62.8895074 C114.66851,63.1415074 114.97251,63.4155074 115.25651,63.6985074 C117.32551,65.7055074 118.97451,68.1525074 120.05651,70.8835074 L124.73151,82.6075074 L115.25651,89.4885074 Z" id="Fill-151" fill="#EB9156"></path>
                        <path d="M101.92551,55.7465074 C99.1575102,61.3985074 91.8505102,64.6965074 82.8905102,64.1085074 C75.3695102,63.6045074 74.4445102,58.5935074 74.8225102,54.8845074 L78.3945102,53.9605074 L98.6475102,54.0235074 L101.92551,55.7465074" id="Fill-157" fill="#FFFFFF"></path>
                        <path d="M98.6475102,54.0235074 C98.6475102,54.0235074 94.9505102,61.3985074 85.4955102,61.3985074 C76.0415102,61.3985074 78.3945102,53.9605074 78.3945102,53.9605074 L81.0735102,53.0885074 L80.9155102,48.4775074 L80.6745102,41.7545074 L96.7675102,36.8585074 C96.4305102,37.5305074 96.1895102,38.4975074 96.0325102,39.6105074 C95.2865102,44.6955074 96.0955102,53.0885074 96.0955102,53.0885074 L98.6475102,54.0235074" id="Fill-158" fill="#F0C9CF"></path>
                        <path d="M79.0915102,12.6635074 C80.5735102,20.5805074 97.5035102,26.0575074 98.7035102,26.9625074 C99.4075102,27.4915074 99.6365102,28.7495074 99.7055102,29.7005074 C99.7205102,29.9015074 99.9955102,29.9425074 100.06451,29.7525074 C100.49151,28.5845074 101.34651,26.9145074 102.78951,26.7425074 C105.02851,26.4765074 107.19051,29.2975074 105.91451,32.6885074 C104.63751,36.0805074 99.5205102,34.2835074 99.5205102,34.2835074 C99.5205102,34.2835074 95.3555102,44.4335074 85.7705102,44.7125074 C76.1865102,44.9915074 74.0715102,36.8695074 74.7995102,31.8845074 C75.5255102,26.8995074 75.4535102,24.4195074 75.0325102,21.4805074 C74.6115102,18.5405074 78.2855102,16.4655074 79.0915102,12.6635074" id="Fill-160" fill="#F0C9CF"></path>
                        <path d="M103.46451,28.4395074 C103.21651,28.5145074 103.01451,28.6865074 102.82951,28.9025074 C102.28351,29.5545074 101.86051,30.6745074 101.85251,31.5915074 C101.85351,31.8175074 101.88051,32.0335074 101.94851,32.2315074 C101.99651,32.3685074 102.14651,32.4405074 102.28351,32.3925074 C102.41951,32.3445074 102.49251,32.1955074 102.44451,32.0585074 C102.40151,31.9355074 102.37751,31.7745074 102.37851,31.5915074 C102.37651,31.0945074 102.55251,30.4425074 102.80851,29.9135074 C102.93651,29.6495074 103.08351,29.4135074 103.22951,29.2425074 C103.37451,29.0695074 103.52051,28.9675074 103.61151,28.9435074 C103.75151,28.9025074 103.83151,28.7575074 103.79051,28.6175074 C103.74951,28.4785074 103.60451,28.3985074 103.46451,28.4395074" id="Fill-161" fill="#C85E8B"></path>
                        <path d="M84.4575102,34.7885074 L83.3395102,34.1315074 C82.8795102,33.8615074 82.6175102,33.3735074 82.6175102,32.8685074 C82.6175102,32.6735074 82.6555102,32.4765074 82.7375102,32.2875074 L84.5655102,28.0565074 C84.6235102,27.9235074 84.5615102,27.7685074 84.4285102,27.7115074 C84.2955102,27.6535074 84.1405102,27.7145074 84.0835102,27.8485074 L82.2555102,32.0795074 C82.1445102,32.3355074 82.0915102,32.6035074 82.0915102,32.8685074 C82.0915102,33.5545074 82.4485102,34.2165074 83.0735102,34.5845074 L84.1915102,35.2415074 C84.3165102,35.3155074 84.4775102,35.2735074 84.5505102,35.1485074 C84.6245102,35.0235074 84.5825102,34.8625074 84.4575102,34.7885074" id="Fill-162" fill="#C85E8B"></path>
                        <path d="M88.3575102,29.9525074 C88.3575102,30.5085074 88.7145102,30.9585074 89.1545102,30.9585074 C89.5955102,30.9585074 89.9525102,30.5085074 89.9525102,29.9525074 C89.9525102,29.3975074 89.5955102,28.9465074 89.1545102,28.9465074 C88.7145102,28.9465074 88.3575102,29.3975074 88.3575102,29.9525074" id="Fill-163" fill="#000000"></path>
                        <path d="M78.7685102,29.3825074 C78.7685102,29.9385074 79.1265102,30.3885074 79.5665102,30.3885074 C80.0075102,30.3885074 80.3635102,29.9385074 80.3635102,29.3825074 C80.3635102,28.8275074 80.0075102,28.3775074 79.5665102,28.3775074 C79.1265102,28.3775074 78.7685102,28.8275074 78.7685102,29.3825074" id="Fill-164" fill="#000000"></path>
                        <path d="M92.8315102,24.2595074 C92.7975102,24.2275074 91.6285102,22.9265074 89.6225102,22.9185031 C88.9085102,22.9175074 88.0985102,23.0905074 87.2285102,23.5365074 C87.0355102,23.6365074 86.9585102,23.8735074 87.0575102,24.0675074 C87.1575102,24.2605074 87.3945102,24.3375074 87.5885102,24.2375074 C88.3565102,23.8445074 89.0335102,23.7065074 89.6225102,23.7065074 C90.4435102,23.7065074 91.1025102,23.9795074 91.5595102,24.2555074 C91.7885102,24.3935074 91.9645102,24.5315074 92.0815102,24.6325074 L92.2115102,24.7525074 L92.2475102,24.7885074 C92.3935102,24.9495074 92.6425102,24.9625074 92.8035102,24.8165074 C92.9645102,24.6705074 92.9775102,24.4215074 92.8315102,24.2595074" id="Fill-165" fill="#1F2251"></path>
                        <path d="M77.2745102,24.6965074 L77.1995102,24.6275074 L77.2735102,24.6975074 L77.2745102,24.6965074 L77.1995102,24.6275074 L77.2735102,24.6975074 C77.2945102,24.6725074 78.1365102,23.7925074 79.5255102,23.7975074 C80.1875102,23.7985074 80.9905102,23.9885074 81.9395102,24.5855074 C82.1235102,24.7015074 82.3665102,24.6465074 82.4825102,24.4625074 C82.5985102,24.2785074 82.5435102,24.0345074 82.3595102,23.9185074 C81.3055102,23.2525074 80.3425102,23.0085074 79.5255102,23.0095044 C77.7355102,23.0165074 76.7255102,24.1325074 76.6905102,24.1675074 C76.5445102,24.3285074 76.5565102,24.5775074 76.7185102,24.7235074 C76.8795102,24.8695074 77.1285102,24.8575074 77.2745102,24.6965074" id="Fill-166" fill="#1F2251"></path>
                        <path d="M82.2285102,29.6415074 L81.8345102,29.6415074 C81.8315102,31.6855074 80.1785102,33.3385074 78.1355102,33.3425074 C76.0905102,33.3385074 74.4375102,31.6855074 74.4345102,29.6415074 C74.4375102,27.5985074 76.0905102,25.9455074 78.1355102,25.9415074 C80.1785102,25.9455074 81.8315102,27.5985074 81.8345102,29.6415074 L82.6225102,29.6415074 C82.6225102,27.1625074 80.6135102,25.1535074 78.1355102,25.1535074 C75.6555102,25.1535074 73.6465102,27.1625074 73.6465102,29.6415074 C73.6465102,32.1205074 75.6555102,34.1295074 78.1355102,34.1295074 C80.6135102,34.1295074 82.6225102,32.1205074 82.6225102,29.6415074 L82.2285102,29.6415074" id="Fill-167" fill="#647BF4"></path>
                        <path d="M93.5845102,29.6415074 L93.1905102,29.6415074 C93.1865102,31.6855074 91.5335102,33.3385074 89.4895102,33.3425074 C87.4465102,33.3385074 85.7935102,31.6855074 85.7895102,29.6415074 C85.7935102,27.5985074 87.4465102,25.9455074 89.4895102,25.9415074 C91.5335102,25.9455074 93.1865102,27.5985074 93.1905102,29.6415074 L93.9785102,29.6415074 C93.9775102,27.1625074 91.9685102,25.1535074 89.4895102,25.1535074 C87.0115102,25.1535074 85.0025102,27.1625074 85.0015102,29.6415074 C85.0025102,32.1205074 87.0115102,34.1295074 89.4895102,34.1295074 C91.9685102,34.1295074 93.9775102,32.1205074 93.9785102,29.6415074 L93.5845102,29.6415074" id="Fill-168" fill="#647BF4"></path>
                        <path d="M82.3865102,28.9755074 L82.3895102,28.9725074 C82.4435102,28.9145074 83.1315102,28.3335074 83.8895102,28.3455074 C84.2955102,28.3495074 84.7375102,28.4805074 85.2325102,28.9705074 L85.7895102,28.4125074 C85.1745102,27.7925074 84.4905102,27.5535074 83.8895102,27.5575074 C82.6855102,27.5715074 81.8735102,28.3855074 81.8405102,28.4075074 L82.3865102,28.9755074" id="Fill-169" fill="#647BF4"></path>
                        <path d="M85.4115102,38.9145074 C85.4305102,38.9215074 86.2155102,39.2455074 87.3035102,39.2465105 C88.2305102,39.2475074 89.3875102,39.0045074 90.4325102,38.1105074 C90.5425102,38.0165074 90.5555102,37.8515074 90.4615102,37.7405074 C90.3675102,37.6305074 90.2015102,37.6175074 90.0915102,37.7115074 C89.1585102,38.5075074 88.1435102,38.7195074 87.3035102,38.7205074 C86.8125102,38.7205074 86.3845102,38.6465074 86.0815102,38.5725074 C85.9305102,38.5355074 85.8105102,38.4985074 85.7295102,38.4715074 L85.6375102,38.4395074 L85.6115102,38.4285074 C85.4765102,38.3735074 85.3235102,38.4375074 85.2685102,38.5715074 C85.2125102,38.7055074 85.2765102,38.8595074 85.4115102,38.9145074" id="Fill-170" fill="#C85E8B"></path>
                        <path d="M56.5235102,121.948507 L16.7945102,121.948507 L16.7935102,121.945507 C16.1375102,121.961507 15.5335102,121.561507 15.3445102,120.897507 L6.82451019,89.9825074 C6.61451019,89.2045074 7.06651019,88.4065074 7.84451019,88.1955074 L8.33751019,88.0595074 L8.34751019,88.0595074 L8.38951019,88.0485074 L48.1305102,88.0485074 L56.5235102,121.948507" id="Fill-171" fill="#99A3CA"></path>
                        <path d="M32.8475102,106.522507 C32.8475102,108.225507 31.4675102,109.606507 29.7625102,109.606507 C28.0595102,109.606507 26.6795102,108.225507 26.6795102,106.522507 C26.6795102,104.818507 28.0595102,103.437507 29.7625102,103.437507 C31.4675102,103.437507 32.8475102,104.818507 32.8475102,106.522507" id="Fill-172" fill="#E6E9FC"></path>
                        <path d="M56.5235102,121.950507 L88.0585102,121.950507 C88.8555102,121.950507 89.5015102,121.304507 89.5015102,120.507507 L89.5015102,119.973507 C89.5015102,119.176507 88.8555102,118.530507 88.0585102,118.530507 L56.5235102,118.530507 C55.7265102,118.530507 55.0815102,119.176507 55.0815102,119.973507 L55.0815102,120.507507 C55.0815102,121.304507 55.7265102,121.950507 56.5235102,121.950507" id="Fill-173" fill="#7988B8"></path>
                        <path d="M46.6055102,89.9705074 L54.9855102,120.371507 C55.1965102,121.139507 55.9915102,121.590507 56.7595102,121.379507 L57.2745102,121.236507 C58.0425102,121.025507 58.4935102,120.231507 58.2825102,119.463507 L49.9025102,89.0615074 C49.6905102,88.2935074 48.8965102,87.8425074 48.1295102,88.0545074 L47.6135102,88.1965074 C46.8455102,88.4075074 46.3945102,89.2025074 46.6055102,89.9705074" id="Fill-174" fill="#7988B8"></path>
                        <path d="M139.05951,130.803507 C139.05951,134.680507 137.35851,138.430507 134.26951,140.983507 C129.73151,144.722507 123.27151,144.996507 118.42951,141.666507 L96.3375102,126.465507 C96.3375102,126.465507 84.3195102,129.102507 78.9095102,128.608507 C73.4995102,128.114507 67.7315102,125.257507 67.6894174,124.143507 C67.6375102,123.019507 89.4565102,120.740507 88.4275102,119.847507 C87.3965102,118.954507 77.6595102,118.870507 77.5225102,116.769507 C77.3865102,114.668507 79.8445102,113.954507 83.9095102,113.680507 C87.9855102,113.407507 93.1645102,115.466507 93.1645102,115.466507 L115.27751,118.534507 L108.99551,100.213507 L107.29351,95.2655074 L124.73151,82.6075074 L125.86651,86.2845074 L138.47151,126.917507 C138.87151,128.198507 139.05951,129.511507 139.05951,130.803507" id="Fill-175" fill="#F0C9CF"></path>
                        <path d="M115.23651,118.791507 L124.69151,120.065507 C124.83551,120.084507 124.96751,119.983507 124.98751,119.839507 C125.00651,119.696507 124.90551,119.563507 124.76151,119.544507 L115.30651,118.270507 C115.16351,118.251507 115.03051,118.352507 115.01151,118.495507 C114.99251,118.639507 115.09251,118.771507 115.23651,118.791507" id="Fill-177" fill="#C85E8B"></path>
                        <path d="M62.8875102,120.240507 C62.8875102,120.527507 62.6545102,120.760507 62.3675102,120.760507 C62.0805102,120.760507 61.8475102,120.527507 61.8475102,120.240507 C61.8475102,119.953507 62.0805102,119.720507 62.3675102,119.720507 C62.6545102,119.720507 62.8875102,119.953507 62.8875102,120.240507" id="Fill-178" fill="#1F2251"></path>
                        <path d="M64.9965102,120.240507 C64.9965102,120.527507 64.7635102,120.760507 64.4765102,120.760507 C64.1895102,120.760507 63.9575102,120.527507 63.9575102,120.240507 C63.9575102,119.953507 64.1895102,119.720507 64.4765102,119.720507 C64.7635102,119.720507 64.9965102,119.953507 64.9965102,120.240507" id="Fill-179" fill="#1F2251"></path>
                        <path d="M79.5065102,166.640507 L90.5765102,202.406507 C90.6195102,202.545507 90.7665102,202.622507 90.9055102,202.580507 C91.0435102,202.537507 91.1215102,202.390507 91.0785102,202.251507 L80.0075102,166.484507 C79.9655102,166.346507 79.8185102,166.268507 79.6795102,166.311507 C79.5405102,166.354507 79.4635102,166.501507 79.5065102,166.640507" id="Fill-182" fill="#1F2251"></path>
                        <path d="M61.6695102,104.909507 C67.6615102,110.425507 78.0925102,111.206507 78.1145102,111.215507 C78.2595102,111.226507 78.3855102,111.118507 78.3965102,110.973507 C78.4085102,110.829507 78.2995102,110.703507 78.1555102,110.691507 C78.1545102,110.691507 77.9985102,110.679507 77.7055102,110.647507 C75.6555102,110.427507 67.0795102,109.201507 62.0265102,104.523507 C61.9195102,104.425507 61.7535102,104.431507 61.6545102,104.538507 C61.5565102,104.644507 61.5635102,104.810507 61.6695102,104.909507" id="Fill-183" fill="#8A4D24"></path>
                        <path d="M107.51951,95.1315074 L100.00951,82.4735074 C99.9355102,82.3485074 99.7745102,82.3075074 99.6495102,82.3815074 C99.5245102,82.4555074 99.4835102,82.6165074 99.5575102,82.7415074 L107.06751,95.3995074 C107.14151,95.5245074 107.30251,95.5655074 107.42751,95.4915074 C107.55151,95.4175074 107.59351,95.2565074 107.51951,95.1315074" id="Fill-184" fill="#8A4D24"></path>
                        <path d="M59.2495102,88.7755074 C62.4985102,82.3075074 63.1455102,73.9775074 63.1485102,73.9615074 C63.1605102,73.8175074 63.0525102,73.6905074 62.9075102,73.6795074 C62.7625102,73.6675074 62.6365102,73.7755074 62.6255102,73.9205074 C62.6255102,73.9215074 62.5855102,74.4325074 62.4745102,75.3075074 C62.1425102,77.9305074 61.1705102,83.7885074 58.7805102,88.5395074 C58.7155102,88.6695074 58.7675102,88.8275074 58.8965102,88.8925074 C59.0265102,88.9575074 59.1845102,88.9055074 59.2495102,88.7755074" id="Fill-185" fill="#8A4D24"></path>
                    </g>
                </g>
            </g>
        </g>
    </g>
</svg>