<?xml version="1.0" encoding="UTF-8"?>
<svg width="15px" height="38px" viewBox="0 0 15 38" version="1.1" xmlns="http://www.w3.org/2000/svg" xmlns:xlink="http://www.w3.org/1999/xlink">
    <!-- Generator: Sketch 63.1 (92452) - https://sketch.com -->
    <title>Icon: Person</title>
    <desc>Created with Sketch.</desc>
    <g id="Page-1" stroke="none" stroke-width="1" fill="none" fill-rule="evenodd">
        <g id="Desktop-HD" transform="translate(-689.000000, -553.000000)" fill="#0B0033" fill-rule="nonzero">
            <g id="Selection" transform="translate(689.000000, 553.000000)">
                <g id="Availability">
                    <g id="Icon:-Person">
                        <circle id="Oval" cx="7.5" cy="3.90625" r="3.90625"></circle>
                        <path d="M14.9921094,24.015625 L13.8546094,12.643125 C13.7271094,11.358125 12.6571094,10.390625 11.3696094,10.390625 L3.63210937,10.390625 C2.34210937,10.390625 1.27210937,11.358125 1.14460937,12.640625 L0.007109375,24.015625 C-0.027890625,24.368125 0.087109375,24.715625 0.324609375,24.980625 C0.559609375,25.240625 0.897109375,25.390625 1.24960937,25.390625 L2.61710937,25.390625 L3.64210937,35.640625 C3.76960937,36.920625 4.84210937,37.890625 6.13210937,37.890625 L8.86960937,37.890625 C10.1596094,37.890625 11.2296094,36.920625 11.3571094,35.640625 L12.3821094,25.390625 L13.7496094,25.390625 C14.1046094,25.390625 14.4396094,25.240625 14.6771094,24.980625 C14.9146094,24.718125 15.0296094,24.368125 14.9921094,24.015625 Z" id="Path"></path>
                    </g>
                </g>
            </g>
        </g>
    </g>
</svg>