<?xml version="1.0" encoding="utf-8"?>
<!-- Generator: Adobe Illustrator 24.1.0, SVG Export Plug-In . SVG Version: 6.00 Build 0)  -->
<svg version="1.1" xmlns="http://www.w3.org/2000/svg" xmlns:xlink="http://www.w3.org/1999/xlink" x="0px" y="0px"
	 viewBox="0 0 93.3 51.4" style="enable-background:new 0 0 93.3 51.4;" xml:space="preserve">
<style type="text/css">
	.st0{display:none;}
	.st1{display:inline;}
	.st2{fill:#233738;}
	.st3{fill:#E6E6E6;}
	.st4{fill:#B4B4B4;}
	.st5{fill:#FFFFFF;}
	.st6{fill:#CBCBCB;}
	.st7{fill:#696969;}
	.st8{fill:#FF5141;}
	.st9{fill:#F1BB3F;}
	.st10{fill:#70CB43;}
	.st11{fill:#F1F1F1;}
	.st12{fill:#DBDBDB;}
	.st13{fill:#02A916;}
	.st14{fill:none;stroke:#26C485;stroke-width:0.75;stroke-miterlimit:10;}
	.st15{fill:none;}
	.st16{fill:#0B0033;}
	.st17{font-family:'Roboto-Bold';}
	.st18{font-size:5px;}
	.st19{fill:none;stroke:#26C485;stroke-width:0.5;stroke-linecap:round;stroke-linejoin:round;stroke-dasharray:5.014;}
	.st20{fill:#26C485;}
	.st21{fill:none;stroke:#0B0033;stroke-width:0.75;stroke-miterlimit:10;}
</style>
<g id="Background_xA0_Bild_1_" class="st0">
	
		<image style="display:inline;overflow:visible;" width="3000" height="1800" id="Background_xA0_Bild" xlink:href="EC256CE2313ADFD9.jpg"  transform="matrix(0.24 0 0 0.24 -139.0773 -107.7533)">
	</image>
</g>
<g id="Browser_04_1_" class="st0">
	<g id="Body" class="st1">
		<g>
			<path class="st2" d="M482.9,125.5H247.1c-1,0-1.7,0.8-1.7,1.7v179.9h239.2V127.3C484.6,126.3,483.8,125.5,482.9,125.5z"/>
		</g>
	</g>
	<g id="Tabs_7_" class="st1">
		<g id="Right">
			<g>
				<path class="st3" d="M383.6,133c-0.5-0.8-1.6-1.4-2.5-1.4H323c-0.9,0-2,0.6-2.3,1.4l-5.7,11.9h75.8L383.6,133z"/>
			</g>
		</g>
		<g id="Close">
			<g>
				<path class="st4" d="M379.2,134.5c-0.6,0-1.1,0.5-1.1,1.1s0.5,1.1,1.1,1.1s1.1-0.5,1.1-1.1S379.8,134.5,379.2,134.5z M379.8,136
					l-0.3,0.2l-0.2-0.3l-0.3,0.3l-0.3-0.2l0.3-0.4l-0.3-0.4l0,0l0-0.1l0.1,0.1l0.3-0.2l0.2,0.3l0.2-0.3l0.3,0.2l-0.3,0.4L379.8,136z
					"/>
			</g>
		</g>
		<g id="Left">
			<g>
				<path class="st5" d="M314.6,133c-0.5-0.8-1.6-1.4-2.5-1.4H254c-0.9,0-2,0.6-2.3,1.4l-5.7,11.9h75.8L314.6,133z"/>
			</g>
		</g>
		<g id="Close_1_">
			<g>
				<path class="st6" d="M310.8,134.5c-0.6,0-1.1,0.5-1.1,1.1s0.5,1.1,1.1,1.1c0.6,0,1.1-0.5,1.1-1.1S311.4,134.5,310.8,134.5z
					 M311.4,136l-0.3,0.2l-0.2-0.3l-0.3,0.3l-0.3-0.2l0.3-0.4l-0.3-0.4l0,0l0-0.1l0.1,0.1l0.3-0.2l0.2,0.3l0.2-0.3l0.3,0.2l-0.3,0.4
					L311.4,136z"/>
			</g>
		</g>
	</g>
	<g id="Navigation_7_" class="st1">
		<g id="Background_1_">
			<g>
				<rect x="245.4" y="143.1" class="st5" width="239.2" height="16.3"/>
			</g>
		</g>
		<g id="Left_1_">
			<g>
				<path class="st6" d="M257.9,150.9h-5.1l1.5-1.6c0.1-0.1,0.1-0.4,0-0.5c-0.1-0.1-0.4-0.1-0.5,0l-1.9,1.9
					c-0.1,0.1-0.2,0.3-0.2,0.5v0.1c0,0.2,0.1,0.4,0.2,0.5l1.9,1.9c0.1,0.1,0.4,0.1,0.5,0c0.1-0.1,0.1-0.4,0-0.5l-1.5-1.6h5.1
					c0.2,0,0.4-0.2,0.4-0.4v0C258.3,151.1,258.1,150.9,257.9,150.9z"/>
			</g>
		</g>
		<g id="Right_1_">
			<g>
				<path class="st6" d="M272.3,150.8l-1.9-1.9c-0.1-0.1-0.4-0.1-0.5,0c-0.1,0.1-0.1,0.4,0,0.5l1.5,1.6h-5.1c-0.2,0-0.4,0.2-0.4,0.4
					v0c0,0.2,0.2,0.4,0.4,0.4h5.1l-1.5,1.6c-0.1,0.1-0.1,0.4,0,0.5c0.1,0.1,0.4,0.1,0.5,0l1.9-1.9c0.1-0.1,0.2-0.3,0.2-0.5v-0.1
					C272.5,151.1,272.4,150.9,272.3,150.8z"/>
			</g>
		</g>
		<g id="Refresh">
			<g>
				<path class="st6" d="M286.3,151.7c0-0.1-0.1-0.2-0.2-0.2c0-0.1-0.1-0.2-0.2-0.2c-0.1,0-0.2,0.1-0.2,0.2c0,1.2-1,2.1-2.1,2.1
					c-0.5,0-1-0.2-1.4-0.6c-0.3-0.4-0.6-0.9-0.6-1.4c0-0.5,0.2-1,0.5-1.4c0.3-0.3,0.8-0.5,1.2-0.6v0.5c0,0.1,0,0.1,0.1,0.2
					c0,0,0.1,0,0.1,0c0,0,0.1,0,0.1,0l1.2-0.7c0,0,0.1-0.1,0.1-0.1l0.1,0c0.1,0,0.1-0.1,0.1-0.2c0-0.1,0-0.1-0.1-0.2l-0.1,0
					c0,0,0-0.1-0.1-0.1l-1.2-0.7c-0.1,0-0.1,0-0.2,0c-0.1,0-0.1,0.1-0.1,0.2v0.5c-1.3,0.1-2.3,1.2-2.3,2.5c0,0,0,0.1,0,0.1
					c0,0,0,0.1,0,0.1c0,1.4,1.1,2.5,2.5,2.5c0.7,0,1.4-0.3,1.9-0.8C286,153,286.3,152.4,286.3,151.7z"/>
			</g>
		</g>
		<g id="Settings">
			<g>
				<path class="st6" d="M479.2,148.9h-5.8c-0.2,0-0.4,0.2-0.4,0.4v0.1c0,0.2,0.2,0.4,0.4,0.4h5.8c0.2,0,0.4-0.2,0.4-0.4v-0.1
					C479.5,149,479.4,148.9,479.2,148.9z M479.2,150.7h-5.8c-0.2,0-0.4,0.2-0.4,0.4v0.1c0,0.2,0.2,0.4,0.4,0.4h5.8
					c0.2,0,0.4-0.2,0.4-0.4v-0.1C479.5,150.9,479.4,150.7,479.2,150.7z M479.2,152.6h-5.8c-0.2,0-0.4,0.2-0.4,0.4v0.1
					c0,0.2,0.2,0.4,0.4,0.4h5.8c0.2,0,0.4-0.2,0.4-0.4V153C479.5,152.8,479.4,152.6,479.2,152.6z"/>
			</g>
		</g>
		<g id="Adress">
			<g>
				<path class="st3" d="M466.6,147.4H296.1c-0.4,0-0.7,0.3-0.7,0.7v6c0,0.4,0.3,0.7,0.7,0.7h170.5c0.4,0,0.7-0.3,0.7-0.7v-6
					C467.3,147.7,467,147.4,466.6,147.4z"/>
			</g>
		</g>
		<g id="http_3_">
			<g id="http:_x2F__x2F_www.yourwebsite.com_1_">
				<text transform="matrix(1 0 0 1 303.5789 152.1667)"><tspan x="0" y="0" style="fill:#ACACAC; font-family:'OpenSans'; font-size:3.6px;">http://www.</tspan><tspan x="18.3" y="0" class="st7" style="font-family:'OpenSans'; font-size:3.6px;">yourwebsite</tspan><tspan x="36.9" y="0" style="fill:#ACACAC; font-family:'OpenSans'; font-size:3.6px;">.com</tspan></text>
			</g>
			<g id="Icon">
				<g>
					<path class="st7" d="M301.1,149.9l-1.4-1.4c0,0-0.1,0-0.1,0h-2c-0.1,0-0.2,0.1-0.2,0.2v4.5c0,0.1,0.1,0.2,0.2,0.2h3.2
						c0.1,0,0.2-0.1,0.2-0.2L301.1,149.9C301.2,150,301.2,149.9,301.1,149.9z M299.8,149l0.9,0.9h-0.9V149z M300.9,153.2h-3.2v-4.5
						h1.9v1.2c0,0.1,0.1,0.1,0.1,0.1h1.2V153.2z"/>
				</g>
			</g>
		</g>
	</g>
	<g id="Caption_buttons_7_" class="st1">
		<g id="Ellipse">
			<g>
				<path class="st8" d="M476.3,132.1c-1.5,0-2.7,1.2-2.7,2.7c0,1.5,1.2,2.7,2.7,2.7s2.7-1.2,2.7-2.7
					C479.1,133.3,477.9,132.1,476.3,132.1z"/>
			</g>
		</g>
		<g id="Ellipse_2">
			<g>
				<path class="st9" d="M466.3,132.1c-1.5,0-2.7,1.2-2.7,2.7c0,1.5,1.2,2.7,2.7,2.7s2.7-1.2,2.7-2.7
					C469,133.3,467.8,132.1,466.3,132.1z"/>
			</g>
		</g>
		<g id="Ellipse_3">
			<g>
				<path class="st10" d="M456.2,132.1c-1.5,0-2.7,1.2-2.7,2.7c0,1.5,1.2,2.7,2.7,2.7c1.5,0,2.7-1.2,2.7-2.7
					C458.9,133.3,457.7,132.1,456.2,132.1z"/>
			</g>
		</g>
	</g>
	<g id="web_copy_xA0_Bild_1_" class="st1">
		
			<image style="overflow:visible;" width="997" height="616" id="web_copy_xA0_Bild" xlink:href="EC256CE2313ADFDB.png"  transform="matrix(0.24 0 0 0.24 245.4027 159.3667)">
		</image>
	</g>
</g>
<g id="Browser_03_1_" class="st0">
	<g id="Body_1_" class="st1">
		<g>
			<path class="st11" d="M194.9,125.5H-40.9c-1,0-1.7,0.8-1.7,1.7v179.9h239.2V127.3C196.6,126.3,195.8,125.5,194.9,125.5z"/>
		</g>
	</g>
	<g id="Tabs_6_" class="st1">
		<g id="Right_2_">
			<g>
				<path class="st12" d="M95.6,133c-0.5-0.8-1.6-1.4-2.5-1.4H35c-0.9,0-2,0.6-2.3,1.4l-5.7,11.9h75.8L95.6,133z"/>
			</g>
		</g>
		<g id="Close_2_">
			<g>
				<path class="st4" d="M91.2,134.5c-0.6,0-1.1,0.5-1.1,1.1s0.5,1.1,1.1,1.1s1.1-0.5,1.1-1.1S91.8,134.5,91.2,134.5z M91.8,136
					l-0.3,0.2l-0.2-0.3l-0.3,0.3l-0.3-0.2l0.3-0.4l-0.3-0.4l0,0l0-0.1l0.1,0.1l0.3-0.2l0.2,0.3l0.2-0.3l0.3,0.2l-0.3,0.4L91.8,136z"
					/>
			</g>
		</g>
		<g id="Left_2_">
			<g>
				<path class="st3" d="M26.6,133c-0.5-0.8-1.6-1.4-2.5-1.4H-34c-0.9,0-2,0.6-2.3,1.4l-5.7,11.9h75.8L26.6,133z"/>
			</g>
		</g>
		<g id="Close_3_">
			<g>
				<path class="st6" d="M22.8,134.5c-0.6,0-1.1,0.5-1.1,1.1s0.5,1.1,1.1,1.1c0.6,0,1.1-0.5,1.1-1.1S23.4,134.5,22.8,134.5z
					 M23.4,136l-0.3,0.2l-0.2-0.3l-0.3,0.3l-0.3-0.2l0.3-0.4l-0.3-0.4l0,0l0-0.1l0.1,0.1l0.3-0.2l0.2,0.3L23,135l0.3,0.2l-0.3,0.4
					L23.4,136z"/>
			</g>
		</g>
	</g>
	<g id="Navigation_6_" class="st1">
		<g id="Background_2_">
			<g>
				<rect x="-42.6" y="143.1" class="st3" width="239.2" height="16.3"/>
			</g>
		</g>
		<g id="Left_3_">
			<g>
				<path class="st6" d="M-30.1,150.9h-5.1l1.5-1.6c0.1-0.1,0.1-0.4,0-0.5c-0.1-0.1-0.4-0.1-0.5,0l-1.9,1.9
					c-0.1,0.1-0.2,0.3-0.2,0.5v0.1c0,0.2,0.1,0.4,0.2,0.5l1.9,1.9c0.1,0.1,0.4,0.1,0.5,0c0.1-0.1,0.1-0.4,0-0.5l-1.5-1.6h5.1
					c0.2,0,0.4-0.2,0.4-0.4v0C-29.7,151.1-29.9,150.9-30.1,150.9z"/>
			</g>
		</g>
		<g id="Right_3_">
			<g>
				<path class="st6" d="M-15.7,150.8l-1.9-1.9c-0.1-0.1-0.4-0.1-0.5,0c-0.1,0.1-0.1,0.4,0,0.5l1.5,1.6h-5.1c-0.2,0-0.4,0.2-0.4,0.4
					v0c0,0.2,0.2,0.4,0.4,0.4h5.1l-1.5,1.6c-0.1,0.1-0.1,0.4,0,0.5c0.1,0.1,0.4,0.1,0.5,0l1.9-1.9c0.1-0.1,0.2-0.3,0.2-0.5v-0.1
					C-15.5,151.1-15.6,150.9-15.7,150.8z"/>
			</g>
		</g>
		<g id="Refresh_1_">
			<g>
				<path class="st6" d="M-1.7,151.7c0-0.1-0.1-0.2-0.2-0.2c0-0.1-0.1-0.2-0.2-0.2c-0.1,0-0.2,0.1-0.2,0.2c0,1.2-1,2.1-2.1,2.1
					c-0.5,0-1-0.2-1.4-0.6c-0.3-0.4-0.6-0.9-0.6-1.4c0-0.5,0.2-1,0.5-1.4c0.3-0.3,0.8-0.5,1.2-0.6v0.5c0,0.1,0,0.1,0.1,0.2
					c0,0,0.1,0,0.1,0c0,0,0.1,0,0.1,0l1.2-0.7c0,0,0.1-0.1,0.1-0.1l0.1,0c0.1,0,0.1-0.1,0.1-0.2c0-0.1,0-0.1-0.1-0.2l-0.1,0
					c0,0,0-0.1-0.1-0.1l-1.2-0.7c-0.1,0-0.1,0-0.2,0s-0.1,0.1-0.1,0.2v0.5c-1.3,0.1-2.3,1.2-2.3,2.5c0,0,0,0.1,0,0.1
					c0,0,0,0.1,0,0.1c0,1.4,1.1,2.5,2.5,2.5c0.7,0,1.4-0.3,1.9-0.8C-2,153-1.7,152.4-1.7,151.7z"/>
			</g>
		</g>
		<g id="Settings_1_">
			<g>
				<path class="st6" d="M191.2,148.9h-5.8c-0.2,0-0.4,0.2-0.4,0.4v0.1c0,0.2,0.2,0.4,0.4,0.4h5.8c0.2,0,0.4-0.2,0.4-0.4v-0.1
					C191.5,149,191.4,148.9,191.2,148.9z M191.2,150.7h-5.8c-0.2,0-0.4,0.2-0.4,0.4v0.1c0,0.2,0.2,0.4,0.4,0.4h5.8
					c0.2,0,0.4-0.2,0.4-0.4v-0.1C191.5,150.9,191.4,150.7,191.2,150.7z M191.2,152.6h-5.8c-0.2,0-0.4,0.2-0.4,0.4v0.1
					c0,0.2,0.2,0.4,0.4,0.4h5.8c0.2,0,0.4-0.2,0.4-0.4V153C191.5,152.8,191.4,152.6,191.2,152.6z"/>
			</g>
		</g>
		<g id="Adress_1_">
			<g>
				<path class="st5" d="M178.6,147.4H8.1c-0.4,0-0.7,0.3-0.7,0.7v6c0,0.4,0.3,0.7,0.7,0.7h170.5c0.4,0,0.7-0.3,0.7-0.7v-6
					C179.3,147.7,179,147.4,178.6,147.4z"/>
			</g>
		</g>
		<g id="https_3_">
			<g id="https:_x2F__x2F_www.yourwebsite.com_1_">
				<text transform="matrix(1 0 0 1 15.5784 152.1667)"><tspan x="0" y="0" style="fill:#ACACAC; font-family:'OpenSans'; font-size:3.6px;">https://www.</tspan><tspan x="19.8" y="0" class="st7" style="font-family:'OpenSans'; font-size:3.6px;">yourwebsite</tspan><tspan x="38.4" y="0" style="fill:#ACACAC; font-family:'OpenSans'; font-size:3.6px;">.com</tspan></text>
			</g>
			<g id="Icon_1_">
				<g>
					<path class="st13" d="M12.5,150.7v-0.9c0-0.7-0.5-1.2-1.2-1.2s-1.2,0.5-1.2,1.2v0.9c-0.2,0-0.5,0.2-0.5,0.5v1.8
						c0,0.3,0.2,0.5,0.5,0.5h2.4c0.2,0,0.5-0.2,0.5-0.5v-1.8C13,150.9,12.8,150.7,12.5,150.7z M10.4,149.8c0-0.5,0.4-0.9,0.9-0.9
						s0.9,0.4,0.9,0.9v0.9h-1.8V149.8z M12.7,153c0,0.1-0.1,0.2-0.2,0.2h-2.4c-0.1,0-0.2-0.1-0.2-0.2v-1.8c0-0.1,0.1-0.2,0.2-0.2
						h2.4c0.1,0,0.2,0.1,0.2,0.2V153z M11.5,151.6c0-0.1-0.1-0.2-0.2-0.2c-0.1,0-0.2,0.1-0.2,0.2v0.3c-0.1,0.1-0.2,0.2-0.2,0.3
						c0,0.2,0.1,0.3,0.3,0.3c0.2,0,0.3-0.1,0.3-0.3c0-0.1-0.1-0.2-0.2-0.3V151.6z"/>
				</g>
			</g>
		</g>
	</g>
	<g id="Caption_buttons_6_" class="st1">
		<g id="Ellipse_1_">
			<g>
				<path class="st8" d="M188.3,132.1c-1.5,0-2.7,1.2-2.7,2.7c0,1.5,1.2,2.7,2.7,2.7s2.7-1.2,2.7-2.7
					C191.1,133.3,189.9,132.1,188.3,132.1z"/>
			</g>
		</g>
		<g id="Ellipse_2_1_">
			<g>
				<path class="st9" d="M178.3,132.1c-1.5,0-2.7,1.2-2.7,2.7c0,1.5,1.2,2.7,2.7,2.7c1.5,0,2.7-1.2,2.7-2.7
					C181,133.3,179.8,132.1,178.3,132.1z"/>
			</g>
		</g>
		<g id="Ellipse_3_1_">
			<g>
				<path class="st10" d="M168.2,132.1c-1.5,0-2.7,1.2-2.7,2.7c0,1.5,1.2,2.7,2.7,2.7s2.7-1.2,2.7-2.7
					C170.9,133.3,169.7,132.1,168.2,132.1z"/>
			</g>
		</g>
	</g>
	<g id="web_xA0_Bild_3_" class="st1">
		
			<image style="overflow:visible;" width="997" height="616" id="web_xA0_Bild_2_" xlink:href="EC256CE2313ADFD9.png"  transform="matrix(0.24 0 0 0.24 -42.5973 159.3667)">
		</image>
	</g>
</g>
<g id="Browser_02_1_" class="st0">
	<g id="Body_2_" class="st1">
		<g>
			<path class="st2" d="M482.9-90.3H247.1c-1,0-1.7,0.8-1.7,1.7V91.3h239.2V-88.6C484.6-89.6,483.8-90.3,482.9-90.3z"/>
		</g>
	</g>
	<g id="Tabs_5_" class="st1">
		<g id="Right_4_">
			<g>
				<path class="st3" d="M420-82.9c-0.5-0.8-1.6-1.4-2.5-1.4h-58.2c-0.9,0-2,0.6-2.3,1.4L351.4-71h75.8L420-82.9z"/>
			</g>
		</g>
		<g id="Close_4_">
			<g>
				<path class="st4" d="M360.3-81.3c-0.6,0-1.1,0.5-1.1,1.1c0,0.6,0.5,1.1,1.1,1.1c0.6,0,1.1-0.5,1.1-1.1
					C361.4-80.9,360.9-81.3,360.3-81.3z M360.9-79.9l-0.3,0.2l-0.2-0.3l-0.3,0.3l-0.3-0.2l0.3-0.4l-0.3-0.4l0,0l0-0.1l0.1,0.1
					l0.3-0.2l0.2,0.3l0.2-0.3l0.3,0.2l-0.3,0.4L360.9-79.9z"/>
			</g>
		</g>
		<g id="Left_4_">
			<g>
				<path class="st5" d="M351.1-82.9c-0.5-0.8-1.6-1.4-2.5-1.4h-58.2c-0.9,0-2,0.6-2.3,1.4L282.4-71h75.8L351.1-82.9z"/>
			</g>
		</g>
		<g id="Close_5_">
			<g>
				<path class="st6" d="M291.9-81.3c-0.6,0-1.1,0.5-1.1,1.1c0,0.6,0.5,1.1,1.1,1.1c0.6,0,1.1-0.5,1.1-1.1
					C293-80.9,292.5-81.3,291.9-81.3z M292.5-79.9l-0.3,0.2l-0.2-0.3l-0.3,0.3l-0.3-0.2l0.3-0.4l-0.3-0.4l0,0l0-0.1l0.1,0.1l0.3-0.2
					l0.2,0.3l0.2-0.3l0.3,0.2l-0.3,0.4L292.5-79.9z"/>
			</g>
		</g>
	</g>
	<g id="Navigation_5_" class="st1">
		<g id="Background_3_">
			<g>
				<rect x="245.4" y="-72.8" class="st5" width="239.2" height="16.3"/>
			</g>
		</g>
		<g id="Left_5_">
			<g>
				<path class="st6" d="M257.9-64.9h-5.1l1.5-1.6c0.1-0.1,0.1-0.4,0-0.5c-0.1-0.1-0.4-0.1-0.5,0l-1.9,1.9c-0.1,0.1-0.2,0.3-0.2,0.5
					v0.1c0,0.2,0.1,0.4,0.2,0.5l1.9,1.9c0.1,0.1,0.4,0.1,0.5,0c0.1-0.1,0.1-0.4,0-0.5l-1.5-1.6h5.1c0.2,0,0.4-0.2,0.4-0.4v0
					C258.3-64.8,258.1-64.9,257.9-64.9z"/>
			</g>
		</g>
		<g id="Right_5_">
			<g>
				<path class="st6" d="M272.3-65.1l-1.9-1.9c-0.1-0.1-0.4-0.1-0.5,0c-0.1,0.1-0.1,0.4,0,0.5l1.5,1.6h-5.1c-0.2,0-0.4,0.2-0.4,0.4
					v0c0,0.2,0.2,0.4,0.4,0.4h5.1l-1.5,1.6c-0.1,0.1-0.1,0.4,0,0.5c0.1,0.1,0.4,0.1,0.5,0l1.9-1.9c0.1-0.1,0.2-0.3,0.2-0.5v-0.1
					C272.5-64.8,272.4-65,272.3-65.1z"/>
			</g>
		</g>
		<g id="Refresh_2_">
			<g>
				<path class="st6" d="M286.3-64.2c0-0.1-0.1-0.2-0.2-0.2c0-0.1-0.1-0.2-0.2-0.2c-0.1,0-0.2,0.1-0.2,0.2c0,1.2-1,2.1-2.1,2.1
					c-0.5,0-1-0.2-1.4-0.6c-0.3-0.4-0.6-0.9-0.6-1.4c0-0.5,0.2-1,0.5-1.4c0.3-0.3,0.8-0.5,1.2-0.6v0.5c0,0.1,0,0.1,0.1,0.2
					c0,0,0.1,0,0.1,0c0,0,0.1,0,0.1,0l1.2-0.7c0,0,0.1-0.1,0.1-0.1l0.1,0c0.1,0,0.1-0.1,0.1-0.2c0-0.1,0-0.1-0.1-0.2l-0.1,0
					c0,0,0-0.1-0.1-0.1l-1.2-0.7c-0.1,0-0.1,0-0.2,0c-0.1,0-0.1,0.1-0.1,0.2v0.5c-1.3,0.1-2.3,1.2-2.3,2.5c0,0,0,0.1,0,0.1
					c0,0,0,0.1,0,0.1c0,1.4,1.1,2.5,2.5,2.5c0.7,0,1.4-0.3,1.9-0.8C286-62.8,286.3-63.5,286.3-64.2z"/>
			</g>
		</g>
		<g id="Settings_2_">
			<g>
				<path class="st6" d="M479.2-67h-5.8c-0.2,0-0.4,0.2-0.4,0.4v0.1c0,0.2,0.2,0.4,0.4,0.4h5.8c0.2,0,0.4-0.2,0.4-0.4v-0.1
					C479.5-66.8,479.4-67,479.2-67z M479.2-65.1h-5.8c-0.2,0-0.4,0.2-0.4,0.4v0.1c0,0.2,0.2,0.4,0.4,0.4h5.8c0.2,0,0.4-0.2,0.4-0.4
					v-0.1C479.5-65,479.4-65.1,479.2-65.1z M479.2-63.3h-5.8c-0.2,0-0.4,0.2-0.4,0.4v0.1c0,0.2,0.2,0.4,0.4,0.4h5.8
					c0.2,0,0.4-0.2,0.4-0.4v-0.1C479.5-63.1,479.4-63.3,479.2-63.3z"/>
			</g>
		</g>
		<g id="Adress_2_">
			<g>
				<path class="st3" d="M466.6-68.4H296.1c-0.4,0-0.7,0.3-0.7,0.7v6c0,0.4,0.3,0.7,0.7,0.7h170.5c0.4,0,0.7-0.3,0.7-0.7v-6
					C467.3-68.1,467-68.4,466.6-68.4z"/>
			</g>
		</g>
		<g id="http_2_">
			<g id="http:_x2F__x2F_www.yourwebsite.com">
				<text transform="matrix(1 0 0 1 303.5789 -63.6893)"><tspan x="0" y="0" style="fill:#ACACAC; font-family:'OpenSans'; font-size:3.6px;">http://www.</tspan><tspan x="18.3" y="0" class="st7" style="font-family:'OpenSans'; font-size:3.6px;">yourwebsite</tspan><tspan x="36.9" y="0" style="fill:#ACACAC; font-family:'OpenSans'; font-size:3.6px;">.com</tspan></text>
			</g>
			<g id="Icon_2_">
				<g>
					<path class="st7" d="M301.1-65.9l-1.4-1.4c0,0-0.1,0-0.1,0h-2c-0.1,0-0.2,0.1-0.2,0.2v4.5c0,0.1,0.1,0.2,0.2,0.2h3.2
						c0.1,0,0.2-0.1,0.2-0.2L301.1-65.9C301.2-65.9,301.2-65.9,301.1-65.9z M299.8-66.9l0.9,0.9h-0.9V-66.9z M300.9-62.6h-3.2v-4.5
						h1.9v1.2c0,0.1,0.1,0.1,0.1,0.1h1.2V-62.6z"/>
				</g>
			</g>
		</g>
	</g>
	<g id="Caption_buttons_5_" class="st1">
		<g id="Ellipse_2_">
			<g>
				<path class="st8" d="M253.7-83.8c-1.5,0-2.7,1.2-2.7,2.7s1.2,2.7,2.7,2.7c1.5,0,2.7-1.2,2.7-2.7S255.2-83.8,253.7-83.8z"/>
			</g>
		</g>
		<g id="Ellipse_2_2_">
			<g>
				<circle class="st9" cx="263.7" cy="-81" r="2.7"/>
			</g>
		</g>
		<g id="Ellipse_3_2_">
			<g>
				<circle class="st10" cx="273.8" cy="-81" r="2.7"/>
			</g>
		</g>
	</g>
	<g id="web_xA0_Bild_1_" class="st1">
		
			<image style="overflow:visible;" width="997" height="616" id="web_xA0_Bild" xlink:href="EC256CE2313ADFDF.png"  transform="matrix(0.24 0 0 0.24 245.4027 -56.3933)">
		</image>
	</g>
</g>
<g id="Browser_01_1_">
	<g id="Body_3_">
		<g>
			<path class="st11" d="M194.9-90.3H-40.9c-1,0-1.7,0.3-1.7,0.6v62.4h239.2v-62.4C196.6-90.1,195.8-90.3,194.9-90.3z"/>
		</g>
	</g>
	<g id="Tabs_4_">
		<g id="Right_6_">
			<g>
				<path class="st12" d="M132-82.9c-0.5-0.8-1.6-1.4-2.5-1.4H71.4c-0.9,0-2,0.6-2.3,1.4L63.4-71h75.8L132-82.9z"/>
			</g>
		</g>
		<g id="Left_6_">
			<g>
				<path class="st3" d="M63.1-82.9c-0.5-0.8-1.6-1.4-2.5-1.4H2.4c-0.9,0-2,0.6-2.3,1.4L-5.6-71h75.8L63.1-82.9z"/>
			</g>
		</g>
	</g>
	<g id="Navigation_4_">
		<g id="Background_4_">
			<g>
				<rect x="-42.6" y="-72.8" class="st3" width="239.2" height="16.3"/>
			</g>
		</g>
		<g id="Left_7_">
			<g>
				<path class="st6" d="M-30.1-64.9h-5.1l1.5-1.6c0.1-0.1,0.1-0.4,0-0.5c-0.1-0.1-0.4-0.1-0.5,0l-1.9,1.9c-0.1,0.1-0.2,0.3-0.2,0.5
					v0.1c0,0.2,0.1,0.4,0.2,0.5l1.9,1.9c0.1,0.1,0.4,0.1,0.5,0c0.1-0.1,0.1-0.4,0-0.5l-1.5-1.6h5.1c0.2,0,0.4-0.2,0.4-0.4v0
					C-29.7-64.8-29.9-64.9-30.1-64.9z"/>
			</g>
		</g>
		<g id="Right_7_">
			<g>
				<path class="st6" d="M-15.7-65.1l-1.9-1.9c-0.1-0.1-0.4-0.1-0.5,0c-0.1,0.1-0.1,0.4,0,0.5l1.5,1.6h-5.1c-0.2,0-0.4,0.2-0.4,0.4
					v0c0,0.2,0.2,0.4,0.4,0.4h5.1l-1.5,1.6c-0.1,0.1-0.1,0.4,0,0.5c0.1,0.1,0.4,0.1,0.5,0l1.9-1.9c0.1-0.1,0.2-0.3,0.2-0.5v-0.1
					C-15.5-64.8-15.6-65-15.7-65.1z"/>
			</g>
		</g>
		<g id="Refresh_3_">
			<g>
				<path class="st6" d="M-1.7-64.2c0-0.1-0.1-0.2-0.2-0.2c0-0.1-0.1-0.2-0.2-0.2c-0.1,0-0.2,0.1-0.2,0.2c0,1.2-1,2.1-2.1,2.1
					c-0.5,0-1-0.2-1.4-0.6c-0.3-0.4-0.6-0.9-0.6-1.4c0-0.5,0.2-1,0.5-1.4c0.3-0.3,0.8-0.5,1.2-0.6v0.5c0,0.1,0,0.1,0.1,0.2
					c0,0,0.1,0,0.1,0c0,0,0.1,0,0.1,0l1.2-0.7c0,0,0.1-0.1,0.1-0.1l0.1,0c0.1,0,0.1-0.1,0.1-0.2c0-0.1,0-0.1-0.1-0.2l-0.1,0
					c0,0,0-0.1-0.1-0.1l-1.2-0.7c-0.1,0-0.1,0-0.2,0s-0.1,0.1-0.1,0.2v0.5c-1.3,0.1-2.3,1.2-2.3,2.5c0,0,0,0.1,0,0.1
					c0,0,0,0.1,0,0.1c0,1.4,1.1,2.5,2.5,2.5c0.7,0,1.4-0.3,1.9-0.8C-2-62.8-1.7-63.5-1.7-64.2z"/>
			</g>
		</g>
		<g id="Settings_3_">
			<g>
				<path class="st6" d="M191.2-67h-5.8c-0.2,0-0.4,0.2-0.4,0.4v0.1c0,0.2,0.2,0.4,0.4,0.4h5.8c0.2,0,0.4-0.2,0.4-0.4v-0.1
					C191.5-66.8,191.4-67,191.2-67z M191.2-65.1h-5.8c-0.2,0-0.4,0.2-0.4,0.4v0.1c0,0.2,0.2,0.4,0.4,0.4h5.8c0.2,0,0.4-0.2,0.4-0.4
					v-0.1C191.5-65,191.4-65.1,191.2-65.1z M191.2-63.3h-5.8c-0.2,0-0.4,0.2-0.4,0.4v0.1c0,0.2,0.2,0.4,0.4,0.4h5.8
					c0.2,0,0.4-0.2,0.4-0.4v-0.1C191.5-63.1,191.4-63.3,191.2-63.3z"/>
			</g>
		</g>
		<g id="Adress_3_">
			<g>
				<path class="st5" d="M178.6-68.4H8.1c-0.4,0-0.7,0.3-0.7,0.7v6c0,0.4,0.3,0.7,0.7,0.7h170.5c0.4,0,0.7-0.3,0.7-0.7v-6
					C179.3-68.1,179-68.4,178.6-68.4z"/>
			</g>
		</g>
		<g id="https_2_">
			<g id="https:_x2F__x2F_www.yourwebsite.com">
			</g>
			<g id="Icon_3_">
				<g>
					<path class="st13" d="M11.5-64.2c0-0.1-0.1-0.2-0.2-0.2c-0.1,0-0.2,0.1-0.2,0.2v0.3c-0.1,0.1-0.2,0.2-0.2,0.3
						c0,0.2,0.1,0.3,0.3,0.3c0.2,0,0.3-0.1,0.3-0.3c0-0.1-0.1-0.2-0.2-0.3V-64.2z M12.5-65.1v-0.9c0-0.7-0.5-1.2-1.2-1.2
						s-1.2,0.5-1.2,1.2v0.9c-0.2,0-0.5,0.2-0.5,0.5v1.8c0,0.3,0.2,0.5,0.5,0.5h2.4c0.2,0,0.5-0.2,0.5-0.5v-1.8
						C13-64.9,12.8-65.1,12.5-65.1z M10.4-66.1c0-0.5,0.4-0.9,0.9-0.9s0.9,0.4,0.9,0.9v0.9h-1.8V-66.1z M12.7-62.9
						c0,0.1-0.1,0.2-0.2,0.2h-2.4c-0.1,0-0.2-0.1-0.2-0.2v-1.8c0-0.1,0.1-0.2,0.2-0.2h2.4c0.1,0,0.2,0.1,0.2,0.2V-62.9z"/>
				</g>
			</g>
		</g>
	</g>
	<g id="Caption_buttons_4_">
		<g id="Ellipse_3_">
			<g>
				<circle class="st8" cx="-34.3" cy="-81" r="2.7"/>
			</g>
		</g>
		<g id="Ellipse_2_3_">
			<g>
				<circle class="st9" cx="-24.3" cy="-81" r="2.7"/>
			</g>
		</g>
		<g id="Ellipse_3_3_">
			<g>
				<path class="st10" d="M-14.2-83.8c-1.5,0-2.7,1.2-2.7,2.7s1.2,2.7,2.7,2.7s2.7-1.2,2.7-2.7S-12.7-83.8-14.2-83.8z"/>
			</g>
		</g>
	</g>
	<g id="Place_your_image_here_xA0_Bild_1_" class="st0">
		
			<image style="display:inline;overflow:visible;" width="997" height="616" id="Place_your_image_here_xA0_Bild" xlink:href="EC256CE2313ADFDA.png"  transform="matrix(0.24 0 0 0.24 -42.5973 -56.3933)">
		</image>
	</g>
	<rect x="-34.6" y="12.4" class="st15" width="16.6" height="18.2"/>
	<text transform="matrix(1 0 0 1 -34.645 22.1067)" class="st20 st17" style="font-size:13px;">1</text>
	<circle class="st14" cx="-30.9" cy="17.5" r="8.4"/>
	<path class="st12" d="M26.8-47.9h49.8c2.1,0,3.7,1.7,3.7,3.7v9.4c0,2.1-1.7,3.7-3.7,3.7H3.7C1.7-31,0-32.7,0-34.8l0-9.4
		c0-2.1,1.7-3.7,3.7-3.7h7.6L11-58.8L26.8-47.9"/>
	<path class="st12" d="M26.8-47.9"/>
	<rect x="3.6" y="-44.4" class="st15" width="75.9" height="10.6"/>
	<text transform="matrix(1 0 0 1 3.5604 -41.4159)"><tspan x="0" y="0" class="st17" style="font-size:4px;">Möchtest Du happyhamster.org Zugriff </tspan><tspan x="0" y="6" class="st17" style="font-size:4px;">auf Deinen Standort erlauben?</tspan></text>
	<rect x="15.4" y="-67.1" class="st15" width="82.9" height="12.2"/>
	<text transform="matrix(1 0 0 1 15.3768 -63.327)" class="st17 st18">happyhamster.org</text>
	<path class="st11" d="M89.8,51.4H3.5c-1.9,0-3.5-1.6-3.5-3.5V3.5C0,1.6,1.6,0,3.5,0h86.3c1.9,0,3.5,1.6,3.5,3.5v44.3
		C93.3,49.8,91.8,51.4,89.8,51.4z"/>
	<rect x="5.3" y="6.1" class="st15" width="80.2" height="8.6"/>
	<text transform="matrix(1 0 0 1 5.2635 9.8622)" class="st16 st17 st18">happyhamster.org möchte:</text>
	<line class="st15" x1="82.8" y1="3.4" x2="87.8" y2="8.4"/>
	<g>
		<line class="st19" x1="83.7" y1="5.9" x2="87.3" y2="9.4"/>
	</g>
	<g>
		<line class="st19" x1="87.3" y1="5.9" x2="83.7" y2="9.4"/>
	</g>
	<g>
		<g>
			<path class="st20" d="M9.4,15.4c-2.3,0-4.1,1.8-4.1,4.1c0,0.9,0.5,2.3,1.7,4.3c0.8,1.4,1.6,2.6,1.6,2.6l0.6,0.9
				c0.1,0.1,0.2,0.1,0.3,0.1c0.1,0,0.2-0.1,0.3-0.1l0.6-0.9c0,0,0.8-1.2,1.6-2.6c1.1-2.1,1.7-3.4,1.7-4.3
				C13.4,17.2,11.6,15.4,9.4,15.4z M11.2,23.5c-0.8,1.4-1.5,2.5-1.6,2.6l-0.3,0.5L9,26.1c0,0-0.8-1.2-1.6-2.6
				c-1.1-1.9-1.6-3.3-1.6-4c0-1.9,1.6-3.5,3.5-3.5s3.5,1.6,3.5,3.5C12.8,20.3,12.3,21.6,11.2,23.5z"/>
			<path class="st20" d="M9.4,17.2c-1.3,0-2.3,1-2.3,2.3c0,1.3,1,2.3,2.3,2.3s2.3-1,2.3-2.3C11.6,18.2,10.6,17.2,9.4,17.2z
				 M9.4,21.1c-0.9,0-1.7-0.7-1.7-1.7c0-0.9,0.7-1.7,1.7-1.7c0.9,0,1.7,0.7,1.7,1.7C11,20.4,10.3,21.1,9.4,21.1z"/>
		</g>
	</g>
	<rect x="16.9" y="19" class="st15" width="61.2" height="8.2"/>
	<text transform="matrix(1 0 0 1 16.8568 22.7829)" class="st16 st17 st18">Deinen Standort abrufen</text>
	<path class="st21" d="M40.6,44.4H7.8c-1.1,0-2-0.9-2-2v-7.2c0-1.1,0.9-2,2-2h32.7c1.1,0,2,0.9,2,2v7.2
		C42.6,43.5,41.7,44.4,40.6,44.4z"/>
	<path class="st21" d="M83.5,44.4H50.8c-1.1,0-2-0.9-2-2v-7.2c0-1.1,0.9-2,2-2h32.7c1.1,0,2,0.9,2,2v7.2
		C85.5,43.5,84.6,44.4,83.5,44.4z"/>
	<rect x="8.7" y="36.7" class="st15" width="30.9" height="6.6"/>
	<text transform="matrix(1 0 0 1 12.1697 40.4508)" class="st16 st17 st18">Blockieren</text>
	<rect x="51.7" y="36.7" class="st15" width="30.9" height="6.6"/>
	<text transform="matrix(1 0 0 1 56.922 40.4508)" class="st16 st17 st18">Zulassen</text>
</g>
</svg>
