<?xml version="1.0" encoding="UTF-8"?>
<svg width="151px" height="30px" viewBox="0 0 151 30" version="1.1" xmlns="http://www.w3.org/2000/svg" xmlns:xlink="http://www.w3.org/1999/xlink">
    <!-- Generator: Sketch 63.1 (92452) - https://sketch.com -->
    <title>Logo</title>
    <desc>Created with Sketch.</desc>
    <g id="Page-1" stroke="none" stroke-width="1" fill="none" fill-rule="evenodd">
        <g id="Desktop-HD" transform="translate(-107.000000, -87.000000)">
            <g id="Logo" transform="translate(106.000000, 75.000000)">
                <g id="Group" fill="#172A3A" font-family="Roboto-Light, Roboto" font-size="38.2352941" font-weight="300" letter-spacing="0.13988522">
                    <text id="SHOP">
                        <tspan x="0" y="40">SHOP</tspan>
                    </text>
                </g>
                <g id="Go" transform="translate(107.352941, 13.970588)" fill="#26C485">
                    <path d="M39.9653979,1.05536495e-14 C42.2586218,1.4205975e-14 44.1176471,1.85902526 44.1176471,4.15224913 L44.1176471,23.8754325 C44.1176471,26.1686564 42.2586218,28.0276817 39.9653979,28.0276817 L4.15224913,28.0276817 C1.85902526,28.0276817 -1.64900595e-14,26.1686564 -1.588272e-14,23.8754325 L-1.588272e-14,4.15224913 C-1.70517373e-14,1.85902526 1.85902526,1.18630863e-14 4.15224913,1.05536495e-14 L39.9653979,1.05536495e-14 Z M14.5044875,6.7594953 C11.779574,6.7594953 11.779574,6.7594953 10.0498925,8.53175349 C8.42195709,10.1997612 8.42195709,10.1997612 8.32619618,12.7870736 L8.32021113,13.1140787 L8.32021113,16.3499135 C8.32021113,19.1706247 8.32021113,19.1706247 10.1190798,20.9375608 C11.9179485,22.7044969 11.9179485,22.7044969 14.7599481,22.7044969 C16.9952287,22.7044969 16.9952287,22.7044969 18.4588053,21.991336 C19.7760242,21.3494911 19.7760242,21.3494911 20.4681629,20.5438321 L20.6142544,20.3627744 L20.6142544,14.5191122 L14.7599481,14.5191122 L14.7599481,16.6692393 L17.50615,16.6692393 L17.50615,19.5431715 C17.1655358,19.8731415 17.1655358,19.8731415 16.5055958,20.0966696 C15.8456558,20.3201976 15.8456558,20.3201976 14.7599481,20.3201976 C13.2271843,20.3201976 13.2271843,20.3201976 12.3224278,19.2185236 C11.487268,18.2015937 11.487268,18.2015937 11.423025,16.6178134 L11.4176714,16.3499135 L11.4176714,13.0927903 C11.4176714,11.3577868 11.4176714,11.3577868 12.2904952,10.2561128 C13.1633191,9.1544388 13.1633191,9.1544388 14.589641,9.1544388 C15.9414536,9.1544388 15.9414536,9.1544388 16.6439703,9.87292185 C17.2762354,10.5195566 17.2762354,10.5195566 17.4084363,11.5843485 L17.4316406,11.8261313 L20.3587938,11.8261313 L20.3800822,11.7622662 C20.3481496,9.51634137 20.3481496,9.51634137 18.8419962,8.13791833 C17.3358429,6.7594953 17.3358429,6.7594953 14.5044875,6.7594953 Z M29.3264488,6.7594953 C26.4631608,6.7594953 26.4631608,6.7594953 24.6802584,8.62755123 C23.0022326,10.3857215 23.0022326,10.3857215 22.9035252,13.0066239 L22.897356,13.3376068 L22.897356,16.1263854 C22.897356,18.9790292 22.897356,18.9790292 24.6855805,20.8417631 C26.473805,22.7044969 26.473805,22.7044969 29.337093,22.7044969 C32.2216694,22.7044969 32.2216694,22.7044969 34.0258602,20.8417631 C35.7239221,19.0886018 35.7239221,19.0886018 35.8238081,16.4585653 L35.8300509,16.1263854 L35.8300509,13.3376068 C35.8300509,10.4956072 35.8300509,10.4956072 34.0205381,8.62755123 C32.2110252,6.7594953 32.2110252,6.7594953 29.3264488,6.7594953 Z M29.3264488,9.18637138 C30.9124336,9.18637138 30.9124336,9.18637138 31.81719,10.3465885 C32.6465501,11.4101208 32.6465501,11.4101208 32.7156634,13.0192419 L32.7219465,13.3163184 L32.7219465,16.1263854 C32.7219465,17.9678309 32.7219465,17.9678309 31.8278342,19.128048 C30.933722,20.288265 30.933722,20.288265 29.337093,20.288265 C27.7617524,20.288265 27.7617524,20.288265 26.8782843,19.128048 C26.0684386,18.0645156 26.0684386,18.0645156 26.0009515,16.4285623 L25.9948163,16.1263854 L25.9948163,13.3163184 C25.9948163,11.4961613 25.9948163,11.4961613 26.8676401,10.3412664 C27.740464,9.18637138 27.740464,9.18637138 29.3264488,9.18637138 Z" id="Combined-Shape"></path>
                </g>
            </g>
        </g>
    </g>
</svg>