<?xml version="1.0" encoding="utf-8"?>
<!-- Generator: Adobe Illustrator 24.1.0, SVG Export Plug-In . SVG Version: 6.00 Build 0)  -->
<svg version="1.1" xmlns="http://www.w3.org/2000/svg" xmlns:xlink="http://www.w3.org/1999/xlink" x="0px" y="0px"
	 viewBox="0 0 609.2 368.4" style="enable-background:new 0 0 609.2 368.4;" xml:space="preserve">
<style type="text/css">
	.st0{display:none;}
	.st1{display:inline;fill:#FFFFFF;}
	.st2{fill:#BAD1CD;}
	.st3{display:inline;}
	.st4{fill:#FFFFFF;}
	.st5{display:inline;fill:#36C2D9;}
	.st6{fill:#CEE8F0;}
	.st7{fill:none;stroke:#0E293A;stroke-width:0.5;stroke-linecap:round;stroke-linejoin:round;stroke-miterlimit:10;}
	.st8{fill:#99A3CA;}
	.st9{fill:#0E293A;}
	.st10{display:none;fill:#B7C0DC;}
	.st11{display:inline;fill:#F16B5F;}
	.st12{fill:#36C2D9;}
	.st13{fill:#26C485;}
	.st14{display:inline;fill:#FBAC4D;}
	.st15{fill:#92EACD;}
	.st16{display:none;opacity:0.5;fill:#3BDBAA;}
	.st17{display:inline;opacity:8.000000e-02;fill:url(#SVGID_1_);}
	.st18{display:inline;opacity:8.000000e-02;fill:url(#SVGID_2_);}
	.st19{display:inline;opacity:8.000000e-02;fill:url(#SVGID_3_);}
	.st20{display:inline;opacity:8.000000e-02;fill:url(#SVGID_4_);}
	.st21{display:inline;opacity:8.000000e-02;fill:url(#SVGID_5_);}
	.st22{fill:#3BDBAA;}
	.st23{fill:#D48F65;}
	.st24{fill:#EB9156;}
	.st25{fill:#E4C7CD;}
	.st26{fill:#C5A2AB;}
	.st27{fill:#FBAC4D;}
	.st28{fill:#FBE3C6;}
	.st29{fill:#F1AFA9;}
	.st30{fill:#ECB67C;}
	.st31{display:inline;fill:#048FA6;}
	.st32{fill:#A5B7C6;}
</style>
<g id="BACKGROUND" class="st0">
	<rect x="-70.2" y="-69.1" class="st1" width="750" height="500"/>
</g>
<g id="OBJECTS">
	<g>
		<g>
			<g>
				<path class="st2" d="M108.4,352.4h331.1l141.1-0.6c3.6-21.9,7.2-44.1,5.7-66.3c-1.4-22.2-8.4-44.7-23.5-61
					c-14.2-15.4-36.2-27.1-38.3-47.9c-1.9-18.9,14.6-36.5,11.1-55.2c-2.2-11.7-12.1-20.9-23.3-24.9c-11.2-4-23.5-3.6-35.3-2.1
					c-29.6,3.9-57.7,14.9-86.4,23.1c-28.7,8.2-59.3,13.6-88.2,6.3c-24.6-6.2-45.9-21.1-67.1-35c-21.2-13.9-43.7-27.5-68.9-30.5
					c-25.2-3-53.7,7.4-64.3,30.4c-15.7,34.2,13.2,77.8-4.7,110.9c-10,18.4-32,27.7-42.5,45.8c-11.2,19.4-6.4,44.8,6,63.4
					C73,327,90.8,340,108.4,352.4z"/>
				<path class="st2" d="M79.5,207.4c5.9-5.5,10-13.8,8.4-21.7c-1.6-8-10.2-14.5-17.9-12c-5.9,1.9-9.3,7.9-12.9,12.9
					c-5.2,7.4-11.9,13.7-19.6,18.5c-4,2.5-8.6,5.1-9.7,9.6c-1.6,6.6,5.7,12.5,12.5,12.2C50.9,226.4,71.8,214.5,79.5,207.4z"/>
			</g>
		</g>
		<g class="st0">
			<g class="st3">
				<path class="st4" d="M117.6,109.3H228c-0.8-6.1-6.4-11.2-12.6-11.3c-3.6-0.1-7,1.3-10.5,1.9c-3.5,0.6-7.7,0.1-9.8-2.8
					c-2.2-3.1-1.4-7.7-3.8-10.6c-2-2.4-5.7-2.8-8.8-2c-3.1,0.8-5.8,2.5-8.8,3.5c-3,1-6.6,1.3-9.2-0.5c-3.5-2.6-3.6-7.7-5.5-11.7
					c-2.3-4.8-7.8-7.9-13.1-7.3c-5.3,0.6-10,4.9-11,10.2c-0.8,4.2,0.1,9.2-3.1,12c-3.2,2.7-8.3,1.1-12.1,2.8
					c-4.4,1.9-5.9,7.8-4.2,12.2C116,107,116.7,108.2,117.6,109.3z"/>
				<path class="st4" d="M448.7,139.7c2.3,0,4.3-1.7,4.5-4c0.1-1.4,0.4-2.8,0.7-4.2c0.5-2.7,0.4-6.1-1.9-7.6
					c-3.2-2.1-7.5,1.1-11.3,0.4c-2.8-0.5-4.8-3-6.1-5.6c-1.3-2.6-2.1-5.4-3.9-7.6c-3.9-4.8-11.8-5-16.6-1c-3,2.5-4.8,6.1-7,9.2
					c-2.2,3.2-5.4,6.2-9.2,6.4c-6.5,0.3-11.3-7.4-17.8-7c-4.9,0.3-8.2,4.9-10.7,9.1c-2.5,4.2-5.6,8.9-10.4,9.6
					c-4.6,0.6-9.3-2.9-13.8-1.7c-2,0.6-3.7,2.1-4.4,4.1L448.7,139.7z"/>
			</g>
		</g>
	</g>
	<g class="st0">
		<path class="st5" d="M457.6,82.5L457.6,82.5c0-4.9-4-8.8-8.8-8.8l0,0c4.9,0,8.8-4,8.8-8.8h0c0,4.9,4,8.8,8.8,8.8l0,0
			C461.5,73.6,457.6,77.6,457.6,82.5z"/>
		<path class="st5" d="M468.5,86.3L468.5,86.3c0-3.3-2.7-6-6-6l0,0c3.3,0,6-2.7,6-6l0,0c0,3.3,2.7,6,6,6l0,0
			C471.2,80.3,468.5,83,468.5,86.3z"/>
		<path class="st5" d="M521.7,182.7L521.7,182.7c0-2.3-1.8-4.1-4.1-4.1l0,0c2.3,0,4.1-1.8,4.1-4.1l0,0c0,2.3,1.8,4.1,4.1,4.1l0,0
			C523.6,178.5,521.7,180.4,521.7,182.7z"/>
		<path class="st5" d="M181,56.8L181,56.8c0-3.3-2.7-6-6-6l0,0c3.3,0,6-2.7,6-6l0,0c0,3.3,2.7,6,6,6l0,0
			C183.7,50.8,181,53.5,181,56.8z"/>
		<path class="st5" d="M46.6,107.9L46.6,107.9c0-4.4-3.6-8-8-8l0,0c4.4,0,8-3.6,8-8l0,0c0,4.4,3.6,8,8,8l0,0
			C50.2,99.9,46.6,103.5,46.6,107.9z"/>
		<path class="st5" d="M34.1,109.9L34.1,109.9c0-3.1-2.5-5.6-5.6-5.6l0,0c3.1,0,5.6-2.5,5.6-5.6l0,0c0,3.1,2.5,5.6,5.6,5.6l0,0
			C36.5,104.4,34.1,106.9,34.1,109.9z"/>
		<path class="st5" d="M175.5,44.9L175.5,44.9c0-2.6-2.1-4.6-4.6-4.6l0,0c2.6,0,4.6-2.1,4.6-4.6l0,0c0,2.6,2.1,4.6,4.6,4.6l0,0
			C177.6,40.3,175.5,42.4,175.5,44.9z"/>
	</g>
	<g>
		<g>
			<g>
				<path class="st6" d="M226.3,210.3l3.3-7.6c-6.6-18.1-18.3-32.1-29.2-42.1l-6.3,7.3l2.6-10.5c-12-10.3-22.2-15.4-22.2-15.4
					c-4.3,26.8-0.9,48.1,5.9,64.7l9.7,5l-7,1.1c6.4,12.9,14.8,22.8,22.8,30l8.6-0.1l-5.6,2.7c12.2,10.1,22.7,14.2,22.7,14.2
					c5.3-20,4.1-37.4-0.5-52.3L226.3,210.3z"/>
				<g>
					<line class="st7" x1="176.1" y1="144.9" x2="230.3" y2="256.9"/>
					<line class="st7" x1="175.3" y1="172.9" x2="193.3" y2="180.8"/>
					<line class="st7" x1="209.5" y1="172.3" x2="203.3" y2="201"/>
					<line class="st7" x1="190.8" y1="220.7" x2="216.9" y2="229.8"/>
				</g>
				<path class="st8" d="M232.3,310.7l10.8-7.6c-2.1-17.1-8.3-33.9-17.7-48.3c-3.7-5.6-7.7-10.8-12.1-15.7l-6.4,8.5l3.3-11.9
					c-16.4-17-37.2-29.3-60-37.2c-1.3-0.5-2.4,1.1-1.6,2.2c6,7.9,10.2,17,13.4,26.5l9.5,3.4l-8,1.6c2.3,8,4,16.2,5.5,24.4
					c2,11.4,3.8,23,6.5,34.2l11.2,5.8l-9.5,0.6c2.1,7.5,4.8,14.8,8.4,21.8c8.9,16.9,25.3,31.4,43.8,33.4c4.4,0.5,8.5-2.2,9.8-6.4
					c3.8-11.5,5.2-23.8,4.5-35.9L232.3,310.7z"/>
				<g>
					<path class="st7" d="M156.8,204.4c0,0,61.5,48.2,73.2,144"/>
					<line class="st7" x1="169.8" y1="239.9" x2="201.2" y2="259.9"/>
					<line class="st7" x1="204.2" y1="233.8" x2="209.1" y2="275.1"/>
					<line class="st7" x1="177.3" y1="276.3" x2="218" y2="296.8"/>
					<path class="st7" d="M194.2,318.5c0.2,0.2,35,23.6,35,23.6"/>
					<path class="st7" d="M232,272.8c0,0-9.2,40.2-8.9,40.3"/>
				</g>
			</g>
			<g>
				<path class="st8" d="M367.9,245.2l-10.8-7.6c2.1-17.1,8.3-33.9,17.7-48.3c3.7-5.6,7.7-10.8,12.1-15.7l6.4,8.5l-3.3-11.9
					c16.4-17,37.2-29.3,60-37.2c1.3-0.5,2.4,1.1,1.6,2.2c-6,7.9-10.2,17-13.4,26.5l-9.5,3.4l8,1.6c-2.3,8-4,16.2-5.5,24.4
					c-2,11.4-3.8,23-6.5,34.2l-11.2,5.8l9.5,0.6c-2.1,7.5-4.8,14.8-8.4,21.8c-8.9,16.9-25.3,31.4-43.8,33.4
					c-4.4,0.5-8.5-2.2-9.8-6.4c-3.8-11.5-5.2-23.8-4.5-35.9L367.9,245.2z"/>
				<g>
					<path class="st7" d="M441.8,141.4c0,0-58.2,32.2-70.2,139"/>
					<line class="st7" x1="415.8" y1="152.2" x2="407.6" y2="175.7"/>
					<line class="st7" x1="429.1" y1="175.9" x2="392.6" y2="202.2"/>
					<line class="st7" x1="377.3" y1="188.9" x2="379.8" y2="236.9"/>
					<line class="st7" x1="413.8" y1="238.7" x2="374.3" y2="261.4"/>
				</g>
				<path class="st6" d="M409.8,311.3l10.8,0.2c18.4-17,29.4-38.1,35.9-56.2l-11.9-4l14-2.1c6.3-19.6,7.4-34.4,7.4-34.4
					c-34.3,8.3-58.2,23-74.7,39.6l-1.1,14.2l-4.8-7.9c-12.3,14.1-19.9,29.1-24.5,42.4l4.5,10.3l-6.1-5.4c-6,19.7-5.7,34.3-5.7,34.3
					c26.6-3.7,47-13.9,62.5-26.9L409.8,311.3z"/>
				<g>
					<line class="st7" x1="358.1" y1="336.9" x2="463.8" y2="217.7"/>
					<line class="st7" x1="432.6" y1="231.7" x2="424.5" y2="262"/>
					<line class="st7" x1="445.8" y1="269.4" x2="406.9" y2="282"/>
					<line class="st7" x1="384.8" y1="266" x2="385.9" y2="305.5"/>
					<line class="st7" x1="399.4" y1="323" x2="368.4" y2="325.2"/>
				</g>
			</g>
		</g>
		<g>
			<path class="st9" d="M358.4,352.4H242.2c-14.8,0-26.8-12-26.8-26.8V41.9c0-14.8,12-26.8,26.8-26.8h116.2
				c14.8,0,26.8,12,26.8,26.8v283.8C385.2,340.4,373.2,352.4,358.4,352.4z"/>
			<path class="st4" d="M379.2,43.4v280.8c0,5.9-2.9,11.2-7.4,14.4c-2.9,2.1-6.5,3.4-10.4,3.4H239.2c-9.8,0-17.8-8-17.8-17.8V43.4
				c0-9.8,8-17.8,17.8-17.8H275c-0.1,0.3-0.1,0.7-0.1,1.1c0,2.8,2.3,5.1,5,5.1h40.8c2.8,0,5-2.3,5-5.1c0-0.4,0-0.7-0.1-1.1h35.8
				C371.2,25.6,379.2,33.5,379.2,43.4z"/>
			<path class="st10" d="M300.3,185.6c-2.1,0-4-0.8-5.4-2.2c1.6-1,3.4-1.5,5.4-1.5c2,0,3.8,0.6,5.4,1.5
				C304.3,184.8,302.4,185.6,300.3,185.6z"/>
			<g>
				<g class="st0">
					<path class="st11" d="M338.1,307.9h-75.5c-2.9,0-5.2-2.3-5.2-5.2v-14c0-2.9,2.3-5.2,5.2-5.2h75.5c2.9,0,5.2,2.3,5.2,5.2v14
						C343.3,305.6,340.9,307.9,338.1,307.9z"/>
					<g class="st3">
						<path class="st4" d="M272,290.2c2.4,0,3.5,1.8,3.5,3.7c0,1.8-1.2,3.6-3.5,3.6h-2.4v3.6H268v-10.9H272z M272,296
							c1.3,0,2-1,2-2.1c0-1-0.7-2.1-2-2.1h-2.4v4.1H272z"/>
						<path class="st4" d="M281.9,297.9H278c-0.4,1-1,2.3-1.3,3.2H275l4.4-11.1h1.2l4.4,11.1h-1.7L281.9,297.9z M278.6,296.5h2.7
							l-1.3-3.9L278.6,296.5z"/>
						<path class="st4" d="M285.2,290.3l3,4.8l3-4.8h1.9l-4.1,6.5v4.4h-1.6v-4.4l-4-6.5H285.2z"/>
						<path class="st4" d="M298.1,301.2v-10.9l1.2,0l5.3,7.7v-7.7h1.6v10.9h-1.2l-5.3-7.6v7.6H298.1z"/>
						<path class="st4" d="M309.2,291.8c1-1,2.4-1.7,3.9-1.7c1.5,0,2.9,0.6,3.9,1.7c1,1,1.6,2.4,1.6,3.9s-0.6,2.9-1.6,3.9
							c-1,1-2.4,1.7-3.9,1.7c-1.5,0-2.9-0.6-3.9-1.7c-1-1-1.6-2.4-1.6-3.9S308.2,292.8,309.2,291.8z M316,292.9
							c-0.7-0.7-1.7-1.2-2.8-1.2c-1.1,0-2.1,0.5-2.8,1.2c-0.7,0.7-1.2,1.7-1.2,2.8c0,1.1,0.5,2.1,1.2,2.8c0.7,0.7,1.7,1.2,2.8,1.2
							c1.1,0,2.1-0.5,2.8-1.2c0.7-0.7,1.2-1.7,1.2-2.8S316.7,293.6,316,292.9z"/>
						<path class="st4" d="M325.9,296c-0.6,1.8-1.3,3.6-1.9,5.3h-1.2l-3.6-11h1.6l2.6,7.9l1.8-5.1h1.3l1.8,5.1
							c0.9-2.6,1.8-5.4,2.6-7.9h1.7l-3.6,11h-1.2L325.9,296z"/>
					</g>
				</g>
				<g>
					<g>
						<rect x="250.7" y="248.4" class="st6" width="99.7" height="1.2"/>
					</g>
					<g>
						
							<ellipse transform="matrix(0.2309 -0.973 0.973 0.2309 -49.4677 435.5084)" class="st6" cx="250.7" cy="249" rx="11.1" ry="11.1"/>
						
							<ellipse transform="matrix(0.1607 -0.987 0.987 0.1607 6.2391 505.4236)" class="st6" cx="300.3" cy="249" rx="11.1" ry="11.1"/>
						
							<ellipse transform="matrix(0.7071 -0.7071 0.7071 0.7071 -73.6158 320.3618)" class="st12" cx="349.9" cy="249" rx="11.1" ry="11.1"/>
					</g>
				</g>
				<g>
					<path class="st13" d="M368.6,127.7v71.5c0,3.4-2.7,6.1-6.1,6.1H238.2c-3.4,0-6.1-2.7-6.1-6.1v-71.5c0-3.4,2.7-6.1,6.1-6.1
						h124.3C365.9,121.5,368.6,124.3,368.6,127.7z"/>
					<g class="st0">
						<polygon class="st14" points="257.9,192.9 268.1,192.9 268.1,185.8 258.5,185.8 256.2,189.4 						"/>
						<path class="st14" d="M247.5,184.7l2.7,4.2h5l2.7-4.2h10.2v-1c0-0.8-0.6-1.4-1.4-1.4h-22.4c-0.8,0-1.4,0.6-1.4,1.4v1H247.5z"
							/>
						<path class="st14" d="M257.2,194.1l-2.1-4.1h-4.9l-2.1,4.1h-5.2v1.1c0,0.8,0.6,1.4,1.4,1.4h22.4c0.8,0,1.4-0.6,1.4-1.4v-1.1
							H257.2z"/>
						<polygon class="st14" points="246.8,185.8 242.9,185.8 242.9,188.8 248.8,188.8 						"/>
						<polygon class="st14" points="248.9,190 242.9,190 242.9,192.9 247.4,192.9 						"/>
					</g>
					<g class="st0">
						<path class="st1" d="M243.2,148.5c-0.1-0.1-0.1-0.1-0.2-0.2s-0.1-0.2-0.1-0.3l2.6-1.3h0.1v6h1.5c0,0.1,0,0.1,0,0.1
							c0,0,0,0.1,0,0.1s0,0.1,0,0.2c0,0.1,0,0.1,0,0.2h-3.7c0-0.1,0-0.1,0-0.3c0-0.1,0-0.1,0-0.2c0-0.1,0-0.1,0-0.1h1.6v-5
							L243.2,148.5z"/>
						<path class="st1" d="M248.5,153.3l-0.1-0.1l2-2.1c0.2-0.2,0.4-0.4,0.6-0.6c0.2-0.2,0.3-0.4,0.5-0.6c0.1-0.2,0.2-0.4,0.3-0.6
							c0.1-0.2,0.1-0.4,0.1-0.6c0-0.4-0.1-0.7-0.4-1c-0.3-0.2-0.6-0.3-1.1-0.3c-0.3,0-0.7,0-0.9,0.1c-0.3,0.1-0.5,0.2-0.7,0.3
							c0-0.1-0.1-0.2-0.1-0.3c0-0.1-0.1-0.2-0.1-0.3c0.2-0.1,0.4-0.2,0.7-0.3c0.3-0.1,0.7-0.2,1.1-0.2c0.3,0,0.6,0,0.9,0.1
							c0.3,0.1,0.5,0.2,0.7,0.3c0.2,0.2,0.3,0.4,0.4,0.6c0.1,0.2,0.2,0.5,0.2,0.8c0,0.2,0,0.4-0.1,0.6c-0.1,0.2-0.2,0.4-0.3,0.6
							c-0.1,0.2-0.3,0.4-0.5,0.7c-0.2,0.2-0.4,0.5-0.7,0.7l-1.3,1.4h3.1c0,0.1,0,0.1,0,0.2c0,0.1,0,0.1,0,0.2c0,0.1,0,0.1,0,0.2
							c0,0,0,0.1,0,0.1H248.5z"/>
						<path class="st1" d="M256.3,153.4c0.3,0,0.6,0,0.8-0.1c0.3-0.1,0.5-0.2,0.7-0.3c0.2-0.1,0.3-0.3,0.4-0.6
							c0.1-0.2,0.2-0.5,0.2-0.9c0-0.4-0.1-0.8-0.4-1c-0.3-0.2-0.7-0.3-1.2-0.3c-0.1,0-0.3,0-0.4,0c-0.1,0-0.3,0-0.5,0.1l-0.1-0.1
							l1.9-2.9h-2.9c0-0.1,0-0.1,0-0.2c0,0,0-0.1,0-0.2c0-0.1,0-0.1,0-0.2c0-0.1,0-0.1,0-0.2h4l0,0.1l-2,2.9c0,0,0.1,0,0.1,0
							c0,0,0.1,0,0.1,0c0.4,0,0.7,0.1,0.9,0.2c0.3,0.1,0.5,0.3,0.6,0.5c0.2,0.2,0.3,0.4,0.3,0.6c0.1,0.2,0.1,0.4,0.1,0.6
							c0,0.4-0.1,0.8-0.2,1.1c-0.2,0.3-0.4,0.6-0.6,0.8c-0.3,0.2-0.6,0.3-0.9,0.4c-0.3,0.1-0.7,0.1-1.1,0.1c-0.1,0-0.3,0-0.4,0
							c-0.2,0-0.3,0-0.5-0.1c-0.2,0-0.3-0.1-0.5-0.1c-0.1,0-0.3-0.1-0.4-0.1c0.1-0.2,0.2-0.4,0.3-0.6c0.2,0.1,0.4,0.2,0.6,0.2
							C255.8,153.4,256,153.4,256.3,153.4z"/>
						<path class="st1" d="M263.2,152.5l-0.1-0.1l3.1-5.9c0.1,0,0.2,0,0.3,0.1c0.1,0,0.2,0.1,0.3,0.2l-2.6,5.1h2.5v-2.2
							c0.1,0,0.2,0,0.3,0c0.1,0,0.2,0,0.3,0v2.2h1.1c0,0.1,0,0.2,0,0.3c0,0.1,0,0.2,0,0.3h-1.1v1.4c-0.1,0-0.1,0-0.2,0
							c-0.1,0-0.1,0-0.2,0c-0.1,0-0.1,0-0.2,0c-0.1,0-0.1,0-0.2,0v-1.4H263.2z"/>
						<path class="st1" d="M273.9,151.6c0,0.4-0.1,0.8-0.2,1.1c-0.2,0.3-0.4,0.6-0.6,0.8c-0.3,0.2-0.6,0.3-0.9,0.4
							c-0.3,0.1-0.7,0.1-1.1,0.1c-0.3,0-0.6,0-0.9-0.1c-0.3-0.1-0.5-0.1-0.7-0.2c0-0.1,0-0.2,0.1-0.3c0-0.1,0.1-0.2,0.2-0.3
							c0.2,0.1,0.4,0.1,0.6,0.2c0.2,0,0.5,0.1,0.8,0.1c0.3,0,0.6,0,0.8-0.1c0.2-0.1,0.5-0.2,0.6-0.3c0.2-0.1,0.3-0.3,0.4-0.5
							c0.1-0.2,0.2-0.5,0.2-0.9c0-0.2,0-0.4-0.1-0.6c-0.1-0.2-0.1-0.4-0.3-0.5c-0.1-0.1-0.3-0.3-0.6-0.4c-0.2-0.1-0.5-0.1-0.9-0.1
							c-0.2,0-0.4,0-0.6,0.1c-0.2,0-0.4,0.1-0.5,0.1l-0.1-0.1l0.1-3.4h3.3c0,0.1,0,0.1,0,0.2c0,0,0,0.1,0,0.2c0,0.1,0,0.1,0,0.2
							c0,0.1,0,0.1,0,0.2h-2.7l-0.1,2.1c0.1,0,0.3,0,0.4-0.1c0.2,0,0.3,0,0.3,0c0.3,0,0.7,0.1,0.9,0.2c0.3,0.1,0.5,0.2,0.7,0.4
							c0.2,0.2,0.4,0.4,0.5,0.7C273.9,151,273.9,151.3,273.9,151.6z"/>
						<path class="st1" d="M275.7,150.5c0-0.6,0.1-1.1,0.2-1.7c0.1-0.5,0.4-1,0.7-1.4c0.3-0.4,0.7-0.8,1.2-1c0.5-0.3,1-0.5,1.7-0.5
							c0,0.1,0,0.1,0,0.2c0,0.1,0,0.1,0,0.2c0,0.1,0,0.2,0,0.2c-0.4,0-0.8,0.2-1.2,0.3c-0.3,0.2-0.6,0.4-0.9,0.6
							c-0.3,0.3-0.5,0.5-0.6,0.9c-0.2,0.3-0.3,0.7-0.4,1.1c0,0.1,0,0.1,0,0.2c0,0.1,0,0.1,0,0.2c0.2-0.3,0.4-0.6,0.8-0.8
							c0.3-0.2,0.7-0.3,1.2-0.3c0.3,0,0.5,0,0.8,0.1c0.3,0.1,0.5,0.2,0.7,0.4c0.2,0.2,0.4,0.4,0.5,0.7c0.1,0.3,0.2,0.7,0.2,1.1
							c0,0.4-0.1,0.7-0.2,1c-0.1,0.3-0.3,0.6-0.5,0.8c-0.2,0.2-0.5,0.4-0.8,0.5c-0.3,0.1-0.6,0.2-0.9,0.2c-0.4,0-0.7-0.1-1-0.2
							c-0.3-0.1-0.6-0.3-0.8-0.5c-0.2-0.2-0.4-0.5-0.5-0.9C275.7,151.5,275.7,151,275.7,150.5z M278.2,149.3c-0.2,0-0.4,0-0.6,0.1
							c-0.2,0.1-0.4,0.2-0.5,0.4c-0.2,0.2-0.3,0.3-0.4,0.6c-0.1,0.2-0.1,0.5-0.1,0.7c0,0.6,0.1,1,0.4,1.3c0.3,0.3,0.7,0.4,1.2,0.4
							c0.2,0,0.5,0,0.7-0.1c0.2-0.1,0.4-0.2,0.5-0.3c0.2-0.1,0.3-0.3,0.4-0.6c0.1-0.2,0.1-0.5,0.1-0.7c0-0.3,0-0.6-0.1-0.8
							c-0.1-0.2-0.2-0.4-0.3-0.5c-0.1-0.1-0.3-0.2-0.5-0.3C278.6,149.3,278.4,149.3,278.2,149.3z"/>
						<path class="st1" d="M283.3,154.1c-0.1,0-0.3-0.1-0.4-0.1c-0.1,0-0.2-0.1-0.3-0.2l2.8-6.3h-3.7c0,0,0-0.1,0-0.1
							c0-0.1,0-0.1,0-0.1c0-0.1,0-0.2,0-0.4h4.7l0,0L283.3,154.1z"/>
						<path class="st1" d="M292.8,153.4c-0.3,0-0.6,0-0.9-0.1c-0.3-0.1-0.6-0.2-0.8-0.3c-0.2-0.2-0.4-0.4-0.6-0.6
							c-0.1-0.2-0.2-0.5-0.2-0.9c0-0.3,0.1-0.6,0.2-0.8c0.1-0.2,0.2-0.4,0.4-0.6c0.2-0.2,0.4-0.3,0.6-0.4c0.2-0.1,0.4-0.2,0.6-0.3
							c-0.2-0.1-0.4-0.2-0.5-0.3c-0.2-0.1-0.3-0.2-0.4-0.4c-0.1-0.1-0.2-0.3-0.3-0.5c-0.1-0.2-0.1-0.4-0.1-0.6
							c0-0.3,0.1-0.5,0.2-0.7c0.1-0.2,0.3-0.4,0.4-0.5c0.2-0.1,0.4-0.3,0.7-0.3c0.3-0.1,0.5-0.1,0.9-0.1c0.3,0,0.6,0,0.9,0.1
							c0.3,0.1,0.5,0.2,0.7,0.3c0.2,0.1,0.3,0.3,0.4,0.5s0.2,0.4,0.2,0.7c0,0.2,0,0.4-0.1,0.6c-0.1,0.2-0.2,0.3-0.3,0.5
							c-0.1,0.1-0.3,0.3-0.4,0.4c-0.2,0.1-0.3,0.2-0.5,0.3c0.2,0.1,0.4,0.2,0.6,0.3c0.2,0.1,0.4,0.2,0.6,0.4
							c0.2,0.2,0.3,0.4,0.4,0.6c0.1,0.2,0.2,0.5,0.2,0.8c0,0.4-0.1,0.7-0.2,0.9c-0.1,0.2-0.3,0.4-0.6,0.6c-0.2,0.2-0.5,0.3-0.8,0.3
							C293.4,153.4,293.1,153.4,292.8,153.4z M292.8,152.8c0.6,0,1-0.1,1.3-0.4c0.3-0.3,0.4-0.6,0.4-1c0-0.2,0-0.4-0.1-0.6
							c-0.1-0.2-0.2-0.3-0.4-0.5c-0.1-0.1-0.3-0.2-0.5-0.3c-0.2-0.1-0.4-0.2-0.7-0.3c-0.2,0.1-0.5,0.2-0.7,0.3
							c-0.2,0.1-0.4,0.2-0.5,0.4c-0.1,0.1-0.3,0.3-0.4,0.5c-0.1,0.2-0.1,0.4-0.1,0.6c0,0.4,0.1,0.8,0.4,1
							C291.8,152.7,292.2,152.8,292.8,152.8z M292.8,146.6c-0.5,0-0.8,0.1-1.1,0.3c-0.2,0.2-0.4,0.5-0.4,0.9c0,0.2,0,0.4,0.1,0.5
							c0.1,0.1,0.2,0.3,0.3,0.4c0.1,0.1,0.3,0.2,0.5,0.3c0.2,0.1,0.3,0.1,0.5,0.2c0.2,0,0.3-0.1,0.5-0.2c0.2-0.1,0.3-0.2,0.5-0.3
							c0.1-0.1,0.2-0.2,0.3-0.4c0.1-0.1,0.1-0.3,0.1-0.5c0-0.4-0.1-0.6-0.4-0.9C293.6,146.7,293.3,146.6,292.8,146.6z"/>
						<path class="st1" d="M301.2,149.6c0,0.6-0.1,1.1-0.2,1.7c-0.1,0.5-0.4,1-0.7,1.4c-0.3,0.4-0.7,0.8-1.2,1
							c-0.5,0.3-1,0.5-1.7,0.5c0-0.1-0.1-0.3-0.1-0.4c0,0,0-0.1,0-0.1c0,0,0-0.1,0-0.1c0.4,0,0.8-0.2,1.2-0.3
							c0.3-0.2,0.6-0.4,0.9-0.6c0.3-0.3,0.5-0.5,0.6-0.9c0.2-0.3,0.3-0.7,0.4-1.1c0-0.1,0-0.1,0-0.2c0-0.1,0-0.1,0-0.2
							c-0.2,0.3-0.4,0.6-0.8,0.8c-0.3,0.2-0.7,0.3-1.2,0.3c-0.3,0-0.5,0-0.8-0.1c-0.3-0.1-0.5-0.2-0.7-0.4c-0.2-0.2-0.4-0.4-0.5-0.7
							c-0.1-0.3-0.2-0.7-0.2-1.1c0-0.4,0.1-0.7,0.2-1c0.1-0.3,0.3-0.6,0.5-0.8c0.2-0.2,0.5-0.4,0.8-0.5c0.3-0.1,0.6-0.2,0.9-0.2
							c0.4,0,0.7,0.1,1,0.2c0.3,0.1,0.6,0.3,0.8,0.5c0.2,0.2,0.4,0.5,0.5,0.9C301.2,148.6,301.2,149.1,301.2,149.6z M298.8,150.8
							c0.2,0,0.4,0,0.6-0.1c0.2-0.1,0.4-0.2,0.5-0.4c0.2-0.2,0.3-0.3,0.4-0.6c0.1-0.2,0.1-0.5,0.1-0.7c0-0.6-0.1-1-0.4-1.3
							c-0.3-0.3-0.7-0.4-1.2-0.4c-0.2,0-0.5,0-0.7,0.1c-0.2,0.1-0.4,0.2-0.5,0.3c-0.2,0.1-0.3,0.3-0.4,0.5c-0.1,0.2-0.1,0.5-0.1,0.7
							c0,0.3,0,0.6,0.1,0.8c0.1,0.2,0.2,0.4,0.3,0.5c0.1,0.1,0.3,0.2,0.5,0.3C298.3,150.8,298.5,150.8,298.8,150.8z"/>
						<path class="st1" d="M302.5,150c0-0.5,0.1-0.9,0.2-1.4c0.1-0.4,0.3-0.8,0.5-1.1c0.2-0.3,0.5-0.5,0.8-0.7
							c0.3-0.2,0.7-0.2,1.1-0.2c0.4,0,0.8,0.1,1.1,0.2c0.3,0.2,0.6,0.4,0.8,0.7c0.2,0.3,0.4,0.7,0.5,1.1c0.1,0.4,0.2,0.9,0.2,1.4
							c0,0.5-0.1,0.9-0.2,1.4c-0.1,0.4-0.3,0.8-0.5,1.1c-0.2,0.3-0.5,0.5-0.8,0.7c-0.3,0.2-0.7,0.2-1.1,0.2c-0.4,0-0.8-0.1-1.1-0.2
							c-0.3-0.2-0.6-0.4-0.8-0.7c-0.2-0.3-0.4-0.7-0.5-1.1C302.6,151,302.5,150.5,302.5,150z M305,147.3c-0.6,0-1,0.2-1.3,0.7
							c-0.3,0.5-0.5,1.1-0.5,2.1c0,0.9,0.2,1.6,0.5,2.1c0.3,0.5,0.7,0.7,1.3,0.7c0.6,0,1-0.2,1.3-0.7c0.3-0.5,0.5-1.1,0.5-2.1
							c0-0.9-0.2-1.6-0.5-2.1C306,147.5,305.6,147.3,305,147.3z"/>
						<path class="st1" d="M312,148.5c-0.1-0.1-0.1-0.1-0.2-0.2c0-0.1-0.1-0.2-0.1-0.3l2.6-1.3h0.1v6h1.5c0,0.1,0,0.1,0,0.1
							c0,0,0,0.1,0,0.1s0,0.1,0,0.2c0,0.1,0,0.1,0,0.2h-3.7c0-0.1,0-0.1,0-0.3c0-0.1,0-0.1,0-0.2c0-0.1,0-0.1,0-0.1h1.6v-5
							L312,148.5z"/>
						<path class="st1" d="M317.4,153.3l-0.1-0.1l2-2.1c0.2-0.2,0.4-0.4,0.6-0.6c0.2-0.2,0.3-0.4,0.5-0.6c0.1-0.2,0.2-0.4,0.3-0.6
							c0.1-0.2,0.1-0.4,0.1-0.6c0-0.4-0.1-0.7-0.4-1c-0.3-0.2-0.6-0.3-1.1-0.3c-0.3,0-0.7,0-0.9,0.1c-0.3,0.1-0.5,0.2-0.7,0.3
							c0-0.1-0.1-0.2-0.1-0.3s-0.1-0.2-0.1-0.3c0.2-0.1,0.4-0.2,0.7-0.3c0.3-0.1,0.7-0.2,1.1-0.2c0.3,0,0.6,0,0.9,0.1
							c0.3,0.1,0.5,0.2,0.7,0.3c0.2,0.2,0.3,0.4,0.4,0.6c0.1,0.2,0.2,0.5,0.2,0.8c0,0.2,0,0.4-0.1,0.6c-0.1,0.2-0.2,0.4-0.3,0.6
							c-0.1,0.2-0.3,0.4-0.5,0.7c-0.2,0.2-0.4,0.5-0.7,0.7l-1.3,1.4h3.1c0,0.1,0,0.1,0,0.2c0,0.1,0,0.1,0,0.2c0,0.1,0,0.1,0,0.2
							c0,0,0,0.1,0,0.1H317.4z"/>
						<path class="st1" d="M325.2,153.4c0.3,0,0.6,0,0.8-0.1c0.3-0.1,0.5-0.2,0.7-0.3c0.2-0.1,0.3-0.3,0.4-0.6
							c0.1-0.2,0.2-0.5,0.2-0.9c0-0.4-0.1-0.8-0.4-1c-0.3-0.2-0.7-0.3-1.2-0.3c-0.1,0-0.3,0-0.4,0c-0.1,0-0.3,0-0.5,0.1l-0.1-0.1
							l1.9-2.9h-2.9c0-0.1,0-0.1,0-0.2c0,0,0-0.1,0-0.2c0-0.1,0-0.1,0-0.2c0-0.1,0-0.1,0-0.2h4l0,0.1l-2,2.9c0,0,0.1,0,0.1,0
							c0,0,0.1,0,0.1,0c0.4,0,0.7,0.1,0.9,0.2c0.3,0.1,0.5,0.3,0.6,0.5c0.2,0.2,0.3,0.4,0.3,0.6c0.1,0.2,0.1,0.4,0.1,0.6
							c0,0.4-0.1,0.8-0.2,1.1c-0.2,0.3-0.4,0.6-0.6,0.8c-0.3,0.2-0.6,0.3-0.9,0.4c-0.3,0.1-0.7,0.1-1.1,0.1c-0.1,0-0.3,0-0.4,0
							c-0.2,0-0.3,0-0.5-0.1c-0.2,0-0.3-0.1-0.5-0.1c-0.1,0-0.3-0.1-0.4-0.1c0.1-0.2,0.2-0.4,0.3-0.6c0.2,0.1,0.4,0.2,0.6,0.2
							C324.6,153.4,324.9,153.4,325.2,153.4z"/>
					</g>
					<g>
						<rect x="243.9" y="173.3" class="st15" width="51.1" height="3.4"/>
						<rect x="243.9" y="179.7" class="st15" width="80.8" height="3.4"/>
						<rect x="243.9" y="186" class="st15" width="18" height="3.4"/>
					</g>
					<path class="st16" d="M368.6,127.7v71.5c0,3.4-2.7,6.1-6.1,6.1h-80.2c-0.7-1.6-1.2-3.2-1.4-4.9c-0.5-4.8,1.2-9.8,4.4-13.5
						c3.7-4.3,9.2-6.6,14.8-7.7c5.6-1.1,11.2-1,16.9-1.1c7.3-0.1,15.3-0.9,20.4-6.2c5.7-6,5.4-15.9,1.6-23.2
						c-3.8-7.4-10.3-12.9-16.3-18.6c-2.6-2.4-5.6-5.3-8.2-8.4h48C365.9,121.5,368.6,124.3,368.6,127.7z"/>
				</g>
				<g>
					<g>
						<path class="st6" d="M360.4,86.5h-11.7c-4.5,0-8.2-3.7-8.2-8.2l0,0c0-4.5,3.7-8.2,8.2-8.2h11.7c4.5,0,8.2,3.7,8.2,8.2l0,0
							C368.6,82.8,364.9,86.5,360.4,86.5z"/>
						<path class="st13" d="M360.7,86.5L360.7,86.5c-4.4,0-7.9-3.5-7.9-7.9V78c0-4.4,3.5-7.9,7.9-7.9h0c4.4,0,7.9,3.5,7.9,7.9v0.6
							C368.6,82.9,365.1,86.5,360.7,86.5z"/>
					</g>
					<g>
						<g>
							<circle class="st9" cx="246.4" cy="85" r="14.4"/>
							<g>
								<path class="st4" d="M246.4,77.1c-2.9,0-5.2,2.3-5.2,5.2c0,0.2,0,0.4,0,0.6c0.1,1.3,0.7,2.4,1.6,3.2
									c0.9,0.9,2.2,1.4,3.6,1.4c1.4,0,2.7-0.5,3.6-1.4c0.9-0.8,1.5-1.9,1.6-3.2c0-0.2,0-0.4,0-0.6
									C251.6,79.4,249.3,77.1,246.4,77.1z"/>
								<path class="st4" d="M253.2,91.9V93h-13.6v-1.1c0-2.2,1-4.1,2.6-5.3c0.9,1.3,2.5,2.2,4.2,2.2c1.7,0,3.3-0.9,4.2-2.2
									C252.2,87.8,253.2,89.7,253.2,91.9z"/>
							</g>
						</g>
						<g>
							<rect x="264.8" y="80" class="st6" width="27.3" height="3.4"/>
							<rect x="264.8" y="86.7" class="st6" width="50.9" height="3.4"/>
						</g>
					</g>
				</g>
			</g>
			<g class="st0">
				<linearGradient id="SVGID_1_" gradientUnits="userSpaceOnUse" x1="221.435" y1="115.4148" x2="379.195" y2="115.4148">
					<stop  offset="0" style="stop-color:#FFFFFF"/>
					<stop  offset="1" style="stop-color:#000000"/>
				</linearGradient>
				<path class="st17" d="M379.2,153.4v51.9L221.4,47.5v-4.1c0-9.8,8-17.8,17.8-17.8h12.2L379.2,153.4z"/>
				<linearGradient id="SVGID_2_" gradientUnits="userSpaceOnUse" x1="221.435" y1="204.4247" x2="379.195" y2="204.4247">
					<stop  offset="0" style="stop-color:#FFFFFF"/>
					<stop  offset="1" style="stop-color:#000000"/>
				</linearGradient>
				<polygon class="st18" points="379.2,257.4 379.2,309.2 221.4,151.5 221.4,99.6 				"/>
				<linearGradient id="SVGID_3_" gradientUnits="userSpaceOnUse" x1="221.435" y1="265.0347" x2="371.845" y2="265.0347">
					<stop  offset="0" style="stop-color:#FFFFFF"/>
					<stop  offset="1" style="stop-color:#000000"/>
				</linearGradient>
				<path class="st19" d="M371.8,338.6c-2.9,2.1-6.5,3.4-10.4,3.4h-26.9L221.4,228.8v-40.7L371.8,338.6z"/>
				<linearGradient id="SVGID_4_" gradientUnits="userSpaceOnUse" x1="213.8842" y1="23.0856" x2="247.6867" y2="35.6362">
					<stop  offset="0" style="stop-color:#FFFFFF"/>
					<stop  offset="1" style="stop-color:#000000"/>
				</linearGradient>
				<path class="st20" d="M235.3,9.4l16.2,16.2h-12.2c-9.8,0-17.8,7.9-17.8,17.8v4.1l-12.1-12.1L235.3,9.4z"/>
				<linearGradient id="SVGID_5_" gradientUnits="userSpaceOnUse" x1="298.3549" y1="69.0848" x2="379.195" y2="69.0848">
					<stop  offset="0" style="stop-color:#FFFFFF"/>
					<stop  offset="1" style="stop-color:#000000"/>
				</linearGradient>
				<path class="st21" d="M379.2,71.9v40.7l-80.8-80.8h22.4c2.8,0,5-2.3,5-5.1c0-0.4,0-0.7-0.1-1.1h7.2L379.2,71.9z"/>
			</g>
		</g>
	</g>
	<g class="st0">
		<g class="st3">
			<circle class="st22" cx="404.9" cy="56.2" r="18.9"/>
		</g>
		<g class="st3">
			<path class="st4" d="M402.6,66.9c-0.3,0-0.6-0.1-0.9-0.3l-7.6-5.3c-0.7-0.5-0.9-1.4-0.4-2.1c0.5-0.7,1.4-0.9,2.1-0.4l6.3,4.4
				l11.3-16.9c0.5-0.7,1.4-0.9,2.1-0.4c0.7,0.5,0.9,1.4,0.4,2.1l-12.2,18.2c-0.2,0.3-0.6,0.6-1,0.7
				C402.8,66.8,402.7,66.9,402.6,66.9z"/>
		</g>
	</g>
	<g>
		<g>
			<g>
				<g>
					<path class="st23" d="M60,350.1c-5.2-4.1-8-13.1-8-13.1l-0.6-0.9l0,0l0.5,0.5l5.4-5.4c-3.2-3.6-6.2-7.4-9.2-11
						c-2.9,4.1-4.8,6.8-5.2,7.4c0,0,0,0,0,0c-1.8,0.9-3.2,2.5-3.7,3.3c-0.4,0.7-0.2,1.6,0.5,2.3l18.8,18.3c0.2,0.2,0.5,0.3,0.8,0.3
						c0.9,0,1.1-0.5,1.2-0.9C60.5,350.7,60.3,350.4,60,350.1z"/>
					<path class="st24" d="M38.3,332.9c-0.3-0.3-0.3-0.8-0.2-1.3c0.1-0.4,0.3-0.8,0.6-1.2c1-1.3,2.3-2.4,3.8-3.1
						c1.5,0.9,2.1,2.7,3.3,3.9c0.8,0.8,1.9,1.2,3,1.6c1.1,0.4,2.1,0.9,2.9,1.8c0.7,0.9,1.1,2.2,0.5,3.1c1.9,3.1,4.1,6.1,6.7,8.6
						c0.8,0.8,1.7,1.6,2.1,2.7c0.3,1,0.1,2.2-0.6,3c-0.3,0.4-0.9,0.5-1.2,0.1L38.3,332.9z"/>
				</g>
				<g>
					<path class="st9" d="M92.4,228.1c0,0,8,52,7,56.8s-46,52-46,52s-10-10.8-10.2-11.8s31.2-43.5,31.2-43.5l-20.2-51L92.4,228.1z"
						/>
					<g>
						<path class="st4" d="M92.4,284.9c0,0-0.1,0-0.1,0c-0.1,0-0.2-0.1-0.2-0.3s0.1-0.2,0.3-0.2c1.2,0.1,2.4-0.5,3.1-1.4
							c0.1-0.1,0.2-0.1,0.4,0c0.1,0.1,0.1,0.2,0,0.4C95,284.3,93.7,284.9,92.4,284.9z"/>
					</g>
				</g>
			</g>
			<g>
				<g>
					<path class="st23" d="M57.7,349.6h29.1c-0.2-0.1-0.5-0.2-0.8-0.1c-6.6,0.7-14.9-3.8-14.9-3.8l-1.1-0.2h0.8l0.1-6.9
						c-4.6,0.2-9.3,0.2-13.9,0.2c0.6,3.6,0.9,6,1,6.5C57.5,346.9,57.5,348.6,57.7,349.6z"/>
					<path class="st24" d="M58.7,351.5c-0.4-0.1-0.8-0.4-1-0.8c-0.2-0.4-0.3-0.8-0.4-1.3c-0.2-1.6,0.1-3.3,0.7-4.8
						c1.7-0.3,3.4,0.6,5.1,0.6c1.1,0,2.2-0.4,3.3-0.8c1.1-0.4,2.2-0.8,3.3-0.6c1.1,0.1,2.3,0.9,2.5,2c3.5,1,7.1,1.7,10.8,1.8
						c1.1,0,2.4,0,3.4,0.6c0.9,0.5,1.5,1.6,1.6,2.6c0,0.5-0.3,0.9-0.8,0.9L58.7,351.5z"/>
				</g>
				<g>
					<path class="st9" d="M47.4,213.4c0,0-5,15.8-4.2,30.2s14,100.5,14,100.5s11.5,1,15.5,0l1.5-102.8c0,0,16-7.2,18-10
						s-1.8-18.5-1.8-18.5L47.4,213.4z"/>
					<g>
						<path class="st4" d="M73.1,315.1c0-5.4-0.1-10.8-0.1-16.2c0-5.4,0-10.8,0.1-16.2l0-0.1l0.1-0.1l0.8-1.2l-0.1,0.4l-0.8-2l0-0.1
							l0-0.1l0.1-9.6l0.2-9.6c0.1-6.4,0.2-12.7,0.4-19.1l0-0.2l0.2-0.1c3.3-1.5,6.6-3,9.9-4.6c1.6-0.8,3.2-1.6,4.8-2.6
							c0.8-0.5,1.6-0.9,2.3-1.5c0.7-0.5,1.5-1.1,1.6-2.1c-0.1,0.9-0.8,1.6-1.5,2.2c-0.7,0.6-1.5,1.1-2.2,1.6c-1.5,1-3.1,1.9-4.7,2.7
							c-3.2,1.7-6.5,3.3-9.8,4.9l0.2-0.3c0,6.4-0.1,12.7-0.2,19.1l-0.1,9.6l-0.2,9.6l0-0.2l0.8,2l0.1,0.2l-0.1,0.2l-0.9,1.1l0.1-0.3
							c-0.1,5.4-0.3,10.8-0.4,16.2C73.5,304.4,73.3,309.8,73.1,315.1z"/>
						<g>
							<path class="st4" d="M60.4,343.9c-0.1,0-0.2-0.1-0.2-0.2c-0.1-0.9-11.3-89.9-11.8-100c-0.5-10.2,4.5-24.9,4.5-25.1
								c0-0.1,0.2-0.2,0.3-0.2c0.1,0,0.2,0.2,0.2,0.3c0,0.1-5,14.8-4.5,24.9c0.5,10.1,11.6,99.1,11.7,100
								C60.7,343.7,60.6,343.9,60.4,343.9C60.4,343.9,60.4,343.9,60.4,343.9z"/>
						</g>
						<g>
							<path class="st4" d="M62.4,287.4c-0.1,0-0.2-0.1-0.2-0.2c-0.1-0.1,0-0.3,0.1-0.3c1.2-0.5,2.3-1.4,3.1-2.5
								c0.1-0.1,0.2-0.1,0.3-0.1c0.1,0.1,0.1,0.2,0.1,0.3C65,286,63.8,286.9,62.4,287.4C62.5,287.4,62.5,287.4,62.4,287.4z"/>
						</g>
					</g>
				</g>
			</g>
		</g>
		<g>
			<g>
				<path class="st25" d="M109.3,218.4c-0.3-0.5-3.4-1.3-4.1-1.8s4.2-1.8,2.7-2.7c-1.3-0.7-5.5,0.7-6.6,1.1c-0.7-0.3-2.4-1-4.1-2.1
					c-0.7,2-1.3,4-1.9,6c-0.1,0.4-0.2,0.9-0.4,1.3c1.2,0.1,3.1,0.3,4.4,0.4c0.5,0.7,2.7,3.5,4,3.6c1.4,0.1,2.1-0.7,2.1-0.7
					c1.6-0.3,1.7-1.8,1.7-1.8c1.6-0.5,0.8-2,0.8-2S109.5,218.9,109.3,218.4z"/>
				<path class="st4" d="M99.7,214c0,0-1.7,7-2.2,7.7s-29.7-6.8-34.3-12.7c-4.7-5.8,13.5-43.7,18.8-43c5.3,0.7,7.2,6.5,7.2,11
					s-8.5,24.5-8.5,24.5L99.7,214z"/>
			</g>
			<g>
				<g>
					<path class="st23" d="M62.8,163.9c2.2-5.6,0.3-17.4,0-18.9c0-0.1,0-0.1,0-0.1l15.1,8.5c-0.3,0.4-0.4,1-0.5,1.7v0
						c-0.1,1.3,0.1,3.1,0.3,4.6c0.4,2.3,1,4.2,1,4.2H62.8z"/>
					<path class="st9" d="M77.8,159.7c-8.2,1-12.4-8.8-12.5-9.1c1.5,2.4,3.7,3.6,5.9,4.2c2.6,0.7,5.2,0.5,6.3,0.3c0,0,0,0,0.1,0
						C77.4,156.4,77.6,158.1,77.8,159.7z"/>
				</g>
				<g>
					<g>
						<path class="st4" d="M60.9,161.6c0,0,2.4-1.1,2.7-2.7l8.4,3.9l6.1-2.9c0,0,0.8,1.8,1.4,2.2c0,0-4.2,21.8-5.1,22.1
							S61.4,164.1,60.9,161.6z"/>
						<path class="st26" d="M63.3,159.1c0.2-0.3,0.6-0.4,1-0.3c1.9,1,7.6,3.8,7.7,4c0.1,0.2,0.3,4-0.4,4.8s-9.7-6.8-9.7-6.8
							S62.8,159.8,63.3,159.1z"/>
						<path class="st4" d="M72,162.8c0,0,0.9,4.5,1.6,4.7s5.3-6.4,5.3-6.4l-0.7-1c-0.1-0.2-0.4-0.3-0.6-0.2L72,162.8z"/>
						<line class="st7" x1="72.4" y1="167.1" x2="73.8" y2="180.5"/>
					</g>
					<g>
						<path class="st24" d="M61.7,161.1c0,0,10.9,17,12.4,21l5-20.8c0,0,3.5,2.8,6.7,4.8c2.7,1.7,4.5,4.6,4.8,7.8
							c0.2,1.7,0.2,3.8,0.1,6.3c-0.5,9.1,0.8,34.4,0.8,34.4s-17.1,3.6-44.4,0c0,0-1.5-28.4-2-33.9s-0.9-13.4,3.1-15.4
							S60.9,161.4,61.7,161.1z"/>
						<g>
							<path class="st7" d="M72.4,197.9c4.3-4,7.8-8.9,10.3-14.2"/>
							<path class="st7" d="M82.8,187.6c-1.1,6.5-3.8,12.6-7.9,17.8"/>
							<path class="st7" d="M60.4,162.4c0,0,12.1,20.2,13.7,21.1s6-20.6,6-20.6"/>
						</g>
					</g>
				</g>
			</g>
			<g>
				<g>
					<path class="st9" d="M172.4,344.8c0,3.6-2.9,6.4-6.4,6.4c-3.6,0-6.4-2.9-6.4-6.4c0-3.6,2.9-6.4,6.4-6.4
						C169.5,338.4,172.4,341.2,172.4,344.8z"/>
					<path class="st9" d="M156.8,333.4c0,0,5.9,9.3,8.8,8.9c2.9-0.4,9.8-8.9,9.8-8.9H156.8z"/>
				</g>
				<g>
					<path class="st9" d="M203.4,344.8c0,3.6-2.9,6.4-6.4,6.4c-3.6,0-6.4-2.9-6.4-6.4c0-3.6,2.9-6.4,6.4-6.4
						C200.5,338.4,203.4,341.2,203.4,344.8z"/>
					<path class="st9" d="M187.8,333.4c0,0,5.9,9.3,8.8,8.9c2.9-0.4,9.8-8.9,9.8-8.9H187.8z"/>
				</g>
				<g>
					<path class="st9" d="M159.9,344.8c0,3.6-2.9,6.4-6.4,6.4c-3.6,0-6.4-2.9-6.4-6.4c0-3.6,2.9-6.4,6.4-6.4
						C157,338.4,159.9,341.2,159.9,344.8z"/>
					<path class="st9" d="M144.3,333.4c0,0,5.9,9.3,8.8,8.9c2.9-0.4,9.8-8.9,9.8-8.9H144.3z"/>
				</g>
				<g>
					<path class="st9" d="M216.7,344.8c0,3.6-2.9,6.4-6.4,6.4c-3.6,0-6.4-2.9-6.4-6.4c0-3.6,2.9-6.4,6.4-6.4
						C213.9,338.4,216.7,341.2,216.7,344.8z"/>
					<path class="st9" d="M201.1,333.4c0,0,5.9,9.3,8.8,8.9c2.9-0.4,9.8-8.9,9.8-8.9H201.1z"/>
				</g>
				<g>
					<g>
						<path class="st9" d="M137.2,304.2c-1.4,0-2.8-0.9-3.3-2.2l-24.1-60.1c-0.5-1.2-0.3-2.4,0.4-3.4c0.7-1,1.9-1.5,3.1-1.5
							l108.8,8.1c1.9,0.1,3.3,1.7,3.3,3.6v40.8c0,1.8-1.3,3.3-3.1,3.5l0,0l-84.7,11.2C137.5,304.2,137.3,304.2,137.2,304.2z
							 M113.1,239.1c-0.5,0-0.9,0.2-1.1,0.6c-0.3,0.4-0.4,0.9-0.2,1.4l24.1,60.1c0.2,0.6,0.9,1,1.5,0.9l84.7-11.2
							c0.7-0.1,1.2-0.7,1.2-1.4v-40.8c0-0.7-0.6-1.4-1.3-1.4l-108.8-8.1C113.2,239.1,113.1,239.1,113.1,239.1z M222.2,291.9
							L222.2,291.9L222.2,291.9z"/>
					</g>
				</g>
				<g>
					<g>
						<path class="st9" d="M213,334.3h-68.5c-3,0-5.8-1.4-7.6-3.8c-1.8-2.4-2.4-5.4-1.6-8.3l5.4-19.9c0.2-0.6,0.7-0.9,1.3-0.8
							c0.6,0.2,0.9,0.7,0.8,1.3l-5.4,19.9c-0.6,2.2-0.2,4.6,1.2,6.4c1.4,1.8,3.6,2.9,5.9,2.9H213c0.6,0,1.1,0.5,1.1,1.1
							C214.1,333.9,213.6,334.3,213,334.3z"/>
					</g>
				</g>
				<g>
					<g>
						<path class="st9" d="M220.2,334.3h-68.5c-3,0-5.8-1.4-7.6-3.8c-1.8-2.4-2.4-5.4-1.6-8.3l5.5-20.2c0.2-0.6,0.7-0.9,1.3-0.7
							c0.6,0.2,0.9,0.7,0.7,1.3l-5.5,20.2c-0.6,2.2-0.2,4.6,1.3,6.4c1.4,1.8,3.6,2.9,5.9,2.9h68.5c0.6,0,1.1,0.5,1.1,1.1
							C221.2,333.9,220.7,334.3,220.2,334.3z"/>
					</g>
				</g>
				<g>
					<g>
						<path class="st9" d="M121,239.4c-0.4,0-0.9-0.3-1-0.7l-4.9-15c-0.6-2-2.3-3.4-4.3-3.8l-13.6-2.7c-0.6-0.1-1-0.7-0.8-1.3
							c0.1-0.6,0.7-1,1.3-0.8l13.6,2.7c2.8,0.5,5.1,2.6,5.9,5.2l4.9,15c0.2,0.6-0.1,1.2-0.7,1.3C121.3,239.4,121.1,239.4,121,239.4z
							"/>
					</g>
				</g>
				<g>
					<g>
						<path class="st9" d="M111.2,243.5c-0.4,0-0.9-0.3-1-0.7l-6.4-19.1c-0.6-2-2.3-3.4-4.3-3.8l-13.6-2.7c-0.6-0.1-1-0.7-0.8-1.3
							c0.1-0.6,0.7-1,1.3-0.8l13.6,2.7c2.8,0.5,5.1,2.6,5.9,5.2l6.4,19.1c0.2,0.6-0.1,1.2-0.7,1.4
							C111.5,243.5,111.4,243.5,111.2,243.5z"/>
					</g>
				</g>
				<g>
					<g>
						<path class="st9" d="M224.3,260.4H118.6c-0.6,0-1.1-0.5-1.1-1.1s0.5-1.1,1.1-1.1h105.6c0.6,0,1.1,0.5,1.1,1.1
							S224.8,260.4,224.3,260.4z"/>
					</g>
				</g>
				<g>
					<g>
						<path class="st9" d="M129.5,288.5c-0.5,0-1-0.4-1.1-1c-0.1-0.6,0.4-1.1,1-1.2l94.8-9.2c0.6,0,1.1,0.4,1.2,1
							c0.1,0.6-0.4,1.1-1,1.2l-94.8,9.2C129.6,288.5,129.5,288.5,129.5,288.5z"/>
					</g>
				</g>
				<g>
					<g>
						<g>
							<path class="st9" d="M145,303c-0.4,0-0.8-0.3-1-0.7l-23.9-63.6c-0.2-0.6,0.1-1.2,0.6-1.4c0.6-0.2,1.2,0.1,1.4,0.6l23.9,63.6
								c0.2,0.6-0.1,1.2-0.6,1.4C145.3,303,145.2,303,145,303z"/>
						</g>
						<g>
							<path class="st9" d="M155.1,301.6c-0.5,0-0.9-0.3-1-0.8l-16.2-60.4c-0.2-0.6,0.2-1.2,0.8-1.3c0.6-0.2,1.2,0.2,1.3,0.8
								l16.2,60.4c0.2,0.6-0.2,1.2-0.8,1.3C155.3,301.6,155.2,301.6,155.1,301.6z"/>
						</g>
						<g>
							<path class="st9" d="M163.9,300.3c-0.5,0-1-0.4-1.1-1l-6.1-57.6c-0.1-0.6,0.4-1.1,1-1.2c0.6-0.1,1.1,0.4,1.2,1l6.1,57.6
								c0.1,0.6-0.4,1.1-1,1.2C164,300.3,164,300.3,163.9,300.3z"/>
						</g>
						<g>
							<path class="st9" d="M175.8,298.9c-0.6,0-1-0.5-1.1-1l-2.2-55.1c0-0.6,0.4-1.1,1-1.1c0.6,0,1.1,0.4,1.1,1l2.2,55.1
								C176.9,298.4,176.5,298.9,175.8,298.9C175.8,298.9,175.8,298.9,175.8,298.9z"/>
						</g>
						<g>
							<path class="st9" d="M187.2,297.4C187.2,297.4,187.1,297.4,187.2,297.4c-0.6,0-1.1-0.5-1.1-1.1l2.8-52.2c0-0.6,0.5-1,1.1-1
								c0.6,0,1,0.5,1,1.1l-2.8,52.2C188.2,296.9,187.7,297.4,187.2,297.4z"/>
						</g>
						<g>
							<path class="st9" d="M199.7,295.7c0,0-0.1,0-0.1,0c-0.6-0.1-1-0.6-0.9-1.2l5.5-49.5c0.1-0.6,0.6-1,1.2-0.9
								c0.6,0.1,1,0.6,0.9,1.2l-5.5,49.5C200.7,295.3,200.2,295.7,199.7,295.7z"/>
						</g>
						<g>
							<path class="st9" d="M213.3,294C213.3,294,213.3,294,213.3,294c-0.6,0-1.1-0.5-1.1-1.1c0-0.4,3.4-25.6,6.2-46.7
								c0.1-0.6,0.6-1,1.2-0.9c0.6,0.1,1,0.6,0.9,1.2c-2.1,15.7-6.1,45.6-6.2,46.5C214.3,293.5,213.9,294,213.3,294z"/>
						</g>
					</g>
				</g>
			</g>
			<g>
				<path class="st25" d="M101.3,217.5c-0.3-0.5-3.5-0.8-4.3-1.3c-0.8-0.5,4-2.3,2.4-3c-1.6-0.7-6.7,2-6.7,2l-0.1,0
					c-0.1,0-0.4-0.1-0.8-0.3l-0.1-0.1l0,0.1c-0.4-0.1-0.8-0.3-1.4-0.6c-0.4,2.3-0.7,4.5-1,6.8c0.7-0.1,1.5-0.2,2.2-0.3
					c0.2,0.2,3.1,3.3,4.5,3.2c1.4-0.1,2-1,2-1c1.5-0.5,1.5-2,1.5-2c1.5-0.7,0.5-2.1,0.5-2.1S101.6,218,101.3,217.5z"/>
				<g>
					<path class="st4" d="M62,173.2l1.1,29.5l28.7,11.8c0,0,0.2,5.8-0.7,7c-0.8,1.2-35.2-1-42.8-6.8c-7.7-5.8-5.4-43.9-1.6-46.8
						c3.3-2.5,10-5.3,13.8,0.1C61.4,169.5,61.9,171.3,62,173.2z"/>
					<g>
						<path class="st7" d="M49.4,210.9c0.4,0.3,0.8,0.7,1.2,1"/>
						<line class="st7" x1="59.9" y1="201.4" x2="91.7" y2="214.5"/>
						<line class="st7" x1="60.9" y1="198.8" x2="63.1" y2="202.6"/>
					</g>
				</g>
			</g>
		</g>
		<g>
			<g>
				<g>
					<path class="st25" d="M83.3,128.3c-2-5.1-11.3-7-17.8-1.4c-3,2.6-3.6,7.4-3.5,11.7c-0.2-0.1-0.3-0.1-0.4-0.2
						c-1.3-0.3-2.6,0.7-3,1.9c-0.3,1-0.1,2.1,0.5,3c0.5,0.7,1.2,1.4,2,1.7c0.2,0.1,1.1,0.2,1.8,0.2c0.6,2.9,2.1,5.5,4.3,7.4
						c2.8,2.4,6.5,3.3,10.1,2.5c2.8-0.6,7-2.4,8-5.3c0.3-0.8,0.3-1.6,0.3-2.4C85.7,141.3,85.6,134.1,83.3,128.3z"/>
					<g>
						<g>
							<g>
								<path class="st9" d="M80.9,138.5c0,0.9,0.4,1.7,0.8,1.7c0.5,0,0.8-0.8,0.8-1.7c0-0.9-0.4-1.7-0.8-1.7
									C81.3,136.8,80.9,137.5,80.9,138.5z"/>
							</g>
							<g>
								<ellipse class="st9" cx="74.5" cy="138.5" rx="0.8" ry="1.7"/>
							</g>
						</g>
						<g>
							<path class="st9" d="M81.2,143.6c-0.3,0.6-0.7,1-1.3,1.4c-0.5,0.4-1.2,0.6-1.9,0.6c-0.7,0-1.3-0.2-1.9-0.6
								c-0.3-0.2-0.5-0.4-0.7-0.6c-0.2-0.3-0.4-0.5-0.6-0.8c0.3,0.2,0.5,0.4,0.7,0.6c0.3,0.2,0.5,0.4,0.8,0.5
								c0.5,0.3,1.1,0.5,1.6,0.5c0.6,0,1.1-0.2,1.7-0.4C80.3,144.4,80.8,144.1,81.2,143.6z"/>
							<path class="st9" d="M79,146.6c-0.2,0.2-0.6,0.3-0.9,0.3c-0.3,0-0.6-0.1-0.9-0.3c0.3,0,0.6,0.1,0.9,0.1
								C78.4,146.8,78.7,146.7,79,146.6z"/>
						</g>
						<g>
							<path class="st9" d="M76,132.6c-0.4-0.3-0.8-0.5-1.3-0.5c-0.5,0-0.9,0-1.4,0.2c-0.4,0.1-0.9,0.4-1.2,0.7
								c-0.4,0.3-0.6,0.7-0.8,1.1c-0.1,0.2,0,0.4,0.2,0.5c0.2,0.1,0.3,0.1,0.5-0.1l0,0c0.3-0.2,0.5-0.5,0.8-0.7
								c0.3-0.2,0.6-0.3,0.9-0.4c0.3-0.1,0.6-0.1,1-0.1c0.3,0,0.7,0,1.1-0.1l0.1,0c0.2-0.1,0.4-0.3,0.3-0.5
								C76.1,132.7,76.1,132.6,76,132.6z"/>
							<path class="st9" d="M80.2,132.6c0.4-0.3,0.8-0.5,1.3-0.5c0.5,0,0.9,0,1.4,0.2c0.4,0.1,0.9,0.4,1.2,0.7
								c0.4,0.3,0.6,0.7,0.8,1.1c0.1,0.2,0,0.4-0.2,0.5c-0.2,0.1-0.3,0.1-0.5-0.1l0,0c-0.3-0.2-0.5-0.5-0.8-0.7
								c-0.3-0.2-0.6-0.3-0.9-0.4c-0.3-0.1-0.6-0.1-1-0.1c-0.3,0-0.7,0-1.1-0.1l-0.1,0c-0.2-0.1-0.4-0.3-0.3-0.5
								C80.1,132.7,80.1,132.6,80.2,132.6z"/>
						</g>
						<path class="st9" d="M79.8,135.7c0.1,0.6,0.3,1.3,0.4,1.9c0.1,0.6,0.2,1.3,0.4,1.9c0,0.1,0.1,0.3,0.1,0.4
							c0,0.1,0.1,0.3,0.1,0.6c0,0.4-0.3,0.8-0.6,1c-0.4,0.2-0.8,0.2-1.1,0.1c-0.3-0.1-0.6-0.3-0.9-0.5c0.6,0.2,1.3,0.4,1.7,0.1
							c0.2-0.2,0.3-0.4,0.3-0.6c0-0.1,0-0.2-0.1-0.4c-0.1-0.2-0.1-0.3-0.2-0.5c-0.2-0.6-0.3-1.3-0.3-2
							C79.7,137,79.7,136.4,79.8,135.7z"/>
						<path class="st9" d="M59.6,141.1c0-0.4,0.1-0.8,0.4-1.1c0.4-0.3,0.9-0.3,1.3-0.1c0.4,0.1,0.8,0.4,1,0.8
							c0.3,0.3,0.5,0.7,0.6,1.1c0.1,0.1,0,0.3-0.2,0.4c-0.1,0-0.2,0-0.3-0.1l0,0c-0.3-0.3-0.6-0.6-1-0.7c-0.2,0-0.3,0-0.4,0
							c-0.1,0.1-0.2,0.3-0.3,0.4c-0.1,0.4-0.2,0.8,0.1,1c0.3,0.2,0.8,0.1,1.3,0.1c-0.4,0.2-0.9,0.3-1.4,0.2
							c-0.3-0.1-0.5-0.4-0.5-0.7c0-0.3,0-0.5,0.1-0.8c0.1-0.2,0.2-0.5,0.4-0.7c0.2-0.2,0.6-0.3,0.9-0.2c0.5,0.2,0.9,0.5,1.2,0.8
							l-0.5,0.3c-0.3-0.7-0.7-1.3-1.3-1.6c-0.3-0.1-0.7-0.2-1-0.1C59.9,140.3,59.7,140.7,59.6,141.1z"/>
					</g>
				</g>
				<path class="st9" d="M74.2,143.7c0,0,4.2-5,9.8,0C84,143.7,78.7,146.5,74.2,143.7z"/>
			</g>
			<g>
				<path class="st9" d="M67.8,133.9c-0.4-4.2-4.3-4.3-4.3-4.3c-1.8-0.3-3.6,0.1-4.5,1.7c-1.6,2.8-0.9,7.2-0.4,9.4
					c0-0.1,0.1-0.3,0.1-0.4c0.4-1.2,1.7-2.2,3.1-1.9c0.1,0,0.2,0.1,0.4,0.2c0,0,0,0,0,0c0.9,0.4,2,1.1,3.1,2.5
					C65.2,141,68.2,138.1,67.8,133.9z"/>
				<path class="st9" d="M85.6,141.4c-0.1-4-0.6-8-1.8-11.6c1.1,0.3,3.1,1,3.5,2.7C87.9,134.5,86.2,139.5,85.6,141.4z"/>
			</g>
		</g>
	</g>
	<g>
		<g>
			<g>
				<g>
					<path class="st25" d="M433.2,341.3l-5.3-58.9l4.8-12c-4.4-0.7-8.9-1.4-13.3-2.1c-2.4-0.4-4.9-0.6-7.4-0.9c-0.8,3-1.6,6-2.5,9.1
						c-0.9,3.3-1,6.8-0.3,10.2c2,9.4,4.1,18.8,6,27.2c3.4,14.9,6.2,26.5,6.8,28.9c-0.9,0.7-8.3,6.4-14.5,6.3c-0.4,0-0.7,0.2-0.9,0.5
						c-0.3,0.4-0.4,1.1,0.3,1.8c0.2,0.2,0.5,0.3,0.8,0.3l26.1-2.7c1-0.1,1.7-0.9,1.8-1.9C435.6,346,434.2,343.6,433.2,341.3
						L433.2,341.3z"/>
					<path class="st7" d="M410.7,283.1c0.5,0.8,0.9,1.6,1.4,2.5"/>
				</g>
				<path class="st9" d="M434.6,343.8c0,0,2.3,4.4,0.4,7.1c-1.7,2.3-22.3,1.3-27.7,1c-0.9-0.1-1.7-0.6-2-1.5
					c-0.4-1.2-0.5-2.8,1.9-3.2c3.9-0.6,4.9-0.4,8.1-0.1c0,0-3.8,1.4-2.9,2.2c1.7,1.2,15.5-1.3,19.2-4.7
					C435.2,341.3,434.6,343.8,434.6,343.8z"/>
			</g>
			<g>
				<g>
					<path class="st25" d="M465.8,275.7c-6.8-1-13.5-2.2-20.2-3.3l0.2,71.2c-0.2,0.1-8.3,5.7-14.8,4.8c-0.4,0-0.7,0.1-1,0.4
						c-0.3,0.4-0.5,1.1,0.1,1.9c0.2,0.2,0.5,0.4,0.8,0.4h26.2c1,0,1.8-0.7,2-1.7c0.2-1.2,0.3-3.8-0.4-6.2
						C459.1,340.6,463,305.6,465.8,275.7z"/>
					<path class="st7" d="M447.1,288.9c-0.1,0.4,0.1,0.8,0.3,1.2"/>
				</g>
				<path class="st9" d="M459.1,343.8c0,0,2.2,4.4,0.3,7.1c-1.7,2.3-22.3,1-27.7,0.7c-0.9-0.1-1.7-0.6-2-1.5
					c-0.4-1.2-0.5-2.8,1.9-3.2c3.9-0.6,4.9-0.4,8.1,0c0,0-3.8,1.4-2.9,2.1c1.6,1.3,15.5-1.1,19.2-4.4
					C459.7,341.3,459.1,343.8,459.1,343.8z"/>
			</g>
		</g>
		<g>
			<g>
				<g>
					<g>
						<path class="st25" d="M432.7,192.4c-3.1-4.5-6.3-8.1-10.1-12.2c-1.1,2.4-2.4,5.2-4,8.4c-5.5-9.3-10.2-17.4-12.2-20.8
							c-0.6-1.1-1-1.8-1-1.8l-5.3,1.5c0,0.3,0,0.5,0.1,0.8c1.3,12.7,5.7,24.9,10.9,35.4c0,0.1,0.1,0.1,0.1,0.2
							c3.3,6.7,12.9,6.7,16.3,0.1c0-0.1,0.1-0.2,0.1-0.3c2-4,3.7-7.7,5.2-11.1C432.8,192.5,432.8,192.4,432.7,192.4z"/>
						<path class="st25" d="M405.1,162.1c-0.1,0.3-0.3,0.6-0.5,0.7c-0.8,0.3-2.9-7.1-4.1-7c-0.4,0,1,5.4,1,5.4s-2.6-5.5-3.1-4.9
							c-0.5,0.6,1.1,5.6,1.1,5.6s-3.2-5.1-3.5-4.3c-0.3,0.8,1.6,5.1,1.6,5.1c-1.4-1.7-2.2-2.3-2.6-2.4c-0.2-0.1-0.4,0.1-0.3,0.3
							c1.1,3.1,7.4,9.4,7.4,9.4l3.9-0.5c0.6-1.4,0.9-2.8,1-4C406.2,164.5,405.5,163.4,405.1,162.1z"/>
					</g>
					<g>
						<path class="st7" d="M406.5,167.7c0,0,16.4,26.6,17,30.8"/>
						<line class="st7" x1="418.9" y1="188.8" x2="422.4" y2="192.7"/>
					</g>
				</g>
				<g>
					<g>
						<g>
							<path class="st27" d="M396,162.6l7.2,0.2c0.3,0,0.6-0.3,0.6-0.6l0.4-12.5c0-0.3-0.3-0.6-0.6-0.6l-7.2-0.2
								c-0.3,0-0.6,0.3-0.6,0.6l-0.4,12.5C395.4,162.3,395.7,162.6,396,162.6z"/>
							<g>
								<polygon class="st9" points="403,151.7 402.9,152.7 402.2,152.7 402.3,151.7 402.6,151.5 								"/>
								<path class="st9" d="M402.2,150.6l0.4,0.3l0,0.5l-0.4,0.3l0,1l-0.1,0c-0.1,0-0.1-0.1-0.1-0.1l0.1-2.3c0-0.1,0.1-0.1,0.1-0.1
									l0.1,0L402.2,150.6z"/>
								<path class="st9" d="M403.1,151.6l-0.4-0.2l0-0.5l0.4-0.2l0-0.5l0.1,0c0.1,0,0.1,0.1,0.1,0.1l-0.1,2.3
									c0,0.1-0.1,0.1-0.1,0.1l-0.1,0L403.1,151.6z"/>
								<polygon class="st9" points="402.3,150.5 402.3,150.1 402.6,150.1 402.6,150.7 								"/>
								<polygon class="st9" points="402.7,150.7 402.7,150.1 403,150.1 403,150.6 								"/>
							</g>
							<g>
								
									<rect x="397.1" y="152.5" transform="matrix(-3.244776e-02 0.9995 -0.9995 -3.244776e-02 565.333 -241.8384)" class="st28" width="5.2" height="0.3"/>
								
									<rect x="396.2" y="154.1" transform="matrix(-3.244168e-02 0.9995 -0.9995 -3.244168e-02 567.4583 -240.8616)" class="st28" width="8.2" height="0.3"/>
								
									<rect x="400.1" y="150.9" transform="matrix(-3.244508e-02 0.9995 -0.9995 -3.244508e-02 565.0822 -244.8495)" class="st28" width="1.8" height="0.3"/>
							</g>
						</g>
						<g>
							<path class="st13" d="M396.6,165.5l6.8-2.5c0.3-0.1,0.5-0.5,0.4-0.8l-4.4-11.8c-0.1-0.3-0.5-0.5-0.8-0.4l-6.8,2.5
								c-0.3,0.1-0.5,0.5-0.4,0.8l4.4,11.8C396,165.4,396.3,165.6,396.6,165.5z"/>
							<g>
								
									<rect x="393.7" y="154.7" transform="matrix(0.3474 0.9377 -0.9377 0.3474 403.9082 -270.5527)" class="st29" width="5.2" height="0.3"/>
								
									<rect x="393.4" y="155.9" transform="matrix(0.3474 0.9377 -0.9377 0.3474 405.7478 -270.831)" class="st29" width="8.2" height="0.3"/>
								
									<rect x="396" y="152.7" transform="matrix(0.3473 0.9377 -0.9377 0.3473 402.436 -272.4449)" class="st29" width="1.8" height="0.3"/>
							</g>
							
								<rect x="399.4" y="149.9" transform="matrix(0.9377 -0.3473 0.3473 0.9377 -29.5613 148.733)" class="st9" width="1.5" height="13.8"/>
						</g>
					</g>
					<path class="st30" d="M403.5,166.7c0,0,1.9,0.8,3-0.1c1.2-0.9,0.2-5.4-0.3-6s-3.3-1.9-3.9-1.5c-0.5,0.4,0.8,2.7,1.8,2.9
						C404.1,161.9,402.2,165.2,403.5,166.7z"/>
				</g>
			</g>
			<g>
				<path class="st25" d="M493.1,203c-0.1-4.6-0.5-9.2-1.1-13.6c-0.4-2.9-1.9-5.6-4.2-7.4c-5-4-9.9-7.4-14.4-10.3
					c-3.3-2.1-6.3-3.9-9-5.5c-2.2,4.3-4.5,8.5-7.2,12.4c5.8,3.8,13.6,9,21.4,14.4c3.8,15.7,7,30.1,7.2,30.9v0c0,0,0,0,0,0l0,0l0,0.5
					c0,0-4.8,3.6-4.9,5.4c-0.1,1.8,3.8-1.8,3.9-0.9c0.1,0.9-1,4.1-0.7,4.6c0.3,0.5,1.9-0.5,1.9-0.5s0.9,1.5,2.2,0.4
					c0,0,1.4,0.7,2.5-0.5c0,0,1.1-0.2,1.9-1.5c0.6-1.1-0.5-7-1-9.2C492.9,215.9,493.3,209.4,493.1,203z"/>
				<line class="st7" x1="478.4" y1="190.8" x2="485.8" y2="223.9"/>
			</g>
			<g>
				<g>
					<path class="st25" d="M463.2,165.7c-1.4-1.3-3.2-1.9-5.1-2c-1.7-0.1-3.1-0.4-4.3-1c-1.9-5.8,0-16.8,0.2-18.2c0-0.1,0-0.1,0-0.1
						l-15.1,8.5c0.3,0.4,0.4,1,0.5,1.7v0c0.1,1.3-0.1,3.1-0.3,4.6c-0.3,1.8-0.7,3.3-0.9,3.9c-1.6,1.9-3.8,2.6-7,4.6
						c-4.9,3-5.4,11.5-3.5,19.9c1.9,8.4,6,21.1,6,21.1l25.4-0.3c-0.8-7.6,4.5-18.7,6.6-31.2C466.8,170.9,465.1,167.5,463.2,165.7z"
						/>
					<path class="st9" d="M439.2,159.2c8.2,1,12.4-8.8,12.5-9.1c-1.5,2.4-3.7,3.6-5.9,4.2c-2.6,0.7-5.2,0.5-6.3,0.3c0,0,0,0-0.1,0
						C439.6,155.9,439.4,157.6,439.2,159.2z"/>
				</g>
				<g>
					<path class="st24" d="M461.3,208.2c-1.4-2.2,0.9-11.8,3.4-21c2.1,2,4.1,3.7,4.5,3.9c1,0.3,9.5-16.2,8.8-16.8
						c-0.7-0.7-17.8-11.7-24.6-13.4c0,0-6.6,15.3-13.2,14s-3.5-10.6-3.5-10.6c-1.8,0.8-3.3,1.7-4.6,2.6l0-0.2c0,0-0.2,0.3-0.6,0.7
						c-2.1,1.6-3.5,3.3-4.4,5.1c-2.1,2.5-4.2,5.3-4.9,7.1c-1.8,4.1-2.9,6.1-2.9,6.1s9.1,18.4,10.1,18.4c0.2,0,0.6-0.9,1.2-2.2
						c1.1,4.3,2,7.6,2,7.6c-7.9,9.6-27.6,64.8-23.5,66.8s56.9,10.1,56.9,10.1s4.8-52.1,3.8-59.1S464,212.6,461.3,208.2z"/>
					<g>
						<polygon class="st9" points="464.7,187.1 458.6,181.4 463.5,191.6 						"/>
						<g>
							<path class="st9" d="M467.9,190.2c0,0-0.1,0-0.1,0c-0.1-0.1-0.2-0.2-0.1-0.3c0.1-0.1,7.3-11.8,8.8-16.3
								c0-0.1,0.2-0.2,0.3-0.2c0.1,0,0.2,0.2,0.2,0.3c-1.5,4.6-8.6,15.9-8.9,16.4C468,190.1,468,190.2,467.9,190.2z"/>
						</g>
						<g>
							<path class="st9" d="M429.6,202.7c-0.1,0-0.2,0-0.2-0.1l-9.4-17.9c-0.1-0.1,0-0.3,0.1-0.3c0.1-0.1,0.3,0,0.3,0.1l9.4,17.9
								c0.1,0.1,0,0.3-0.1,0.3C429.7,202.7,429.6,202.7,429.6,202.7z"/>
						</g>
						<g>
							<path class="st9" d="M430.5,201.7c-0.1,0-0.2-0.1-0.2-0.2c-0.9-2.3-1.9-4.7-2.6-7.2c-0.7-2.8-0.9-5.3-0.6-7.6
								c0.3-1.9,0.9-3.8,1.6-5.6c0.2-0.4,0.3-0.9,0.4-1.3c0.7-2.2,1.4-4.5,1.1-6.9c0-0.1,0.1-0.3,0.2-0.3c0.2,0,0.3,0.1,0.3,0.2
								c0.3,2.5-0.4,4.9-1.2,7.1c-0.1,0.4-0.3,0.9-0.5,1.3c-0.6,1.8-1.3,3.6-1.5,5.5c-0.3,2.2-0.1,4.7,0.6,7.4
								c0.6,2.4,1.6,4.8,2.6,7.1C430.8,201.5,430.8,201.6,430.5,201.7C430.6,201.7,430.6,201.7,430.5,201.7z"/>
						</g>
						<g>
							<path class="st9" d="M426.1,255.4c-0.1,0-0.1,0-0.2-0.1c-0.1-0.1-0.1-0.2,0-0.4c9.5-10.5,16.4-23.3,19.8-37
								c0-0.1,0.2-0.2,0.3-0.2c0.1,0,0.2,0.2,0.2,0.3c-3.5,13.8-10.4,26.7-20,37.2C426.2,255.4,426.2,255.4,426.1,255.4z"/>
						</g>
						<g>
							<path class="st9" d="M441.4,245.9C441.3,245.9,441.3,245.9,441.4,245.9c-0.2-0.1-0.3-0.2-0.2-0.3c2.9-7.9,5-16.1,6.2-24.4
								c0-0.1,0.1-0.2,0.3-0.2c0.1,0,0.2,0.1,0.2,0.3c-1.2,8.4-3.3,16.6-6.2,24.5C441.6,245.9,441.5,245.9,441.4,245.9z"/>
						</g>
						<g>
							<path class="st9" d="M461.7,283.7C461.7,283.7,461.6,283.7,461.7,283.7c-0.2,0-0.3-0.1-0.2-0.3c0-0.3,2.8-30.4,4.3-42.3
								c1.2-9.2-2.3-17.4-5.1-24c-0.8-1.9-1.6-3.7-2.1-5.4c-2.5-7.2,3-23.7,3.2-24.4c0-0.1,0.2-0.2,0.3-0.2c0.1,0,0.2,0.2,0.2,0.3
								c-0.1,0.2-5.7,17-3.3,24.1c0.6,1.6,1.3,3.4,2.1,5.4c2.8,6.6,6.3,14.9,5.1,24.3c-1.5,11.9-4.2,41.9-4.2,42.2
								C461.9,283.6,461.8,283.7,461.7,283.7z"/>
						</g>
						<g>
							<path class="st9" d="M464.9,281.7C464.9,281.7,464.9,281.7,464.9,281.7l-56-9c-0.1,0-0.2-0.2-0.2-0.3c0-0.1,0.1-0.2,0.3-0.2
								l56,9c0.1,0,0.2,0.2,0.2,0.3C465.1,281.6,465,281.7,464.9,281.7z"/>
						</g>
						<path class="st7" d="M437.7,195.3c1.8-0.2,3.8,0.6,4.8,2.2"/>
						<g>
							<path class="st9" d="M440.3,176.3c-0.7,0-1.3-0.1-2-0.3c-5.5-1.9-3.8-10.2-3.8-10.3c0-0.1,0.2-0.2,0.3-0.2
								c0.1,0,0.2,0.2,0.2,0.3c0,0.1-1.6,7.9,3.5,9.7c4.9,1.7,11.5-4,15.8-13.6c0.1-0.1,0.2-0.2,0.3-0.1c0.1,0.1,0.2,0.2,0.1,0.3
								C451.4,169.5,445.7,176.3,440.3,176.3z"/>
						</g>
					</g>
				</g>
			</g>
		</g>
		<g>
			<g>
				<path class="st25" d="M458.3,139.8c-0.4-1.2-1.7-2.2-3-1.9c-0.1,0-0.2,0.1-0.4,0.2c0.2-4.3-0.5-9.1-3.5-11.7
					c-6.5-5.6-15.8-3.7-17.8,1.4c-1.5,3.9-2.1,8.5-2.2,13c-0.1,1.9-0.1,3.8,0,5.6v0.6c0,0.8,0,1.6,0.3,2.4c1,2.9,5.2,4.7,8,5.3
					c3.6,0.8,7.2-0.2,10.1-2.5c2.2-1.9,3.7-4.5,4.3-7.4c0.6,0.1,1.6-0.1,1.8-0.2c0.8-0.3,1.6-1,2-1.7
					C458.4,141.9,458.6,140.8,458.3,139.8z"/>
				<g>
					<g>
						<path class="st26" d="M435,143.6c0,1.6-1.3,2.9-2.9,2.9c-0.2,0-0.5,0-0.7-0.1c0-1.8,0-3.7,0-5.6c0.2-0.1,0.4-0.1,0.7-0.1
							C433.7,140.7,435,142,435,143.6z"/>
						<circle class="st26" cx="446.5" cy="143.6" r="2.9"/>
					</g>
					<g>
						<g>
							<path class="st9" d="M436.5,138c0,0.9-0.4,1.7-0.8,1.7c-0.5,0-0.8-0.8-0.8-1.7c0-0.9,0.4-1.7,0.8-1.7
								C436.1,136.3,436.5,137,436.5,138z"/>
							<path class="st9" d="M434,135.7c0.1,0.3,0.3,0.5,0.6,0.7c0.2,0.2,0.5,0.4,0.9,0.5l0,0c0.2,0,0.3-0.1,0.4-0.2
								c0-0.2-0.1-0.3-0.2-0.4c0,0-0.1,0-0.1,0c-0.5,0-1-0.3-1.3-0.7l0,0c0,0-0.1,0-0.1,0C434,135.6,434,135.7,434,135.7z"/>
						</g>
						<g>
							<ellipse class="st9" cx="442.9" cy="138" rx="0.8" ry="1.7"/>
							<path class="st9" d="M444.4,135.6c-0.4,0.4-0.9,0.7-1.3,0.7c-0.2,0-0.3,0.1-0.3,0.3c0,0.2,0.1,0.3,0.3,0.3c0,0,0.1,0,0.1,0
								l0,0c0.3-0.1,0.6-0.2,0.9-0.5c0.2-0.2,0.4-0.5,0.6-0.7c0,0,0-0.1,0-0.1C444.5,135.6,444.4,135.6,444.4,135.6L444.4,135.6z"/>
						</g>
					</g>
					<g>
						<path class="st9" d="M436.2,143.1c0.3,0.6,0.7,1,1.3,1.4c0.5,0.4,1.2,0.6,1.9,0.6c0.7,0,1.3-0.2,1.9-0.6
							c0.3-0.2,0.5-0.4,0.7-0.6c0.2-0.3,0.4-0.5,0.6-0.8c-0.3,0.2-0.5,0.4-0.7,0.6c-0.3,0.2-0.5,0.4-0.8,0.5
							c-0.5,0.3-1.1,0.5-1.6,0.5c-0.6,0-1.1-0.2-1.7-0.4C437.1,143.9,436.6,143.6,436.2,143.1z"/>
						<path class="st9" d="M438.4,146.2c0.2,0.2,0.6,0.3,0.9,0.3c0.3,0,0.6-0.1,0.9-0.3c-0.3,0-0.6,0.1-0.9,0.1
							C439,146.3,438.7,146.2,438.4,146.2z"/>
					</g>
					<g>
						<path class="st9" d="M441.4,132.1c0.4-0.3,0.8-0.5,1.3-0.5c0.5,0,0.9,0,1.4,0.2c0.4,0.1,0.9,0.4,1.2,0.7
							c0.4,0.3,0.6,0.7,0.8,1.1c0.1,0.2,0,0.4-0.2,0.5c-0.2,0.1-0.3,0.1-0.5-0.1l0,0c-0.3-0.2-0.5-0.5-0.8-0.7
							c-0.3-0.2-0.6-0.3-0.9-0.4c-0.3-0.1-0.6-0.1-1-0.1c-0.3,0-0.7,0-1.1-0.1l-0.1,0c-0.2-0.1-0.4-0.3-0.3-0.5
							C441.3,132.2,441.3,132.1,441.4,132.1z"/>
						<path class="st9" d="M437.2,132.1c-0.4-0.3-0.8-0.5-1.3-0.5c-0.5,0-0.9,0-1.4,0.2c-0.4,0.1-0.9,0.4-1.2,0.7
							c-0.4,0.3-0.6,0.7-0.8,1.1c-0.1,0.2,0,0.4,0.2,0.5c0.2,0.1,0.3,0.1,0.5-0.1l0,0c0.3-0.2,0.5-0.5,0.8-0.7
							c0.3-0.2,0.6-0.3,0.9-0.4c0.3-0.1,0.6-0.1,1-0.1c0.3,0,0.7,0,1.1-0.1l0.1,0c0.2-0.1,0.4-0.3,0.3-0.5
							C437.3,132.2,437.3,132.1,437.2,132.1z"/>
					</g>
					<path class="st9" d="M439.1,135.4c-0.1,0.6-0.3,1.3-0.4,1.9c-0.1,0.6-0.2,1.3-0.4,1.9c0,0.2-0.1,0.3-0.1,0.4
						c0,0.1-0.1,0.3-0.1,0.5c0,0.4,0.3,0.8,0.6,1c0.4,0.2,0.8,0.2,1.1,0.1c0.3-0.1,0.6-0.3,0.9-0.5c-0.6,0.2-1.3,0.4-1.7,0.1
						c-0.2-0.2-0.3-0.4-0.3-0.6c0-0.1,0-0.2,0.1-0.4c0.1-0.2,0.1-0.3,0.2-0.5c0.2-0.6,0.3-1.3,0.3-2
						C439.2,136.7,439.2,136,439.1,135.4z"/>
					<path class="st9" d="M457.3,140.8c0-0.4-0.1-0.8-0.4-1.1c-0.4-0.3-0.9-0.3-1.3-0.1c-0.4,0.1-0.8,0.4-1,0.8
						c-0.3,0.3-0.5,0.7-0.6,1.1c-0.1,0.1,0,0.3,0.2,0.4c0.1,0,0.2,0,0.3-0.1l0,0c0.3-0.3,0.6-0.6,1-0.7c0.2,0,0.3,0,0.4,0
						c0.1,0.1,0.2,0.3,0.3,0.4c0.1,0.4,0.2,0.8-0.1,1c-0.3,0.2-0.8,0.1-1.3,0.1c0.4,0.2,0.9,0.3,1.4,0.2c0.3-0.1,0.5-0.4,0.5-0.7
						c0-0.3,0-0.5-0.1-0.8c-0.1-0.2-0.2-0.5-0.4-0.7c-0.2-0.2-0.6-0.3-0.9-0.2c-0.5,0.2-0.9,0.5-1.2,0.8l0.5,0.3
						c0.3-0.7,0.7-1.3,1.3-1.6c0.3-0.1,0.7-0.2,1-0.1C457,140,457.2,140.4,457.3,140.8z"/>
				</g>
			</g>
			<path class="st9" d="M460.1,132.3c-4.2-13.4-18.4-14.6-26.4-8.8c-7.1,5.2-5.9,32.5-5.5,38.3c0,0.6,0.6,1.1,1.2,1l9.2-0.9
				c0.2-0.8,0.4-1.7,0.6-2.8c0.2-1.2,0.4-2.5,0.4-3.6c0-0.3,0-0.7,0-1c-2.8-0.6-6.8-2.4-7.8-5.2c-0.3-0.8-0.3-1.6-0.3-2.4v-0.6
				c0-1.8,0-3.7,0-5.6c0.1-2.1,0.2-4.2,0.5-6.2c3.3,0.8,14.7,1.7,16.2,1c1.8-0.8,1.8-4.5,1.8-4.5s2.2,4.9,0.1,10.6
				c0,0,2.9-1.6,4.9-3.6c0.2-0.1,0.3-0.1,0.4-0.2c1.3-0.3,2.6,0.7,3,1.9c0.3,1,0.1,2.1-0.5,3c-0.5,0.7-1.2,1.4-2,1.7
				c-0.2,0.1-1.1,0.2-1.7,0.2c-0.3,1.6-1.6,10-0.7,15.8l9.6-0.9c0.6-0.1,1-0.5,1-1.1C464,155.2,463.7,143.7,460.1,132.3z"/>
		</g>
	</g>
	<g>
		<g>
			<g>
				<g>
					<g>
						<path class="st26" d="M512.5,311.3l-9.8,32.6l4.3,2.8l4.7-0.1c0,0,8.1-17.3,14.8-32.6C521.7,313.5,517.1,312.6,512.5,311.3z"
							/>
					</g>
					<path class="st9" d="M523.1,321.6c-0.3,0.6-0.5,1.2-0.8,1.7c-2.8-0.9-8.7-3.7-11.8-5.4l0.6-1.9
						C514,317.7,520.1,320.6,523.1,321.6z"/>
				</g>
				<g>
					<path class="st8" d="M509.4,352.4c-0.5,0.2-14.5-4.5-14.5-4.5c-0.8-0.2-1.2-1.2-0.9-2c0.3-0.8,1.1-1.3,1.9-1.5
						c0.8-0.2,1.6-0.2,2.4-0.4c0.9-0.1,1.8-0.5,2.5-0.9c0-0.7,0-1.5,0.1-2.2c0-0.3,0-0.5,0.1-0.8c0.2-0.3,0.5-0.5,0.9-0.6
						c1-0.3,2.2-0.1,3,0.6c0.7,0.5,1.1,1.3,1.4,2.2c0.2,0.8,0.3,1.7,0.3,2.6c0,0.5,0.5,0.7,1,0.7c0.5,0,1-0.2,1.5-0.3
						c0.5-0.1,1-0.2,1.5-0.1c0.7,0.2,1.2,1,1.3,1.7c0.2,1,0,2-0.5,2.9C510.9,350.9,510.3,352,509.4,352.4z"/>
					<line class="st7" x1="494.8" y1="346.3" x2="509.1" y2="351.4"/>
				</g>
			</g>
			<g>
				<g>
					<g>
						<path class="st26" d="M553.2,315.8c0-0.8,0-1.5,0-2.3c-3.6,0.7-7.2,1-10.9,1.1c-0.9,0-1.9,0.1-2.9,0.1l0.6,4.6
							c0.3,2.1,1.4,4,3.1,5.2l10,7l12.9,9.6l5.4-3.4l0.6-2.7C572.1,335,562.8,324.7,553.2,315.8z"/>
					</g>
					<path class="st9" d="M555.3,317.8c-0.1,0.5-0.2,0.9-0.4,0.9c-1.6,0.7-10.4,2.2-14.2,2.6c-0.3-0.6-0.5-1.3-0.6-2l-0.1-0.5
						c3.1-0.3,10.9-1.6,13.8-2.4C554.3,316.9,554.8,317.3,555.3,317.8z"/>
				</g>
				<g>
					<path class="st8" d="M576.2,338.5c0,0.6-10,11.4-10,11.4c-0.5,0.7-1.6,0.6-2.2,0s-0.7-1.5-0.6-2.3c0.1-0.8,0.4-1.6,0.7-2.4
						c0.2-0.8,0.3-1.8,0.2-2.7c-0.7-0.3-1.3-0.6-2-1c-0.2-0.1-0.5-0.2-0.6-0.4c-0.2-0.3-0.3-0.7-0.2-1c0.1-1,0.8-2,1.7-2.5
						c0.8-0.4,1.7-0.5,2.6-0.4c0.9,0.1,1.7,0.4,2.5,0.8c0.5,0.2,0.9-0.2,1.1-0.6c0.2-0.5,0.2-1,0.3-1.5c0.1-0.5,0.2-1,0.5-1.4
						c0.5-0.6,1.4-0.7,2.1-0.5c1,0.2,1.8,0.9,2.5,1.6S576.2,337.4,576.2,338.5z"/>
					<line class="st7" x1="565" y1="348.8" x2="575.2" y2="337.5"/>
				</g>
			</g>
			<g>
				<path class="st6" d="M522.1,274.6c0,0-13.2,39.5-12.7,40.3c0.5,0.8,14,7.3,15.3,7c1.3-0.3,11-29.2,11-29.2s2.5,25.7,3,26
					c0.5,0.3,14-1.8,16-2.7c2-0.8-2.3-35.8-8.5-41.7L522.1,274.6z"/>
				<g>
					<polygon class="st9" points="535.7,292.8 529.9,287.3 533.4,299.7 					"/>
					<path class="st7" d="M533.9,292.9c-0.2,0.3-10.7,27.9-10.7,27.9"/>
				</g>
			</g>
		</g>
		<g>
			<g>
				<g>
					<path class="st25" d="M543,241.8c-1.8-4.6-0.2-14.3,0-15.5c0,0,0-0.1,0-0.1l-12.4,7c0.2,0.3,0.3,0.8,0.4,1.4v0
						c0.1,1.1,0,2.5-0.3,3.8c-0.3,1.9-0.8,3.5-0.8,3.5H543z"/>
					<path class="st9" d="M530.7,238.3c6.7,0.9,10.2-7.2,10.3-7.5c-1.2,2-3,3-4.8,3.5c-2.2,0.6-4.3,0.4-5.2,0.3c0,0,0,0,0,0
						C531.1,235.7,530.9,237.1,530.7,238.3z"/>
				</g>
				<g>
					<g>
						<path class="st25" d="M494.5,243.8c1.8-1.9,3.6-3.8,5.4-5.7l-5.4-5l-0.1-0.1l-3.6,3.5c0,0,0,0,0.1,0.1
							C491.1,237.2,492.1,239.8,494.5,243.8z"/>
						<path class="st25" d="M492.6,237.4c0,0-5.5-2.4-6.9-4.2c-0.1-0.1,0-0.3,0.1-0.3c0.3,0,0.9,0.1,2.2,0.9c0,0-2.2-2.3-2.2-2.8
							c0-0.6,3.3,1.9,3.3,1.9s-2.3-2.8-2-3.3c0.2-0.5,3.1,2.3,3.1,2.3s-2.2-3-1.9-3.2c0.7-0.3,3.8,3.8,4.2,3.5
							c0.4-0.3,0-1.6-0.2-2.2c-0.1-0.1,0-0.3,0.1-0.3c0.3-0.1,0.7-0.1,1,0.5c0.5,1,1.6,3,1.5,5.9L492.6,237.4z"/>
					</g>
					<g>
						<path class="st8" d="M549.9,244.8c-1.2-3.8-7.1-4.6-7.1-4.6c-7.8,3-12.5-1.2-12.5-1.2s-3.1,1.3-5,2.2l-15.4,5.3l-12.7-11.8
							c0,0.2-5.8,4.5-6.1,5.5s11.6,19.5,15.2,20.1c1.9,0.3,7.5-1.5,12.4-3.2c0.5-0.2,1-0.4,1.5-0.6c0,0.1,0,0.1,0,0.2
							c0,0,0,0.1,0,0.1c0.3,8,1.2,19,1.2,19c2.9,0.5,25.7-0.5,25.7-0.5C546.2,272.4,551.2,248.6,549.9,244.8z"/>
						<g>
							<line class="st7" x1="497.2" y1="234.8" x2="512.8" y2="249.7"/>
							<line class="st7" x1="512.7" y1="247" x2="509.9" y2="246.6"/>
							<path class="st9" d="M520.2,256.6v0.2C520.2,256.7,520.2,256.7,520.2,256.6c-0.5,0.2-1,0.4-1.5,0.6
								c-0.3-4.8,1.3-8.5,2.3-10.4v0c0.3-0.6,0.6-1,0.7-1.1C520.2,248.6,520.2,255.3,520.2,256.6z"/>
							<path class="st7" d="M526.5,258.9c1.3,2,3.1,3.7,5.1,5.1"/>
							<path class="st7" d="M526.2,262.3c1.2,1.1,2.3,2.1,3.5,3.2"/>
						</g>
					</g>
				</g>
			</g>
			<g>
				<g>
					<g>
						<polygon class="st27" points="560.3,260.3 562.8,262.9 565.2,259.8 565.2,287.9 566.7,292.1 558.5,292.3 						"/>
						<polygon class="st24" points="559.1,292.3 536.2,292.3 537.3,287.9 537.3,260.3 560.3,260.3 560.3,287.9 						"/>
					</g>
				</g>
				<g>
					<path class="st25" d="M557.1,282.8c0.2-0.3,0.9-1.4,1.9-3.1c-2.1-0.7-4.2-1.4-6.3-2.1l-0.6,4.2l0,0c-0.8,1-1.4,1.9-1.7,2.5
						c-0.3,0.6-0.1,1,0.1,1.2c0.1,0.1,0.3,0.1,0.3-0.1c0.3-0.6,1.2-1.5,1.7-1.4c0.5,0.1-1.1,5.1-0.5,5.4c0.3,0.1,1.5-3.3,1.5-3.3
						s-0.7,4-0.2,3.9c0.5-0.1,1.6-3.6,1.6-3.6s-0.2,4.1,0.3,3.8c0.5-0.3,1.1-3.5,1.1-3.5c0.1,1.5,0.3,2.1,0.5,2.3
						c0.1,0.1,0.2,0.1,0.3,0C557.7,287.6,557.4,284.7,557.1,282.8C557.1,282.8,557.1,282.8,557.1,282.8z"/>
					<g>
						<path class="st8" d="M545.2,240.9l2.6,15.5l8.5,5.1l-4.1,19.2c0,0,6.4,2.5,7,2.6c0.6,0.1,9.5-23.8,7.1-27.7
							C563.9,251.6,552.7,242.6,545.2,240.9z"/>
						<g>
							<polygon class="st9" points="549.1,257.2 542.2,253.7 548.8,260 							"/>
							<line class="st7" x1="552.2" y1="280.6" x2="556.8" y2="259.5"/>
							<line class="st7" x1="554.9" y1="257.9" x2="556.3" y2="261.5"/>
							<path class="st7" d="M564.6,255.1c0.5,0.5,0.7,1.3,0.6,1.9"/>
						</g>
					</g>
				</g>
			</g>
		</g>
		<g>
			<g>
				<path class="st25" d="M546.4,222.5c-0.3-1-1.4-1.8-2.5-1.6c-0.1,0-0.2,0.1-0.3,0.1c0.1-3.6-0.4-7.5-2.8-9.6
					c-5.3-4.6-12.9-3-14.6,1.2c-1.9,4.8-1.9,10.6-1.9,15.7c0,0.7,0,1.3,0.2,2c0.8,2.4,4.3,3.9,6.6,4.3c3,0.6,5.9-0.2,8.3-2.1
					c1.8-1.5,3-3.7,3.5-6c0.5,0,1.3-0.1,1.4-0.1c0.7-0.3,1.3-0.8,1.7-1.4C546.5,224.2,546.7,223.3,546.4,222.5z"/>
				<g>
					<g>
						<g>
							<path class="st9" d="M528.5,220.9c0,0.8-0.3,1.4-0.7,1.4c-0.4,0-0.7-0.6-0.7-1.4c0-0.8,0.3-1.4,0.7-1.4
								C528.2,219.5,528.5,220.2,528.5,220.9z"/>
						</g>
						<g>
							<path class="st9" d="M533.1,220.9c0,0.8,0.3,1.4,0.7,1.4c0.4,0,0.7-0.6,0.7-1.4c0-0.8-0.3-1.4-0.7-1.4
								C533.4,219.5,533.1,220.2,533.1,220.9z"/>
						</g>
					</g>
					<g>
						<path class="st9" d="M528.2,225.2c0.2,0.5,0.6,0.9,1,1.2c0.4,0.3,1,0.5,1.5,0.5c0.6,0,1.1-0.2,1.5-0.5
							c0.2-0.1,0.4-0.4,0.6-0.5c0.2-0.2,0.3-0.4,0.5-0.6c-0.2,0.2-0.4,0.3-0.6,0.5c-0.2,0.1-0.4,0.3-0.6,0.4
							c-0.4,0.2-0.9,0.4-1.4,0.4c-0.5,0-0.9-0.1-1.4-0.4C529,225.8,528.6,225.5,528.2,225.2z"/>
						<path class="st9" d="M530.1,227.7c0.2,0.2,0.5,0.2,0.7,0.2c0.3,0,0.5-0.1,0.7-0.2c-0.3,0-0.5,0.1-0.7,0.1
							C530.6,227.7,530.3,227.7,530.1,227.7z"/>
					</g>
					<g>
						<path class="st9" d="M532.5,216.1c0.3-0.3,0.7-0.4,1.1-0.4c0.4,0,0.8,0,1.1,0.2c0.4,0.1,0.7,0.3,1,0.6
							c0.3,0.2,0.5,0.6,0.7,0.9c0.1,0.2,0,0.4-0.1,0.4c-0.1,0.1-0.3,0-0.4,0l0,0c-0.2-0.2-0.4-0.4-0.7-0.5c-0.2-0.2-0.5-0.2-0.7-0.3
							c-0.3-0.1-0.5-0.1-0.8-0.1c-0.3,0-0.6,0-0.9,0l-0.1,0c-0.2,0-0.3-0.2-0.3-0.4C532.4,216.2,532.5,216.1,532.5,216.1z"/>
						<path class="st9" d="M529.1,216.1c-0.3-0.3-0.7-0.4-1.1-0.4c-0.4,0-0.8,0-1.1,0.2c-0.4,0.1-0.7,0.3-1,0.6
							c-0.3,0.2-0.5,0.6-0.7,0.9c-0.1,0.2,0,0.4,0.1,0.4c0.1,0.1,0.3,0,0.4,0l0,0c0.2-0.2,0.4-0.4,0.7-0.5c0.2-0.2,0.5-0.2,0.7-0.3
							c0.3-0.1,0.5-0.1,0.8-0.1c0.3,0,0.6,0,0.9,0l0.1,0c0.2,0,0.3-0.2,0.3-0.4C529.2,216.2,529.2,216.1,529.1,216.1z"/>
					</g>
					<path class="st9" d="M530.6,218.8c-0.1,0.5-0.2,1.1-0.3,1.6c-0.1,0.5-0.2,1-0.3,1.5c0,0.1-0.1,0.2-0.1,0.4
						c0,0.1-0.1,0.3-0.1,0.5c0,0.3,0.2,0.7,0.5,0.8c0.3,0.2,0.6,0.1,0.9,0c0.3-0.1,0.5-0.2,0.7-0.4c-0.5,0.2-1.1,0.3-1.4,0.1
						c-0.2-0.1-0.3-0.3-0.2-0.5c0-0.1,0-0.2,0.1-0.3c0.1-0.1,0.1-0.3,0.1-0.4c0.1-0.5,0.2-1.1,0.3-1.6
						C530.7,219.9,530.7,219.3,530.6,218.8z"/>
					<path class="st9" d="M545.6,223.2c0-0.3-0.1-0.7-0.4-0.9c-0.3-0.2-0.7-0.2-1.1-0.1c-0.3,0.1-0.6,0.4-0.9,0.6
						c-0.2,0.3-0.4,0.6-0.5,0.9c0,0.1,0,0.3,0.1,0.3c0.1,0,0.2,0,0.3-0.1l0,0c0.2-0.2,0.5-0.5,0.8-0.6c0.1,0,0.2,0,0.3,0
						c0.1,0.1,0.2,0.2,0.2,0.4c0.1,0.3,0.2,0.7-0.1,0.8c-0.3,0.2-0.7,0.1-1,0.1c0.3,0.1,0.7,0.3,1.1,0.2c0.2-0.1,0.4-0.3,0.4-0.5
						c0-0.2,0-0.4-0.1-0.6c-0.1-0.2-0.1-0.4-0.3-0.6c-0.2-0.2-0.5-0.2-0.7-0.1c-0.4,0.1-0.7,0.4-1,0.7l0.4,0.2
						c0.2-0.5,0.6-1.1,1.1-1.3c0.3-0.1,0.6-0.2,0.8,0C545.3,222.6,545.5,222.9,545.6,223.2z"/>
				</g>
			</g>
			<path class="st9" d="M548.4,220.9c-0.4-8.5-5.8-9.8-5.8-9.8c-2.7-5.8-13.3-6.3-17.2-1.2c-3.1,4-1.7,12.5-1,16
				c0-2.3,0.1-4.7,0.4-7.1c0.3,0,0.8,0,1.3,0l1.1-2.1l-0.3,2.1c1.3,0,3,0.1,4.5,0.1l0.2-3.7l1,3.7c1.4,0,2.4-0.1,2.7-0.2
				c1.1-0.4,2.2-2.9,2.2-2.9s-0.1,6.9,2,7.1c1.3,0.1,3.1-1,4.5-2c0,0,0.1,0,0.1,0c1.1-0.3,2.2,0.5,2.5,1.6c0.3,0.8,0.1,1.7-0.4,2.4
				c-0.4,0.6-1,1.2-1.7,1.4c-0.2,0.1-0.9,0.2-1.4,0.2c-0.2,1.1-0.9,5.5-0.8,9.7c1.5-0.2,2.8-0.5,3.3-0.7
				C546.7,234.7,548.8,229.4,548.4,220.9z"/>
		</g>
	</g>
	<g class="st0">
		<path class="st31" d="M592.1,352.4H17.5c-0.6,0-1-0.4-1-1c0-0.6,0.5-1,1-1h574.6c0.6,0,1,0.4,1,1
			C593.2,352,592.7,352.4,592.1,352.4z"/>
	</g>
	<g>
		<g>
			<path d="M265.1,137.7c-0.4-0.8-1-1.4-1.7-1.9c-0.8-0.5-1.7-0.8-2.8-1c-1.1-0.2-2.3-0.3-3.7-0.3l-6.6,0c-0.7,0-1.4,0.5-1.5,1.2
				l-4.5,19.4c-0.2,0.7,0.3,1.2,1,1.2h3.2c0.7,0,1.4-0.5,1.5-1.2l1.1-4.7c0.1-0.7,0.8-1.2,1.5-1.2h0.9c3.9,0,6.9-0.8,9-2.4
				c2.2-1.6,3.2-3.7,3.2-6.3C265.7,139.4,265.5,138.5,265.1,137.7z M258.3,144c-1,0.7-2.3,1.1-4,1.1h-0.8c-0.7,0-1.1-0.5-1-1.2
				l1-4.1c0.1-0.7,0.8-1.2,1.5-1.2l1,0c1.2,0,2.1,0.2,2.8,0.6c0.6,0.4,0.9,1,0.9,1.9C259.7,142.4,259.2,143.3,258.3,144z"/>
		</g>
	</g>
	<g>
		<g>
			<polygon points="355.5,136 355.3,136.1 355.1,136.1 354.7,136.1 354.6,135.9 354.5,135.7 354.5,135.3 354.5,133.9 355.6,133.9 
				355.6,133.5 354.5,133.5 354.5,132.6 354,132.6 354,133.5 353.6,133.5 353.6,133.9 354,133.9 354,135.5 354.2,136.3 354.9,136.6 
				355.2,136.6 355.6,136.5 355.6,136 			"/>
		</g>
	</g>
	<g>
		<g>
			<polygon points="360.4,133.7 359.7,133.4 359.1,133.5 358.6,133.9 358.2,133.5 357.7,133.4 357.2,133.5 356.7,133.8 356.7,133.5 
				356.2,133.5 356.2,136.5 356.7,136.5 356.7,134.2 357.1,134 357.6,133.9 357.9,133.9 358.1,134.1 358.2,134.4 358.2,134.8 
				358.2,136.5 358.7,136.5 358.7,134.6 358.7,134.4 358.7,134.2 359.1,134 359.5,133.9 359.9,133.9 360.1,134.1 360.1,134.4 
				360.2,134.8 360.2,136.5 360.7,136.5 360.7,134.5 			"/>
		</g>
	</g>
	<g>
		<g>
			<path d="M280.4,140.5c-1.2-0.7-3.1-1-5.7-1c-1.3,0-2.6,0.1-3.8,0.3c-0.9,0.1-1,0.2-1.6,0.3c-1.2,0.3-1.4,1.5-1.4,1.5l-0.4,1.6
				c-0.2,1,0.4,1,0.6,0.9c0.5-0.2,0.8-0.3,1.9-0.6c1-0.2,2.1-0.4,3-0.4c1.3,0,2.2,0.1,2.9,0.4c0.6,0.3,1,0.8,1,1.4l-0.1,0.4
				l-0.5,0.3c-1.8,0.1-3.1,0.3-4.7,0.5c-1.5,0.2-2.9,0.6-4,1.1c-1.2,0.5-2.1,1.2-2.7,2.2c-0.6,0.9-0.9,2-0.9,3.3
				c0,1.2,0.4,2.2,1.3,3c0.9,0.8,2,1.1,3.3,1.1c0.9,0,1.5-0.1,2-0.2l1.5-0.5l1.3-0.7l1.2-0.8l0,0l-0.1,0.5l0,0v0
				c-0.1,0.6,0.2,1.1,0.8,1.2l0,0h0.1h2.4h0.5l0,0c0.6-0.1,1.2-0.6,1.4-1.2l2.3-10l0.1-0.8l0.1-0.8
				C282.2,142.2,281.6,141.2,280.4,140.5z M275.3,151.7l-0.5,0.7l-1.2,0.6c-0.6,0.2-1.1,0.4-1.7,0.4c-0.8,0-1.4-0.1-1.8-0.3
				l-0.6-1.2c0-0.6,0.1-1.2,0.5-1.5l1.3-0.9c0.6-0.2,1.3-0.4,2.1-0.5c0.7-0.1,2.2-0.3,2.3-0.3l0.2,0.4
				C275.9,149.3,275.5,151,275.3,151.7z"/>
		</g>
	</g>
	<g>
		<g>
			<path d="M338,140.5c-1.2-0.7-3.1-1-5.7-1c-1.3,0-2.6,0.1-3.8,0.3c-1,0.1-1,0.2-1.6,0.3c-1.2,0.3-1.4,1.5-1.4,1.5l-0.4,1.6
				c-0.2,1,0.4,1,0.6,0.9c0.5-0.2,0.8-0.3,1.9-0.6c1-0.2,2.1-0.4,3-0.4c1.3,0,2.2,0.1,2.9,0.4c0.6,0.3,1,0.8,1,1.4l0,0.4l-0.5,0.3
				c-1.8,0.1-3.1,0.3-4.7,0.5c-1.5,0.2-2.9,0.6-4,1.1c-1.2,0.5-2.1,1.2-2.7,2.2c-0.6,0.9-0.9,2-0.9,3.3c0,1.2,0.4,2.2,1.3,3
				c0.9,0.8,2,1.1,3.3,1.1c0.9,0,1.5-0.1,2-0.2l1.5-0.5l1.3-0.7l1.2-0.8l0,0l-0.1,0.5l0,0l0,0c-0.1,0.6,0.2,1.1,0.8,1.2l0,0h0.1
				c0.4,0,1.8,0,2.4,0h0.4l0,0c0.6-0.1,1.2-0.6,1.3-1.2l2.3-10l0.1-0.8l0.1-0.8C339.8,142.2,339.2,141.2,338,140.5z M332.9,151.8
				l-0.5,0.7l-1.2,0.6c-0.6,0.2-1.1,0.4-1.7,0.4c-0.8,0-1.4-0.1-1.8-0.3l-0.6-1.2c0-0.6,0.2-1.2,0.5-1.6c0.3-0.4,0.8-0.7,1.4-0.9
				c0.6-0.2,1.3-0.4,2.1-0.5c0.7-0.1,2.1-0.3,2.3-0.3l0.2,0.4C333.5,149.3,333.1,151,332.9,151.8z"/>
		</g>
	</g>
	<g>
		<g>
			<path d="M322.7,137.8c-0.4-0.8-1-1.4-1.7-1.9c-0.8-0.5-1.7-0.8-2.8-1c-1.1-0.2-2.3-0.3-3.7-0.3l-6.6,0c-0.7,0-1.4,0.5-1.5,1.2
				l-4.5,19.4c-0.2,0.7,0.3,1.2,1,1.2l3.2,0c0.7,0,1.4-0.5,1.5-1.2l1.1-4.7c0.2-0.7,0.8-1.2,1.5-1.2h0.9c3.9,0,6.9-0.8,9.1-2.4
				c2.1-1.6,3.2-3.7,3.2-6.3C323.3,139.5,323.1,138.5,322.7,137.8z M315.9,144.1c-1,0.7-2.3,1-4,1h-0.8c-0.7,0-1.1-0.5-1-1.2l1-4.1
				c0.1-0.7,0.8-1.2,1.5-1.2l1,0c1.2,0,2.1,0.2,2.8,0.6c0.6,0.4,0.9,1,0.9,1.9C317.3,142.4,316.8,143.4,315.9,144.1z"/>
		</g>
	</g>
	<g>
		<g>
			<path d="M349.9,136c0.1-0.7-0.3-1.2-1-1.2h-2.8c-0.6,0-1.1,0.4-1.4,1l-0.2,0.2l-0.1,0.6l-4,18.1l-0.1,0.6l0,0
				c-0.1,0.6,0.2,1,0.8,1.1l0,0.1h3c0.6,0,1.1-0.4,1.4-1l0.2-0.2L349.9,136L349.9,136z"/>
		</g>
	</g>
	<g>
		<g>
			<path d="M302,139.7c-0.8,0-3.8,0-3.8,0c-0.7,0-1.6,0.6-2,1.2c0,0-4.5,7.8-5,8.6l-0.5,0l-1.4-8.5c-0.2-0.7-0.9-1.2-1.7-1.2l-2.8,0
				c-0.7,0-1.1,0.5-0.9,1.2c0,0,2.2,12.3,2.6,15.2c0.2,1.6,0,1.9,0,1.9l-2.8,4.9c-0.4,0.7-0.2,1.2,0.5,1.2l3.3,0
				c0.7,0,1.6-0.5,2-1.2l12.6-21.4C301.9,141.5,303.1,139.7,302,139.7z"/>
		</g>
	</g>
</g>
<g id="DESIGNED_BY_FREEPIK" class="st0">
	<g id="XMLID_258_" class="st3">
		<g id="XMLID_287_">
			<g id="XMLID_306_">
				<path id="XMLID_314_" class="st32" d="M314.9,396.4c-0.4,0.4-0.8,0.9-1.1,1.5l-0.5-0.2c-0.1-0.3-0.3-0.5-0.7-0.5
					c-0.3,0-0.6,0.3-0.5,0.7c0,0.3,0.3,0.6,0.7,0.5c0.1,0,0.1,0,0.2-0.1l0.5,0.2c-0.3,0.6-0.4,1.1-0.5,1.7l0.7,0.1
					c0.2-1.3,0.8-2.5,1.8-3.5L314.9,396.4z"/>
				<path id="XMLID_313_" class="st32" d="M320.4,394.1c-0.2,0-0.3,0-0.5,0l-0.1-0.6c0.2-0.1,0.3-0.4,0.3-0.6c0-0.4-0.4-0.7-0.8-0.6
					c-0.4,0-0.7,0.4-0.6,0.8c0,0.3,0.2,0.5,0.4,0.6l0.1,0.6c-0.7,0.1-1.4,0.3-2.1,0.6l0.3,0.7c0.9-0.4,1.9-0.7,3-0.7
					c0.5,0,1,0.1,1.5,0.2l0.2-0.7C321.5,394.1,321,394.1,320.4,394.1z"/>
				<path id="XMLID_312_" class="st32" d="M327,396.6c0.3,0,0.6-0.3,0.5-0.7c0-0.3-0.3-0.6-0.7-0.5c-0.3,0-0.5,0.3-0.5,0.6l-0.4,0.4
					c-0.4-0.4-0.9-0.8-1.4-1.1l-0.4,0.6c1.1,0.7,2,1.7,2.6,2.9l0.7-0.3c-0.3-0.6-0.6-1.1-0.9-1.5l0.4-0.4
					C326.9,396.6,326.9,396.6,327,396.6z"/>
				<path id="XMLID_311_" class="st32" d="M319.9,404.3c-0.4,0-0.8,0-1.2,0c-0.9,0-1.7-0.1-2.5-0.2c-0.4-0.1-0.8-0.2-1.3-0.3
					c1,1.9,3.1,3.1,5.4,3.1c2.9,0,5.3-1.9,5.9-4.5c-0.7,0.4-1.5,0.8-2.5,1.1C322.7,404,321.3,404.2,319.9,404.3z"/>
				<path id="XMLID_307_" class="st32" d="M320.4,395.6c-3.4,0-6.1,2.7-6.1,5.9c0,0.4,0,0.8,0.1,1.3c0.7,0.5,2.7,0.9,5.3,0.7
					c2.9-0.2,5.3-1,6.7-2.2c0-0.2,0-0.4,0-0.6C326.1,397.8,323.5,395.6,320.4,395.6z M318.3,402.1c-1,0-1.8-0.8-1.8-1.8
					c0-1,0.8-1.9,1.8-1.9c1,0,1.8,0.8,1.8,1.9C320.1,401.3,319.3,402.1,318.3,402.1z M323,401.2c-0.8,0-1.4-0.6-1.4-1.4
					s0.6-1.4,1.4-1.4s1.4,0.6,1.4,1.4S323.7,401.2,323,401.2z"/>
			</g>
			<path id="XMLID_304_" class="st32" d="M336.4,397.5c-0.3-0.1-0.8-0.3-1.4-0.2c-0.6,0.1-0.8,0.3-0.8,1v0.9h2.2v1.7h-2.2v5.5h-1.9
				v-5.5h-1.3v-1.7h1.3v-0.9c0-1.7,0.9-2.8,2.6-2.8c0.6,0,1.2,0.1,1.6,0.3V397.5z"/>
			<path id="XMLID_302_" class="st32" d="M341.1,400.8c-0.2,0-0.4,0-0.5,0c-0.9,0-1.5,0.5-1.5,1.6v3.9h-1.9v-7.2h1.9v0.8
				c0.5-0.7,1.1-1,2-1c0.4,0,0.8,0.1,1.1,0.3L341.1,400.8z"/>
			<path id="XMLID_299_" class="st32" d="M348.8,402.7c0,0.2,0,0.5,0,0.7h-5.1c0.2,1,0.9,1.5,1.8,1.5c0.6,0,1.3-0.3,1.8-0.7l1.1,1.2
				c-0.8,0.7-1.9,1.1-3.1,1.1c-2.2,0-3.7-1.5-3.7-3.8c0-2.3,1.5-3.8,3.6-3.8C347.4,398.9,348.8,400.4,348.8,402.7z M343.7,402h3.2
				c-0.2-0.9-0.7-1.4-1.6-1.4C344.4,400.6,343.8,401.1,343.7,402z"/>
			<path id="XMLID_296_" class="st32" d="M356.4,402.7c0,0.2,0,0.5,0,0.7h-5.1c0.2,1,0.9,1.5,1.8,1.5c0.6,0,1.3-0.3,1.8-0.7l1.1,1.2
				c-0.8,0.7-1.9,1.1-3.1,1.1c-2.2,0-3.7-1.5-3.7-3.8c0-2.3,1.5-3.8,3.6-3.8C355,398.9,356.4,400.4,356.4,402.7z M351.3,402h3.2
				c-0.2-0.9-0.7-1.4-1.6-1.4C352,400.6,351.5,401.1,351.3,402z"/>
			<path id="XMLID_293_" class="st32" d="M364.8,402.7c0,2.2-1.5,3.8-3.5,3.8c-1,0-1.6-0.4-2.1-0.9v3.7h-1.9v-10.1h1.9v0.8
				c0.5-0.6,1.2-1,2.1-1C363.3,398.9,364.8,400.5,364.8,402.7z M359.1,402.7c0,1.1,0.7,2,1.8,2c1.1,0,1.8-0.9,1.8-2
				c0-1.1-0.7-2-1.8-2C359.9,400.7,359.1,401.6,359.1,402.7z"/>
			<path id="XMLID_290_" class="st32" d="M367.9,396.8c0,0.7-0.5,1.2-1.2,1.2c-0.7,0-1.2-0.5-1.2-1.2c0-0.7,0.5-1.2,1.2-1.2
				C367.3,395.5,367.9,396.1,367.9,396.8z M367.6,406.3h-1.9v-7.2h1.9V406.3z"/>
			<path id="XMLID_288_" class="st32" d="M370.9,401.7l2.7-2.6h2.4l-3.5,3.4l3.5,3.8h-2.4l-2.7-2.9v2.9h-1.9v-10.7h1.9V401.7z"/>
		</g>
		<g id="XMLID_259_">
			<path id="XMLID_284_" class="st32" d="M239.2,406.2v-1.1c-0.5,0.7-1.4,1.2-2.4,1.2c-1.8,0-3.1-1.4-3.1-3.7c0-2.3,1.3-3.7,3.1-3.7
				c1,0,1.8,0.5,2.4,1.2v-3.8h1.1v9.8H239.2z M239.2,404.3v-3.2c-0.4-0.6-1.2-1.1-2.1-1.1c-1.4,0-2.3,1.2-2.3,2.7
				c0,1.6,0.8,2.7,2.3,2.7C238,405.4,238.8,404.9,239.2,404.3z"/>
			<path id="XMLID_281_" class="st32" d="M241.8,402.7c0-2.1,1.5-3.7,3.5-3.7c2.1,0,3.4,1.7,3.4,3.8v0.3h-5.7c0.1,1.3,1,2.4,2.5,2.4
				c0.8,0,1.6-0.3,2.2-0.9l0.5,0.7c-0.7,0.7-1.7,1.1-2.8,1.1C243.3,406.4,241.8,404.9,241.8,402.7z M245.2,399.9
				c-1.5,0-2.3,1.3-2.3,2.4h4.6C247.5,401.2,246.8,399.9,245.2,399.9z"/>
			<path id="XMLID_279_" class="st32" d="M249.4,405.3l0.6-0.8c0.5,0.5,1.4,1,2.3,1c1.1,0,1.7-0.5,1.7-1.2c0-1.7-4.4-0.7-4.4-3.3
				c0-1.1,1-2,2.6-2c1.2,0,2.1,0.5,2.6,1l-0.5,0.8c-0.4-0.5-1.2-0.9-2.1-0.9c-1,0-1.6,0.5-1.6,1.1c0,1.6,4.4,0.5,4.4,3.3
				c0,1.2-1,2.1-2.8,2.1C251.1,406.4,250.1,406,249.4,405.3z"/>
			<path id="XMLID_276_" class="st32" d="M256.3,397.4c0-0.4,0.3-0.7,0.7-0.7c0.4,0,0.7,0.3,0.7,0.7c0,0.4-0.3,0.7-0.7,0.7
				C256.6,398.1,256.3,397.8,256.3,397.4z M256.5,406.2v-7.1h1.1v7.1H256.5z"/>
			<path id="XMLID_273_" class="st32" d="M259.4,408l0.6-0.8c0.6,0.7,1.3,1,2.3,1c1.2,0,2.3-0.6,2.3-2.1v-1
				c-0.5,0.7-1.4,1.3-2.4,1.3c-1.8,0-3.1-1.4-3.1-3.7c0-2.3,1.3-3.7,3.1-3.7c1,0,1.8,0.5,2.4,1.2v-1.1h1.1v6.9
				c0,2.3-1.6,3.1-3.4,3.1C261.1,409.1,260.2,408.8,259.4,408z M264.5,404.2v-3.1c-0.4-0.6-1.2-1.1-2.1-1.1c-1.4,0-2.3,1.1-2.3,2.7
				c0,1.6,0.8,2.7,2.3,2.7C263.3,405.3,264.1,404.8,264.5,404.2z"/>
			<path id="XMLID_271_" class="st32" d="M272.2,406.2v-4.6c0-1.2-0.6-1.6-1.6-1.6c-0.9,0-1.7,0.5-2.1,1.1v5.2h-1.1v-7.1h1.1v1
				c0.5-0.6,1.5-1.2,2.5-1.2c1.5,0,2.3,0.7,2.3,2.3v5H272.2z"/>
			<path id="XMLID_268_" class="st32" d="M274.8,402.7c0-2.1,1.5-3.7,3.5-3.7c2.1,0,3.4,1.7,3.4,3.8v0.3h-5.7c0.1,1.3,1,2.4,2.5,2.4
				c0.8,0,1.6-0.3,2.2-0.9l0.5,0.7c-0.7,0.7-1.7,1.1-2.8,1.1C276.3,406.4,274.8,404.9,274.8,402.7z M278.2,399.9
				c-1.5,0-2.3,1.3-2.3,2.4h4.6C280.5,401.2,279.8,399.9,278.2,399.9z"/>
			<path id="XMLID_265_" class="st32" d="M288.2,406.2v-1.1c-0.5,0.7-1.4,1.2-2.4,1.2c-1.8,0-3.1-1.4-3.1-3.7c0-2.3,1.3-3.7,3.1-3.7
				c1,0,1.8,0.5,2.4,1.2v-3.8h1.1v9.8H288.2z M288.2,404.3v-3.2c-0.4-0.6-1.2-1.1-2.1-1.1c-1.4,0-2.3,1.2-2.3,2.7
				c0,1.6,0.8,2.7,2.3,2.7C286.9,405.4,287.8,404.9,288.2,404.3z"/>
			<path id="XMLID_262_" class="st32" d="M294.5,406.2v-9.8h1.1v3.8c0.6-0.8,1.4-1.2,2.4-1.2c1.8,0,3.1,1.5,3.1,3.7
				c0,2.3-1.3,3.7-3.1,3.7c-1,0-1.9-0.5-2.4-1.2v1.1H294.5z M297.7,405.4c1.4,0,2.3-1.2,2.3-2.7c0-1.6-0.8-2.7-2.3-2.7
				c-0.9,0-1.7,0.5-2.1,1.1v3.2C296,404.9,296.9,405.4,297.7,405.4z"/>
			<path id="XMLID_260_" class="st32" d="M302.3,408c0.2,0.1,0.4,0.1,0.6,0.1c0.5,0,0.8-0.2,1.1-0.7l0.5-1.1l-3-7.1h1.2l2.4,5.8
				l2.3-5.8h1.2l-3.5,8.5c-0.4,1-1.1,1.4-2.1,1.4c-0.2,0-0.6,0-0.8-0.1L302.3,408z"/>
		</g>
	</g>
</g>
</svg>
