<?xml version="1.0" encoding="utf-8"?>
<!-- Generator: Adobe Illustrator 24.1.0, SVG Export Plug-In . SVG Version: 6.00 Build 0)  -->
<svg version="1.1" id="Ebene_1" xmlns="http://www.w3.org/2000/svg" xmlns:xlink="http://www.w3.org/1999/xlink" x="0px" y="0px"
	 viewBox="0 0 500 371" style="enable-background:new 0 0 500 371;" xml:space="preserve">
<style type="text/css">
	.st0{fill:#FFFFFF;}
	.st1{fill:#ADBEC4;}
	.st2{fill:#1D2643;}
	.st3{fill:#F0C9CF;}
	.st4{fill:#EB9156;}
	.st5{fill:#26C485;}
	.st6{fill:#DBDBDB;}
	.st7{fill:#D3A5AE;}
	.st8{fill:#0E3944;}
	.st9{fill:#1A4850;}
	.st10{fill:#6097B2;}
	.st11{fill:#164353;}
	.st12{fill:#205260;}
	.st13{fill:#CFD8DC;}
	.st14{fill:#99A3CA;}
	.st15{fill:#662C33;}
	.st16{fill:#BAD1CD;}
	.st17{fill:#0C476B;}
	.st18{fill:#4A5C9A;}
	.st19{fill:#8B383E;}
	.st20{fill:#225866;}
	.st21{fill:#8BBDDB;}
	.st22{fill:#3E6575;}
	.st23{fill:#DB614D;}
	.st24{fill:#CEE8F0;}
	.st25{fill:#36C2D9;}
	.st26{fill:#E6E6E6;}
	.st27{fill:#E8796D;}
</style>
<g id="BACKGROUND">
	<g>
		<rect y="-73.1" class="st0" width="500" height="500"/>
	</g>
</g>
<g id="OBJECTS">
	<g>
		<path class="st1" d="M110.8,338.2H55.7c-1,0-1.8-0.8-1.8-1.8v-1c0-1,0.8-1.8,1.8-1.8h55.1c1,0,1.8,0.8,1.8,1.8v1
			C112.5,337.4,111.8,338.2,110.8,338.2z"/>
		<path class="st1" d="M459.9,338.2h-15.1c-1,0-1.8-0.8-1.8-1.8v-1c0-1,0.8-1.8,1.8-1.8h15.1c1,0,1.8,0.8,1.8,1.8v1
			C461.7,337.4,460.9,338.2,459.9,338.2z"/>
		<path class="st1" d="M214.5,338.2h-55.1c-1,0-1.8-0.8-1.8-1.8v-1c0-1,0.8-1.8,1.8-1.8h55.1c1,0,1.8,0.8,1.8,1.8v1
			C216.2,337.4,215.5,338.2,214.5,338.2z"/>
		<path class="st1" d="M295.4,338.2h-55.1c-1,0-1.8-0.8-1.8-1.8v-1c0-1,0.8-1.8,1.8-1.8h55.1c1,0,1.8,0.8,1.8,1.8v1
			C297.1,337.4,296.4,338.2,295.4,338.2z"/>
		<path class="st1" d="M394.5,338.2h-75.1c-1,0-1.8-0.8-1.8-1.8v-1c0-1,0.8-1.8,1.8-1.8h75.1c1,0,1.8,0.8,1.8,1.8v1
			C396.2,337.4,395.4,338.2,394.5,338.2z"/>
	</g>
	<g>
		<path class="st2" d="M129.3,88c0,0-5.8-4-14.3-0.9c-8.5,3-10.4,14.5-8.3,23.8S97.1,152,97.1,152s6.1,8.6,27.4,5.3
			c0,0,15.9-28.8,14.7-49.6S129.3,88,129.3,88z"/>
		<path class="st3" d="M136,123.7c8-2.6,12.9,4.1,17.5,16.5s6.1,13.6,6.1,13.6l17.7,11.4l-1.5,6.6c0,0-16.8-6.6-20.9-10.8
			c-4.1-4.2-15.8-25.4-15.8-25.4L136,123.7z"/>
		<path class="st4" d="M97,203.8c0,0-3.5,17.6-2.9,44c0,0-13.7,20.2-2.4,77.7h5.9c0,0,4.8-49,8.5-62.2c3.7-13.3,17.4-17.3,18.1-57.7
			L97,203.8z"/>
		<path class="st4" d="M69.9,255.5c-3.4-11.3-12.3-30.3-35-56.1c0,0-1.4-0.7-3.2,0.4c-1.9,1.2-1.9,2.6-1.9,2.6s11.4,24.8,18.6,43
			c2.4,6.1,8.3,10.1,14.9,10.1H69.9z"/>
		<path class="st5" d="M111.2,277.5c0,0,0.1,8.5-5.5,8.6c-7.8,0.2-8.1-8.3-17-8s-27.2,2.5-33-11.4c-3-7.2,1.1-16.4-8.6-23.3
			s-5-14.7,0-18.9c5-4.2-2.2-8.7,3.1-10.8c1.2-0.5,2.5-0.4,3.6-0.1c0.7,0.2,1.3,0.6,1.9,1c2.8,1.8,4.7,5,4.7,5
			c14.6-40.4,40.8-45.7,40.8-45.7l25.9,8.9C127.8,245.5,111.2,277.5,111.2,277.5z"/>
		<path class="st6" d="M136,123.7c0,0-6,2-14.6,0.7s-11.4-6.7-17.4-3.2c-9.1,5.2-4.8,23.2-2.5,32.5c0.8,3.5,1.9,12.6-0.1,20.2
			c0,0,12.1,9.4,25.9,8.9l7.5-16.4C134.7,166.4,151.1,146.8,136,123.7z"/>
		<path class="st7" d="M120.6,108.7c0,0,1,8.5-2.1,16.2c0,0,4.5,6.6,8.8,2.3c0,0,0.4-7.8,5.2-16.6
			C135.7,104.7,120.6,108.7,120.6,108.7z"/>
		<g>
			<path class="st3" d="M113.8,109c0,0-3.8-2.4-3.4,1.3c0.5,4.3,4.7,5.1,5.1,3.6C116,112.4,113.8,109,113.8,109z"/>
			<path class="st3" d="M135.5,104.3c0,0,2.4-3.8,3.6-0.3c1.4,4.1-2,6.6-3.1,5.5C134.9,108.4,135.5,104.3,135.5,104.3z"/>
			<path class="st3" d="M127.6,121.8c-6.9,1.5-11.7-2.1-14.7-15.5c-1.6-6.9,1-12,8.7-13.7s11.9,1.8,13.4,8.7
				C138.3,115.7,134.7,120.2,127.6,121.8z"/>
			<path class="st7" d="M133.8,106.6c0.3,0.7-0.2,1.5-1,1.8s-1.7,0.1-2-0.6c-0.3-0.7,0.2-1.5,1-1.8
				C132.7,105.7,133.6,105.9,133.8,106.6z"/>
			<path class="st7" d="M119.8,110.1c0.1,0.7-0.5,1.4-1.4,1.5s-1.7-0.3-1.8-1c-0.1-0.7,0.5-1.4,1.4-1.5
				C118.9,109,119.7,109.4,119.8,110.1z"/>
			<g>
				<path class="st8" d="M129.1,100.3c-0.1,0-0.1,0-0.2-0.1c-1.2-0.8-2.8-0.4-2.9-0.4c-0.2,0.1-0.4-0.1-0.4-0.3s0.1-0.4,0.3-0.4
					c0.1,0,2-0.5,3.4,0.5c0.2,0.1,0.2,0.3,0.1,0.5C129.3,100.3,129.2,100.3,129.1,100.3z"/>
			</g>
			<g>
				<path class="st8" d="M116.1,103.2c-0.1,0-0.1,0-0.2-0.1c-0.2-0.1-0.2-0.3-0.1-0.5c0.9-1.5,2.8-1.9,2.9-1.9
					c0.2,0,0.4,0.1,0.4,0.3s-0.1,0.4-0.3,0.4c0,0-1.7,0.3-2.4,1.5C116.4,103.2,116.3,103.2,116.1,103.2z"/>
			</g>
			<path class="st9" d="M129.4,104.1c0.2,0.9,0,1.6-0.5,1.7c-0.5,0.1-1-0.5-1.2-1.4s0-1.6,0.5-1.7
				C128.6,102.6,129.2,103.2,129.4,104.1z"/>
			<path class="st9" d="M119.8,106.1c0.2,0.9,0,1.6-0.5,1.7c-0.5,0.1-1-0.5-1.2-1.4s0-1.6,0.5-1.7
				C119.1,104.7,119.6,105.3,119.8,106.1z"/>
			<path class="st9" d="M122.9,114.2c0,0,4.4-0.4,6.3-2c0,0-0.5,3.4-2.9,3.7C123.9,116.1,122.9,114.2,122.9,114.2z"/>
			<path class="st9" d="M127,104.2c0,0,0.2-2.2,1-2.3c0.9,0,1.9,1.6,1.9,1.6l1.1-0.9l-1.2,0.4c0,0-1.1-1.7-1.9-1.6
				C126.7,101.8,127,104.2,127,104.2z"/>
			<path class="st9" d="M120.4,105.9c0,0-1.1-2-1.9-1.6c-0.8,0.3-1,2.3-1,2.3l-1.4-0.4l1.3-0.1c0,0,0.2-2,1-2.2
				C119.5,103.6,120.4,105.9,120.4,105.9z"/>
			<g>
				<path class="st7" d="M125.1,110.2l-0.4-0.7c0.6-0.3,0.6-0.7,0.6-1c-0.1-0.4-0.4-0.7-0.7-0.7c-0.1,0-0.3,0.1-0.3,0.4l-0.7-0.3
					c0.3-0.8,0.9-0.9,1.1-0.8c0.6,0,1.2,0.6,1.3,1.3C126.2,109.2,125.9,109.8,125.1,110.2z"/>
			</g>
			<path class="st8" d="M114.3,111.4c0,0-2.1-7.8-0.9-13.3c0,0,6-8.3,17.5-4.2c0,0,3.4,5.5,5.1,13.2c0,0,0.4-2.8-0.7-8.9
				c-1.1-6.2-6.6-10-14.1-8.8C113.7,90.7,105.7,98.1,114.3,111.4z"/>
		</g>
		<path class="st2" d="M126.4,92.2c0,0,0.5,2-1.5,7.3c0,0-1.4-1.5-3.1,0s-5,1-6.2,1.8s-1.2,2.6-1.2,2.6s-1-2.3,0-5
			c0,0-2.2,2.9-1.9,6.4c0,0-3-0.5-2.9-5.5s7.3-13.2,15.3-12.6c8,0.5,9.9,13.2,9.9,13.2s-0.7-0.6-1.9-0.3c0,0-0.2-2.7-2-6.1
			c0,0,0.8,2.4,0,5.1c0,0-2.2-1.2-4-0.8C126.9,98.2,128,96.1,126.4,92.2z"/>
		<path class="st3" d="M101.9,122.9c3.9-3.1,6.9,0.8,7.7,6.2c0.7,5.4-6.3,37.3-11.8,36.2c-2.1-0.5-3-8.8-3-8.8s2.1-9,3.5-22.5
			C99,127.7,99.8,124.5,101.9,122.9z"/>
		<path class="st3" d="M90.5,160.7c-5.3-5-14.7-21.6-17.1-30.1l4-1.6c0,0,12,17.2,17.5,21.5s7.4,9.2,5,13.3
			C97.4,168,91.6,161.8,90.5,160.7z"/>
		<g>
			<path class="st3" d="M75.1,119.6c-0.3,5.4,4.2,6.7,2.2,10.9c-0.4,0.9-1,1.3-1.7,1.5c-1.2,0.4-2.6,0-3.5-0.9
				c-2.1-2.1-5.4-4.4-7.1-5.4c-2-1.1-0.9-1.4-0.9-1.4c-0.2-0.1-0.4-0.2-0.6-0.2c-1.4-0.6-2.5-0.8-1.5-1.4c1.1-0.7,5.2,0.8,5.2,0.8
				c-5.3-3.5-6.7-2.7-5.8-3.4c1.3-1,6.3,1.3,6.5,1.4c-2.8-2.6-4.8-3.2-3.7-3.6c1.1-0.4,6.7,3.6,8.7,5.1c0.5,0.3,0.7,0.6,0.7,0.6
				C73.7,119,75.1,119.6,75.1,119.6z"/>
			<path class="st3" d="M73,122.9c0.5,0.3,0.7,0.6,0.7,0.6s-0.9,1.6,0.3,3.7C74,127.1,71.8,125.6,73,122.9z"/>
			<path class="st3" d="M68.4,126c-0.5-0.3-3.1-1.8-4.2-1.7c-0.2-0.1-0.4-0.2-0.6-0.2C64.4,123.1,67.9,125.6,68.4,126z"/>
		</g>
		<g>
			<path class="st10" d="M89.4,206.6c0,0.6-0.5,1.1-1.1,1.1s-1.1-0.5-1.1-1.1s0.5-1.1,1.1-1.1S89.4,206,89.4,206.6z"/>
			<path class="st10" d="M108.4,213.9c0,0.6-0.5,1.1-1.1,1.1s-1.1-0.5-1.1-1.1s0.5-1.1,1.1-1.1S108.4,213.3,108.4,213.9z"/>
			<path class="st10" d="M124.6,217.9c0,0.6-0.5,1.1-1.1,1.1s-1.1-0.5-1.1-1.1s0.5-1.1,1.1-1.1S124.6,217.3,124.6,217.9z"/>
			<path class="st10" d="M99.7,192.6c0,0.6-0.5,1.1-1.1,1.1s-1.1-0.5-1.1-1.1s0.5-1.1,1.1-1.1S99.7,192,99.7,192.6z"/>
			<circle class="st10" cx="102.2" cy="202.8" r="1.1"/>
			<path class="st10" d="M120.2,208.6c0,0.6-0.5,1.1-1.1,1.1s-1.1-0.5-1.1-1.1s0.5-1.1,1.1-1.1S120.2,208,120.2,208.6z"/>
			<path class="st10" d="M122.5,191.1c0,0.6-0.5,1.1-1.1,1.1s-1.1-0.5-1.1-1.1s0.5-1.1,1.1-1.1S122.5,190.5,122.5,191.1z"/>
			<circle class="st10" cx="110.4" cy="187.4" r="1.1"/>
			<path class="st10" d="M79.9,227.4c0,0.6-0.5,1.1-1.1,1.1s-1.1-0.5-1.1-1.1s0.5-1.1,1.1-1.1S79.9,226.8,79.9,227.4z"/>
			<path class="st10" d="M64.7,222.8c0,0.6-0.5,1.1-1.1,1.1s-1.1-0.5-1.1-1.1s0.5-1.1,1.1-1.1C64.2,221.8,64.7,222.3,64.7,222.8z"/>
			<path class="st10" d="M55.6,214.5c-0.2,0.3-0.5,0.5-0.9,0.5c-0.6,0-1.1-0.5-1.1-1.1c0-0.1,0-0.3,0.1-0.4
				C54.4,213.8,55,214.1,55.6,214.5z"/>
			<circle class="st10" cx="84.3" cy="241.3" r="1.1"/>
			<path class="st10" d="M58.1,256.4c0,0.6-0.5,1.1-1.1,1.1s-1.1-0.5-1.1-1.1c0-0.6,0.5-1.1,1.1-1.1S58.1,255.8,58.1,256.4z"/>
			<circle class="st10" cx="68.2" cy="247.3" r="1.1"/>
			<circle class="st10" cx="51.5" cy="239.2" r="1.1"/>
			<path class="st10" d="M66,271.1c0,0.6-0.5,1.1-1.1,1.1s-1.1-0.5-1.1-1.1s0.5-1.1,1.1-1.1S66,270.5,66,271.1z"/>
			<path class="st10" d="M76.2,215c0,0.6-0.5,1.1-1.1,1.1S74,215.6,74,215s0.5-1.1,1.1-1.1S76.2,214.4,76.2,215z"/>
			<path class="st10" d="M86.4,197c0,0.6-0.5,1.1-1.1,1.1s-1.1-0.5-1.1-1.1s0.5-1.1,1.1-1.1C86,195.9,86.4,196.4,86.4,197z"/>
			<path class="st10" d="M98,182c0,0.6-0.5,1.1-1.1,1.1s-1.1-0.5-1.1-1.1s0.5-1.1,1.1-1.1C97.6,181,98,181.5,98,182z"/>
			<path class="st10" d="M74.5,203.8c0,0.6-0.5,1.1-1.1,1.1s-1.1-0.5-1.1-1.1s0.5-1.1,1.1-1.1S74.5,203.3,74.5,203.8z"/>
			<path class="st10" d="M87.5,186.4c0,0.6-0.5,1.1-1.1,1.1s-1.1-0.5-1.1-1.1s0.5-1.1,1.1-1.1S87.5,185.8,87.5,186.4z"/>
			<path class="st10" d="M67.1,234.4c0,0.6-0.5,1.1-1.1,1.1s-1.1-0.5-1.1-1.1s0.5-1.1,1.1-1.1S67.1,233.8,67.1,234.4z"/>
			<path class="st10" d="M53.7,225c0,0.6-0.5,1.1-1.1,1.1s-1.1-0.5-1.1-1.1s0.5-1.1,1.1-1.1S53.7,224.4,53.7,225z"/>
			<circle class="st10" cx="91.5" cy="221.8" r="1.1"/>
			<circle class="st10" cx="113.6" cy="227.4" r="1.1"/>
			<path class="st10" d="M113.6,197c0,0.6-0.5,1.1-1.1,1.1s-1.1-0.5-1.1-1.1s0.5-1.1,1.1-1.1S113.6,196.4,113.6,197z"/>
			<path class="st10" d="M126.4,199.2c0,0.6-0.5,1.1-1.1,1.1s-1.1-0.5-1.1-1.1s0.5-1.1,1.1-1.1S126.4,198.7,126.4,199.2z"/>
			<path class="st10" d="M100.8,235.5c0,0.6-0.5,1.1-1.1,1.1s-1.1-0.5-1.1-1.1s0.5-1.1,1.1-1.1S100.8,234.9,100.8,235.5z"/>
			<circle class="st10" cx="90.4" cy="254.5" r="1.1"/>
			<circle class="st10" cx="74" cy="257.5" r="1.1"/>
			<circle class="st10" cx="119.1" cy="241.3" r="1.1"/>
			<path class="st10" d="M105.4,249.4c0,0.6-0.5,1.1-1.1,1.1s-1.1-0.5-1.1-1.1s0.5-1.1,1.1-1.1S105.4,248.8,105.4,249.4z"/>
			<path class="st10" d="M83.2,273.2c0,0.6-0.5,1.1-1.1,1.1s-1.1-0.5-1.1-1.1s0.5-1.1,1.1-1.1C82.8,272.2,83.2,272.6,83.2,273.2z"/>
			<circle class="st10" cx="98.6" cy="267.7" r="1.1"/>
			<circle class="st10" cx="114.5" cy="261.4" r="1.1"/>
			<path class="st10" d="M108.4,279.7c0,0.6-0.5,1.1-1.1,1.1s-1.1-0.5-1.1-1.1s0.5-1.1,1.1-1.1S108.4,279.2,108.4,279.7z"/>
		</g>
		<g>
			<path class="st11" d="M107.2,336H89.7c-1.1-3.3,1-6.5,0.6-9.4c-0.6-4.9,2.2-2.2,2.2-2.2c0.5-5.2,7.8-6.2,7.8-3.9
				c-0.1,3.4,0.5,5.6,1.5,7c2,2.9,5.2,2.8,5.8,4.9c0.1,0.2,0.1,0.4,0.1,0.6C108.3,335.5,107.2,336,107.2,336z"/>
			<path class="st12" d="M107.7,332.9c-3.6,0.8-12-0.3-12.3-2.4c-0.3-2,4.2-3,6.4-3.1c2,2.9,5.2,2.8,5.8,4.9
				C107.7,332.5,107.7,332.7,107.7,332.9z"/>
		</g>
		<g>
			<path class="st11" d="M35.2,200.2c-1.9-1.7-4.9,1.1-4.9,1.1s1.6,2.4,0.6,3.4c-1.1,1-2.3-1.3-4.4-0.3c-0.2,0.1-0.3,0.2-0.5,0.3
				c-1.6,1-3.3,3-4.7,4.5c-0.3,0.3-0.5,0.6-0.8,0.9c-1.6,1.7-5.7,2.6-6.5-1.8s4.2-9.6,9.7-14.4s9-1.9,9-1.9s1.2,2,1.2,3.3
				c0,1.2,1.1,1.9,1.7,3.1C36.4,199.4,35.2,200.2,35.2,200.2z"/>
			<path class="st12" d="M26,204.7c-1.6,1-3.3,3-4.7,4.5c-2.1,0.5-3.9,0.3-4.2-1.6c-0.7-4.7,8.6-10.6,7.9-7.3
				C24.6,202,25.3,203.5,26,204.7z"/>
		</g>
	</g>
	<g>
		<path class="st13" d="M350.6,328.4c-0.9-0.5-1.7-1.5-2.4-2.7c0,0-0.6-3.7,0-7.7c0.6-3.9-1.1-7.1-6.6-8.3
			c-5.4-1.2-8.6,1.4-7.4,12.3l0,0c-0.8,4.5-1,9.7,0.9,14h16.6C351.7,336,354.4,330.3,350.6,328.4z"/>
		<path class="st3" d="M365.2,269.9c0,0,0,10.8-6.1,21.9c-6.2,11.3-13.9,26.8-13.9,26.8s-5.1,5-8.4-3.3c0,0,2.3-28.8,7.6-39.4
			C349.7,265.5,365.2,269.9,365.2,269.9z"/>
		<path class="st3" d="M444.9,234.6c0,0,9.9,41.6,16.2,52.6c0,0-1.4,4.6-8.3,6c0,0-21.5-31.6-22.9-45
			C428.5,234.9,444.9,234.6,444.9,234.6z"/>
		<g>
			<path class="st2" d="M449.6,244.4c-2.6,6.3-23,6.7-23,6.7l-1.6-2.3l-0.4-0.6l-3.2-4.7c0,0-33.7-33-40.2-30.3l0,0
				c-0.2,0.1-0.4,0.2-0.6,0.3c-4.5,3.2-4.9,20.9-10.3,50.5c-0.5,2.8-1.6,6.1-2.5,8.3c-0.1,0.2-0.2,0.5-0.3,0.7
				c-0.5,1.3-0.8,2.1-0.8,2.1c-20.6,8.3-27.3-8.1-27.3-8.1s0.2-0.5,0.6-1.2c0.1-0.2,0.2-0.4,0.3-0.6c1.1-2.4,2.8-6.5,2.8-8.7
				c0-2.4,0-4.7-0.1-6.9c0-0.2,0-0.4,0-0.6c0-7.1,0-13.3,0-18.7v-0.4c0-2.3,0.1-4.5,0.1-6.6v-0.6c0.2-9.4,0.5-15.6,0.8-19.8
				c0-0.2,0-0.4,0-0.6c0.6-7,1.2-7.7,1.2-7.7L341,166h45c0,0,6.8,6.8,15.5,15.7c0.2,0.2,0.4,0.4,0.5,0.5c3.2,3.2,6.6,6.7,10,10.3
				c0.1,0.1,0.3,0.3,0.4,0.4c1.4,1.4,2.7,2.8,4.1,4.2c0.2,0.2,0.3,0.3,0.5,0.5c4.5,4.7,8.9,9.3,12.6,13.3c0.1,0.1,0.3,0.3,0.4,0.4
				c5.1,5.5,9,10,10.4,12c3.6,5.5,6.3,12.5,7.9,16.9l0,0c0.1,0.2,0.1,0.4,0.2,0.6C449.2,243.1,449.6,244.4,449.6,244.4z"/>
			<g>
				<path class="st14" d="M351.9,199c-1.8,2.2-4.5,3.5-7.9,4c0-0.2,0-0.4,0-0.6c3.2-0.5,5.8-1.7,7.5-3.8c3.1-3.6,2.6-8.6,2.6-8.6
					l0.6-0.1C354.7,190.1,355.2,195.1,351.9,199z"/>
				<path class="st14" d="M402.1,182.3c-0.2,0-0.3,0-0.5,0c-5,0-10.2-5.5-10.5-5.7l0.4-0.4c0.1,0.1,5.3,5.5,10.1,5.6
					C401.7,181.9,401.9,182.1,402.1,182.3z"/>
				<path class="st14" d="M368,272.4c-0.1,0.2-0.2,0.5-0.3,0.7c-3.3,1.2-6.4,1.7-9.2,1.7c-8.9,0-15-5.1-18.4-9
					c0.1-0.2,0.2-0.4,0.3-0.6C344.7,270.3,353.9,277.8,368,272.4z"/>
				<path class="st14" d="M380,203c0.7,3.2,1.2,6.7,1.2,10.3c-0.2,0.1-0.4,0.2-0.6,0.3c0-16.8-9.7-29.8-9.8-30l0.4-0.3
					c0.1,0.1,5.8,7.9,8.6,19.1c1.1-0.7,1.9-1.8,2.2-3.2c1.4-5.9-5-15.5-5-15.6l0.5-0.3c0.3,0.4,6.6,9.9,5.1,16
					C382.3,200.9,381.4,202.1,380,203z"/>
				<path class="st14" d="M430.1,211.4c-1.7,1.8-3.2,3.3-3.4,3.5l-0.3,0.3l-0.1-0.4c-2.2-5.7-16.2-18-16.3-18.2l-0.2-0.2l2.3-3.9
					c0.1,0.1,0.3,0.3,0.4,0.4l-2,3.2c2.7,0.9,4.7,1.1,6,0.9c0.2,0.2,0.3,0.3,0.5,0.5c-0.5,0.1-0.9,0.1-1.5,0.1
					c-1.3,0-2.7-0.3-4.3-0.7c3.2,2.9,13,12,15.3,17.1c0.9-0.9,2-2,3.1-3.2C429.8,211.1,430,211.3,430.1,211.4z"/>
				<path class="st14" d="M353.3,249.6h-0.2c-0.2,0.1-2.7,0.6-5.6,0.6c-1.5,0-3-0.1-4.4-0.5c0-0.2,0-0.4,0-0.6
					c3.7,1.1,8.6,0.2,9.7,0l-0.9-23.1c-0.5,1.3-1.6,3-3.5,4c-0.9,0.5-2,0.7-3.1,0.7c-0.7,0-1.4-0.1-2.1-0.2v-0.6
					c1.9,0.4,3.6,0.3,5-0.4c2.4-1.2,3.3-3.7,3.6-4.7c-1.9,0.3-5.6-0.7-8.4-1.5v-0.6c3.1,0.9,7.2,2,8.7,1.5l0.4-0.1L353.3,249.6z"/>
				<path class="st15" d="M448.5,240.9c-3.2,3.2-9.8,8.1-20,8.1c-1.1,0-2.2-0.1-3.4-0.2l-0.4-0.6c12.4,1.4,20.1-4.4,23.6-7.8
					C448.4,240.6,448.5,240.8,448.5,240.9z"/>
			</g>
		</g>
		<path class="st5" d="M394.3,44.3c0,0-1.2-2.8-6.5-2.8c-4,0-5.6,2.2-5.6,2.2c-2.4,7-5,34-5.9,34.9c-0.5,0.5-30.3,20.6-30.3,20.6
			c16.2,0.3,26.3,20.3,26.3,20.3c0.5-6.6,18.8-32.5,19-34.9C391.8,80.2,399.5,60.7,394.3,44.3z"/>
		<path class="st5" d="M342.6,185.1c0,0-0.1,5.6,1.7,6c1.8,0.4,16.6,4.7,33.6-3c17-7.7,20-13.5,15-17.7
			C387.9,166.1,342.6,185.1,342.6,185.1z"/>
		<path class="st16" d="M335.7,103.1c0,0-15.5-1.8-24.4,2c0,0-2.5,11,9.7,35.6s9.4,40.1,23.1,45.9c12.2,5.2,48.2-10.2,49.3-15.3
			c2.8-12.8-19.2-35.4-20.5-48.5C371.6,109.7,358.8,90.1,335.7,103.1z"/>
		<path class="st5" d="M311.4,105.1c-10.8,3.8-23,16-23,21.9c0,5.9,10.2,8.1,10.2,8.1l16.7-8.1c0,0,4.8-3.3,1.7-13
			C313.9,104.2,311.4,105.1,311.4,105.1z"/>
		<g>
			<path class="st5" d="M355.8,115.9c-3.2,0-7.2-1.2-9.7-2.9c-1.4-1-2.2-2.1-2.4-3.2c-0.6-3.8,3.1-5.8,3.3-5.9l0.5,1
				c-0.1,0.1-3.2,1.7-2.7,4.7c0.1,0.8,0.8,1.7,1.9,2.5c2.8,2,7.6,3.2,10.8,2.6c1.4-0.2,2.3-0.8,2.8-1.5c0.5-0.9,0.1-2,0.1-2l1-0.4
				c0,0.1,0.6,1.5-0.1,2.9c-0.6,1.1-1.8,1.8-3.5,2.1C357.1,115.8,356.5,115.9,355.8,115.9z"/>
		</g>
		<g>
			<path class="st5" d="M342.1,127.6c-2.4,0-6.4-1-6.9-4.9c-0.3-2-0.1-3.7,0.1-5.1c0.2-2.2,0.4-3.9-0.8-5.9c-2.1-3.4-4.9-3.6-5-3.6
				l0.1-1.1c0.1,0,3.5,0.2,5.9,4.1c1.5,2.4,1.2,4.4,1,6.6c-0.2,1.5-0.3,3-0.1,4.9c0.6,4.2,6,4,6.2,4l0.1,1.1
				C342.4,127.6,342.3,127.6,342.1,127.6z"/>
		</g>
		<path class="st5" d="M345.5,107.7c0,0,8.2-5.6,6.2-11.6c-1.9-6-28.3-5.6-35.1,1.6c-6.8,7.2,14.7,12,14.7,12
			C333,106.3,343.6,105.9,345.5,107.7z"/>
		<path class="st16" d="M330.8,106.7c-3.9-1.3-6.2-4.1-5.4-7.4c0.8-3.2,17.5-3.3,20.7-0.7C349.3,101.2,344.8,111.5,330.8,106.7z"/>
		<path class="st7" d="M328.9,97.6c0,0,3.4,5.9,1.8,9.1c0,0,11.8,4.1,11.8-2.5c0,0-2.2-4.9-1.4-8.1L328.9,97.6z"/>
		<g>
			<path class="st4" d="M325,92.5c0,0-5.8-9.3-5.3-18.1c0.3-4.4,2.5-6.2,2.5-6.2s-1.8-2.6,0.1-6.5c0,0,2.7,3.2,12.3,2.2
				c9.2-1,10.2,5.6,10.2,5.6c6.6,1,2.1,21-2.5,23H325z"/>
			<path class="st3" d="M322.5,83.9c0,0-3.3-3.3-3.7,0.6c-0.5,4.5,3.6,6.3,4.4,4.9C324,88,322.5,83.9,322.5,83.9z"/>
			<path class="st3" d="M345.8,84.2c0,0,3.3-3.3,3.7,0.6c0.5,4.5-3.6,6.3-4.4,4.9C344.4,88.2,345.8,84.2,345.8,84.2z"/>
			<path class="st3" d="M333.8,100.2c-7.4,0-11.6-4.8-11.6-19.3c0-7.5,3.8-12,12.1-12c8.3,0,11.8,4.6,11.8,12
				C346.1,96.5,341.5,100.2,333.8,100.2z"/>
			<path class="st7" d="M343.7,86.1c0.1,0.7-0.5,1.5-1.4,1.6c-0.9,0.2-1.8-0.3-1.9-1.1c-0.1-0.7,0.5-1.5,1.4-1.6
				C342.7,84.9,343.5,85.4,343.7,86.1z"/>
			<path class="st7" d="M328.5,86.5c0,0.8-0.9,1.3-1.8,1.3c-0.9-0.1-1.7-0.7-1.6-1.5c0-0.8,0.9-1.3,1.8-1.3
				C327.8,85.1,328.5,85.8,328.5,86.5z"/>
			<g>
				<path class="st4" d="M340.4,78.3c-0.1,0-0.2,0-0.3-0.1c-1.2-0.9-2.9-0.6-3-0.6c-0.2,0-0.4-0.1-0.4-0.3s0.1-0.4,0.3-0.4
					c0.1,0,2.1-0.4,3.6,0.7c0.2,0.1,0.2,0.4,0.1,0.5C340.6,78.3,340.5,78.3,340.4,78.3z"/>
			</g>
			<g>
				<path class="st4" d="M326.3,78.4c-0.1,0-0.2-0.1-0.2-0.1c-0.1-0.2-0.1-0.4,0.1-0.5c1.4-1.1,3.4-0.8,3.5-0.8
					c0.2,0,0.3,0.2,0.3,0.4s-0.2,0.3-0.4,0.3c0,0-1.8-0.3-2.9,0.7C326.5,78.4,326.4,78.4,326.3,78.4z"/>
			</g>
			<path class="st9" d="M339.6,82.5c0,0.9-0.4,1.7-0.9,1.7s-0.9-0.7-0.9-1.7c0-0.9,0.4-1.7,0.9-1.7
				C339.2,80.9,339.6,81.6,339.6,82.5z"/>
			<path class="st9" d="M329.8,82.5c0,0.9-0.4,1.7-0.9,1.7s-0.9-0.7-0.9-1.7c0-0.9,0.4-1.7,0.9-1.7S329.8,81.6,329.8,82.5z"/>
			<path class="st4" d="M324.5,70.5c0,0,7.9,2.9,19.2,2.1c0,0,2.4,3,2.1,13.6c0,0,6.6-19.1-12.7-19.1s-10.6,18.6-10.6,18.6
				S321,74.1,324.5,70.5z"/>
			<g>
				<path class="st7" d="M334.3,87.4l-0.6-0.6l1.5-1.5c-1.4-2-1.4-6.6-1.4-6.8h0.8c0,0,0,5,1.4,6.6l0.3,0.3L334.3,87.4z"/>
			</g>
			<path class="st9" d="M329.4,89.9c0,0,7.3,0.3,10.9-0.7c0,0,0.6,5.3-5,5.6C329.4,95,329.4,89.9,329.4,89.9z"/>
		</g>
		<path class="st13" d="M360.5,109.9c1.4-0.3,1.2,3.4,0,2.3C359.2,111.1,359.1,110.1,360.5,109.9z"/>
		<path class="st13" d="M343.7,127.5c-0.2,1.4-3.6,0.1-2.2-0.8C343,125.9,344,126.1,343.7,127.5z"/>
		<path class="st7" d="M328.8,135c0,0-2.2,5.7-2.1,8.8c0.1,3.2,1.2,2.8,1.2,2.8s-1.7,0.7-2,2.5s4.3,3.2,4.6,3.2
			c0.3,0,3.6-1.2,3.6-1.2l0.7-10.4l-2.9-1.8L328.8,135z"/>
		<path class="st3" d="M330.6,134.3c0,0,4,2.5,5.6,4s0.7,13.3,0,13.9c-0.7,0.6-5.8,1.7-6.8,1.1c-1-0.6,0.4-4.1,0.4-4.1
			s2.6-0.6,2.2,0.4s0,1.8,0,1.8l1.1-0.4c0,0-0.5-2.6,0-4.6c0.5-1.9-3.6-4-4.1-7.5C328.4,135.3,330.6,134.3,330.6,134.3z"/>
		<path class="st5" d="M289,128.6c-1.3-5.5,4.2-7.5,11.9-6.6c8.9,1.1,27.1,3.4,31.1,13c0,0,1.3,3.8-2.1,5.6
			C320.6,145.8,291.4,139,289,128.6z"/>
		<path class="st5" d="M316.8,124.9c0,0-10.6-4.4-15.9-4.8C295.7,119.6,308.2,124.2,316.8,124.9z"/>
		<g>
			<path class="st3" d="M396.1,29.6c-0.8,0.9-2.1,4.5-2.1,4.5c-0.6,3-0.9,4.6-1.9,6s-0.5,3.8-0.5,3.8s-4,2.1-7.4-0.5
				c0,0,0.4-2.4,0-3.1c-0.7-1.4-2.9-2.1-3.7-4.8c-0.8-2.7-3.1-5.8-3.1-5.8s0.7-1.4,1.9-0.6c1.2,0.9,2,3.1,2.6,3.3
				c0.1,0,0.3,0.1,0.4,0.1l0,0c0.5,0.1,1,0,1.3-0.3c0,0,0.1,0,0.1-0.1c1.1-1.3,1.4-5,1.3-6.7c-0.1-2.3,0-5.6,1.4-5
				c1.4,0.5,0.1,1.8,1.2,7l0.5,0.1c0.1,0.4,1.1-3.1,1.3-6.4c0.2-2.3,1.6-1.4,2-0.7c0.3,0.7-0.2,3-0.3,4.6c-0.1,1.1-0.2,2.2-0.2,2.9
				l0.6,0.3c2.2-3.9,1.5-5.5,2.8-5.6s0.8,3.2,0.1,4.5c-0.3,0.5-0.6,1.7-0.8,2.8c2.3-2.7,2-4,3.1-3.9C397.9,26,396.9,28.7,396.1,29.6
				z"/>
			<path class="st3" d="M386.2,35.7c-0.8-2.1-3.6-3.1-3.9-3.2c0.5,0.1,1,0,1.3-0.3C386.4,33.3,386.2,35.7,386.2,35.7z"/>
		</g>
		<g>
			<path class="st13" d="M338,319.7c0,0-1.5-3.1-0.2-4.5c1.4-1.3,3,1.2,5.3,0.6s2.9-2.2,3.5,0C347.2,318.1,346.5,325.2,338,319.7z"
				/>
			<path class="st1" d="M346.8,319.5c0,0-6.3,2.2-9.5,0l0.8,2.7c0,0,6.8,0.7,7.8-1L346.8,319.5z"/>
			<path class="st1" d="M346.7,322.9c0,0-5.8-0.8-8.5,0.6v1.3c0,0,7.5-1.8,9.9,0L346.7,322.9z"/>
			<path class="st1" d="M337.9,327.7c0,0,1.1-2.7,4.6-2.9c3.5-0.2,5.9,1.7,5.9,1.7S342.8,324.2,337.9,327.7z"/>
		</g>
		<g>
			<path class="st13" d="M486,289.9c-11,14.7-26.1,17.6-26.1,17.6c-4.4-3.5-4.5-7.6-4.5-7.6s-4.2-3.8-4.8-5.6
				c-0.6-1.8,3.6-7.2,6.1-6.7c1.7,0.4,2.7,1.8,3.2,2.6c-2.1-4.7-0.4-6.3,2.5-5.9c3.1,0.4,0.2,1.1,2.4,3.6c0.2,0.2,0.3,0.3,0.5,0.5
				c0.4,0.3,0.9,0.5,1.4,0.6s1,0.1,1.6,0.1c0.3,0,0.6,0,0.9-0.1c0.6-0.1,1.1-0.2,1.7-0.4c0.9-0.3,1.9-0.7,2.8-1.2
				c3.8-2.1,5.4-2.8,8.3-2.1c2.9,0.7,2.9,2.9,2.9,2.9L486,289.9z"/>
			<path class="st1" d="M486,289.9c-11,14.7-26.1,17.6-26.1,17.6c7.7-3.3,14.7-7.6,19.5-12.9C484.3,289.2,486,289.9,486,289.9z"/>
			<g>
				<path class="st1" d="M465.4,288.4c0.4,0.3,0.9,0.5,1.4,0.6c-2.9,0.6-3.1,3.2-3.1,3.2l-1.2-0.4
					C462.7,288.6,465.2,288.4,465.4,288.4z"/>
				<path class="st1" d="M467.3,292.5H466c-0.5-1.8,0.1-2.9,0.8-3.6c0.5,0.1,1,0.1,1.6,0.1C466.8,290.6,467.3,292.5,467.3,292.5z"/>
				<path class="st1" d="M470.5,291.8l-1.3,0.2c-0.5-1.3-0.4-2.3,0-3c0.6-0.1,1.1-0.2,1.7-0.4C469.9,290.1,470.5,291.8,470.5,291.8z
					"/>
			</g>
		</g>
		<path class="st5" d="M346.9,154.8c0,0,2.9,15.4-2.9,21.5s-2,1.1-0.2-6.8C345.5,161.6,344.2,153.3,346.9,154.8z"/>
		<path class="st5" d="M373.5,148c0,0,9.1,3,13.8,11.4C387.4,159.4,381,145.7,373.5,148z"/>
	</g>
	<g>
		<g>
			<path class="st3" d="M137.5,33.7c1.2,0,4.7,1.4,4.7,1.4c2.6,1.6,4,2.5,5.7,2.6c1.7,0.2,2.4,3.1,2.4,3.1s6.7,1.5,7.1-2.8
				c0,0-3.8-5.3-4-6c-0.5-1.4,0.4-3.6-1.1-6s-2.2-6.2-2.2-6.2s-1.5-0.5-1.7,1s0.9,3.5,0.7,4.2c-0.1,0.1-0.1,0.2-0.2,0.4l0,0
				c-0.3,0.4-0.7,0.7-1.1,0.7h-0.1c-1.7,0-4.6-2.4-5.8-3.5c-1.7-1.6-4.1-3.7-4.7-2.3c-0.6,1.4,1.3,1.3,4.4,5.6l-0.3,0.4
				c0.2,0.3-3-1.3-5.6-3.3c-1.8-1.4-2.2,0.3-1.8,1c0.3,0.7,2.3,1.9,3.6,2.9c0.9,0.7,1.7,1.4,2.3,1.8l-0.2,0.7c-4.4-1-5.1-2.6-6-1.7
				s1.8,2.8,3.2,3.1c0.6,0.1,1.6,0.7,2.6,1.3c-3.5-0.1-4.4-1.2-5-0.3C133.7,32.6,136.3,33.6,137.5,33.7z"/>
			<path class="st3" d="M148.7,30.4c-1.1-2,0.1-4.7,0.2-5.1c-0.3,0.4-0.7,0.7-1.1,0.7C146.8,28.9,148.7,30.4,148.7,30.4z"/>
		</g>
		<g>
			<path class="st3" d="M335.3,33.7c-1.2,0-4.7,1.4-4.7,1.4c-2.6,1.6-4,2.5-5.7,2.6c-1.7,0.2-2.4,3.1-2.4,3.1s-6.7,1.5-7.1-2.8
				c0,0,3.8-5.3,4-6c0.5-1.4-0.4-3.6,1.1-6s2.2-6.2,2.2-6.2s1.5-0.5,1.7,1s-0.9,3.5-0.7,4.2c0.1,0.1,0.1,0.2,0.2,0.4l0,0
				c0.3,0.4,0.7,0.7,1.1,0.7h0.1c1.7,0,4.6-2.4,5.8-3.5c1.7-1.6,4.1-3.7,4.7-2.3c0.6,1.4-1.3,1.3-4.4,5.6l0.3,0.4
				c-0.2,0.3,3-1.3,5.6-3.3c1.8-1.4,2.2,0.3,1.8,1c-0.3,0.7-2.3,1.9-3.6,2.9c-0.9,0.7-1.7,1.4-2.3,1.8l0.2,0.7c4.4-1,5.1-2.6,6-1.7
				s-1.8,2.8-3.2,3.1c-0.6,0.1-1.6,0.7-2.6,1.3c3.5-0.1,4.4-1.2,5-0.3C339.1,32.6,336.5,33.6,335.3,33.7z"/>
			<path class="st3" d="M324.1,30.4c1.1-2-0.1-4.7-0.2-5.1c0.3,0.4,0.7,0.7,1.1,0.7C326,28.9,324.1,30.4,324.1,30.4z"/>
		</g>
		<path class="st2" d="M276.2,237.5l-12.9-80l-25.9,2.9l-25.9-2.9l-12.9,80l-6.2,77.6c0,0,2,6.4,14.9,2c0,0,9.6-72,11.1-73.5
			c1.5-1.6,16.7-48.6,16.7-48.6h4.8c0,0,15.2,47,16.7,48.6s11.1,73.5,11.1,73.5c12.9,4.4,14.9-2,14.9-2L276.2,237.5z"/>
		<path class="st17" d="M229.3,80.1c1.6,1.6,9.7,4.5,13.9,0l2.9,2.8c0,0-3.3,7.7-9,8c-5.8,0.3-9.9-6.9-9.9-6.9L229.3,80.1z"/>
		<path class="st18" d="M252.1,79.2c9.6-4.1,40.7-15.2,40.7-15.2s20.9-26.2,25.2-30.1c0,0,4.6,0.8,6,6.6c0,0-13.5,28.8-20.8,37.1
			c-7.3,8.2-44.4,26.1-44.4,26.1L252.1,79.2z"/>
		<path class="st6" d="M218.4,78.6c2.9-1.8,17.2,7.8,17.2,7.8s18.7-9.9,23.1-8c0,0,4,5.3,5.5,18.9c1.6,13.6,1.7,69.5,1.7,69.5
			s-12.6,4.4-29.6,4.4c-19.4,0-29.8-5.6-29.8-5.6S203.1,88.2,218.4,78.6z"/>
		<path class="st7" d="M230.1,77.1c0,0,2.1,6.5,0,9c0,0,2.1,4.5,6,4.7c4.5,0.2,6-4.7,6-4.7s-2.4-6.3,0-8.5L230.1,77.1z"/>
		<g>
			<path class="st19" d="M224.9,70.7c0,0-4.4-8.4-3.5-17.3c0.9-9,14.4-11,23.5-6.6c0,0-2.7-2.6-1.6-3.4c1.1-0.7,2.9,4,2.9,4
				s2.9-0.9,3.3,0c0.4,0.9-2.9,1.4-2.9,1.4s5.9,3.3,0.4,20.6L224.9,70.7z"/>
			<path class="st3" d="M224.2,65.4c0,0-3.2-3.2-3.6,0.5c-0.5,4.4,3.5,6.2,4.3,4.8C225.7,69.3,224.2,65.4,224.2,65.4z"/>
			<path class="st3" d="M247,65.7c0,0,3.2-3.2,3.6,0.5c0.5,4.4-3.5,6.2-4.3,4.8C245.5,69.6,247,65.7,247,65.7z"/>
			<path class="st3" d="M235.3,81.3c-7.2,0-11.3-4.7-11.3-18.8c0-7.3,3.7-11.7,11.8-11.7s11.5,4.5,11.5,11.7
				C247.2,77.7,242.7,81.3,235.3,81.3z"/>
			<path class="st7" d="M244.9,67.5c0.1,0.7-0.5,1.4-1.4,1.6s-1.7-0.3-1.9-1c-0.1-0.7,0.5-1.4,1.4-1.6
				C243.9,66.4,244.7,66.8,244.9,67.5z"/>
			<path class="st7" d="M230,67.9c0,0.7-0.8,1.3-1.7,1.2s-1.6-0.7-1.6-1.4s0.8-1.3,1.7-1.2C229.4,66.6,230.1,67.2,230,67.9z"/>
			<g>
				<path class="st19" d="M241.6,60.2c-0.1,0-0.2,0-0.3-0.1c-1-1-2.7-1-2.8-1c-0.2,0-0.4-0.1-0.4-0.3s0.1-0.4,0.3-0.4
					c0.1,0,2.1-0.1,3.3,1.2c0.1,0.1,0.1,0.4,0,0.5C241.7,60.2,241.6,60.2,241.6,60.2z"/>
			</g>
			<g>
				<path class="st19" d="M228,60.2c-0.1,0-0.2,0-0.2-0.1c-0.1-0.1-0.1-0.4,0-0.5c1.2-1.3,3.2-1.2,3.3-1.2c0.2,0,0.4,0.2,0.3,0.4
					c0,0.2-0.2,0.4-0.4,0.3c0,0-1.8,0-2.8,1C228.2,60.2,228.1,60.2,228,60.2z"/>
			</g>
			<path class="st9" d="M240.9,64c0,0.9-0.4,1.6-0.9,1.6s-0.9-0.7-0.9-1.6c0-0.9,0.4-1.6,0.9-1.6S240.9,63.1,240.9,64z"/>
			<path class="st9" d="M231.3,64c0,0.9-0.4,1.6-0.9,1.6s-0.9-0.7-0.9-1.6c0-0.9,0.4-1.6,0.9-1.6C230.9,62.4,231.3,63.1,231.3,64z"
				/>
			<path class="st9" d="M231.3,73.6c0,0,6.4,0.8,9.6-0.8c0,0-1.8,4.3-5.3,3.9C232.1,76.4,231.3,73.6,231.3,73.6z"/>
			<path class="st19" d="M246.5,67.3c0,0-0.2-7.8-3.3-13.9c0,0-5.4,2.5-6.6,1.9c-1.2-0.6,1.1-1.9,1.1-1.9s-8.9,2.9-9.4,2.3
				s2.9-2.3,2.9-2.3l-5.5,1.9c0,0-1.7,7.1-1,12c0,0-2.4-4.1-2.7-6.9c-0.3-2.8,1-10.9,9.3-11.5s13,1.3,15.1,5.1
				C248.5,57.8,248.3,62.5,246.5,67.3z"/>
			<g>
				<path class="st7" d="M236.5,71.3c-0.7,0-1.4-0.2-1.6-0.2l0.2-0.7c0.8,0.2,1.9,0.3,2.2,0c0.1-0.1,0.1-0.4-0.1-0.7
					c-1-2.2-1.3-7.8-1.3-8.1h0.8c0,0.1,0.2,5.7,1.2,7.8c0.3,0.6,0.3,1.1,0,1.5C237.6,71.2,237.1,71.3,236.5,71.3z"/>
			</g>
		</g>
		<path class="st14" d="M244.5,82.1c0,0,13,40.5,14.3,73.4c0,0,4.7,1.3,10-5.9s2.1-64.4-8-73.9C260.8,75.7,256.2,74.7,244.5,82.1z"
			/>
		<path class="st2" d="M246.6,89.2c0,0,2.3-5.4,1.3-9.1s-4.7,0-4.7,0S244.7,86.1,246.6,89.2z"/>
		<path class="st18" d="M220.4,79.2c-9.6-4.1-40.7-15.2-40.7-15.2s-21-26.9-25.2-30.8c0,0-5.3,3-5.6,9.2c0,0,13.2,27,20.5,35.3
			c7.3,8.2,44.4,26.1,44.4,26.1L220.4,79.2z"/>
		<path class="st14" d="M228,82.1c0,0-13,40.5-14.3,73.4c0,0-4.7,1.3-10-5.9s-2.1-64.4,8-73.9C211.7,75.7,216.3,74.7,228,82.1z"/>
		<path class="st2" d="M225.9,89.2c0,0-2.3-5.4-1.3-9.1c1-3.7,4.7,0,4.7,0S227.8,86.1,225.9,89.2z"/>
		<g>
			<path class="st18" d="M293.9,336H268c-1.8-10.3,1.1-20.6,1.1-20.6l11.8-2c1.1,6.5,2.4,9.1,4.2,10.4l0,0c1.3,1,2.9,1.3,4.8,1.9
				c2.2,0.8,3.4,2.2,4,3.7C295.1,332.4,293.9,336,293.9,336z"/>
			<path class="st18" d="M294,329.4c-6.4,0.8-20.4,2.2-19.6-1.5c0.7-3.1,6.6-3.9,10.7-4.1l0,0c1.3,1,2.9,1.3,4.8,1.9
				C292.2,326.4,293.4,327.9,294,329.4z"/>
		</g>
		<g>
			<path class="st18" d="M207.2,336h-25.9c0,0-0.8-2.4-0.4-5c0.3-2.1,1.4-4.3,4.4-5.3c2.2-0.8,4-1.1,5.4-2.4
				c1.5-1.4,2.7-4.1,3.6-9.9l11.8,2C206.2,315.4,209,325.7,207.2,336z"/>
			<path class="st18" d="M180.9,331c0.3-2.1,1.4-4.3,4.4-5.3c2.2-0.8,4-1.1,5.4-2.4c3.3,1,7.9,2.9,9.3,5.7
				C201.9,332.8,186.8,332.2,180.9,331z"/>
		</g>
	</g>
	<g>
		<g>
			<path class="st11" d="M393.1,334.1c0,1.1-0.1,1.9-0.1,1.9h-31.5c0-0.6,0-1.2,0-1.9c0.4-8.2,3-15.4,3-15.4l7.9-3.4
				c0.7,4.1,2.4,6.6,4.6,8.3c0.6,0.5,1.2,0.8,1.8,1.2c0.3,0.2,0.6,0.3,0.9,0.4c0.7,0.3,1.3,0.5,2,0.7c2.8,0.8,5.6,1,7.5,1.3
				C392.6,327.9,393.1,331.7,393.1,334.1z"/>
			<path class="st20" d="M393.1,334.1c0,1.1-0.1,1.9-0.1,1.9h-31.5c0-0.6,0-1.2,0-1.9H393.1z"/>
			<path class="st20" d="M378.8,324.8l-4.4,1.4l-0.9-1.6l3.5-1C377.6,324.1,378.2,324.5,378.8,324.8z"/>
			<path class="st20" d="M381.7,326l-2.9,2l-1.8-0.7l2.7-2C380.3,325.6,381,325.8,381.7,326z"/>
		</g>
		<g>
			<path class="st11" d="M272.9,334.1c-0.1,1.1-0.4,1.9-0.4,1.9h-21c-0.3-0.6-0.5-1.2-0.6-1.9c-2.1-10,11.9-22.3,11.9-22.3l4.4,5.9
				c0,0-0.5,9.4,3.2,11.4C272.8,330.3,273.1,332.5,272.9,334.1z"/>
			<path class="st20" d="M251,334.1h21.9c-0.1,1.1-0.4,1.9-0.4,1.9h-21C251.4,335.3,251.2,334.7,251,334.1z"/>
			<path class="st20" d="M269.6,328.4c0,0-8.8-2-12.9,0.6v-1.5C256.7,327.5,264.2,323.9,269.6,328.4z"/>
			<path class="st20" d="M267.8,326.1c0,0-5.6-2.6-11.1,0l0.6-1.5C257.4,324.6,263.9,322.2,267.8,326.1z"/>
		</g>
		<path class="st4" d="M383.6,245c0,8.4-7.5,77.1-7.5,77.1c-7.5,0.7-13.5-0.8-13.5-0.8c-2.1-34.8-2.3-64.8-2.3-64.8l-35.9-26.9
			l-0.1-0.1c0,0-0.1,0.6-0.4,1.7c-1.8,7.9-9.3,40.9-12.4,48.5c-3.6,8.6-42.5,44.8-42.5,44.8c-7.2-1-13.4-6.2-13.4-6.2
			c14-23.2,33.1-46.5,33.1-46.5c1.5-8.4,2.6-27,3.2-40.9c0-0.2,0-0.4,0-0.6c0.4-9.4,0.6-16.5,0.6-16.5l-6.6-13.5l41.8-15.3l9.4,12
			c0,0,2.1,2,5.5,5.2c0.2,0.1,0.3,0.3,0.5,0.4C355.7,214.5,383.6,241.2,383.6,245z"/>
		<g>
			<path class="st10" d="M292,231.1c0-0.2,0-0.4,0-0.6c8.8-4.8,7.3-12.4,7.3-12.5l0.5-0.1C299.9,217.9,301.5,226.1,292,231.1z"/>
			<path class="st10" d="M323.9,224.3c0.3,1.7,0.5,3.5,0.6,5.4l-0.1-0.1c0,0-0.1,0.6-0.4,1.7c-0.4-13.1-5.8-20.8-5.8-20.9l0.5-0.3
				c0.1,0.1,3.5,5,5.1,13.5c6.4-5.6,0.1-17.2,0.1-17.3l0.5-0.3C324.4,206.2,331,218.5,323.9,224.3z"/>
			<path class="st10" d="M343.2,202.7L343.2,202.7c-0.3,0.1-0.6,0.2-0.9,0.2c-3.1,0-8.2-4.3-8.5-4.5l0.4-0.4
				c1.7,1.4,6.4,4.8,8.6,4.3C342.9,202.4,343,202.5,343.2,202.7z"/>
		</g>
		<path class="st1" d="M289,128.6c0,0,12.7-2,19.1,2c6.4,4.1,14.7,14.6,14.7,14.6s-9.9,1.3-11,8C311.8,153.3,304.5,136.1,289,128.6z
			"/>
		<path class="st13" d="M269.9,135.2c-5.4,2.9-14.4,13.8-14.8,20.5c-0.4,6.5,4.4,12.6,7.7,17.7c10.2,16,20.9,30.1,25.5,48.8
			c0,0.1,23.3,9.4,50.6-23.5c0,0-15.4-20.8-20.8-38.5c-2.2-7.2-4.4-14.8-8.6-21.2c-4.6-7-12.5-11.1-20.6-10.4
			C282.1,129.1,275.2,132.3,269.9,135.2z"/>
		<path class="st7" d="M267.7,128.5c0,0,3.4,5.9,1.8,9.1c0,0,11.8,4.1,11.8-2.5c0,0-2.2-4.9-1.4-8.1L267.7,128.5z"/>
		<path class="st7" d="M293.9,168.7c0,0-6.6,1.9-8.2,4.2s-3.1,7.5-3.1,7.5h11.3l2.1-3.9l2.5-5.2L293.9,168.7z"/>
		<g>
			<path class="st11" d="M283,121.9c0,0,4.6-1.9,1.6-15.8c-2-9.2-4.8-10.5-6.7-10.6c0,0-2.2-3.4-10-1.8c-5.3,1.1-9.6,4.4-11.5,10.4
				c-2,6.3,2,19.7,7.1,21L283,121.9z"/>
			<path class="st3" d="M284.1,112.6c0,0,2.9-4,4-0.1c1.3,4.6-2.7,7.2-3.8,5.9C283.3,117,284.1,112.6,284.1,112.6z"/>
			<path class="st3" d="M259.8,116.8c0,0-4-2.9-3.8,1.2c0.3,4.8,4.9,6,5.4,4.3C262,120.8,259.8,116.8,259.8,116.8z"/>
			<path class="st3" d="M275.1,131.5c7.7-1.3,11.2-7,8.7-22.1c-1.3-7.8-6-11.9-14.7-10.5c-8.6,1.4-11.5,6.8-10.2,14.6
				C261.7,129.7,267.1,132.8,275.1,131.5z"/>
			<path class="st7" d="M262.4,118.5c0,0.8,0.8,1.5,1.8,1.5s1.8-0.6,1.8-1.4c0-0.8-0.8-1.5-1.8-1.5
				C263.2,117,262.4,117.7,262.4,118.5z"/>
			<path class="st7" d="M278.3,116.3c0.2,0.8,1.1,1.2,2.1,1s1.6-1,1.4-1.8s-1.1-1.2-2.1-1C278.8,114.7,278.2,115.5,278.3,116.3z"/>
			<g>
				<path class="st9" d="M264.6,110.1c-0.1,0-0.2,0-0.2-0.1c-0.2-0.1-0.2-0.4-0.1-0.5c1.1-1.6,3.2-1.9,3.3-1.9
					c0.2,0,0.4,0.1,0.4,0.3s-0.1,0.4-0.3,0.4c0,0-1.9,0.3-2.8,1.6C264.8,110,264.7,110.1,264.6,110.1z"/>
			</g>
			<g>
				<path class="st9" d="M279.1,107.7c-0.1,0-0.2,0-0.2-0.1c-1.2-0.9-3.1-0.6-3.1-0.6c-0.2,0-0.4-0.1-0.5-0.3c0-0.2,0.1-0.4,0.3-0.5
					c0.1,0,2.2-0.4,3.8,0.7c0.2,0.1,0.2,0.4,0.1,0.5C279.3,107.6,279.2,107.7,279.1,107.7z"/>
			</g>
			<path class="st9" d="M266,114c0.2,1,0.7,1.7,1.2,1.6c0.5-0.1,0.8-0.9,0.7-1.9c-0.2-1-0.7-1.7-1.2-1.6
				C266.1,112.2,265.8,113.1,266,114z"/>
			<path class="st9" d="M276.3,112.3c0.2,1,0.7,1.7,1.2,1.6c0.5-0.1,0.8-0.9,0.7-1.9c-0.2-1-0.7-1.7-1.2-1.6
				C276.4,110.5,276.1,111.4,276.3,112.3z"/>
			<path class="st9" d="M279.2,121c0,0-6.7,1.8-10.4,1.1c0,0,2.6,3.2,6.2,2.3C278.7,123.5,279.2,121,279.2,121z"/>
			<path class="st8" d="M279.5,102.4c0,0-8.7,6.3-19.6,6.8l0.3,9.7c0,0-10.2-18.8,10-22.1c20.1-3.3,14.3,17.6,14.3,17.6
				S283.8,105.4,279.5,102.4z"/>
			<g>
				<path class="st7" d="M272.4,118.4l-0.1-0.8c0,0,1.2-0.1,1.5-0.8c0.1-0.3-0.4-1.2-0.8-2.1c-0.6-1.2-1.4-2.6-1.7-4.2l0.8-0.2
					c0.3,1.5,1,2.9,1.6,4c0.6,1.2,1.1,2.1,0.8,2.8C274.1,118.3,272.4,118.4,272.4,118.4z"/>
			</g>
			<path class="st21" d="M284.2,102.4c-14.6-6.4-28.4,6.8-28.4,6.8S254.2,98.5,257,96c0.7-0.7,1.5-1.2,2.3-1.7
				c6.5-4.1,15.1-4,19-2.6c0.8,0.3,1.4,0.6,1.8,1C282.4,95.2,284.2,102.4,284.2,102.4z"/>
			<path class="st13" d="M282.4,100c0,0-12.3-2.4-23.7,5.2c0,0-0.7-6.9,0.6-10.9c6.5-4.1,15.1-4,19-2.6
				C280.6,94.4,282.4,100,282.4,100z"/>
			<path class="st10" d="M257,108c0,0,1.9-8.3,4.6-10.6c4.4-3.9,16.6-5.2,23.1-2.9s0,9.4,0,9.4S274.4,96.5,257,108z"/>
		</g>
		<path class="st7" d="M276,163c0,0,5,7.8,13.6,12.4c0,0,10.7-9.3,24.6-8.5c0,0-11.5,20.7-21.4,23c-5.2,1.2-24-11.2-24-11.2
			S272.5,165.5,276,163z"/>
		<path class="st1" d="M257.5,148.9c4.6-7.5,15.2,3.6,18.8,11.5c3.6,7.9,6.2,9.6,6.2,9.6s-10.6,4.4-10.5,12.4
			C272,182.3,247.4,165.2,257.5,148.9z"/>
		<path class="st3" d="M289.5,171.9c0,0,6.5-6.3,27.7-14.6l-2.7-8.6c2.4-3.2,6.9-3.2,6.9-3.2s10.9,15.4,9,19.9
			C329.2,168.3,306.5,171.3,289.5,171.9z"/>
		<path class="st7" d="M312.8,159.4c0,0,0.2-0.9,1-2s0.6-3.1,0.9-3.7c0.3-0.6,2-3.2,3.1-3.7s2.6-1.3,2.9,0.1c0.3,1.4-2,1-3,3
			c0,0,2.3-0.7,4-0.3c1.8,0.4,2.3,2.1,0.1,2c-1.8,0-4,1.2-4,1.2s2.3,0.3,1.9,1.4C319,158.9,316.2,158,312.8,159.4z"/>
	</g>
	<g>
		<path class="st22" d="M155.8,188.3c1.9,4.9,9.7,13.2,9.7,13.2s19-11.4,27.7-6.6c8.8,4.8,15.7,7.7,21.4,5.6s-18.7-46.4-18.7-46.4
			L164.3,142c0,0-0.7,8-4.3,9.4s-7.5,14.6-7.2,17.1C153.1,171.1,155.8,188.3,155.8,188.3z"/>
		<path class="st7" d="M191.3,201.8c0,0-8.1,16-25,36.4c0,0-1.7,24.3-46.2,62.6l-4.7-3.7c0,0,26.5-41.5,31.8-54.2
			s-2.9-24.4,21.4-56.5L191.3,201.8z"/>
		<path class="st5" d="M165.4,173.5c-7,13.4-9.4,30.6-9.4,30.6l-3.2,8.1c0,0,11.3,6.1,24.4,8.3l5.2-13.9L165.4,173.5z"/>
		<path class="st3" d="M202,200.5c0,0,3.5,17.6,2.9,44c0,0,13.7,20.2,2.4,77.7h-5.9c0,0-4.8-49-8.5-62.2
			c-3.7-13.3-17.4-17.3-18.1-57.7L202,200.5z"/>
		<g>
			<path class="st5" d="M205.5,219.4c0,0-11.1,2-30.8,1.1l-0.3-2.2l-0.1-0.6l-2-14.3c0,0-1.9-2.3-3.8-6.1c-0.2-0.4-0.5-0.9-0.7-1.4
				c-2.6-5.6-5-13.8-2.4-22.3l4.1,0.2h0.6l13.9,0.6h0.6l4.6,0.2h0.7l3,0.1c0,0,15,13.5,12.3,38.5l0.2,3.5v0.6L205.5,219.4z"/>
			<g>
				<path class="st16" d="M170.1,173.7c-0.4,1.1-3,9.6-1.7,23.5c-0.2-0.4-0.5-0.9-0.7-1.4c-1-12.7,1.3-20.6,1.8-22.2
					c0.1-0.2,0.1-0.3,0.1-0.3l0.5,0.2C170.2,173.6,170.2,173.7,170.1,173.7z"/>
				<path class="st16" d="M205.4,217.3c-3.9,1-10.6,1.3-17,1.3c-5.7,0-11.1-0.2-14-0.4l-0.1-0.6c5,0.2,18.1,0.8,26.6-0.2l-0.5-8.9
					c0.1-10.4-3-19.3-6.1-25.5c-7.7-1.4-9.8-7.1-10.3-8.7c-0.1-0.3-0.1-0.4-0.1-0.4l0.5-0.1c0,0,0,0.2,0.1,0.5
					c0.5,1.7,2.6,6.6,9.4,8c-2.1-4-4-6.8-4.8-7.8c-0.2-0.3-0.4-0.5-0.4-0.5l0.4-0.4c0,0,0.3,0.3,0.7,0.9c2.6,3.5,11.3,16.7,11,33.9
					l0.5,8.9c1.5-0.2,2.8-0.4,3.9-0.7L205.4,217.3z"/>
			</g>
		</g>
		<path class="st21" d="M177,113.3c-4.4-2.4-36.3,10.1-36.3,10.1s-4.7,8.4-1.8,11.7s13.4,1.8,16.5,0c3.2-1.8,11.6-3.2,11.6-3.2
			L177,113.3z"/>
		<path class="st4" d="M205.1,86.8c0,0,6.6,2.5,9,10.1s-4.8,26.8-2.3,35.6s2.1,25.5-5.7,29s-23.7-2.8-27.1-12.4
			c-3.4-9.6-1.9-46.1,4.6-58.5C190.3,78.2,203.6,84.4,205.1,86.8z"/>
		<path class="st21" d="M197.6,119.5c1.7,1.9,6.2-1.5,6.2-1.5s-0.1,16.5-4.9,17.8c-4.8,1.3-17.1-13-16.6-16.9
			C182.8,115,193.7,115.3,197.6,119.5z"/>
		<path class="st2" d="M179.1,115.3c0,0,4.9,4.1,13.3,6.1c8.5,2,13.1-2,17.4,3.4c6.5,8.2-4.1,23.3-9.6,31.1
			c-2.1,2.9-6.5,11-7.3,18.8c0,0-14.7,4.3-27.4-1.3l-0.9-18C164.5,155.5,156.5,131.2,179.1,115.3z"/>
		<path class="st21" d="M194.3,132.9c0,0,6.7-16,8.7-17c1.9-1,6.9,1.4,7.9,3.6c1,2.2,0,7,0,7S205.5,120.4,194.3,132.9z"/>
		<path class="st10" d="M226.4,200.5c-3.1,6.3-10.5,8-10.5,8s-0.6-0.9-1.5-2.4c-0.1-0.2-0.2-0.3-0.3-0.5
			c-5.9-9.6-23.9-40.1-23.6-56.1c0.4-19,12.8-29.4,12.8-29.4c6.3,1.5,8.3,3.2,8.3,3.2s2.1,10.8,0.2,23.8c-1.9,13-5.5,16.4-3.7,17.4
			s0,2.9,0,2.9s10.4,14.6,12.4,19.1c1.3,3,3.4,8,4.8,11.1c0.1,0.2,0.2,0.4,0.3,0.6C226,199.6,226.4,200.5,226.4,200.5z"/>
		<path class="st3" d="M208.3,123.3c0,0-7.5,5.5-3.1,14l20.7,21.5c-11.4,12.1-12.5,17.1-20.7,22.7l3.1,4.8c0,0,28.8-22.1,28.9-27.5
			C237.1,156.5,219.5,128.6,208.3,123.3z"/>
		<path class="st3" d="M204.7,181.5c0,0-4,0.4-6.4,1.1c-2.5,0.6-5.8,1.2-5.9,1.8c-0.1,0.5,5.5,0,5.5,0s-4.6,1.9-4.7,2.6
			s5.8-0.5,5.8-0.5s-3.7,2.3-3.5,2.9s4.8-0.9,4.8-0.9s-0.9,2.2-1.7,3.2c0,0,0.9,0.5,2.7-1.5s4.7-1.4,7-3.1
			C210.5,185.2,206.8,181.3,204.7,181.5z"/>
		<path class="st10" d="M183.5,118c0,0-5.7,3.7-9.3,12.6s-14.9,25.6-17.6,29.9c-2.7,4.3-0.8,27.8-0.8,27.8s-3.3-14.2-4.8-19.8
			s4.8-19.3,5.7-20s5.8,0.6,4.8-5s12-29.6,15.4-30.2C177,113.3,182.5,114.3,183.5,118z"/>
		<path class="st10" d="M165.9,119.2c-0.1,0.2-0.2,0.4-0.3,0.6c-1.3,1.9-3.7,3.3-3.7,3.3s-4.3,6.1-4.4,6.8c0,0.6-7.5,6-10.9,5.9l0,0
			c-0.5,0-0.8-0.1-1.1-0.4c-2-1.9,6.7-17.5,8.6-20.9c0.1-0.2,0.2-0.4,0.3-0.5c0-0.1,0.1-0.1,0.1-0.1s-1.5-5.7,4.9-4.6
			c5.3,0.9,6.4,5.1,6.9,7.9C166.4,117.9,166.3,118.5,165.9,119.2z"/>
		<path class="st3" d="M143.6,125.1c4.4-5.8,19.9-17,28-20.3l2,3.8c0,0-15.7,13.8-19.4,19.7c-3.7,5.9-8.3,8.4-12.6,6.4
			C137.1,132.8,142.6,126.3,143.6,125.1z"/>
		<path class="st21" d="M164.4,118l-0.8,1l-0.4,0.5l-1.4,1.6c0,0-3.5,4.2-3.3,5.9c0.1,1.2-6.6,6.6-11.8,8.9c-2.1,0.9-4,1.3-5.1,0.7
			c-3.8-2.2-2.9-8.7-0.8-13.1c1.9-3.9,10.1-8.8,12.2-10.1c0.3-0.2,0.4-0.3,0.5-0.3l0,0l0.8-3.1c0,0,2.9-1.7,5.1-0.7
			c0,0-5,0.2-4.2,2.2C156.1,113.3,163,117.9,164.4,118z"/>
		<g>
			<path class="st3" d="M182.5,102c-5,2.1-4.3,6.6-8.9,6.6c-2.9,0-3.2-3.3-3.2-3.3c1.3-2.8,2.1-7.5,2.3-9.8s0.9-1.4,0.9-1.4
				c0-0.2,0-0.4,0-0.6c-0.1-1.5-0.3-2.6,0.7-2c1.1,0.7,1.5,5,1.5,5c0.9-6.3-0.5-7.2,0.6-6.7c1.5,0.8,1.5,6.3,1.5,6.5
				c1.2-3.7,0.9-5.7,1.7-4.9s-0.4,7.5-0.9,10c-0.1,0.6-0.2,0.9-0.2,0.9C182.5,100.5,182.5,102,182.5,102z"/>
			<path class="st3" d="M178.7,101.5c-0.1,0.6-0.2,0.9-0.2,0.9s-1.8-0.2-3.2,1.8C175.3,104.2,175.7,101.6,178.7,101.5z"/>
			<path class="st3" d="M173.9,98.7c0-0.5,0.3-3.6-0.3-4.5c0-0.2,0-0.4,0-0.6C174.7,93.8,174,98,173.9,98.7z"/>
		</g>
		<path class="st21" d="M177,125.1c0,0,3.4-9.2,4.5-11.3s6.7-1.7,11-0.9s5.1,6.5,5.1,6.5S184.6,113.4,177,125.1z"/>
		<path class="st7" d="M198.9,107c0,0-4.1,7.5-4,15.9c0,0-6.6,4.5-9-1.1c0,0,2.5-7.4,1.3-17.3C186.4,97.7,198.9,107,198.9,107z"/>
		<g>
			<path class="st3" d="M185.9,96.6c0,0-1.2-4.3-3.4-1.3c-2.5,3.5,0,6.9,1.4,6.1C185.2,100.6,185.9,96.6,185.9,96.6z"/>
			<path class="st3" d="M205.1,107.7c0,0,4.3-1.2,2.8,2.2c-1.7,4-5.9,3.5-5.9,2C202,110.3,205.1,107.7,205.1,107.7z"/>
			<path class="st3" d="M187.7,115.4c-6.1-3.4-7.3-9.4-0.6-21.4c3.5-6.2,8.8-8.2,15.6-4.4c6.9,3.9,7.6,9.3,4.1,15.5
				C199.6,118,194,118.9,187.7,115.4z"/>
			<path class="st7" d="M202.4,108.2c-0.2,0.7-1.1,1-2,0.7c-0.8-0.3-1.3-1.1-1.1-1.8s1.1-1,2-0.7
				C202.2,106.8,202.7,107.6,202.4,108.2z"/>
			<path class="st7" d="M189.6,101.5c-0.4,0.6-1.3,0.7-2.1,0.2s-1-1.4-0.7-2c0.4-0.6,1.3-0.7,2.1-0.2
				C189.7,100,190,100.9,189.6,101.5z"/>
			<g>
				<path class="st9" d="M203.3,100.5c-0.2,0-0.3-0.1-0.3-0.3c-0.3-1.4-1.9-2.2-1.9-2.2c-0.2-0.1-0.2-0.3-0.1-0.5
					c0.1-0.2,0.3-0.2,0.5-0.1c0.1,0,1.8,1,2.2,2.6C203.7,100.2,203.6,100.4,203.3,100.5L203.3,100.5z"/>
			</g>
			<g>
				<path class="st9" d="M194.9,94.5c-0.1,0-0.1,0-0.2-0.1c0,0-1.5-0.9-2.8-0.5c-0.2,0.1-0.4,0-0.4-0.2c-0.1-0.2,0-0.4,0.2-0.4
					c1.6-0.5,3.3,0.5,3.4,0.5c0.2,0.1,0.2,0.3,0.1,0.5C195.1,94.4,195,94.5,194.9,94.5z"/>
			</g>
			<path class="st9" d="M200.8,103.4c-0.4,0.8-1.1,1.2-1.5,0.9c-0.4-0.2-0.4-1,0-1.8s1.1-1.2,1.5-0.9
				C201.2,101.8,201.2,102.6,200.8,103.4z"/>
			<path class="st9" d="M192.2,98.8c-0.4,0.8-1.1,1.2-1.5,0.9c-0.4-0.2-0.4-1,0-1.8s1.1-1.2,1.5-0.9C192.6,97.2,192.6,98,192.2,98.8
				z"/>
			<path class="st9" d="M189.2,106.6c0,0,3.5,2.7,6.1,2.8c0,0-2.7,2.2-4.6,0.8C188.7,108.7,189.2,106.6,189.2,106.6z"/>
			<path class="st9" d="M198.9,101.9c0,0,1.6-1.6,2.3-1c0.7,0.5,0.3,2.5,0.3,2.5h1.4l-1.2-0.5c0,0,0.4-2-0.3-2.4
				C200.4,99.9,198.9,101.9,198.9,101.9z"/>
			<path class="st9" d="M192.8,98.7c0,0,0.5-2.2-0.3-2.5s-2.3,1-2.3,1l-0.8-1.2l1,0.8c0,0,1.5-1.4,2.2-0.9
				C193.8,96.5,192.8,98.7,192.8,98.7z"/>
			<path class="st4" d="M204.4,92.2c0,0-2.2-3.1-5.2-0.6c-3,2.4-9.9,6.3-13.2,5c-3.4-1.3,7.4-15.6,16.7-11.4
				c9.3,4.2,8.5,17.9,4.6,22.2s-2,0.3-2,0.3s0.3-6.2,1.6-10.2C208,93.3,204.4,92.2,204.4,92.2z"/>
			<g>
				<path class="st23" d="M194,105.2c-0.2,0-0.3,0-0.5-0.1l0.2-0.7c0.6,0.2,0.9-0.1,1.1-0.4c0.2-0.4,0.2-0.8,0-1
					c-0.1-0.1-0.3-0.1-0.5,0l-0.4-0.7c0.8-0.4,1.2-0.1,1.4,0.1c0.4,0.4,0.5,1.3,0.1,1.9C195.1,104.9,194.6,105.2,194,105.2z"/>
			</g>
		</g>
		<g>
			<path class="st21" d="M238.9,158c-0.4,5.4-13.7,22.9-15.9,23.5c-0.6,0.2-1.2,0.5-1.7,0.9c-0.2,0.2-0.5,0.3-0.7,0.5
				c-1.3,1-2.2,2.2-2.2,2.2c-3.9-0.3-14.8-5.3-11.3-6.4c0.2-0.1,0.4-0.2,0.7-0.4c0.1-0.1,0.3-0.2,0.5-0.4
				c4.1-3.5,12.2-17.5,12.2-18.6c0-1.2,1.4-1.4,1.4-1.4s-7.6-11.1-12-12.5c-4.4-1.3-6.6-6.7-6.6-6.7c-4.3-18.4,8.3-15.5,8.3-15.5
				C220.9,128.9,239.3,152.6,238.9,158z"/>
			<g>
				<path class="st22" d="M221.3,182.4c-0.2,0.2-0.5,0.3-0.7,0.5c-6-0.4-11-3.3-12.8-4.6c0.1-0.1,0.3-0.2,0.5-0.4
					C210.2,179.2,215.3,182.1,221.3,182.4z"/>
			</g>
		</g>
		<g>
			<path class="st22" d="M165.9,119.2c-0.1,0.2-0.2,0.4-0.3,0.6c-0.9,0-1.7-0.1-2.4-0.3c-3.9-0.8-7-3-9-4.9
				c-0.5-0.4-0.9-0.9-1.2-1.3c0.3-0.2,0.4-0.3,0.5-0.3c0.3,0.3,0.6,0.7,1,1c2,1.9,5.1,4.2,9.1,4.9
				C164.3,119.1,165.1,119.2,165.9,119.2z"/>
		</g>
		<g>
			<path class="st22" d="M225.5,198.3c-1.8,3.1-5.2,6.8-11.1,7.8c-0.1-0.2-0.2-0.3-0.3-0.5c6.1-0.9,9.4-4.9,11.2-7.9
				C225.3,197.9,225.4,198.1,225.5,198.3z"/>
		</g>
		<g>
			<path class="st13" d="M124.4,299.4c0,0-1.4,1.4-2.8,3.9s0.1,4.8-6.8,10.6c0,0-14.1-8.2-20.5-18.9c0,0,0.1-3,3.2-3.7
				c1.7-0.4,6.2,1.8,10.6,2.6c0.6,0.1,1.2,0.2,1.9,0.3c0.8,0.1,1.5,0.1,2.2,0s1.3-0.2,1.9-0.5l0,0c1.5-0.6,2.7-1.8,3.3-3.9
				c0,0,3.7,2.1,1.2,5.7C118.6,295.4,123,293.5,124.4,299.4z"/>
			<path class="st1" d="M114.8,313.9c0,0-14.1-8.2-20.5-18.9c0,0,2.4-0.5,4.3,3C100.6,301.5,115.9,309.5,114.8,313.9z"/>
			<path class="st1" d="M114.8,297.2c-1.1,1.8-1.1-1.5-2.6-3.1c0.7-0.1,1.3-0.2,1.9-0.5l0,0C114.8,294.4,115.7,295.8,114.8,297.2z"
				/>
			<path class="st1" d="M110.4,297.3c-1.2,1.1-1.6-1.8-2.3-3.4c0.6,0.1,1.2,0.2,1.9,0.3C110.6,295.1,111.3,296.4,110.4,297.3z"/>
		</g>
		<g>
			<path class="st13" d="M211.1,336h-19.9c0,0-0.8-2.8,0-5.8c0.4-1.3,2.4-2.6,4.3-4.3c0.5-0.5,1-1,1.5-1.5c0.4-0.4,0.7-0.9,1-1.5
				c0.4-0.6,0.7-1.3,0.8-2.1c0.3-1.5,0.2-3.3-0.7-5.4c0,0,6.8-1.4,9.2,2.3c0,0,0.2-1.7,2.4-0.6c0,0-0.3,3.4,0.1,6.3
				C210.3,326.2,213,327.1,211.1,336z"/>
			<path class="st1" d="M205.9,324c-0.2,0.2-0.4,0.3-0.7,0.3c-0.2,0-0.4-0.1-0.6-0.2c-1-0.8-3.3-2.1-6.6-1.2
				c0.4-0.6,0.7-1.3,0.8-2.1c1.3-0.5,3.8-0.8,6.9,1.9C206.2,323,206.3,323.6,205.9,324z"/>
			<path class="st1" d="M204.3,327.3l-0.1,0.2c-0.3,0.4-0.8,0.5-1.2,0.3c-1.4-0.8-4.4-2.3-7.4-1.9c0.5-0.5,1-1,1.5-1.5
				c1.5-0.3,4.3-0.5,7,1.7C204.4,326.4,204.5,326.9,204.3,327.3z"/>
		</g>
	</g>
</g>
<g id="DESIGNED_BY_FREEPIK">
</g>
<rect x="-155.1" y="-217.6" class="st5" width="57.1" height="57.1"/>
<rect x="-81.4" y="-217.6" class="st14" width="57.1" height="57.1"/>
<rect x="-10.2" y="-217.6" class="st18" width="57.2" height="57.2"/>
<rect x="-155.1" y="-142.5" class="st16" width="57.1" height="57.1"/>
<rect x="-81.4" y="-142.5" class="st4" width="59" height="59"/>
<rect x="-10.2" y="-142.5" class="st2" width="57.1" height="57.1"/>
<rect x="57" y="-217.6" class="st24" width="57.3" height="57.3"/>
<rect x="57" y="-142.5" class="st25" width="57.3" height="57.3"/>
<rect x="125.6" y="-217.6" class="st6" width="57.3" height="57.3"/>
<rect x="125.6" y="-142.5" class="st26" width="57.1" height="57.1"/>
<rect x="194.6" y="-217.6" class="st27" width="57.5" height="57.5"/>
<rect x="194.6" y="-142.5" class="st3" width="57.3" height="57.3"/>
<rect x="263.2" y="-142.5" class="st7" width="57.3" height="57.3"/>
<rect x="262.4" y="-217.6" class="st21" width="57.2" height="57.2"/>
<rect x="334.8" y="-217.6" class="st10" width="56.3" height="56.3"/>
</svg>
