<?xml version="1.0" encoding="utf-8"?>
<!-- Generator: Adobe Illustrator 24.1.0, SVG Export Plug-In . SVG Version: 6.00 Build 0)  -->
<svg version="1.1" xmlns="http://www.w3.org/2000/svg" xmlns:xlink="http://www.w3.org/1999/xlink" x="0px" y="0px"
	 viewBox="0 0 239.2 62.4" style="enable-background:new 0 0 239.2 62.4;" xml:space="preserve">
<style type="text/css">
	.st0{display:none;}
	.st1{display:inline;}
	.st2{fill:#233738;}
	.st3{fill:#E6E6E6;}
	.st4{fill:#B4B4B4;}
	.st5{fill:#FFFFFF;}
	.st6{fill:#CBCBCB;}
	.st7{fill:#696969;}
	.st8{fill:#FF5141;}
	.st9{fill:#F1BB3F;}
	.st10{fill:#70CB43;}
	.st11{fill:#F1F1F1;}
	.st12{fill:#DBDBDB;}
	.st13{fill:#02A916;}
	.st14{fill:none;stroke:#26C485;stroke-width:0.75;stroke-miterlimit:10;}
	.st15{fill:none;}
	.st16{font-family:'Roboto-Bold';}
	.st17{font-size:4px;}
	.st18{font-size:5px;}
	.st19{fill:#26C485;}
	.st20{fill:#FFFFFF;stroke:#26C485;stroke-width:7;stroke-linecap:round;stroke-linejoin:round;stroke-miterlimit:10;}
	.st21{fill:url(#SVGID_1_);}
</style>
<g id="Background_xA0_Bild_1_" class="st0">
	
		<image style="display:inline;overflow:visible;" width="3000" height="1800" id="Background_xA0_Bild" xlink:href="2DD9CF1A7452B4B4.jpg"  transform="matrix(0.24 0 0 0.24 -96.48 -17.9537)">
	</image>
</g>
<g id="Browser_04_1_" class="st0">
	<g id="Tabs_7_" class="st1">
	</g>
	<g id="Navigation_7_" class="st1">
		<g id="http_3_">
			<g id="http:_x2F__x2F_www.yourwebsite.com_1_">
			</g>
		</g>
	</g>
	<g id="Caption_buttons_7_" class="st1">
	</g>
	<g id="web_copy_xA0_Bild_1_" class="st1">
	</g>
</g>
<g id="Browser_03_1_" class="st0">
	<g id="Tabs_6_" class="st1">
	</g>
	<g id="Navigation_6_" class="st1">
		<g id="https_3_">
			<g id="https:_x2F__x2F_www.yourwebsite.com_1_">
			</g>
		</g>
	</g>
	<g id="Caption_buttons_6_" class="st1">
	</g>
	<g id="web_xA0_Bild_3_" class="st1">
	</g>
</g>
<g id="Browser_02_1_" class="st0">
	<g id="Tabs_5_" class="st1">
	</g>
	<g id="Navigation_5_" class="st1">
		<g id="http_2_">
			<g id="http:_x2F__x2F_www.yourwebsite.com">
			</g>
		</g>
	</g>
	<g id="Caption_buttons_5_" class="st1">
	</g>
	<g id="web_xA0_Bild_1_" class="st1">
	</g>
</g>
<g id="Browser_01_1_">
	<g id="Body_3_">
		<g>
			<path class="st11" d="M237.5-0.5H1.7C0.8-0.5,0-0.3,0,0.1v62.4h239.2V0.1C239.2-0.3,238.4-0.5,237.5-0.5z"/>
		</g>
	</g>
	<g id="Tabs_4_">
		<g id="Right_6_">
			<g>
				<path class="st12" d="M174.6,6.9c-0.5-0.8-1.6-1.4-2.5-1.4H114c-0.9,0-2,0.6-2.3,1.4L106,18.8h75.8L174.6,6.9z"/>
			</g>
		</g>
		<g id="Left_6_">
			<g>
				<path class="st3" d="M105.7,6.9c-0.5-0.8-1.6-1.4-2.5-1.4H45c-0.9,0-2,0.6-2.3,1.4L37,18.8h75.8L105.7,6.9z"/>
			</g>
		</g>
	</g>
	<g id="Navigation_4_">
		<g id="Background_4_">
			<g>
				<rect x="0" y="17" class="st3" width="239.2" height="16.3"/>
			</g>
		</g>
		<g id="Left_7_">
			<g>
				<path class="st6" d="M12.5,24.9H7.4l1.5-1.6c0.1-0.1,0.1-0.4,0-0.5c-0.1-0.1-0.4-0.1-0.5,0l-1.9,1.9c-0.1,0.1-0.2,0.3-0.2,0.5
					v0.1c0,0.2,0.1,0.4,0.2,0.5l1.9,1.9c0.1,0.1,0.4,0.1,0.5,0c0.1-0.1,0.1-0.4,0-0.5l-1.5-1.6h5.1c0.2,0,0.4-0.2,0.4-0.4v0
					C12.9,25,12.7,24.9,12.5,24.9z"/>
			</g>
		</g>
		<g id="Right_7_">
			<g>
				<path class="st6" d="M26.9,24.7L25,22.8c-0.1-0.1-0.4-0.1-0.5,0c-0.1,0.1-0.1,0.4,0,0.5l1.5,1.6h-5.1c-0.2,0-0.4,0.2-0.4,0.4v0
					c0,0.2,0.2,0.4,0.4,0.4H26l-1.5,1.6c-0.1,0.1-0.1,0.4,0,0.5c0.1,0.1,0.4,0.1,0.5,0l1.9-1.9c0.1-0.1,0.2-0.3,0.2-0.5v-0.1
					C27.1,25,27,24.8,26.9,24.7z"/>
			</g>
		</g>
		<g id="Refresh_3_">
			<g>
				<path class="st6" d="M40.9,25.6c0-0.1-0.1-0.2-0.2-0.2c0-0.1-0.1-0.2-0.2-0.2c-0.1,0-0.2,0.1-0.2,0.2c0,1.2-1,2.1-2.1,2.1
					c-0.5,0-1-0.2-1.4-0.6c-0.3-0.4-0.6-0.9-0.6-1.4c0-0.5,0.2-1,0.5-1.4c0.3-0.3,0.8-0.5,1.2-0.6v0.5c0,0.1,0,0.1,0.1,0.2
					c0,0,0.1,0,0.1,0c0,0,0.1,0,0.1,0l1.2-0.7c0,0,0.1-0.1,0.1-0.1l0.1,0c0.1,0,0.1-0.1,0.1-0.2c0-0.1,0-0.1-0.1-0.2l-0.1,0
					c0,0,0-0.1-0.1-0.1l-1.2-0.7c-0.1,0-0.1,0-0.2,0S38,22.4,38,22.4v0.5c-1.3,0.1-2.3,1.2-2.3,2.5c0,0,0,0.1,0,0.1c0,0,0,0.1,0,0.1
					c0,1.4,1.1,2.5,2.5,2.5c0.7,0,1.4-0.3,1.9-0.8C40.6,27,40.9,26.3,40.9,25.6z"/>
			</g>
		</g>
		<g id="Settings_3_">
			<g>
				<path class="st6" d="M233.8,22.8H228c-0.2,0-0.4,0.2-0.4,0.4v0.1c0,0.2,0.2,0.4,0.4,0.4h5.8c0.2,0,0.4-0.2,0.4-0.4v-0.1
					C234.1,23,234,22.8,233.8,22.8z M233.8,24.7H228c-0.2,0-0.4,0.2-0.4,0.4v0.1c0,0.2,0.2,0.4,0.4,0.4h5.8c0.2,0,0.4-0.2,0.4-0.4
					V25C234.1,24.8,234,24.7,233.8,24.7z M233.8,26.5H228c-0.2,0-0.4,0.2-0.4,0.4V27c0,0.2,0.2,0.4,0.4,0.4h5.8
					c0.2,0,0.4-0.2,0.4-0.4v-0.1C234.1,26.7,234,26.5,233.8,26.5z"/>
			</g>
		</g>
		<g id="Adress_3_">
			<g>
				<path class="st5" d="M221.2,21.4H50.7c-0.4,0-0.7,0.3-0.7,0.7v6c0,0.4,0.3,0.7,0.7,0.7h170.5c0.4,0,0.7-0.3,0.7-0.7v-6
					C221.9,21.7,221.6,21.4,221.2,21.4z"/>
			</g>
		</g>
		<g id="https_2_">
			<g id="https:_x2F__x2F_www.yourwebsite.com">
			</g>
			<g id="Icon_3_">
				<g>
					<path class="st13" d="M54.1,25.6c0-0.1-0.1-0.2-0.2-0.2c-0.1,0-0.2,0.1-0.2,0.2v0.3c-0.1,0.1-0.2,0.2-0.2,0.3
						c0,0.2,0.1,0.3,0.3,0.3c0.2,0,0.3-0.1,0.3-0.3c0-0.1-0.1-0.2-0.2-0.3V25.6z M55.1,24.7v-0.9c0-0.7-0.5-1.2-1.2-1.2
						s-1.2,0.5-1.2,1.2v0.9c-0.2,0-0.5,0.2-0.5,0.5v1.8c0,0.3,0.2,0.5,0.5,0.5h2.4c0.2,0,0.5-0.2,0.5-0.5v-1.8
						C55.6,24.9,55.4,24.7,55.1,24.7z M53,23.7c0-0.5,0.4-0.9,0.9-0.9s0.9,0.4,0.9,0.9v0.9H53V23.7z M55.3,26.9
						c0,0.1-0.1,0.2-0.2,0.2h-2.4c-0.1,0-0.2-0.1-0.2-0.2v-1.8c0-0.1,0.1-0.2,0.2-0.2h2.4c0.1,0,0.2,0.1,0.2,0.2V26.9z"/>
				</g>
			</g>
		</g>
	</g>
	<g id="Caption_buttons_4_">
		<g id="Ellipse_3_">
			<g>
				<circle class="st8" cx="8.2" cy="8.8" r="2.7"/>
			</g>
		</g>
		<g id="Ellipse_2_3_">
			<g>
				<circle class="st9" cx="18.3" cy="8.8" r="2.7"/>
			</g>
		</g>
		<g id="Ellipse_3_3_">
			<g>
				<path class="st10" d="M28.4,6c-1.5,0-2.7,1.2-2.7,2.7s1.2,2.7,2.7,2.7s2.7-1.2,2.7-2.7S29.9,6,28.4,6z"/>
			</g>
		</g>
	</g>
	<g id="Place_your_image_here_xA0_Bild_1_" class="st0">
		
			<image style="display:inline;overflow:visible;" width="997" height="616" id="Place_your_image_here_xA0_Bild" xlink:href="2DD9CF1A7452B4B4.png"  transform="matrix(0.24 0 0 0.24 4.051208e-05 33.4063)">
		</image>
	</g>
	<path class="st12" d="M69.4,41.9h49.8c2.1,0,3.7,1.7,3.7,3.7V55c0,2.1-1.7,3.7-3.7,3.7H46.3c-2.1,0-3.7-1.7-3.7-3.7v-9.4
		c0-2.1,1.7-3.7,3.7-3.7h7.6L53.6,31L69.4,41.9"/>
	<rect x="46.2" y="45.4" class="st15" width="75.9" height="10.6"/>
	<text transform="matrix(1 0 0 1 46.1577 48.3837)"><tspan x="0" y="0" class="st16 st17">Möchtest Du happyhamster.org Zugriff </tspan><tspan x="0" y="6" class="st16 st17">auf Deinen Standort erlauben?</tspan></text>
	<rect x="58" y="22.7" class="st15" width="82.9" height="12.2"/>
	<text transform="matrix(1 0 0 1 57.9741 26.4725)" class="st16 st18">happyhamster.org</text>
</g>
</svg>
