<?xml version="1.0" encoding="utf-8"?>
<!-- Generator: Adobe Illustrator 24.1.0, SVG Export Plug-In . SVG Version: 6.00 Build 0)  -->
<svg version="1.1" xmlns="http://www.w3.org/2000/svg" xmlns:xlink="http://www.w3.org/1999/xlink" x="0px" y="0px"
	 viewBox="0 0 918.4 34.1" style="enable-background:new 0 0 918.4 34.1;" xml:space="preserve">
<style type="text/css">
	.st0{display:none;}
	.st1{display:inline;}
	.st2{fill:#233738;}
	.st3{fill:#E6E6E6;}
	.st4{fill:#B4B4B4;}
	.st5{fill:#FFFFFF;}
	.st6{fill:#CBCBCB;}
	.st7{fill:#696969;}
	.st8{fill:#FF5141;}
	.st9{fill:#F1BB3F;}
	.st10{fill:#70CB43;}
	.st11{fill:#F1F1F1;}
	.st12{fill:#DBDBDB;}
	.st13{fill:#02A916;}
	.st14{fill:none;stroke:#26C485;stroke-width:0.75;stroke-miterlimit:10;}
	.st15{fill:#26C485;}
	.st16{fill:#FFFFFF;stroke:#26C485;stroke-width:7;stroke-linecap:round;stroke-linejoin:round;stroke-miterlimit:10;}
</style>
<g id="Background_xA0_Bild_1_" class="st0">
	
		<image style="display:inline;overflow:visible;" width="3000" height="1800" id="Background_xA0_Bild" xlink:href="2DFB7B4D5C8C05DE.jpg"  transform="matrix(0.24 0 0 0.24 -56.1634 -162.9047)">
	</image>
</g>
<g id="Browser_04_1_" class="st0">
	<g id="Tabs_7_" class="st1">
	</g>
	<g id="Navigation_7_" class="st1">
		<g id="http_3_">
			<g id="http:_x2F__x2F_www.yourwebsite.com_1_">
			</g>
		</g>
	</g>
	<g id="Caption_buttons_7_" class="st1">
	</g>
	<g id="web_copy_xA0_Bild_1_" class="st1">
	</g>
</g>
<g id="Browser_03_1_" class="st0">
	<g id="Tabs_6_" class="st1">
	</g>
	<g id="Navigation_6_" class="st1">
		<g id="https_3_">
			<g id="https:_x2F__x2F_www.yourwebsite.com_1_">
			</g>
		</g>
	</g>
	<g id="Caption_buttons_6_" class="st1">
	</g>
	<g id="web_xA0_Bild_3_" class="st1">
	</g>
</g>
<g id="Browser_02_1_" class="st0">
	<g id="Body_2_" class="st1">
		<g>
			<path class="st2" d="M565.8-145.5H330c-1,0-1.7,0.8-1.7,1.7V36.1h239.2v-179.9C567.5-144.7,566.7-145.5,565.8-145.5z"/>
		</g>
	</g>
	<g id="Tabs_5_" class="st1">
	</g>
	<g id="Navigation_5_" class="st1">
		<g id="http_2_">
			<g id="http:_x2F__x2F_www.yourwebsite.com">
			</g>
		</g>
	</g>
	<g id="Caption_buttons_5_" class="st1">
	</g>
	<g id="web_xA0_Bild_1_" class="st1">
		
			<image style="overflow:visible;" width="997" height="616" id="web_xA0_Bild" xlink:href="2DFB7B4D5C8C05DD.png"  transform="matrix(0.24 0 0 0.24 328.3166 -111.5447)">
		</image>
	</g>
</g>
<g id="Browser_01_1_">
	<g id="Tabs_4_">
	</g>
	<g id="Navigation_4_">
		<g id="https_2_">
			<g id="https:_x2F__x2F_www.yourwebsite.com">
			</g>
		</g>
	</g>
	<g id="Caption_buttons_4_">
	</g>
	<g id="Place_your_image_here_xA0_Bild_1_" class="st0">
		
			<image style="display:inline;overflow:visible;" width="997" height="616" id="Place_your_image_here_xA0_Bild" xlink:href="2DFB7B4D5C8C05D4.png"  transform="matrix(0.24 0 0 0.24 40.3166 -111.5447)">
		</image>
	</g>
	<g>
		<polyline class="st12" points="0,0 918.4,0 918.4,34.1 0,34.1 		"/>
		<g>
			<g>
				<rect y="4.4" class="st15" width="918.4" height="0.7"/>
			</g>
		</g>
		<g>
			<rect y="28.6" class="st15" width="918.4" height="0.7"/>
		</g>
		<g>
			<g>
				<path class="st5" d="M410.4,17.7h-17.1v-1.4h17.1V17.7z M376.2,17.7h-17.1v-1.4h17.1V17.7z M342,17.7h-17.1v-1.4H342V17.7z
					 M307.8,17.7h-17.1v-1.4h17.1V17.7z M273.6,17.7h-17.1v-1.4h17.1V17.7z M239.4,17.7h-17.1v-1.4h17.1V17.7z M205.2,17.7h-17.1
					v-1.4h17.1V17.7z M171,17.7h-17.1v-1.4H171V17.7z M136.8,17.7h-17.1v-1.4h17.1V17.7z M102.6,17.7H85.5v-1.4h17.1V17.7z
					 M68.4,17.7H51.3v-1.4h17.1V17.7z M34.2,17.7H17.1v-1.4h17.1V17.7z"/>
			</g>
		</g>
		<g>
			<g>
				<path class="st5" d="M840.2,16.4h17.1v1.4h-17.1V16.4z M874.4,16.4h17.1v1.4h-17.1V16.4z"/>
			</g>
		</g>
		<g>
			<g>
				<path class="st5" d="M428.5,16.4h17.1v1.4h-17.1V16.4z M462.7,16.4h17.1v1.4h-17.1V16.4z M496.9,16.4H514v1.4h-17.1V16.4z
					 M531.1,16.4h17.1v1.4h-17.1V16.4z M565.3,16.4h17.1v1.4h-17.1V16.4z M599.5,16.4h17.1v1.4h-17.1V16.4z M633.7,16.4h17.1v1.4
					h-17.1V16.4z M667.9,16.4H685v1.4h-17.1V16.4z M702.1,16.4h17.1v1.4h-17.1V16.4z M736.3,16.4h17.1v1.4h-17.1V16.4z M770.5,16.4
					h17.1v1.4h-17.1V16.4z M804.7,16.4h17.1v1.4h-17.1V16.4z"/>
			</g>
		</g>
	</g>
</g>
</svg>
