<?xml version="1.0" encoding="utf-8"?>
<!-- Generator: Adobe Illustrator 24.1.0, SVG Export Plug-In . SVG Version: 6.00 Build 0)  -->
<svg version="1.1" id="Ebene_1" xmlns="http://www.w3.org/2000/svg" xmlns:xlink="http://www.w3.org/1999/xlink" x="0px" y="0px"
	 viewBox="0 0 86.5 34.9" style="enable-background:new 0 0 86.5 34.9;" xml:space="preserve">
<style type="text/css">
	.st0{display:none;}
	.st1{fill:#233738;}
	.st2{fill:#E6E6E6;}
	.st3{fill:#B4B4B4;}
	.st4{fill:#FFFFFF;}
	.st5{fill:#CBCBCB;}
	.st6{display:inline;}
	.st7{fill:#696969;}
	.st8{fill:#FF5141;}
	.st9{fill:#F1BB3F;}
	.st10{fill:#70CB43;}
	.st11{fill:#F1F1F1;}
	.st12{fill:#DBDBDB;}
	.st13{fill:#02A916;}
	.st14{fill:none;}
	.st15{fill:none;stroke:#26C485;stroke-width:0.75;stroke-miterlimit:10;}
	.st16{enable-background:new    ;}
	.st17{fill:#0B0033;}
	.st18{fill:#26C485;}
</style>
<g id="Background_xA0_Bild_1_" class="st0">
</g>
<g id="Browser_01_1_">
	<g id="Place_your_image_here_xA0_Bild_1_" class="st0">
	</g>
	<g>
		<rect x="15.7" y="4.7" class="st14" width="80.2" height="11.3"/>
	</g>
	<g class="st16">
		<path class="st17" d="M18.8,7.4l0.5-2.5H20l-0.8,3.6h-0.7L17.9,6l-0.6,2.4h-0.7l-0.8-3.6h0.7L17,7.4l0.6-2.5h0.6L18.8,7.4z"/>
		<path class="st17" d="M21.9,8.4c0-0.1-0.1-0.1-0.1-0.2c-0.2,0.2-0.4,0.3-0.7,0.3c-0.3,0-0.5-0.1-0.6-0.2c-0.2-0.1-0.3-0.3-0.3-0.6
			c0-0.3,0.1-0.5,0.3-0.6c0.2-0.1,0.5-0.2,0.9-0.2h0.3V6.6c0-0.1,0-0.2-0.1-0.3c-0.1-0.1-0.2-0.1-0.3-0.1c-0.1,0-0.2,0-0.3,0.1
			C21,6.4,21,6.5,21,6.6h-0.7c0-0.2,0-0.3,0.1-0.4c0.1-0.1,0.2-0.2,0.4-0.3s0.4-0.1,0.6-0.1c0.3,0,0.6,0.1,0.8,0.2
			c0.2,0.2,0.3,0.4,0.3,0.7v1.1c0,0.3,0,0.4,0.1,0.6v0H21.9z M21.2,5.1c0,0.1,0,0.2-0.1,0.2s-0.1,0.1-0.2,0.1c-0.1,0-0.2,0-0.2-0.1
			s-0.1-0.1-0.1-0.2s0-0.2,0.1-0.2c0.1-0.1,0.1-0.1,0.2-0.1s0.2,0,0.2,0.1C21.1,4.9,21.2,5,21.2,5.1z M21.3,7.9c0.1,0,0.2,0,0.3-0.1
			c0.1,0,0.2-0.1,0.2-0.2V7.2h-0.3c-0.4,0-0.5,0.1-0.6,0.4l0,0c0,0.1,0,0.2,0.1,0.2S21.2,7.9,21.3,7.9z M21.7,5.1
			c0-0.1,0-0.2,0.1-0.2c0.1-0.1,0.1-0.1,0.2-0.1c0.1,0,0.2,0,0.2,0.1c0.1,0.1,0.1,0.1,0.1,0.2c0,0.1,0,0.2-0.1,0.2S22.1,5.4,22,5.4
			s-0.2,0-0.2-0.1C21.7,5.2,21.7,5.2,21.7,5.1z"/>
		<path class="st17" d="M23.7,6c0.2-0.2,0.4-0.3,0.7-0.3c0.6,0,0.9,0.3,0.9,1v1.7h-0.7V6.7c0-0.2,0-0.3-0.1-0.3s-0.2-0.1-0.3-0.1
			c-0.2,0-0.4,0.1-0.4,0.2v1.9H23V4.7h0.7V6z"/>
		<path class="st17" d="M26.6,8.4h-0.7V4.7h0.7V8.4z"/>
		<path class="st17" d="M28.4,8.5c-0.4,0-0.7-0.1-0.9-0.4c-0.2-0.2-0.4-0.6-0.4-1V7.1c0-0.3,0.1-0.5,0.2-0.7s0.2-0.4,0.4-0.5
			c0.2-0.1,0.4-0.2,0.6-0.2c0.4,0,0.6,0.1,0.9,0.3c0.2,0.2,0.3,0.6,0.3,1v0.3h-1.7c0,0.2,0.1,0.3,0.2,0.4c0.1,0.1,0.3,0.2,0.4,0.2
			c0.3,0,0.5-0.1,0.6-0.3L29.4,8c-0.1,0.2-0.2,0.3-0.4,0.4S28.6,8.5,28.4,8.5z M28.3,6.3c-0.1,0-0.3,0-0.3,0.1
			c-0.1,0.1-0.1,0.2-0.2,0.4h1V6.8c0-0.2,0-0.3-0.1-0.4S28.4,6.3,28.3,6.3z"/>
		<path class="st17" d="M31.1,8.4V4.8h1.1c0.3,0,0.6,0.1,0.8,0.2c0.2,0.1,0.4,0.3,0.6,0.6s0.2,0.6,0.2,0.9v0.2
			c0,0.3-0.1,0.6-0.2,0.9c-0.1,0.3-0.3,0.5-0.6,0.6s-0.5,0.2-0.8,0.2H31.1z M31.9,5.4v2.4h0.4c0.3,0,0.5-0.1,0.7-0.3
			s0.2-0.5,0.2-0.8V6.5c0-0.4-0.1-0.6-0.2-0.8s-0.4-0.3-0.7-0.3H31.9z"/>
		<path class="st17" d="M35.6,8.5c-0.4,0-0.7-0.1-0.9-0.4c-0.2-0.2-0.4-0.6-0.4-1V7.1c0-0.3,0.1-0.5,0.2-0.7s0.2-0.4,0.4-0.5
			c0.2-0.1,0.4-0.2,0.6-0.2c0.4,0,0.6,0.1,0.9,0.3c0.2,0.2,0.3,0.6,0.3,1v0.3H35c0,0.2,0.1,0.3,0.2,0.4c0.1,0.1,0.3,0.2,0.4,0.2
			c0.3,0,0.5-0.1,0.6-0.3L36.6,8c-0.1,0.2-0.2,0.3-0.4,0.4S35.8,8.5,35.6,8.5z M35.5,6.3c-0.1,0-0.3,0-0.3,0.1C35,6.5,35,6.7,35,6.8
			h1V6.8c0-0.2,0-0.3-0.1-0.4S35.6,6.3,35.5,6.3z"/>
		<path class="st17" d="M37,5.1c0-0.1,0-0.2,0.1-0.3c0.1-0.1,0.2-0.1,0.3-0.1c0.1,0,0.2,0,0.3,0.1s0.1,0.2,0.1,0.3
			c0,0.1,0,0.2-0.1,0.3c-0.1,0.1-0.2,0.1-0.3,0.1s-0.2,0-0.3-0.1C37.1,5.3,37,5.2,37,5.1z M37.8,8.4h-0.7V5.8h0.7V8.4z"/>
		<path class="st17" d="M39,5.8l0,0.3c0.2-0.2,0.4-0.4,0.8-0.4c0.3,0,0.5,0.1,0.6,0.2c0.1,0.2,0.2,0.4,0.2,0.7v1.7h-0.7V6.7
			c0-0.1,0-0.3-0.1-0.3s-0.2-0.1-0.3-0.1c-0.2,0-0.3,0.1-0.4,0.3v1.9h-0.7V5.8H39z"/>
		<path class="st17" d="M42.4,8.5c-0.4,0-0.7-0.1-0.9-0.4c-0.2-0.2-0.4-0.6-0.4-1V7.1c0-0.3,0.1-0.5,0.2-0.7s0.2-0.4,0.4-0.5
			c0.2-0.1,0.4-0.2,0.6-0.2c0.4,0,0.6,0.1,0.9,0.3c0.2,0.2,0.3,0.6,0.3,1v0.3h-1.7c0,0.2,0.1,0.3,0.2,0.4c0.1,0.1,0.3,0.2,0.4,0.2
			c0.3,0,0.5-0.1,0.6-0.3L43.4,8c-0.1,0.2-0.2,0.3-0.4,0.4S42.6,8.5,42.4,8.5z M42.3,6.3c-0.1,0-0.3,0-0.3,0.1
			c-0.1,0.1-0.1,0.2-0.2,0.4h1V6.8c0-0.2,0-0.3-0.1-0.4S42.5,6.3,42.3,6.3z"/>
		<path class="st17" d="M44.5,5.8l0,0.3c0.2-0.2,0.4-0.4,0.8-0.4c0.3,0,0.5,0.1,0.6,0.2c0.1,0.2,0.2,0.4,0.2,0.7v1.7h-0.7V6.7
			c0-0.1,0-0.3-0.1-0.3c-0.1-0.1-0.2-0.1-0.3-0.1c-0.2,0-0.3,0.1-0.4,0.3v1.9h-0.7V5.8H44.5z"/>
		<path class="st17" d="M49.8,7.5c0-0.1,0-0.2-0.1-0.3S49.4,7,49.1,6.9s-0.5-0.2-0.6-0.2c-0.4-0.2-0.6-0.5-0.6-0.9
			c0-0.2,0.1-0.4,0.2-0.5c0.1-0.2,0.3-0.3,0.5-0.4c0.2-0.1,0.4-0.1,0.7-0.1c0.3,0,0.5,0,0.7,0.1c0.2,0.1,0.4,0.2,0.5,0.4
			c0.1,0.2,0.2,0.4,0.2,0.6h-0.7c0-0.2-0.1-0.3-0.2-0.4c-0.1-0.1-0.2-0.1-0.4-0.1c-0.2,0-0.3,0-0.4,0.1c-0.1,0.1-0.1,0.2-0.1,0.3
			c0,0.1,0.1,0.2,0.2,0.3s0.3,0.2,0.5,0.2c0.4,0.1,0.7,0.3,0.9,0.5s0.3,0.4,0.3,0.7c0,0.3-0.1,0.5-0.3,0.7c-0.2,0.2-0.5,0.3-0.9,0.3
			c-0.3,0-0.5,0-0.7-0.2c-0.2-0.1-0.4-0.2-0.5-0.4s-0.2-0.4-0.2-0.6h0.7c0,0.4,0.2,0.6,0.7,0.6c0.2,0,0.3,0,0.4-0.1
			C49.8,7.7,49.8,7.6,49.8,7.5z"/>
		<path class="st17" d="M52.6,8.1c-0.2,0.2-0.4,0.3-0.7,0.3c-0.3,0-0.5-0.1-0.6-0.2C51.1,8,51,7.8,51,7.5V5.8h0.7v1.7
			c0,0.3,0.1,0.4,0.4,0.4c0.2,0,0.4-0.1,0.5-0.2V5.8h0.7v2.6h-0.7L52.6,8.1z"/>
		<path class="st17" d="M56.2,7.1c0,0.4-0.1,0.7-0.3,1c-0.2,0.2-0.4,0.4-0.7,0.4c-0.3,0-0.5-0.1-0.6-0.3v1.2h-0.7V5.8h0.7l0,0.3
			c0.2-0.2,0.4-0.3,0.7-0.3c0.3,0,0.6,0.1,0.8,0.4S56.2,6.6,56.2,7.1L56.2,7.1z M55.5,7.1c0-0.2,0-0.4-0.1-0.6
			c-0.1-0.1-0.2-0.2-0.4-0.2c-0.2,0-0.4,0.1-0.5,0.3v1.1c0.1,0.2,0.2,0.3,0.5,0.3C55.3,7.9,55.5,7.6,55.5,7.1z"/>
		<path class="st17" d="M57.8,8.5c-0.4,0-0.7-0.1-0.9-0.4s-0.4-0.6-0.4-1V7.1c0-0.3,0.1-0.5,0.2-0.7s0.2-0.4,0.4-0.5
			c0.2-0.1,0.4-0.2,0.6-0.2c0.4,0,0.6,0.1,0.9,0.3c0.2,0.2,0.3,0.6,0.3,1v0.3h-1.7c0,0.2,0.1,0.3,0.2,0.4c0.1,0.1,0.3,0.2,0.4,0.2
			c0.3,0,0.5-0.1,0.6-0.3L58.8,8c-0.1,0.2-0.2,0.3-0.4,0.4S58,8.5,57.8,8.5z M57.7,6.3c-0.1,0-0.3,0-0.3,0.1
			c-0.1,0.1-0.1,0.2-0.2,0.4h1V6.8c0-0.2,0-0.3-0.1-0.4C58,6.3,57.9,6.3,57.7,6.3z"/>
		<path class="st17" d="M60.8,6.4c-0.1,0-0.2,0-0.3,0c-0.3,0-0.4,0.1-0.5,0.3v1.7h-0.7V5.8H60l0,0.3c0.1-0.2,0.3-0.4,0.6-0.4
			c0.1,0,0.2,0,0.2,0L60.8,6.4z"/>
		<path class="st17" d="M61.8,5.8l0,0.3c0.2-0.2,0.4-0.3,0.8-0.3c0.3,0,0.6,0.1,0.7,0.4c0.2-0.3,0.5-0.4,0.8-0.4
			c0.3,0,0.5,0.1,0.6,0.2c0.1,0.2,0.2,0.4,0.2,0.8v1.7h-0.7V6.7c0-0.1,0-0.3-0.1-0.3S64,6.3,63.8,6.3c-0.2,0-0.4,0.1-0.4,0.3l0,1.8
			h-0.7V6.7c0-0.2,0-0.3-0.1-0.3c-0.1-0.1-0.2-0.1-0.3-0.1c-0.2,0-0.3,0.1-0.4,0.2v1.9h-0.7V5.8H61.8z"/>
		<path class="st17" d="M67,8.4c0-0.1-0.1-0.1-0.1-0.2c-0.2,0.2-0.4,0.3-0.7,0.3c-0.3,0-0.5-0.1-0.6-0.2s-0.3-0.3-0.3-0.6
			c0-0.3,0.1-0.5,0.3-0.6c0.2-0.1,0.5-0.2,0.9-0.2h0.3V6.6c0-0.1,0-0.2-0.1-0.3c-0.1-0.1-0.2-0.1-0.3-0.1c-0.1,0-0.2,0-0.3,0.1
			c-0.1,0.1-0.1,0.1-0.1,0.2h-0.7c0-0.2,0-0.3,0.1-0.4C65.6,6,65.8,5.9,66,5.8c0.2-0.1,0.4-0.1,0.6-0.1c0.3,0,0.6,0.1,0.8,0.2
			c0.2,0.2,0.3,0.4,0.3,0.7v1.1c0,0.3,0,0.4,0.1,0.6v0H67z M66.4,7.9c0.1,0,0.2,0,0.3-0.1c0.1,0,0.2-0.1,0.2-0.2V7.2h-0.3
			c-0.4,0-0.5,0.1-0.6,0.4l0,0c0,0.1,0,0.2,0.1,0.2C66.2,7.9,66.3,7.9,66.4,7.9z"/>
		<path class="st17" d="M69.6,6.4c-0.1,0-0.2,0-0.3,0c-0.3,0-0.4,0.1-0.5,0.3v1.7h-0.7V5.8h0.7l0,0.3c0.1-0.2,0.3-0.4,0.6-0.4
			c0.1,0,0.2,0,0.2,0L69.6,6.4z"/>
		<path class="st17" d="M70.9,7.3l-0.3,0.3v0.8H70V4.7h0.7v2.1l0.1-0.2l0.7-0.8h0.8l-1,1.1l1,1.5h-0.8L70.9,7.3z"/>
		<path class="st17" d="M73.5,5.1v0.6h0.5v0.5h-0.5v1.3c0,0.1,0,0.2,0.1,0.2c0,0,0.1,0.1,0.2,0.1c0.1,0,0.1,0,0.2,0v0.5
			c-0.1,0-0.3,0.1-0.4,0.1c-0.5,0-0.7-0.2-0.8-0.8V6.3h-0.4V5.8h0.4V5.1H73.5z"/>
	</g>
	<g class="st16">
		<path class="st17" d="M17.5,14.4c0-0.1-0.1-0.1-0.1-0.2c-0.2,0.2-0.4,0.3-0.7,0.3c-0.3,0-0.5-0.1-0.6-0.2
			c-0.2-0.1-0.3-0.3-0.3-0.6c0-0.3,0.1-0.5,0.3-0.6c0.2-0.1,0.5-0.2,0.9-0.2h0.3v-0.2c0-0.1,0-0.2-0.1-0.3c-0.1-0.1-0.2-0.1-0.3-0.1
			c-0.1,0-0.2,0-0.3,0.1c-0.1,0.1-0.1,0.1-0.1,0.2h-0.7c0-0.2,0-0.3,0.1-0.4c0.1-0.1,0.2-0.2,0.4-0.3s0.4-0.1,0.6-0.1
			c0.3,0,0.6,0.1,0.8,0.2c0.2,0.2,0.3,0.4,0.3,0.7v1.1c0,0.3,0,0.4,0.1,0.6v0H17.5z M16.9,13.9c0.1,0,0.2,0,0.3-0.1
			c0.1,0,0.2-0.1,0.2-0.2v-0.5h-0.3c-0.4,0-0.5,0.1-0.6,0.4l0,0c0,0.1,0,0.2,0.1,0.2S16.8,13.9,16.9,13.9z"/>
		<path class="st17" d="M20.2,14.1c-0.2,0.2-0.4,0.3-0.7,0.3c-0.3,0-0.5-0.1-0.6-0.2c-0.1-0.2-0.2-0.4-0.2-0.7v-1.7h0.7v1.7
			c0,0.3,0.1,0.4,0.4,0.4c0.2,0,0.4-0.1,0.5-0.2v-1.9h0.7v2.6h-0.7L20.2,14.1z"/>
		<path class="st17" d="M21.6,14.4v-2.1h-0.4v-0.5h0.4v-0.2c0-0.3,0.1-0.5,0.3-0.7c0.2-0.2,0.4-0.2,0.7-0.2c0.1,0,0.2,0,0.4,0l0,0.5
			c-0.1,0-0.1,0-0.2,0c-0.3,0-0.4,0.1-0.4,0.4v0.2h0.5v0.5h-0.5v2.1H21.6z"/>
		<path class="st17" d="M24.4,13.1c0-0.4,0.1-0.7,0.3-1c0.2-0.2,0.4-0.4,0.8-0.4c0.3,0,0.5,0.1,0.6,0.3v-1.3h0.7v3.8h-0.6l0-0.3
			c-0.2,0.2-0.4,0.3-0.7,0.3c-0.3,0-0.6-0.1-0.7-0.4C24.5,13.8,24.4,13.5,24.4,13.1z M25.1,13.1c0,0.2,0,0.4,0.1,0.6
			c0.1,0.1,0.2,0.2,0.4,0.2c0.2,0,0.4-0.1,0.5-0.3v-1c-0.1-0.2-0.2-0.3-0.5-0.3C25.2,12.3,25.1,12.6,25.1,13.1z"/>
		<path class="st17" d="M28.5,14.5c-0.4,0-0.7-0.1-0.9-0.4c-0.2-0.2-0.4-0.6-0.4-1v-0.1c0-0.3,0.1-0.5,0.2-0.7s0.2-0.4,0.4-0.5
			c0.2-0.1,0.4-0.2,0.6-0.2c0.4,0,0.6,0.1,0.9,0.3c0.2,0.2,0.3,0.6,0.3,1v0.3h-1.7c0,0.2,0.1,0.3,0.2,0.4c0.1,0.1,0.3,0.2,0.4,0.2
			c0.3,0,0.5-0.1,0.6-0.3l0.3,0.4c-0.1,0.2-0.2,0.3-0.4,0.4S28.7,14.5,28.5,14.5z M28.4,12.3c-0.1,0-0.3,0-0.3,0.1
			c-0.1,0.1-0.1,0.2-0.2,0.4h1v-0.1c0-0.2,0-0.3-0.1-0.4S28.6,12.3,28.4,12.3z"/>
		<path class="st17" d="M31.5,12.4c-0.1,0-0.2,0-0.3,0c-0.3,0-0.4,0.1-0.5,0.3v1.7H30v-2.6h0.7l0,0.3c0.1-0.2,0.3-0.4,0.6-0.4
			c0.1,0,0.2,0,0.2,0L31.5,12.4z"/>
		<path class="st17" d="M34.2,13l-0.4,0.4v1h-0.7v-3.6h0.7v1.6l0.3-0.4l0.9-1.2H36l-1.3,1.6l1.3,2h-0.9L34.2,13z"/>
		<path class="st17" d="M37.8,14.4c0-0.1-0.1-0.1-0.1-0.2c-0.2,0.2-0.4,0.3-0.7,0.3c-0.3,0-0.5-0.1-0.6-0.2
			c-0.2-0.1-0.3-0.3-0.3-0.6c0-0.3,0.1-0.5,0.3-0.6c0.2-0.1,0.5-0.2,0.9-0.2h0.3v-0.2c0-0.1,0-0.2-0.1-0.3c-0.1-0.1-0.2-0.1-0.3-0.1
			c-0.1,0-0.2,0-0.3,0.1c-0.1,0.1-0.1,0.1-0.1,0.2h-0.7c0-0.2,0-0.3,0.1-0.4c0.1-0.1,0.2-0.2,0.4-0.3s0.4-0.1,0.6-0.1
			c0.3,0,0.6,0.1,0.8,0.2c0.2,0.2,0.3,0.4,0.3,0.7v1.1c0,0.3,0,0.4,0.1,0.6v0H37.8z M37.2,13.9c0.1,0,0.2,0,0.3-0.1
			c0.1,0,0.2-0.1,0.2-0.2v-0.5h-0.3c-0.4,0-0.5,0.1-0.6,0.4l0,0c0,0.1,0,0.2,0.1,0.2S37.1,13.9,37.2,13.9z"/>
		<path class="st17" d="M40.4,12.4c-0.1,0-0.2,0-0.3,0c-0.3,0-0.4,0.1-0.5,0.3v1.7h-0.7v-2.6h0.7l0,0.3c0.1-0.2,0.3-0.4,0.6-0.4
			c0.1,0,0.2,0,0.2,0L40.4,12.4z"/>
		<path class="st17" d="M41.7,11.1v0.6h0.5v0.5h-0.5v1.3c0,0.1,0,0.2,0.1,0.2s0.1,0.1,0.2,0.1c0.1,0,0.1,0,0.2,0v0.5
			c-0.1,0-0.3,0.1-0.4,0.1c-0.5,0-0.7-0.2-0.8-0.8v-1.4h-0.4v-0.5H41v-0.6H41.7z"/>
		<path class="st17" d="M43.8,14.5c-0.4,0-0.7-0.1-0.9-0.4c-0.2-0.2-0.4-0.6-0.4-1v-0.1c0-0.3,0.1-0.5,0.2-0.7s0.2-0.4,0.4-0.5
			c0.2-0.1,0.4-0.2,0.6-0.2c0.4,0,0.6,0.1,0.9,0.3c0.2,0.2,0.3,0.6,0.3,1v0.3h-1.7c0,0.2,0.1,0.3,0.2,0.4c0.1,0.1,0.3,0.2,0.4,0.2
			c0.3,0,0.5-0.1,0.6-0.3l0.3,0.4c-0.1,0.2-0.2,0.3-0.4,0.4S44,14.5,43.8,14.5z M43.7,12.3c-0.1,0-0.3,0-0.3,0.1
			c-0.1,0.1-0.1,0.2-0.2,0.4h1v-0.1c0-0.2,0-0.3-0.1-0.4C44,12.3,43.8,12.3,43.7,12.3z"/>
		<path class="st17" d="M48,14.4c0-0.1-0.1-0.1-0.1-0.2c-0.2,0.2-0.4,0.3-0.7,0.3c-0.3,0-0.5-0.1-0.6-0.2s-0.3-0.3-0.3-0.6
			c0-0.3,0.1-0.5,0.3-0.6c0.2-0.1,0.5-0.2,0.9-0.2h0.3v-0.2c0-0.1,0-0.2-0.1-0.3c-0.1-0.1-0.2-0.1-0.3-0.1c-0.1,0-0.2,0-0.3,0.1
			c-0.1,0.1-0.1,0.1-0.1,0.2h-0.7c0-0.2,0-0.3,0.1-0.4c0.1-0.1,0.2-0.2,0.4-0.3c0.2-0.1,0.4-0.1,0.6-0.1c0.3,0,0.6,0.1,0.8,0.2
			c0.2,0.2,0.3,0.4,0.3,0.7v1.1c0,0.3,0,0.4,0.1,0.6v0H48z M47.5,13.9c0.1,0,0.2,0,0.3-0.1c0.1,0,0.2-0.1,0.2-0.2v-0.5h-0.3
			c-0.4,0-0.5,0.1-0.6,0.4l0,0c0,0.1,0,0.2,0.1,0.2C47.3,13.9,47.3,13.9,47.5,13.9z"/>
		<path class="st17" d="M50.8,14.1c-0.2,0.2-0.4,0.3-0.7,0.3c-0.3,0-0.5-0.1-0.6-0.2c-0.1-0.2-0.2-0.4-0.2-0.7v-1.7h0.7v1.7
			c0,0.3,0.1,0.4,0.4,0.4c0.2,0,0.4-0.1,0.5-0.2v-1.9h0.7v2.6h-0.7L50.8,14.1z"/>
		<path class="st17" d="M53.4,13.7c0-0.1,0-0.2-0.1-0.2c-0.1,0-0.2-0.1-0.4-0.1c-0.6-0.1-0.9-0.4-0.9-0.8c0-0.2,0.1-0.4,0.3-0.6
			c0.2-0.2,0.4-0.2,0.8-0.2c0.3,0,0.6,0.1,0.8,0.2c0.2,0.2,0.3,0.4,0.3,0.6h-0.7c0-0.1,0-0.2-0.1-0.3c-0.1-0.1-0.2-0.1-0.3-0.1
			c-0.1,0-0.2,0-0.3,0.1c-0.1,0.1-0.1,0.1-0.1,0.2c0,0.1,0,0.1,0.1,0.2c0.1,0,0.2,0.1,0.4,0.1s0.3,0.1,0.4,0.1
			c0.4,0.1,0.6,0.4,0.6,0.7c0,0.2-0.1,0.4-0.3,0.6c-0.2,0.1-0.5,0.2-0.8,0.2c-0.2,0-0.4,0-0.6-0.1c-0.2-0.1-0.3-0.2-0.4-0.3
			s-0.1-0.3-0.1-0.4h0.7c0,0.1,0.1,0.2,0.1,0.3c0.1,0.1,0.2,0.1,0.3,0.1c0.1,0,0.2,0,0.3-0.1C53.4,13.8,53.4,13.8,53.4,13.7z"/>
	</g>
	<g>
		<g>
			<path class="st18" d="M7.2,2.9C4.9,2.9,3.1,4.7,3.1,7c0,0.9,0.5,2.3,1.7,4.3c0.8,1.4,1.6,2.6,1.6,2.6L7,14.8
				c0.1,0.1,0.2,0.1,0.3,0.1s0.2-0.1,0.3-0.1L8,13.9c0,0,0.8-1.2,1.6-2.6c1.1-2.1,1.7-3.4,1.7-4.3C11.3,4.7,9.4,2.9,7.2,2.9z
				 M9.1,11c-0.8,1.4-1.5,2.5-1.6,2.6L7.2,14l-0.3-0.5c0,0-0.8-1.2-1.6-2.6C4.2,9,3.7,7.6,3.7,6.9c0-1.9,1.6-3.5,3.5-3.5
				s3.5,1.6,3.5,3.5C10.7,7.7,10.1,9.1,9.1,11z"/>
			<path class="st18" d="M7.2,4.7c-1.3,0-2.3,1-2.3,2.3s1,2.3,2.3,2.3s2.3-1,2.3-2.3S8.4,4.7,7.2,4.7z M7.2,8.6
				c-0.9,0-1.7-0.7-1.7-1.7s0.7-1.7,1.7-1.7c0.9,0,1.7,0.7,1.7,1.7S8.1,8.6,7.2,8.6z"/>
		</g>
	</g>
	<path class="st15" d="M81.4,31.8H5.7c-1.1,0-2-0.9-2-2v-7.2c0-1.1,0.9-2,2-2h75.7c1.1,0,2,0.9,2,2v7.2
		C83.3,30.9,82.4,31.8,81.4,31.8z"/>
	<rect x="7.2" y="24.2" class="st14" width="73.3" height="6.6"/>
	<g class="st16">
		<path class="st18" d="M31.8,27.9H31v-3.6h0.7V27.9z"/>
		<path class="st18" d="M33.5,27.4c0.1,0,0.2,0,0.3-0.1c0.1-0.1,0.1-0.2,0.1-0.3h0.7c0,0.2-0.1,0.3-0.1,0.5
			c-0.1,0.1-0.2,0.3-0.4,0.3c-0.2,0.1-0.4,0.1-0.6,0.1c-0.4,0-0.7-0.1-0.9-0.4s-0.3-0.6-0.3-1v0c0-0.4,0.1-0.7,0.3-1
			c0.2-0.2,0.5-0.4,0.9-0.4c0.3,0,0.6,0.1,0.8,0.3c0.2,0.2,0.3,0.4,0.3,0.8h-0.7c0-0.1,0-0.2-0.1-0.3s-0.2-0.1-0.3-0.1
			c-0.2,0-0.3,0.1-0.4,0.2C33,26.1,33,26.3,33,26.5v0.1c0,0.3,0,0.5,0.1,0.6S33.3,27.4,33.5,27.4z"/>
		<path class="st18" d="M35.7,25.6c0.2-0.2,0.4-0.3,0.7-0.3c0.6,0,0.9,0.3,0.9,1v1.7h-0.7v-1.7c0-0.2,0-0.3-0.1-0.3
			s-0.2-0.1-0.3-0.1c-0.2,0-0.4,0.1-0.4,0.2v1.9H35v-3.8h0.7V25.6z"/>
		<path class="st18" d="M41.4,26.6c0,0.4-0.1,0.8-0.3,1C41,27.8,40.7,28,40.4,28c-0.3,0-0.5-0.1-0.7-0.3l0,0.3H39v-3.8h0.7v1.3
			c0.2-0.2,0.4-0.3,0.6-0.3c0.3,0,0.6,0.1,0.8,0.4C41.3,25.8,41.4,26.1,41.4,26.6L41.4,26.6z M40.7,26.6c0-0.3,0-0.5-0.1-0.6
			s-0.2-0.2-0.4-0.2c-0.2,0-0.4,0.1-0.5,0.3v1c0.1,0.2,0.2,0.3,0.5,0.3c0.2,0,0.4-0.1,0.4-0.3C40.7,26.9,40.7,26.8,40.7,26.6z"/>
		<path class="st18" d="M41.8,24.6c0-0.1,0-0.2,0.1-0.3c0.1-0.1,0.2-0.1,0.3-0.1c0.1,0,0.2,0,0.3,0.1s0.1,0.2,0.1,0.3
			c0,0.1,0,0.2-0.1,0.3c-0.1,0.1-0.2,0.1-0.3,0.1s-0.2,0-0.3-0.1C41.9,24.8,41.8,24.7,41.8,24.6z M42.6,27.9h-0.7v-2.6h0.7V27.9z"/>
		<path class="st18" d="M43.8,25.3l0,0.3c0.2-0.2,0.4-0.4,0.8-0.4c0.3,0,0.5,0.1,0.6,0.2c0.1,0.2,0.2,0.4,0.2,0.7v1.7h-0.7v-1.7
			c0-0.1,0-0.3-0.1-0.3c-0.1-0.1-0.2-0.1-0.3-0.1c-0.2,0-0.3,0.1-0.4,0.3v1.9h-0.7v-2.6H43.8z"/>
		<path class="st18" d="M47.9,25.6c0.2-0.2,0.4-0.3,0.7-0.3c0.6,0,0.9,0.3,0.9,1v1.7h-0.7v-1.7c0-0.2,0-0.3-0.1-0.3
			c-0.1-0.1-0.2-0.1-0.3-0.1c-0.2,0-0.4,0.1-0.4,0.2v1.9h-0.7v-3.8h0.7V25.6z"/>
		<path class="st18" d="M50,24.6c0-0.1,0-0.2,0.1-0.3c0.1-0.1,0.2-0.1,0.3-0.1c0.1,0,0.2,0,0.3,0.1c0.1,0.1,0.1,0.2,0.1,0.3
			c0,0.1,0,0.2-0.1,0.3s-0.2,0.1-0.3,0.1c-0.1,0-0.2,0-0.3-0.1C50,24.8,50,24.7,50,24.6z M50.8,27.9h-0.7v-2.6h0.7V27.9z"/>
		<path class="st18" d="M52.6,28c-0.4,0-0.7-0.1-0.9-0.4s-0.4-0.6-0.4-1v-0.1c0-0.3,0.1-0.5,0.2-0.7s0.2-0.4,0.4-0.5
			c0.2-0.1,0.4-0.2,0.6-0.2c0.4,0,0.6,0.1,0.9,0.3c0.2,0.2,0.3,0.6,0.3,1v0.3H52c0,0.2,0.1,0.3,0.2,0.4c0.1,0.1,0.3,0.2,0.4,0.2
			c0.3,0,0.5-0.1,0.6-0.3l0.3,0.4c-0.1,0.2-0.2,0.3-0.4,0.4S52.8,28,52.6,28z M52.5,25.8c-0.1,0-0.3,0-0.3,0.1
			C52.1,26,52,26.2,52,26.3h1v-0.1c0-0.2,0-0.3-0.1-0.4C52.7,25.8,52.6,25.8,52.5,25.8z"/>
		<path class="st18" d="M55.5,25.9c-0.1,0-0.2,0-0.3,0c-0.3,0-0.4,0.1-0.5,0.3v1.7H54v-2.6h0.7l0,0.3c0.1-0.2,0.3-0.4,0.6-0.4
			c0.1,0,0.2,0,0.2,0L55.5,25.9z"/>
		<path class="st18" d="M56.3,27.2c0.1,0,0.2,0,0.3,0.1c0.1,0.1,0.1,0.2,0.1,0.3c0,0.1,0,0.2-0.1,0.3c-0.1,0.1-0.2,0.1-0.3,0.1
			c-0.1,0-0.2,0-0.3-0.1c-0.1-0.1-0.1-0.2-0.1-0.3s0-0.2,0.1-0.3C56.1,27.2,56.2,27.2,56.3,27.2z M56.6,26.8H56l-0.1-2.5h0.8
			L56.6,26.8z"/>
	</g>
</g>
</svg>
