<?xml version="1.0" encoding="utf-8"?>
<!-- Generator: Adobe Illustrator 24.1.0, SVG Export Plug-In . SVG Version: 6.00 Build 0)  -->
<svg version="1.1" xmlns="http://www.w3.org/2000/svg" xmlns:xlink="http://www.w3.org/1999/xlink" x="0px" y="0px"
	 viewBox="0 0 86.5 34.9" style="enable-background:new 0 0 86.5 34.9;" xml:space="preserve">
<style type="text/css">
	.st0{display:none;}
	.st1{display:inline;}
	.st2{fill:#233738;}
	.st3{fill:#E6E6E6;}
	.st4{fill:#B4B4B4;}
	.st5{fill:#FFFFFF;}
	.st6{fill:#CBCBCB;}
	.st7{fill:#696969;}
	.st8{fill:#FF5141;}
	.st9{fill:#F1BB3F;}
	.st10{fill:#70CB43;}
	.st11{fill:#F1F1F1;}
	.st12{fill:#DBDBDB;}
	.st13{fill:#02A916;}
	.st14{fill:none;stroke:#26C485;stroke-width:0.75;stroke-miterlimit:10;}
	.st15{fill:none;}
	.st16{fill:#0B0033;}
	.st17{font-family:'Roboto-Bold';}
	.st18{font-size:5px;}
	.st19{fill:#26C485;}
</style>
<g id="Background_xA0_Bild_1_" class="st0">
	
		<image style="display:inline;overflow:visible;" width="3000" height="1800" id="Background_xA0_Bild" xlink:href="889277995CBB3DF3.jpg"  transform="matrix(0.24 0 0 0.24 -141.258 -120.2957)">
	</image>
</g>
<g id="Browser_04_1_" class="st0">
	<g id="Body" class="st1">
		<g>
			<path class="st2" d="M480.7,113H244.9c-1,0-1.7,0.8-1.7,1.7v179.9h239.2V114.7C482.4,113.8,481.6,113,480.7,113z"/>
		</g>
	</g>
	<g id="Tabs_7_" class="st1">
		<g id="Right">
			<g>
				<path class="st3" d="M381.4,120.4c-0.5-0.8-1.6-1.4-2.5-1.4h-58.2c-0.9,0-2,0.6-2.3,1.4l-5.7,11.9h75.8L381.4,120.4z"/>
			</g>
		</g>
		<g id="Close">
			<g>
				<path class="st4" d="M377,122c-0.6,0-1.1,0.5-1.1,1.1s0.5,1.1,1.1,1.1s1.1-0.5,1.1-1.1S377.6,122,377,122z M377.6,123.4
					l-0.3,0.2l-0.2-0.3l-0.3,0.3l-0.3-0.2l0.3-0.4l-0.3-0.4l0,0l0-0.1l0.1,0.1l0.3-0.2l0.2,0.3l0.2-0.3l0.3,0.2l-0.3,0.4
					L377.6,123.4z"/>
			</g>
		</g>
		<g id="Left">
			<g>
				<path class="st5" d="M312.5,120.4c-0.5-0.8-1.6-1.4-2.5-1.4h-58.2c-0.9,0-2,0.6-2.3,1.4l-5.7,11.9h75.8L312.5,120.4z"/>
			</g>
		</g>
		<g id="Close_1_">
			<g>
				<path class="st6" d="M308.6,122c-0.6,0-1.1,0.5-1.1,1.1s0.5,1.1,1.1,1.1c0.6,0,1.1-0.5,1.1-1.1S309.2,122,308.6,122z
					 M309.2,123.4l-0.3,0.2l-0.2-0.3l-0.3,0.3l-0.3-0.2l0.3-0.4l-0.3-0.4l0,0l0-0.1l0.1,0.1l0.3-0.2l0.2,0.3l0.2-0.3l0.3,0.2
					l-0.3,0.4L309.2,123.4z"/>
			</g>
		</g>
	</g>
	<g id="Navigation_7_" class="st1">
		<g id="Background_1_">
			<g>
				<rect x="243.2" y="130.6" class="st5" width="239.2" height="16.3"/>
			</g>
		</g>
		<g id="Left_1_">
			<g>
				<path class="st6" d="M255.7,138.4h-5.1l1.5-1.6c0.1-0.1,0.1-0.4,0-0.5c-0.1-0.1-0.4-0.1-0.5,0l-1.9,1.9
					c-0.1,0.1-0.2,0.3-0.2,0.5v0.1c0,0.2,0.1,0.4,0.2,0.5l1.9,1.9c0.1,0.1,0.4,0.1,0.5,0c0.1-0.1,0.1-0.4,0-0.5l-1.5-1.6h5.1
					c0.2,0,0.4-0.2,0.4-0.4v0C256.1,138.6,255.9,138.4,255.7,138.4z"/>
			</g>
		</g>
		<g id="Right_1_">
			<g>
				<path class="st6" d="M270.1,138.2l-1.9-1.9c-0.1-0.1-0.4-0.1-0.5,0c-0.1,0.1-0.1,0.4,0,0.5l1.5,1.6h-5.1c-0.2,0-0.4,0.2-0.4,0.4
					v0c0,0.2,0.2,0.4,0.4,0.4h5.1l-1.5,1.6c-0.1,0.1-0.1,0.4,0,0.5c0.1,0.1,0.4,0.1,0.5,0l1.9-1.9c0.1-0.1,0.2-0.3,0.2-0.5v-0.1
					C270.3,138.5,270.2,138.3,270.1,138.2z"/>
			</g>
		</g>
		<g id="Refresh">
			<g>
				<path class="st6" d="M284.1,139.1c0-0.1-0.1-0.2-0.2-0.2c0-0.1-0.1-0.2-0.2-0.2c-0.1,0-0.2,0.1-0.2,0.2c0,1.2-1,2.1-2.1,2.1
					c-0.5,0-1-0.2-1.4-0.6c-0.3-0.4-0.6-0.9-0.6-1.4c0-0.5,0.2-1,0.5-1.4c0.3-0.3,0.8-0.5,1.2-0.6v0.5c0,0.1,0,0.1,0.1,0.2
					c0,0,0.1,0,0.1,0c0,0,0.1,0,0.1,0l1.2-0.7c0,0,0.1-0.1,0.1-0.1l0.1,0c0.1,0,0.1-0.1,0.1-0.2c0-0.1,0-0.1-0.1-0.2l-0.1,0
					c0,0,0-0.1-0.1-0.1l-1.2-0.7c-0.1,0-0.1,0-0.2,0c-0.1,0-0.1,0.1-0.1,0.2v0.5c-1.3,0.1-2.3,1.2-2.3,2.5c0,0,0,0.1,0,0.1
					c0,0,0,0.1,0,0.1c0,1.4,1.1,2.5,2.5,2.5c0.7,0,1.4-0.3,1.9-0.8C283.8,140.5,284.1,139.8,284.1,139.1z"/>
			</g>
		</g>
		<g id="Settings">
			<g>
				<path class="st6" d="M477,136.3h-5.8c-0.2,0-0.4,0.2-0.4,0.4v0.1c0,0.2,0.2,0.4,0.4,0.4h5.8c0.2,0,0.4-0.2,0.4-0.4v-0.1
					C477.4,136.5,477.2,136.3,477,136.3z M477,138.2h-5.8c-0.2,0-0.4,0.2-0.4,0.4v0.1c0,0.2,0.2,0.4,0.4,0.4h5.8
					c0.2,0,0.4-0.2,0.4-0.4v-0.1C477.4,138.3,477.2,138.2,477,138.2z M477,140.1h-5.8c-0.2,0-0.4,0.2-0.4,0.4v0.1
					c0,0.2,0.2,0.4,0.4,0.4h5.8c0.2,0,0.4-0.2,0.4-0.4v-0.1C477.4,140.2,477.2,140.1,477,140.1z"/>
			</g>
		</g>
		<g id="Adress">
			<g>
				<path class="st3" d="M464.4,134.9H293.9c-0.4,0-0.7,0.3-0.7,0.7v6c0,0.4,0.3,0.7,0.7,0.7h170.5c0.4,0,0.7-0.3,0.7-0.7v-6
					C465.1,135.2,464.8,134.9,464.4,134.9z"/>
			</g>
		</g>
		<g id="http_3_">
			<g id="http:_x2F__x2F_www.yourwebsite.com_1_">
				<text transform="matrix(1 0 0 1 301.3982 139.6243)"><tspan x="0" y="0" style="fill:#ACACAC; font-family:'OpenSans'; font-size:3.6px;">http://www.</tspan><tspan x="18.3" y="0" class="st7" style="font-family:'OpenSans'; font-size:3.6px;">yourwebsite</tspan><tspan x="36.9" y="0" style="fill:#ACACAC; font-family:'OpenSans'; font-size:3.6px;">.com</tspan></text>
			</g>
			<g id="Icon">
				<g>
					<path class="st7" d="M299,137.4l-1.4-1.4c0,0-0.1,0-0.1,0h-2c-0.1,0-0.2,0.1-0.2,0.2v4.5c0,0.1,0.1,0.2,0.2,0.2h3.2
						c0.1,0,0.2-0.1,0.2-0.2L299,137.4C299,137.4,299,137.4,299,137.4z M297.6,136.4l0.9,0.9h-0.9V136.4z M298.8,140.7h-3.2v-4.5
						h1.9v1.2c0,0.1,0.1,0.1,0.1,0.1h1.2V140.7z"/>
				</g>
			</g>
		</g>
	</g>
	<g id="Caption_buttons_7_" class="st1">
		<g id="Ellipse">
			<g>
				<path class="st8" d="M474.2,119.5c-1.5,0-2.7,1.2-2.7,2.7c0,1.5,1.2,2.7,2.7,2.7s2.7-1.2,2.7-2.7
					C476.9,120.8,475.7,119.5,474.2,119.5z"/>
			</g>
		</g>
		<g id="Ellipse_2">
			<g>
				<path class="st9" d="M464.1,119.5c-1.5,0-2.7,1.2-2.7,2.7c0,1.5,1.2,2.7,2.7,2.7s2.7-1.2,2.7-2.7
					C466.8,120.8,465.6,119.5,464.1,119.5z"/>
			</g>
		</g>
		<g id="Ellipse_3">
			<g>
				<path class="st10" d="M454,119.5c-1.5,0-2.7,1.2-2.7,2.7c0,1.5,1.2,2.7,2.7,2.7c1.5,0,2.7-1.2,2.7-2.7
					C456.7,120.8,455.5,119.5,454,119.5z"/>
			</g>
		</g>
	</g>
	<g id="web_copy_xA0_Bild_1_" class="st1">
		
			<image style="overflow:visible;" width="997" height="616" id="web_copy_xA0_Bild" xlink:href="889277995CBB3DF1.png"  transform="matrix(0.24 0 0 0.24 243.222 146.8243)">
		</image>
	</g>
</g>
<g id="Browser_03_1_" class="st0">
	<g id="Body_1_" class="st1">
		<g>
			<path class="st11" d="M192.7,113H-43.1c-1,0-1.7,0.8-1.7,1.7v179.9h239.2V114.7C194.4,113.8,193.6,113,192.7,113z"/>
		</g>
	</g>
	<g id="Tabs_6_" class="st1">
		<g id="Right_2_">
			<g>
				<path class="st12" d="M93.4,120.4c-0.5-0.8-1.6-1.4-2.5-1.4H32.8c-0.9,0-2,0.6-2.3,1.4l-5.7,11.9h75.8L93.4,120.4z"/>
			</g>
		</g>
		<g id="Close_2_">
			<g>
				<path class="st4" d="M89,122c-0.6,0-1.1,0.5-1.1,1.1s0.5,1.1,1.1,1.1s1.1-0.5,1.1-1.1S89.6,122,89,122z M89.6,123.4l-0.3,0.2
					l-0.2-0.3l-0.3,0.3l-0.3-0.2l0.3-0.4l-0.3-0.4l0,0l0-0.1l0.1,0.1l0.3-0.2l0.2,0.3l0.2-0.3l0.3,0.2l-0.3,0.4L89.6,123.4z"/>
			</g>
		</g>
		<g id="Left_2_">
			<g>
				<path class="st3" d="M24.5,120.4c-0.5-0.8-1.6-1.4-2.5-1.4h-58.2c-0.9,0-2,0.6-2.3,1.4l-5.7,11.9h75.8L24.5,120.4z"/>
			</g>
		</g>
		<g id="Close_3_">
			<g>
				<path class="st6" d="M20.6,122c-0.6,0-1.1,0.5-1.1,1.1s0.5,1.1,1.1,1.1c0.6,0,1.1-0.5,1.1-1.1S21.2,122,20.6,122z M21.2,123.4
					l-0.3,0.2l-0.2-0.3l-0.3,0.3l-0.3-0.2l0.3-0.4l-0.3-0.4l0,0l0-0.1l0.1,0.1l0.3-0.2l0.2,0.3l0.2-0.3l0.3,0.2l-0.3,0.4L21.2,123.4
					z"/>
			</g>
		</g>
	</g>
	<g id="Navigation_6_" class="st1">
		<g id="Background_2_">
			<g>
				<rect x="-44.8" y="130.6" class="st3" width="239.2" height="16.3"/>
			</g>
		</g>
		<g id="Left_3_">
			<g>
				<path class="st6" d="M-32.3,138.4h-5.1l1.5-1.6c0.1-0.1,0.1-0.4,0-0.5c-0.1-0.1-0.4-0.1-0.5,0l-1.9,1.9
					c-0.1,0.1-0.2,0.3-0.2,0.5v0.1c0,0.2,0.1,0.4,0.2,0.5l1.9,1.9c0.1,0.1,0.4,0.1,0.5,0c0.1-0.1,0.1-0.4,0-0.5l-1.5-1.6h5.1
					c0.2,0,0.4-0.2,0.4-0.4v0C-31.9,138.6-32.1,138.4-32.3,138.4z"/>
			</g>
		</g>
		<g id="Right_3_">
			<g>
				<path class="st6" d="M-17.9,138.2l-1.9-1.9c-0.1-0.1-0.4-0.1-0.5,0c-0.1,0.1-0.1,0.4,0,0.5l1.5,1.6h-5.1c-0.2,0-0.4,0.2-0.4,0.4
					v0c0,0.2,0.2,0.4,0.4,0.4h5.1l-1.5,1.6c-0.1,0.1-0.1,0.4,0,0.5c0.1,0.1,0.4,0.1,0.5,0l1.9-1.9c0.1-0.1,0.2-0.3,0.2-0.5v-0.1
					C-17.7,138.5-17.8,138.3-17.9,138.2z"/>
			</g>
		</g>
		<g id="Refresh_1_">
			<g>
				<path class="st6" d="M-3.9,139.1c0-0.1-0.1-0.2-0.2-0.2c0-0.1-0.1-0.2-0.2-0.2c-0.1,0-0.2,0.1-0.2,0.2c0,1.2-1,2.1-2.1,2.1
					c-0.5,0-1-0.2-1.4-0.6c-0.3-0.4-0.6-0.9-0.6-1.4c0-0.5,0.2-1,0.5-1.4c0.3-0.3,0.8-0.5,1.2-0.6v0.5c0,0.1,0,0.1,0.1,0.2
					c0,0,0.1,0,0.1,0c0,0,0.1,0,0.1,0l1.2-0.7c0,0,0.1-0.1,0.1-0.1l0.1,0c0.1,0,0.1-0.1,0.1-0.2c0-0.1,0-0.1-0.1-0.2l-0.1,0
					c0,0,0-0.1-0.1-0.1l-1.2-0.7c-0.1,0-0.1,0-0.2,0s-0.1,0.1-0.1,0.2v0.5c-1.3,0.1-2.3,1.2-2.3,2.5c0,0,0,0.1,0,0.1
					c0,0,0,0.1,0,0.1c0,1.4,1.1,2.5,2.5,2.5c0.7,0,1.4-0.3,1.9-0.8C-4.2,140.5-3.9,139.8-3.9,139.1z"/>
			</g>
		</g>
		<g id="Settings_1_">
			<g>
				<path class="st6" d="M189,136.3h-5.8c-0.2,0-0.4,0.2-0.4,0.4v0.1c0,0.2,0.2,0.4,0.4,0.4h5.8c0.2,0,0.4-0.2,0.4-0.4v-0.1
					C189.4,136.5,189.2,136.3,189,136.3z M189,138.2h-5.8c-0.2,0-0.4,0.2-0.4,0.4v0.1c0,0.2,0.2,0.4,0.4,0.4h5.8
					c0.2,0,0.4-0.2,0.4-0.4v-0.1C189.4,138.3,189.2,138.2,189,138.2z M189,140.1h-5.8c-0.2,0-0.4,0.2-0.4,0.4v0.1
					c0,0.2,0.2,0.4,0.4,0.4h5.8c0.2,0,0.4-0.2,0.4-0.4v-0.1C189.4,140.2,189.2,140.1,189,140.1z"/>
			</g>
		</g>
		<g id="Adress_1_">
			<g>
				<path class="st5" d="M176.4,134.9H5.9c-0.4,0-0.7,0.3-0.7,0.7v6c0,0.4,0.3,0.7,0.7,0.7h170.5c0.4,0,0.7-0.3,0.7-0.7v-6
					C177.1,135.2,176.8,134.9,176.4,134.9z"/>
			</g>
		</g>
		<g id="https_3_">
			<g id="https:_x2F__x2F_www.yourwebsite.com_1_">
				<text transform="matrix(1 0 0 1 13.3977 139.6243)"><tspan x="0" y="0" style="fill:#ACACAC; font-family:'OpenSans'; font-size:3.6px;">https://www.</tspan><tspan x="19.8" y="0" class="st7" style="font-family:'OpenSans'; font-size:3.6px;">yourwebsite</tspan><tspan x="38.4" y="0" style="fill:#ACACAC; font-family:'OpenSans'; font-size:3.6px;">.com</tspan></text>
			</g>
			<g id="Icon_1_">
				<g>
					<path class="st13" d="M10.4,138.2v-0.9c0-0.7-0.5-1.2-1.2-1.2s-1.2,0.5-1.2,1.2v0.9c-0.2,0-0.5,0.2-0.5,0.5v1.8
						c0,0.3,0.2,0.5,0.5,0.5h2.4c0.2,0,0.5-0.2,0.5-0.5v-1.8C10.8,138.4,10.6,138.2,10.4,138.2z M8.2,137.2c0-0.5,0.4-0.9,0.9-0.9
						s0.9,0.4,0.9,0.9v0.9H8.2V137.2z M10.5,140.5c0,0.1-0.1,0.2-0.2,0.2H7.9c-0.1,0-0.2-0.1-0.2-0.2v-1.8c0-0.1,0.1-0.2,0.2-0.2
						h2.4c0.1,0,0.2,0.1,0.2,0.2V140.5z M9.3,139.1c0-0.1-0.1-0.2-0.2-0.2c-0.1,0-0.2,0.1-0.2,0.2v0.3c-0.1,0.1-0.2,0.2-0.2,0.3
						c0,0.2,0.1,0.3,0.3,0.3c0.2,0,0.3-0.1,0.3-0.3c0-0.1-0.1-0.2-0.2-0.3V139.1z"/>
				</g>
			</g>
		</g>
	</g>
	<g id="Caption_buttons_6_" class="st1">
		<g id="Ellipse_1_">
			<g>
				<path class="st8" d="M186.2,119.5c-1.5,0-2.7,1.2-2.7,2.7c0,1.5,1.2,2.7,2.7,2.7s2.7-1.2,2.7-2.7
					C188.9,120.8,187.7,119.5,186.2,119.5z"/>
			</g>
		</g>
		<g id="Ellipse_2_1_">
			<g>
				<path class="st9" d="M176.1,119.5c-1.5,0-2.7,1.2-2.7,2.7c0,1.5,1.2,2.7,2.7,2.7c1.5,0,2.7-1.2,2.7-2.7
					C178.8,120.8,177.6,119.5,176.1,119.5z"/>
			</g>
		</g>
		<g id="Ellipse_3_1_">
			<g>
				<path class="st10" d="M166,119.5c-1.5,0-2.7,1.2-2.7,2.7c0,1.5,1.2,2.7,2.7,2.7s2.7-1.2,2.7-2.7
					C168.7,120.8,167.5,119.5,166,119.5z"/>
			</g>
		</g>
	</g>
	<g id="web_xA0_Bild_3_" class="st1">
		
			<image style="overflow:visible;" width="997" height="616" id="web_xA0_Bild_2_" xlink:href="889277995CBB3DF7.png"  transform="matrix(0.24 0 0 0.24 -44.778 146.8243)">
		</image>
	</g>
</g>
<g id="Browser_02_1_" class="st0">
	<g id="Body_2_" class="st1">
		<g>
			<path class="st2" d="M480.7-102.9H244.9c-1,0-1.7,0.8-1.7,1.7V78.7h239.2v-179.9C482.4-102.1,481.6-102.9,480.7-102.9z"/>
		</g>
	</g>
	<g id="Tabs_5_" class="st1">
		<g id="Right_4_">
			<g>
				<path class="st3" d="M417.9-95.4c-0.5-0.8-1.6-1.4-2.5-1.4h-58.2c-0.9,0-2,0.6-2.3,1.4l-5.7,11.9h75.8L417.9-95.4z"/>
			</g>
		</g>
		<g id="Close_4_">
			<g>
				<path class="st4" d="M358.1-93.9c-0.6,0-1.1,0.5-1.1,1.1c0,0.6,0.5,1.1,1.1,1.1c0.6,0,1.1-0.5,1.1-1.1
					C359.2-93.4,358.7-93.9,358.1-93.9z M358.7-92.4l-0.3,0.2l-0.2-0.3l-0.3,0.3l-0.3-0.2l0.3-0.4l-0.3-0.4l0,0l0-0.1l0.1,0.1
					l0.3-0.2l0.2,0.3l0.2-0.3l0.3,0.2l-0.3,0.4L358.7-92.4z"/>
			</g>
		</g>
		<g id="Left_4_">
			<g>
				<path class="st5" d="M348.9-95.4c-0.5-0.8-1.6-1.4-2.5-1.4h-58.2c-0.9,0-2,0.6-2.3,1.4l-5.7,11.9H356L348.9-95.4z"/>
			</g>
		</g>
		<g id="Close_5_">
			<g>
				<path class="st6" d="M289.7-93.9c-0.6,0-1.1,0.5-1.1,1.1c0,0.6,0.5,1.1,1.1,1.1c0.6,0,1.1-0.5,1.1-1.1
					C290.8-93.4,290.3-93.9,289.7-93.9z M290.3-92.4l-0.3,0.2l-0.2-0.3l-0.3,0.3l-0.3-0.2l0.3-0.4l-0.3-0.4l0,0l0-0.1l0.1,0.1
					l0.3-0.2l0.2,0.3l0.2-0.3l0.3,0.2l-0.3,0.4L290.3-92.4z"/>
			</g>
		</g>
	</g>
	<g id="Navigation_5_" class="st1">
		<g id="Background_3_">
			<g>
				<rect x="243.2" y="-85.3" class="st5" width="239.2" height="16.3"/>
			</g>
		</g>
		<g id="Left_5_">
			<g>
				<path class="st6" d="M255.7-77.5h-5.1l1.5-1.6c0.1-0.1,0.1-0.4,0-0.5c-0.1-0.1-0.4-0.1-0.5,0l-1.9,1.9c-0.1,0.1-0.2,0.3-0.2,0.5
					v0.1c0,0.2,0.1,0.4,0.2,0.5l1.9,1.9c0.1,0.1,0.4,0.1,0.5,0c0.1-0.1,0.1-0.4,0-0.5l-1.5-1.6h5.1c0.2,0,0.4-0.2,0.4-0.4v0
					C256.1-77.3,255.9-77.5,255.7-77.5z"/>
			</g>
		</g>
		<g id="Right_5_">
			<g>
				<path class="st6" d="M270.1-77.6l-1.9-1.9c-0.1-0.1-0.4-0.1-0.5,0c-0.1,0.1-0.1,0.4,0,0.5l1.5,1.6h-5.1c-0.2,0-0.4,0.2-0.4,0.4
					v0c0,0.2,0.2,0.4,0.4,0.4h5.1l-1.5,1.6c-0.1,0.1-0.1,0.4,0,0.5c0.1,0.1,0.4,0.1,0.5,0l1.9-1.9c0.1-0.1,0.2-0.3,0.2-0.5v-0.1
					C270.3-77.3,270.2-77.5,270.1-77.6z"/>
			</g>
		</g>
		<g id="Refresh_2_">
			<g>
				<path class="st6" d="M284.1-76.7c0-0.1-0.1-0.2-0.2-0.2c0-0.1-0.1-0.2-0.2-0.2c-0.1,0-0.2,0.1-0.2,0.2c0,1.2-1,2.1-2.1,2.1
					c-0.5,0-1-0.2-1.4-0.6c-0.3-0.4-0.6-0.9-0.6-1.4c0-0.5,0.2-1,0.5-1.4c0.3-0.3,0.8-0.5,1.2-0.6v0.5c0,0.1,0,0.1,0.1,0.2
					c0,0,0.1,0,0.1,0c0,0,0.1,0,0.1,0l1.2-0.7c0,0,0.1-0.1,0.1-0.1l0.1,0c0.1,0,0.1-0.1,0.1-0.2c0-0.1,0-0.1-0.1-0.2l-0.1,0
					c0,0,0-0.1-0.1-0.1l-1.2-0.7c-0.1,0-0.1,0-0.2,0c-0.1,0-0.1,0.1-0.1,0.2v0.5c-1.3,0.1-2.3,1.2-2.3,2.5c0,0,0,0.1,0,0.1
					c0,0,0,0.1,0,0.1c0,1.4,1.1,2.5,2.5,2.5c0.7,0,1.4-0.3,1.9-0.8C283.8-75.4,284.1-76,284.1-76.7z"/>
			</g>
		</g>
		<g id="Settings_2_">
			<g>
				<path class="st6" d="M477-79.5h-5.8c-0.2,0-0.4,0.2-0.4,0.4v0.1c0,0.2,0.2,0.4,0.4,0.4h5.8c0.2,0,0.4-0.2,0.4-0.4v-0.1
					C477.4-79.4,477.2-79.5,477-79.5z M477-77.7h-5.8c-0.2,0-0.4,0.2-0.4,0.4v0.1c0,0.2,0.2,0.4,0.4,0.4h5.8c0.2,0,0.4-0.2,0.4-0.4
					v-0.1C477.4-77.5,477.2-77.7,477-77.7z M477-75.8h-5.8c-0.2,0-0.4,0.2-0.4,0.4v0.1c0,0.2,0.2,0.4,0.4,0.4h5.8
					c0.2,0,0.4-0.2,0.4-0.4v-0.1C477.4-75.6,477.2-75.8,477-75.8z"/>
			</g>
		</g>
		<g id="Adress_2_">
			<g>
				<path class="st3" d="M464.4-81H293.9c-0.4,0-0.7,0.3-0.7,0.7v6c0,0.4,0.3,0.7,0.7,0.7h170.5c0.4,0,0.7-0.3,0.7-0.7v-6
					C465.1-80.7,464.8-81,464.4-81z"/>
			</g>
		</g>
		<g id="http_2_">
			<g id="http:_x2F__x2F_www.yourwebsite.com">
				<text transform="matrix(1 0 0 1 301.3982 -76.2317)"><tspan x="0" y="0" style="fill:#ACACAC; font-family:'OpenSans'; font-size:3.6px;">http://www.</tspan><tspan x="18.3" y="0" class="st7" style="font-family:'OpenSans'; font-size:3.6px;">yourwebsite</tspan><tspan x="36.9" y="0" style="fill:#ACACAC; font-family:'OpenSans'; font-size:3.6px;">.com</tspan></text>
			</g>
			<g id="Icon_2_">
				<g>
					<path class="st7" d="M299-78.5l-1.4-1.4c0,0-0.1,0-0.1,0h-2c-0.1,0-0.2,0.1-0.2,0.2v4.5c0,0.1,0.1,0.2,0.2,0.2h3.2
						c0.1,0,0.2-0.1,0.2-0.2L299-78.5C299-78.4,299-78.4,299-78.5z M297.6-79.4l0.9,0.9h-0.9V-79.4z M298.8-75.2h-3.2v-4.5h1.9v1.2
						c0,0.1,0.1,0.1,0.1,0.1h1.2V-75.2z"/>
				</g>
			</g>
		</g>
	</g>
	<g id="Caption_buttons_5_" class="st1">
		<g id="Ellipse_2_">
			<g>
				<path class="st8" d="M251.5-96.3c-1.5,0-2.7,1.2-2.7,2.7s1.2,2.7,2.7,2.7c1.5,0,2.7-1.2,2.7-2.7S253-96.3,251.5-96.3z"/>
			</g>
		</g>
		<g id="Ellipse_2_2_">
			<g>
				<circle class="st9" cx="261.6" cy="-93.6" r="2.7"/>
			</g>
		</g>
		<g id="Ellipse_3_2_">
			<g>
				<circle class="st10" cx="271.6" cy="-93.6" r="2.7"/>
			</g>
		</g>
	</g>
	<g id="web_xA0_Bild_1_" class="st1">
		
			<image style="overflow:visible;" width="997" height="616" id="web_xA0_Bild" xlink:href="889277995CBB3DF0.png"  transform="matrix(0.24 0 0 0.24 243.222 -68.9357)">
		</image>
	</g>
</g>
<g id="Browser_01_1_">
	<g id="Body_3_">
		<g>
			<path class="st11" d="M192.7-102.9H-43.1c-1,0-1.7,0.3-1.7,0.6v62.4h239.2v-62.4C194.4-102.6,193.6-102.9,192.7-102.9z"/>
		</g>
	</g>
	<g id="Tabs_4_">
		<g id="Right_6_">
			<g>
				<path class="st12" d="M129.9-95.4c-0.5-0.8-1.6-1.4-2.5-1.4H69.2c-0.9,0-2,0.6-2.3,1.4l-5.7,11.9h75.8L129.9-95.4z"/>
			</g>
		</g>
		<g id="Left_6_">
			<g>
				<path class="st3" d="M60.9-95.4c-0.5-0.8-1.6-1.4-2.5-1.4H0.3c-0.9,0-2,0.6-2.3,1.4l-5.7,11.9H68L60.9-95.4z"/>
			</g>
		</g>
	</g>
	<g id="Navigation_4_">
		<g id="Background_4_">
			<g>
				<rect x="-44.8" y="-85.3" class="st3" width="239.2" height="16.3"/>
			</g>
		</g>
		<g id="Left_7_">
			<g>
				<path class="st6" d="M-32.3-77.5h-5.1l1.5-1.6c0.1-0.1,0.1-0.4,0-0.5c-0.1-0.1-0.4-0.1-0.5,0l-1.9,1.9c-0.1,0.1-0.2,0.3-0.2,0.5
					v0.1c0,0.2,0.1,0.4,0.2,0.5l1.9,1.9c0.1,0.1,0.4,0.1,0.5,0c0.1-0.1,0.1-0.4,0-0.5l-1.5-1.6h5.1c0.2,0,0.4-0.2,0.4-0.4v0
					C-31.9-77.3-32.1-77.5-32.3-77.5z"/>
			</g>
		</g>
		<g id="Right_7_">
			<g>
				<path class="st6" d="M-17.9-77.6l-1.9-1.9c-0.1-0.1-0.4-0.1-0.5,0c-0.1,0.1-0.1,0.4,0,0.5l1.5,1.6h-5.1c-0.2,0-0.4,0.2-0.4,0.4
					v0c0,0.2,0.2,0.4,0.4,0.4h5.1l-1.5,1.6c-0.1,0.1-0.1,0.4,0,0.5c0.1,0.1,0.4,0.1,0.5,0l1.9-1.9c0.1-0.1,0.2-0.3,0.2-0.5v-0.1
					C-17.7-77.3-17.8-77.5-17.9-77.6z"/>
			</g>
		</g>
		<g id="Refresh_3_">
			<g>
				<path class="st6" d="M-3.9-76.7c0-0.1-0.1-0.2-0.2-0.2c0-0.1-0.1-0.2-0.2-0.2c-0.1,0-0.2,0.1-0.2,0.2c0,1.2-1,2.1-2.1,2.1
					c-0.5,0-1-0.2-1.4-0.6c-0.3-0.4-0.6-0.9-0.6-1.4c0-0.5,0.2-1,0.5-1.4c0.3-0.3,0.8-0.5,1.2-0.6v0.5c0,0.1,0,0.1,0.1,0.2
					c0,0,0.1,0,0.1,0c0,0,0.1,0,0.1,0l1.2-0.7c0,0,0.1-0.1,0.1-0.1l0.1,0C-5-78.9-5-79-5-79.1c0-0.1,0-0.1-0.1-0.2l-0.1,0
					c0,0,0-0.1-0.1-0.1l-1.2-0.7c-0.1,0-0.1,0-0.2,0s-0.1,0.1-0.1,0.2v0.5c-1.3,0.1-2.3,1.2-2.3,2.5c0,0,0,0.1,0,0.1
					c0,0,0,0.1,0,0.1c0,1.4,1.1,2.5,2.5,2.5c0.7,0,1.4-0.3,1.9-0.8C-4.2-75.4-3.9-76-3.9-76.7z"/>
			</g>
		</g>
		<g id="Settings_3_">
			<g>
				<path class="st6" d="M189-79.5h-5.8c-0.2,0-0.4,0.2-0.4,0.4v0.1c0,0.2,0.2,0.4,0.4,0.4h5.8c0.2,0,0.4-0.2,0.4-0.4v-0.1
					C189.4-79.4,189.2-79.5,189-79.5z M189-77.7h-5.8c-0.2,0-0.4,0.2-0.4,0.4v0.1c0,0.2,0.2,0.4,0.4,0.4h5.8c0.2,0,0.4-0.2,0.4-0.4
					v-0.1C189.4-77.5,189.2-77.7,189-77.7z M189-75.8h-5.8c-0.2,0-0.4,0.2-0.4,0.4v0.1c0,0.2,0.2,0.4,0.4,0.4h5.8
					c0.2,0,0.4-0.2,0.4-0.4v-0.1C189.4-75.6,189.2-75.8,189-75.8z"/>
			</g>
		</g>
		<g id="Adress_3_">
			<g>
				<path class="st5" d="M176.4-81H5.9c-0.4,0-0.7,0.3-0.7,0.7v6c0,0.4,0.3,0.7,0.7,0.7h170.5c0.4,0,0.7-0.3,0.7-0.7v-6
					C177.1-80.7,176.8-81,176.4-81z"/>
			</g>
		</g>
		<g id="https_2_">
			<g id="https:_x2F__x2F_www.yourwebsite.com">
			</g>
			<g id="Icon_3_">
				<g>
					<path class="st13" d="M9.3-76.8c0-0.1-0.1-0.2-0.2-0.2c-0.1,0-0.2,0.1-0.2,0.2v0.3c-0.1,0.1-0.2,0.2-0.2,0.3
						c0,0.2,0.1,0.3,0.3,0.3c0.2,0,0.3-0.1,0.3-0.3c0-0.1-0.1-0.2-0.2-0.3V-76.8z M10.4-77.7v-0.9c0-0.7-0.5-1.2-1.2-1.2
						s-1.2,0.5-1.2,1.2v0.9c-0.2,0-0.5,0.2-0.5,0.5v1.8c0,0.3,0.2,0.5,0.5,0.5h2.4c0.2,0,0.5-0.2,0.5-0.5v-1.8
						C10.8-77.5,10.6-77.7,10.4-77.7z M8.2-78.6c0-0.5,0.4-0.9,0.9-0.9s0.9,0.4,0.9,0.9v0.9H8.2V-78.6z M10.5-75.4
						c0,0.1-0.1,0.2-0.2,0.2H7.9c-0.1,0-0.2-0.1-0.2-0.2v-1.8c0-0.1,0.1-0.2,0.2-0.2h2.4c0.1,0,0.2,0.1,0.2,0.2V-75.4z"/>
				</g>
			</g>
		</g>
	</g>
	<g id="Caption_buttons_4_">
		<g id="Ellipse_3_">
			<g>
				<circle class="st8" cx="-36.5" cy="-93.6" r="2.7"/>
			</g>
		</g>
		<g id="Ellipse_2_3_">
			<g>
				<circle class="st9" cx="-26.4" cy="-93.6" r="2.7"/>
			</g>
		</g>
		<g id="Ellipse_3_3_">
			<g>
				<path class="st10" d="M-16.4-96.3c-1.5,0-2.7,1.2-2.7,2.7s1.2,2.7,2.7,2.7s2.7-1.2,2.7-2.7S-14.9-96.3-16.4-96.3z"/>
			</g>
		</g>
	</g>
	<g id="Place_your_image_here_xA0_Bild_1_" class="st0">
		
			<image style="display:inline;overflow:visible;" width="997" height="616" id="Place_your_image_here_xA0_Bild" xlink:href="889277995CBB3DF3.png"  transform="matrix(0.24 0 0 0.24 -44.778 -68.9357)">
		</image>
	</g>
	<rect x="-36.8" y="-0.5" class="st15" width="16.6" height="18.2"/>
	<text transform="matrix(1 0 0 1 -36.8257 9.2833)" class="st19 st17" style="font-size:13px;">2</text>
	<circle class="st14" cx="-33" cy="4.9" r="8.4"/>
	<path class="st12" d="M24.6-60.4h49.8c2.1,0,3.7,1.7,3.7,3.7v9.4c0,2.1-1.7,3.7-3.7,3.7H1.6c-2.1,0-3.7-1.7-3.7-3.7v-9.4
		c0-2.1,1.7-3.7,3.7-3.7l7.6,0L8.8-71.3L24.6-60.4"/>
	<path class="st12" d="M24.6-60.4"/>
	<rect x="1.4" y="-57" class="st15" width="75.9" height="10.6"/>
	<text transform="matrix(1 0 0 1 1.3797 -53.9583)"><tspan x="0" y="0" class="st17" style="font-size:4px;">Möchtest Du happyhamster.org Zugriff </tspan><tspan x="0" y="6" class="st17" style="font-size:4px;">auf Deinen Standort erlauben?</tspan></text>
	<rect x="13.2" y="-79.6" class="st15" width="82.9" height="12.2"/>
	<text transform="matrix(1 0 0 1 13.1961 -75.8695)" class="st17 st18">happyhamster.org</text>
	<rect x="15.7" y="4.7" class="st15" width="80.2" height="11.3"/>
	<text transform="matrix(1 0 0 1 15.6929 8.4013)"><tspan x="0" y="0" class="st16 st17 st18">Wähle Deinen Supermarkt </tspan><tspan x="0" y="6" class="st16 st17 st18">auf der Karte aus</tspan></text>
	<g>
		<g>
			<path class="st19" d="M7.2,2.9c-2.3,0-4.1,1.8-4.1,4.1c0,0.9,0.5,2.3,1.7,4.3c0.8,1.4,1.6,2.6,1.6,2.6l0.6,0.9
				c0.1,0.1,0.2,0.1,0.3,0.1s0.2-0.1,0.3-0.1L8,13.9c0,0,0.8-1.2,1.6-2.6c1.1-2.1,1.7-3.4,1.7-4.3C11.3,4.7,9.4,2.9,7.2,2.9z
				 M9.1,11c-0.8,1.4-1.5,2.5-1.6,2.6L7.2,14l-0.3-0.5c0,0-0.8-1.2-1.6-2.6c-1.1-1.9-1.6-3.3-1.6-4c0-1.9,1.6-3.5,3.5-3.5
				s3.5,1.6,3.5,3.5C10.7,7.7,10.1,9.1,9.1,11z"/>
			<path class="st19" d="M7.2,4.7c-1.3,0-2.3,1-2.3,2.3s1,2.3,2.3,2.3s2.3-1,2.3-2.3S8.4,4.7,7.2,4.7z M7.2,8.6
				c-0.9,0-1.7-0.7-1.7-1.7s0.7-1.7,1.7-1.7c0.9,0,1.7,0.7,1.7,1.7S8.1,8.6,7.2,8.6z"/>
		</g>
	</g>
	<path class="st14" d="M81.4,31.8H5.7c-1.1,0-2-0.9-2-2v-7.2c0-1.1,0.9-2,2-2h75.7c1.1,0,2,0.9,2,2v7.2
		C83.3,30.9,82.4,31.8,81.4,31.8z"/>
	<rect x="7.2" y="24.2" class="st15" width="73.3" height="6.6"/>
	<text transform="matrix(1 0 0 1 30.6559 27.9084)" class="st19 st17 st18">Ich bin hier!</text>
</g>
</svg>
